<?xml version="1.0" encoding="UTF-8" standalone="no"?>
<!DOCTYPE svg PUBLIC "-//W3C//DTD SVG 1.1//EN"
 "http://www.w3.org/Graphics/SVG/1.1/DTD/svg11.dtd">
<!-- Generated by graphviz version 2.26.3 (20100126.1600)
 -->
<!-- Title: model Pages: 1 -->
<svg width="396pt" height="236pt"
 viewBox="0.00 0.00 396.00 236.00" xmlns="http://www.w3.org/2000/svg" xmlns:xlink="http://www.w3.org/1999/xlink">
<g id="graph1" class="graph" transform="scale(1 1) rotate(0) translate(4 232)">
<title>model</title>
<text text-anchor="middle" x="194" y="-9.4" font-family="Times Roman,serif" font-size="14.00">TXE</text>
<g id="graph2" class="cluster"><title>cluster_vintage</title>
<a xlink:href="../simple_model.svg" xlink:title="Vintages">
<polygon fill="lightgrey" stroke="lightgrey" points="100,-34 100,-220 184,-220 184,-34 100,-34"/>
<text text-anchor="middle" x="142" y="-203.4" font-family="Times Roman,serif" font-size="14.00">Vintages</text>
</a>
</g>
<g id="graph3" class="cluster"><title>cluster_period</title>
<a xlink:href="../simple_model.svg" xlink:title="Period">
<polygon fill="lightgrey" stroke="lightgrey" points="214,-34 214,-220 298,-220 298,-34 214,-34"/>
<text text-anchor="middle" x="256" y="-203.4" font-family="Times Roman,serif" font-size="14.00">Period</text>
</a>
</g>
<!-- v_1990 -->
<g id="node2" class="node"><title>v_1990</title>
<polygon fill="white" stroke="white" points="176,-186 108,-186 108,-150 176,-150 176,-186"/>
<text text-anchor="middle" x="142" y="-164.4" font-family="Times Roman,serif" font-size="14.00">v_1990</text>
</g>
<!-- p_1990 -->
<g id="node6" class="node"><title>p_1990</title>
<polygon fill="white" stroke="white" points="290,-186 222,-186 222,-150 290,-150 290,-186"/>
<text text-anchor="middle" x="256" y="-164.4" font-family="Times Roman,serif" font-size="14.00">p_1990</text>
</g>
<!-- v_1990&#45;&gt;p_1990 -->
<g id="edge11" class="edge"><title>v_1990&#45;&gt;p_1990</title>
<path fill="none" stroke="gold" d="M186.316,-168C194.607,-168 203.275,-168 211.57,-168"/>
<polygon fill="gold" stroke="gold" points="186.204,-164.5 176.204,-168 186.204,-171.5 186.204,-164.5"/>
<polygon fill="gold" stroke="gold" points="221.82,-168 211.82,-172.5 216.82,-168 211.82,-168 211.82,-168 211.82,-168 216.82,-168 211.82,-163.5 221.82,-168 221.82,-168"/>
<text text-anchor="middle" x="199" y="-180.8" font-family="Times Roman,serif" font-size="8.00"> &#160;&#160;</text>
</g>
<!-- p_2000 -->
<g id="node7" class="node"><title>p_2000</title>
<polygon fill="white" stroke="white" points="290,-132 222,-132 222,-96 290,-96 290,-132"/>
<text text-anchor="middle" x="256" y="-110.4" font-family="Times Roman,serif" font-size="14.00">p_2000</text>
</g>
<!-- v_1990&#45;&gt;p_2000 -->
<g id="edge13" class="edge"><title>v_1990&#45;&gt;p_2000</title>
<path fill="none" stroke="red" d="M185.246,-147.515C194.226,-143.261 203.691,-138.778 212.674,-134.523"/>
<polygon fill="red" stroke="red" points="183.743,-144.354 176.204,-151.798 186.739,-150.68 183.743,-144.354"/>
<polygon fill="red" stroke="red" points="221.82,-130.19 214.709,-138.538 217.302,-132.331 212.783,-134.471 212.783,-134.471 212.783,-134.471 217.302,-132.331 210.857,-130.404 221.82,-130.19 221.82,-130.19"/>
<text text-anchor="middle" x="199" y="-145.8" font-family="Times Roman,serif" font-size="8.00"> &#160;&#160;</text>
</g>
<!-- v_2000 -->
<g id="node3" class="node"><title>v_2000</title>
<polygon fill="white" stroke="white" points="176,-132 108,-132 108,-96 176,-96 176,-132"/>
<text text-anchor="middle" x="142" y="-110.4" font-family="Times Roman,serif" font-size="14.00">v_2000</text>
</g>
<!-- v_2000&#45;&gt;p_2000 -->
<g id="edge15" class="edge"><title>v_2000&#45;&gt;p_2000</title>
<path fill="none" stroke="blue" d="M186.316,-114C194.607,-114 203.275,-114 211.57,-114"/>
<polygon fill="blue" stroke="blue" points="186.204,-110.5 176.204,-114 186.204,-117.5 186.204,-110.5"/>
<polygon fill="blue" stroke="blue" points="221.82,-114 211.82,-118.5 216.82,-114 211.82,-114 211.82,-114 211.82,-114 216.82,-114 211.82,-109.5 221.82,-114 221.82,-114"/>
<text text-anchor="middle" x="199" y="-116.8" font-family="Times Roman,serif" font-size="8.00"> &#160;&#160;</text>
</g>
<!-- p_2010 -->
<g id="node8" class="node"><title>p_2010</title>
<polygon fill="white" stroke="white" points="290,-78 222,-78 222,-42 290,-42 290,-78"/>
<text text-anchor="middle" x="256" y="-56.4" font-family="Times Roman,serif" font-size="14.00">p_2010</text>
</g>
<!-- v_2000&#45;&gt;p_2010 -->
<g id="edge17" class="edge"><title>v_2000&#45;&gt;p_2010</title>
<path fill="none" stroke="green" d="M185.246,-93.5151C194.226,-89.2613 203.691,-84.7781 212.674,-80.5229"/>
<polygon fill="green" stroke="green" points="183.743,-90.3542 176.204,-97.7982 186.739,-96.6804 183.743,-90.3542"/>
<polygon fill="green" stroke="green" points="221.82,-76.1903 214.709,-84.5381 217.302,-78.3308 212.783,-80.4713 212.783,-80.4713 212.783,-80.4713 217.302,-78.3308 210.857,-76.4044 221.82,-76.1903 221.82,-76.1903"/>
<text text-anchor="middle" x="199" y="-91.8" font-family="Times Roman,serif" font-size="8.00"> &#160;&#160;</text>
</g>
<!-- v_2010 -->
<g id="node4" class="node"><title>v_2010</title>
<polygon fill="white" stroke="white" points="176,-78 108,-78 108,-42 176,-42 176,-78"/>
<text text-anchor="middle" x="142" y="-56.4" font-family="Times Roman,serif" font-size="14.00">v_2010</text>
</g>
<!-- v_2010&#45;&gt;p_2010 -->
<g id="edge19" class="edge"><title>v_2010&#45;&gt;p_2010</title>
<path fill="none" stroke="orange" d="M186.316,-60C194.607,-60 203.275,-60 211.57,-60"/>
<polygon fill="orange" stroke="orange" points="186.204,-56.5001 176.204,-60 186.204,-63.5001 186.204,-56.5001"/>
<polygon fill="orange" stroke="orange" points="221.82,-60 211.82,-64.5001 216.82,-60 211.82,-60.0001 211.82,-60.0001 211.82,-60.0001 216.82,-60 211.82,-55.5001 221.82,-60 221.82,-60"/>
<text text-anchor="middle" x="199" y="-62.8" font-family="Times Roman,serif" font-size="8.00"> &#160;&#160;</text>
</g>
<!-- TX -->
<g id="node10" class="node"><title>TX</title>
<a xlink:href="../commodities/commodity_TX.svg" xlink:title="TX">
<ellipse fill="lawngreen" stroke="lawngreen" cx="362" cy="-114" rx="24.9567" ry="25.4558"/>
<text text-anchor="middle" x="362" y="-110.4" font-family="Times Roman,serif" font-size="14.00">TX</text>
</a>
</g>
<!-- p_2000&#45;&gt;TX -->
<g id="edge8" class="edge"><title>p_2000&#45;&gt;TX</title>
<path fill="none" stroke="forestgreen" d="M297.832,-114C307.179,-114 317.011,-114 326.093,-114"/>
<polygon fill="forestgreen" stroke="forestgreen" points="326.349,-117.5 336.349,-114 326.349,-110.5 326.349,-117.5"/>
<text text-anchor="middle" x="313" y="-116.8" font-family="Times Roman,serif" font-size="8.00"> &#160;&#160;</text>
</g>
<!-- ELC -->
<g id="node11" class="node"><title>ELC</title>
<a xlink:href="../commodities/commodity_ELC.svg" xlink:title="ELC">
<ellipse fill="lightsteelblue" stroke="lightsteelblue" cx="31" cy="-114" rx="31.1127" ry="31.1127"/>
<text text-anchor="middle" x="31" y="-110.4" font-family="Times Roman,serif" font-size="14.00">ELC</text>
</a>
</g>
<!-- ELC&#45;&gt;v_2000 -->
<g id="edge6" class="edge"><title>ELC&#45;&gt;v_2000</title>
<path fill="none" stroke="firebrick" d="M62.2151,-114C73.2252,-114 85.8237,-114 97.7069,-114"/>
<polygon fill="firebrick" stroke="firebrick" points="90.0002,-117.5 100,-114 89.9998,-110.5 90.0002,-117.5"/>
<text text-anchor="middle" x="85" y="-116.8" font-family="Times Roman,serif" font-size="8.00"> &#160;&#160;</text>
</g>
</g>
</svg>
