<?xml version="1.0" encoding="UTF-8" standalone="no"?>
<!DOCTYPE svg PUBLIC "-//W3C//DTD SVG 1.1//EN"
 "http://www.w3.org/Graphics/SVG/1.1/DTD/svg11.dtd">
<!-- Generated by graphviz version 2.26.3 (20100126.1600)
 -->
<!-- Title: model Pages: 1 -->
<svg width="398pt" height="344pt"
 viewBox="0.00 0.00 398.00 344.00" xmlns="http://www.w3.org/2000/svg" xmlns:xlink="http://www.w3.org/1999/xlink">
<g id="graph1" class="graph" transform="scale(1 1) rotate(0) translate(4 340)">
<title>model</title>
<text text-anchor="middle" x="195" y="-9.4" font-family="Times Roman,serif" font-size="14.00">TXG</text>
<g id="graph2" class="cluster"><title>cluster_vintage</title>
<a xlink:href="../simple_model.svg" xlink:title="Vintages">
<polygon fill="lightgrey" stroke="lightgrey" points="102,-34 102,-328 186,-328 186,-34 102,-34"/>
<text text-anchor="middle" x="144" y="-311.4" font-family="Times Roman,serif" font-size="14.00">Vintages</text>
</a>
</g>
<g id="graph3" class="cluster"><title>cluster_period</title>
<a xlink:href="../simple_model.svg" xlink:title="Period">
<polygon fill="lightgrey" stroke="lightgrey" points="216,-34 216,-220 300,-220 300,-34 216,-34"/>
<text text-anchor="middle" x="258" y="-203.4" font-family="Times Roman,serif" font-size="14.00">Period</text>
</a>
</g>
<!-- v_1970 -->
<g id="node2" class="node"><title>v_1970</title>
<polygon fill="white" stroke="white" points="178,-294 110,-294 110,-258 178,-258 178,-294"/>
<text text-anchor="middle" x="144" y="-272.4" font-family="Times Roman,serif" font-size="14.00">v_1970</text>
</g>
<!-- p_1990 -->
<g id="node8" class="node"><title>p_1990</title>
<polygon fill="white" stroke="white" points="292,-186 224,-186 224,-150 292,-150 292,-186"/>
<text text-anchor="middle" x="258" y="-164.4" font-family="Times Roman,serif" font-size="14.00">p_1990</text>
</g>
<!-- v_1970&#45;&gt;p_1990 -->
<g id="edge11" class="edge"><title>v_1970&#45;&gt;p_1990</title>
<path fill="none" stroke="blue" d="M170.406,-250.984C188.721,-233.632 213.026,-210.607 231.387,-193.213"/>
<polygon fill="blue" stroke="blue" points="167.933,-248.505 163.081,-257.923 172.748,-253.587 167.933,-248.505"/>
<polygon fill="blue" stroke="blue" points="238.857,-186.136 234.692,-196.28 235.227,-189.574 231.597,-193.013 231.597,-193.013 231.597,-193.013 235.227,-189.574 228.502,-189.746 238.857,-186.136 238.857,-186.136"/>
<text text-anchor="middle" x="201" y="-263.8" font-family="Times Roman,serif" font-size="8.00"> &#160;&#160;</text>
</g>
<!-- v_1980 -->
<g id="node3" class="node"><title>v_1980</title>
<polygon fill="white" stroke="white" points="178,-240 110,-240 110,-204 178,-204 178,-240"/>
<text text-anchor="middle" x="144" y="-218.4" font-family="Times Roman,serif" font-size="14.00">v_1980</text>
</g>
<!-- v_1980&#45;&gt;p_1990 -->
<g id="edge13" class="edge"><title>v_1980&#45;&gt;p_1990</title>
<path fill="none" stroke="cyan" d="M187.246,-201.515C196.226,-197.261 205.691,-192.778 214.674,-188.523"/>
<polygon fill="cyan" stroke="cyan" points="185.743,-198.354 178.204,-205.798 188.739,-204.68 185.743,-198.354"/>
<polygon fill="cyan" stroke="cyan" points="223.82,-184.19 216.709,-192.538 219.302,-186.331 214.783,-188.471 214.783,-188.471 214.783,-188.471 219.302,-186.331 212.857,-184.404 223.82,-184.19 223.82,-184.19"/>
<text text-anchor="middle" x="201" y="-246.8" font-family="Times Roman,serif" font-size="8.00"> &#160;&#160;</text>
</g>
<!-- p_2000 -->
<g id="node9" class="node"><title>p_2000</title>
<polygon fill="white" stroke="white" points="292,-132 224,-132 224,-96 292,-96 292,-132"/>
<text text-anchor="middle" x="258" y="-110.4" font-family="Times Roman,serif" font-size="14.00">p_2000</text>
</g>
<!-- v_1980&#45;&gt;p_2000 -->
<g id="edge15" class="edge"><title>v_1980&#45;&gt;p_2000</title>
<path fill="none" stroke="purple" d="M170.406,-196.984C188.721,-179.632 213.026,-156.607 231.387,-139.213"/>
<polygon fill="purple" stroke="purple" points="167.933,-194.505 163.081,-203.923 172.748,-199.587 167.933,-194.505"/>
<polygon fill="purple" stroke="purple" points="238.857,-132.136 234.692,-142.28 235.227,-135.574 231.597,-139.013 231.597,-139.013 231.597,-139.013 235.227,-135.574 228.502,-135.746 238.857,-132.136 238.857,-132.136"/>
<text text-anchor="middle" x="201" y="-199.8" font-family="Times Roman,serif" font-size="8.00"> &#160;&#160;</text>
</g>
<!-- v_1990 -->
<g id="node4" class="node"><title>v_1990</title>
<polygon fill="white" stroke="white" points="178,-186 110,-186 110,-150 178,-150 178,-186"/>
<text text-anchor="middle" x="144" y="-164.4" font-family="Times Roman,serif" font-size="14.00">v_1990</text>
</g>
<!-- v_1990&#45;&gt;p_1990 -->
<g id="edge17" class="edge"><title>v_1990&#45;&gt;p_1990</title>
<path fill="none" stroke="green" d="M188.316,-168C196.607,-168 205.275,-168 213.57,-168"/>
<polygon fill="green" stroke="green" points="188.204,-164.5 178.204,-168 188.204,-171.5 188.204,-164.5"/>
<polygon fill="green" stroke="green" points="223.82,-168 213.82,-172.5 218.82,-168 213.82,-168 213.82,-168 213.82,-168 218.82,-168 213.82,-163.5 223.82,-168 223.82,-168"/>
<text text-anchor="middle" x="201" y="-180.8" font-family="Times Roman,serif" font-size="8.00"> &#160;&#160;</text>
</g>
<!-- v_1990&#45;&gt;p_2000 -->
<g id="edge19" class="edge"><title>v_1990&#45;&gt;p_2000</title>
<path fill="none" stroke="orange" d="M187.246,-147.515C196.226,-143.261 205.691,-138.778 214.674,-134.523"/>
<polygon fill="orange" stroke="orange" points="185.743,-144.354 178.204,-151.798 188.739,-150.68 185.743,-144.354"/>
<polygon fill="orange" stroke="orange" points="223.82,-130.19 216.709,-138.538 219.302,-132.331 214.783,-134.471 214.783,-134.471 214.783,-134.471 219.302,-132.331 212.857,-130.404 223.82,-130.19 223.82,-130.19"/>
<text text-anchor="middle" x="201" y="-145.8" font-family="Times Roman,serif" font-size="8.00"> &#160;&#160;</text>
</g>
<!-- v_2000 -->
<g id="node5" class="node"><title>v_2000</title>
<polygon fill="white" stroke="white" points="178,-132 110,-132 110,-96 178,-96 178,-132"/>
<text text-anchor="middle" x="144" y="-110.4" font-family="Times Roman,serif" font-size="14.00">v_2000</text>
</g>
<!-- v_2000&#45;&gt;p_2000 -->
<g id="edge21" class="edge"><title>v_2000&#45;&gt;p_2000</title>
<path fill="none" stroke="gold" d="M188.316,-114C196.607,-114 205.275,-114 213.57,-114"/>
<polygon fill="gold" stroke="gold" points="188.204,-110.5 178.204,-114 188.204,-117.5 188.204,-110.5"/>
<polygon fill="gold" stroke="gold" points="223.82,-114 213.82,-118.5 218.82,-114 213.82,-114 213.82,-114 213.82,-114 218.82,-114 213.82,-109.5 223.82,-114 223.82,-114"/>
<text text-anchor="middle" x="201" y="-116.8" font-family="Times Roman,serif" font-size="8.00"> &#160;&#160;</text>
</g>
<!-- p_2010 -->
<g id="node10" class="node"><title>p_2010</title>
<polygon fill="white" stroke="white" points="292,-78 224,-78 224,-42 292,-42 292,-78"/>
<text text-anchor="middle" x="258" y="-56.4" font-family="Times Roman,serif" font-size="14.00">p_2010</text>
</g>
<!-- v_2000&#45;&gt;p_2010 -->
<g id="edge23" class="edge"><title>v_2000&#45;&gt;p_2010</title>
<path fill="none" stroke="red" d="M187.246,-93.5151C196.226,-89.2613 205.691,-84.7781 214.674,-80.5229"/>
<polygon fill="red" stroke="red" points="185.743,-90.3542 178.204,-97.7982 188.739,-96.6804 185.743,-90.3542"/>
<polygon fill="red" stroke="red" points="223.82,-76.1903 216.709,-84.5381 219.302,-78.3308 214.783,-80.4713 214.783,-80.4713 214.783,-80.4713 219.302,-78.3308 212.857,-76.4044 223.82,-76.1903 223.82,-76.1903"/>
<text text-anchor="middle" x="201" y="-91.8" font-family="Times Roman,serif" font-size="8.00"> &#160;&#160;</text>
</g>
<!-- v_2010 -->
<g id="node6" class="node"><title>v_2010</title>
<polygon fill="white" stroke="white" points="178,-78 110,-78 110,-42 178,-42 178,-78"/>
<text text-anchor="middle" x="144" y="-56.4" font-family="Times Roman,serif" font-size="14.00">v_2010</text>
</g>
<!-- v_2010&#45;&gt;p_2010 -->
<g id="edge25" class="edge"><title>v_2010&#45;&gt;p_2010</title>
<path fill="none" stroke="hotpink" d="M188.316,-60C196.607,-60 205.275,-60 213.57,-60"/>
<polygon fill="hotpink" stroke="hotpink" points="188.204,-56.5001 178.204,-60 188.204,-63.5001 188.204,-56.5001"/>
<polygon fill="hotpink" stroke="hotpink" points="223.82,-60 213.82,-64.5001 218.82,-60 213.82,-60.0001 213.82,-60.0001 213.82,-60.0001 218.82,-60 213.82,-55.5001 223.82,-60 223.82,-60"/>
<text text-anchor="middle" x="201" y="-62.8" font-family="Times Roman,serif" font-size="8.00"> &#160;&#160;</text>
</g>
<!-- TX -->
<g id="node12" class="node"><title>TX</title>
<a xlink:href="../commodities/commodity_TX.svg" xlink:title="TX">
<ellipse fill="lawngreen" stroke="lawngreen" cx="364" cy="-114" rx="24.9567" ry="25.4558"/>
<text text-anchor="middle" x="364" y="-110.4" font-family="Times Roman,serif" font-size="14.00">TX</text>
</a>
</g>
<!-- p_2000&#45;&gt;TX -->
<g id="edge8" class="edge"><title>p_2000&#45;&gt;TX</title>
<path fill="none" stroke="forestgreen" d="M299.832,-114C309.179,-114 319.011,-114 328.093,-114"/>
<polygon fill="forestgreen" stroke="forestgreen" points="328.349,-117.5 338.349,-114 328.349,-110.5 328.349,-117.5"/>
<text text-anchor="middle" x="315" y="-116.8" font-family="Times Roman,serif" font-size="8.00"> &#160;&#160;</text>
</g>
<!-- GSL -->
<g id="node13" class="node"><title>GSL</title>
<a xlink:href="../commodities/commodity_GSL.svg" xlink:title="GSL">
<ellipse fill="lightsteelblue" stroke="lightsteelblue" cx="32" cy="-168" rx="31.8198" ry="31.8198"/>
<text text-anchor="middle" x="32" y="-164.4" font-family="Times Roman,serif" font-size="14.00">GSL</text>
</a>
</g>
<!-- GSL&#45;&gt;v_1990 -->
<g id="edge6" class="edge"><title>GSL&#45;&gt;v_1990</title>
<path fill="none" stroke="firebrick" d="M64.0947,-168C75.1936,-168 87.8349,-168 99.7357,-168"/>
<polygon fill="firebrick" stroke="firebrick" points="92.0002,-171.5 102,-168 91.9998,-164.5 92.0002,-171.5"/>
<text text-anchor="middle" x="87" y="-170.8" font-family="Times Roman,serif" font-size="8.00"> &#160;&#160;</text>
</g>
</g>
</svg>
