<?xml version="1.0" encoding="UTF-8" standalone="no"?>
<!DOCTYPE svg PUBLIC "-//W3C//DTD SVG 1.1//EN"
 "http://www.w3.org/Graphics/SVG/1.1/DTD/svg11.dtd">
<!-- Generated by graphviz version 2.26.3 (20100126.1600)
 -->
<!-- Title: model Pages: 1 -->
<svg width="424pt" height="240pt"
 viewBox="0.00 0.00 424.00 240.00" xmlns="http://www.w3.org/2000/svg" xmlns:xlink="http://www.w3.org/1999/xlink">
<g id="graph1" class="graph" transform="scale(1 1) rotate(0) translate(4 236)">
<title>model</title>
<text text-anchor="middle" x="208" y="-9.4" font-family="Times Roman,serif" font-size="14.00">IMPGSL1</text>
<g id="graph2" class="cluster"><title>cluster_vintage</title>
<a xlink:href="../simple_model.svg" xlink:title="Vintages">
<polygon fill="lightgrey" stroke="lightgrey" points="116,-39 116,-117 200,-117 200,-39 116,-39"/>
<text text-anchor="middle" x="158" y="-100.4" font-family="Times Roman,serif" font-size="14.00">Vintages</text>
</a>
</g>
<g id="graph3" class="cluster"><title>cluster_period</title>
<a xlink:href="../simple_model.svg" xlink:title="Period">
<polygon fill="lightgrey" stroke="lightgrey" points="230,-38 230,-224 314,-224 314,-38 230,-38"/>
<text text-anchor="middle" x="272" y="-207.4" font-family="Times Roman,serif" font-size="14.00">Period</text>
</a>
</g>
<!-- v_1990 -->
<g id="node2" class="node"><title>v_1990</title>
<polygon fill="white" stroke="white" points="192,-83 124,-83 124,-47 192,-47 192,-83"/>
<text text-anchor="middle" x="158" y="-61.4" font-family="Times Roman,serif" font-size="14.00">v_1990</text>
</g>
<!-- p_1990 -->
<g id="node4" class="node"><title>p_1990</title>
<polygon fill="white" stroke="white" points="306,-190 238,-190 238,-154 306,-154 306,-190"/>
<text text-anchor="middle" x="272" y="-168.4" font-family="Times Roman,serif" font-size="14.00">p_1990</text>
</g>
<!-- v_1990&#45;&gt;p_1990 -->
<g id="edge11" class="edge"><title>v_1990&#45;&gt;p_1990</title>
<path fill="none" stroke="gold" d="M184.901,-90.2488C203.083,-107.315 226.996,-129.76 245.165,-146.813"/>
<polygon fill="gold" stroke="gold" points="187.025,-87.4428 177.339,-83.1511 182.235,-92.5468 187.025,-87.4428"/>
<polygon fill="gold" stroke="gold" points="252.567,-153.76 242.196,-150.197 248.921,-150.338 245.275,-146.916 245.275,-146.916 245.275,-146.916 248.921,-150.338 248.355,-143.635 252.567,-153.76 252.567,-153.76"/>
<text text-anchor="middle" x="215" y="-135.8" font-family="Times Roman,serif" font-size="8.00"> &#160;&#160;</text>
</g>
<!-- p_2000 -->
<g id="node5" class="node"><title>p_2000</title>
<polygon fill="white" stroke="white" points="306,-136 238,-136 238,-100 306,-100 306,-136"/>
<text text-anchor="middle" x="272" y="-114.4" font-family="Times Roman,serif" font-size="14.00">p_2000</text>
</g>
<!-- v_1990&#45;&gt;p_2000 -->
<g id="edge13" class="edge"><title>v_1990&#45;&gt;p_2000</title>
<path fill="none" stroke="red" d="M201.602,-85.2711C210.413,-89.3674 219.677,-93.6742 228.485,-97.7692"/>
<polygon fill="red" stroke="red" points="202.747,-81.9438 192.204,-80.9017 199.796,-88.2914 202.747,-81.9438"/>
<polygon fill="red" stroke="red" points="237.82,-102.109 226.855,-101.974 233.286,-100.002 228.752,-97.8936 228.752,-97.8936 228.752,-97.8936 233.286,-100.002 230.65,-93.8131 237.82,-102.109 237.82,-102.109"/>
<text text-anchor="middle" x="215" y="-96.8" font-family="Times Roman,serif" font-size="8.00"> &#160;&#160;</text>
</g>
<!-- p_2010 -->
<g id="node6" class="node"><title>p_2010</title>
<polygon fill="white" stroke="white" points="306,-82 238,-82 238,-46 306,-46 306,-82"/>
<text text-anchor="middle" x="272" y="-60.4" font-family="Times Roman,serif" font-size="14.00">p_2010</text>
</g>
<!-- v_1990&#45;&gt;p_2010 -->
<g id="edge15" class="edge"><title>v_1990&#45;&gt;p_2010</title>
<path fill="none" stroke="orange" d="M202.316,-64.6113C210.607,-64.5385 219.275,-64.4625 227.57,-64.3897"/>
<polygon fill="orange" stroke="orange" points="202.173,-61.1123 192.204,-64.7 202.234,-68.112 202.173,-61.1123"/>
<polygon fill="orange" stroke="orange" points="237.82,-64.2998 227.86,-68.8875 232.821,-64.3437 227.821,-64.3876 227.821,-64.3876 227.821,-64.3876 232.821,-64.3437 227.781,-59.8878 237.82,-64.2998 237.82,-64.2998"/>
<text text-anchor="middle" x="215" y="-67.8" font-family="Times Roman,serif" font-size="8.00"> &#160;&#160;</text>
</g>
<!-- GSL -->
<g id="node8" class="node"><title>GSL</title>
<a xlink:href="../commodities/commodity_GSL.svg" xlink:title="GSL">
<ellipse fill="lawngreen" stroke="lawngreen" cx="384" cy="-118" rx="31.8198" ry="31.8198"/>
<text text-anchor="middle" x="384" y="-114.4" font-family="Times Roman,serif" font-size="14.00">GSL</text>
</a>
</g>
<!-- p_2000&#45;&gt;GSL -->
<g id="edge8" class="edge"><title>p_2000&#45;&gt;GSL</title>
<path fill="none" stroke="forestgreen" d="M313.767,-118C322.942,-118 332.664,-118 341.853,-118"/>
<polygon fill="forestgreen" stroke="forestgreen" points="341.91,-121.5 351.91,-118 341.91,-114.5 341.91,-121.5"/>
<text text-anchor="middle" x="329" y="-120.8" font-family="Times Roman,serif" font-size="8.00"> &#160;&#160;</text>
</g>
<!-- ethos -->
<g id="node9" class="node"><title>ethos</title>
<a xlink:href="../commodities/commodity_ethos.svg" xlink:title="ethos">
<ellipse fill="lightsteelblue" stroke="lightsteelblue" cx="39" cy="-65" rx="38.8909" ry="38.8909"/>
<text text-anchor="middle" x="39" y="-61.4" font-family="Times Roman,serif" font-size="14.00">ethos</text>
</a>
</g>
<!-- ethos&#45;&gt;v_1990 -->
<g id="edge6" class="edge"><title>ethos&#45;&gt;v_1990</title>
<path fill="none" stroke="firebrick" d="M78.2948,-65C89.7096,-65 102.25,-65 113.937,-65"/>
<polygon fill="firebrick" stroke="firebrick" points="106,-68.5005 116,-65 106,-61.5005 106,-68.5005"/>
<text text-anchor="middle" x="101" y="-67.8" font-family="Times Roman,serif" font-size="8.00"> &#160;&#160;</text>
</g>
</g>
</svg>
