<?xml version="1.0" encoding="UTF-8" standalone="no"?>
<!DOCTYPE svg PUBLIC "-//W3C//DTD SVG 1.1//EN"
 "http://www.w3.org/Graphics/SVG/1.1/DTD/svg11.dtd">
<!-- Generated by graphviz version 2.26.3 (20100126.1600)
 -->
<!-- Title: model Pages: 1 -->
<svg width="404pt" height="236pt"
 viewBox="0.00 0.00 404.00 236.00" xmlns="http://www.w3.org/2000/svg" xmlns:xlink="http://www.w3.org/1999/xlink">
<g id="graph1" class="graph" transform="scale(1 1) rotate(0) translate(4 232)">
<title>model</title>
<text text-anchor="middle" x="198" y="-9.4" font-family="Times Roman,serif" font-size="14.00">SRE</text>
<g id="graph2" class="cluster"><title>cluster_vintage</title>
<a xlink:href="../simple_model.svg" xlink:title="Vintages">
<polygon fill="lightgrey" stroke="lightgrey" points="96,-34 96,-220 180,-220 180,-34 96,-34"/>
<text text-anchor="middle" x="138" y="-203.4" font-family="Times Roman,serif" font-size="14.00">Vintages</text>
</a>
</g>
<g id="graph3" class="cluster"><title>cluster_period</title>
<a xlink:href="../simple_model.svg" xlink:title="Period">
<polygon fill="lightgrey" stroke="lightgrey" points="210,-34 210,-220 294,-220 294,-34 210,-34"/>
<text text-anchor="middle" x="252" y="-203.4" font-family="Times Roman,serif" font-size="14.00">Period</text>
</a>
</g>
<!-- v_1990 -->
<g id="node2" class="node"><title>v_1990</title>
<polygon fill="white" stroke="white" points="172,-186 104,-186 104,-150 172,-150 172,-186"/>
<text text-anchor="middle" x="138" y="-164.4" font-family="Times Roman,serif" font-size="14.00">v_1990</text>
</g>
<!-- p_1990 -->
<g id="node6" class="node"><title>p_1990</title>
<polygon fill="white" stroke="white" points="286,-186 218,-186 218,-150 286,-150 286,-186"/>
<text text-anchor="middle" x="252" y="-164.4" font-family="Times Roman,serif" font-size="14.00">p_1990</text>
</g>
<!-- v_1990&#45;&gt;p_1990 -->
<g id="edge13" class="edge"><title>v_1990&#45;&gt;p_1990</title>
<path fill="none" stroke="gold" d="M182.316,-168C190.607,-168 199.275,-168 207.57,-168"/>
<polygon fill="gold" stroke="gold" points="182.204,-164.5 172.204,-168 182.204,-171.5 182.204,-164.5"/>
<polygon fill="gold" stroke="gold" points="217.82,-168 207.82,-172.5 212.82,-168 207.82,-168 207.82,-168 207.82,-168 212.82,-168 207.82,-163.5 217.82,-168 217.82,-168"/>
<text text-anchor="middle" x="195" y="-213.8" font-family="Times Roman,serif" font-size="8.00"> &#160;&#160;</text>
</g>
<!-- p_2000 -->
<g id="node7" class="node"><title>p_2000</title>
<polygon fill="white" stroke="white" points="286,-132 218,-132 218,-96 286,-96 286,-132"/>
<text text-anchor="middle" x="252" y="-110.4" font-family="Times Roman,serif" font-size="14.00">p_2000</text>
</g>
<!-- v_1990&#45;&gt;p_2000 -->
<g id="edge16" class="edge"><title>v_1990&#45;&gt;p_2000</title>
<path fill="none" stroke="burlywood" d="M181.246,-147.515C190.226,-143.261 199.691,-138.778 208.674,-134.523"/>
<polygon fill="burlywood" stroke="burlywood" points="179.743,-144.354 172.204,-151.798 182.739,-150.68 179.743,-144.354"/>
<polygon fill="burlywood" stroke="burlywood" points="217.82,-130.19 210.709,-138.538 213.302,-132.331 208.783,-134.471 208.783,-134.471 208.783,-134.471 213.302,-132.331 206.857,-130.404 217.82,-130.19 217.82,-130.19"/>
<text text-anchor="middle" x="195" y="-180.8" font-family="Times Roman,serif" font-size="8.00"> &#160;&#160;</text>
</g>
<!-- p_2010 -->
<g id="node8" class="node"><title>p_2010</title>
<polygon fill="white" stroke="white" points="286,-78 218,-78 218,-42 286,-42 286,-78"/>
<text text-anchor="middle" x="252" y="-56.4" font-family="Times Roman,serif" font-size="14.00">p_2010</text>
</g>
<!-- v_1990&#45;&gt;p_2010 -->
<g id="edge19" class="edge"><title>v_1990&#45;&gt;p_2010</title>
<path fill="none" stroke="black" d="M164.406,-142.984C182.721,-125.632 207.026,-102.607 225.387,-85.2127"/>
<polygon fill="black" stroke="black" points="161.933,-140.505 157.081,-149.923 166.748,-145.587 161.933,-140.505"/>
<polygon fill="black" stroke="black" points="232.857,-78.1357 228.692,-88.28 229.227,-81.5745 225.597,-85.0132 225.597,-85.0132 225.597,-85.0132 229.227,-81.5745 222.502,-81.7464 232.857,-78.1357 232.857,-78.1357"/>
<text text-anchor="middle" x="195" y="-137.8" font-family="Times Roman,serif" font-size="8.00"> &#160;&#160;</text>
</g>
<!-- v_2000 -->
<g id="node3" class="node"><title>v_2000</title>
<polygon fill="white" stroke="white" points="172,-132 104,-132 104,-96 172,-96 172,-132"/>
<text text-anchor="middle" x="138" y="-110.4" font-family="Times Roman,serif" font-size="14.00">v_2000</text>
</g>
<!-- v_2000&#45;&gt;p_2000 -->
<g id="edge22" class="edge"><title>v_2000&#45;&gt;p_2000</title>
<path fill="none" stroke="cyan" d="M182.316,-114C190.607,-114 199.275,-114 207.57,-114"/>
<polygon fill="cyan" stroke="cyan" points="182.204,-110.5 172.204,-114 182.204,-117.5 182.204,-110.5"/>
<polygon fill="cyan" stroke="cyan" points="217.82,-114 207.82,-118.5 212.82,-114 207.82,-114 207.82,-114 207.82,-114 212.82,-114 207.82,-109.5 217.82,-114 217.82,-114"/>
<text text-anchor="middle" x="195" y="-116.8" font-family="Times Roman,serif" font-size="8.00"> &#160;&#160;</text>
</g>
<!-- v_2000&#45;&gt;p_2010 -->
<g id="edge25" class="edge"><title>v_2000&#45;&gt;p_2010</title>
<path fill="none" stroke="orange" d="M181.246,-93.5151C190.226,-89.2613 199.691,-84.7781 208.674,-80.5229"/>
<polygon fill="orange" stroke="orange" points="179.743,-90.3542 172.204,-97.7982 182.739,-96.6804 179.743,-90.3542"/>
<polygon fill="orange" stroke="orange" points="217.82,-76.1903 210.709,-84.5381 213.302,-78.3308 208.783,-80.4713 208.783,-80.4713 208.783,-80.4713 213.302,-78.3308 206.857,-76.4044 217.82,-76.1903 217.82,-76.1903"/>
<text text-anchor="middle" x="195" y="-91.8" font-family="Times Roman,serif" font-size="8.00"> &#160;&#160;</text>
</g>
<!-- v_2010 -->
<g id="node4" class="node"><title>v_2010</title>
<polygon fill="white" stroke="white" points="172,-78 104,-78 104,-42 172,-42 172,-78"/>
<text text-anchor="middle" x="138" y="-56.4" font-family="Times Roman,serif" font-size="14.00">v_2010</text>
</g>
<!-- v_2010&#45;&gt;p_2010 -->
<g id="edge28" class="edge"><title>v_2010&#45;&gt;p_2010</title>
<path fill="none" stroke="blue" d="M182.316,-60C190.607,-60 199.275,-60 207.57,-60"/>
<polygon fill="blue" stroke="blue" points="182.204,-56.5001 172.204,-60 182.204,-63.5001 182.204,-56.5001"/>
<polygon fill="blue" stroke="blue" points="217.82,-60 207.82,-64.5001 212.82,-60 207.82,-60.0001 207.82,-60.0001 207.82,-60.0001 212.82,-60 207.82,-55.5001 217.82,-60 217.82,-60"/>
<text text-anchor="middle" x="195" y="-62.8" font-family="Times Roman,serif" font-size="8.00"> &#160;&#160;</text>
</g>
<!-- DSL -->
<g id="node10" class="node"><title>DSL</title>
<a xlink:href="../commodities/commodity_DSL.svg" xlink:title="DSL">
<ellipse fill="lawngreen" stroke="lawngreen" cx="364" cy="-168" rx="31.8198" ry="31.8198"/>
<text text-anchor="middle" x="364" y="-164.4" font-family="Times Roman,serif" font-size="14.00">DSL</text>
</a>
</g>
<!-- p_2000&#45;&gt;DSL -->
<g id="edge8" class="edge"><title>p_2000&#45;&gt;DSL</title>
<path fill="none" stroke="forestgreen" d="M293.726,-134.118C304.253,-139.193 315.5,-144.616 325.841,-149.602"/>
<polygon fill="forestgreen" stroke="forestgreen" points="324.379,-152.783 334.907,-153.973 327.419,-146.477 324.379,-152.783"/>
<text text-anchor="middle" x="309" y="-145.8" font-family="Times Roman,serif" font-size="8.00"> &#160;&#160;</text>
</g>
<!-- GSL -->
<g id="node11" class="node"><title>GSL</title>
<a xlink:href="../commodities/commodity_GSL.svg" xlink:title="GSL">
<ellipse fill="lawngreen" stroke="lawngreen" cx="364" cy="-86" rx="31.8198" ry="31.8198"/>
<text text-anchor="middle" x="364" y="-82.4" font-family="Times Roman,serif" font-size="14.00">GSL</text>
</a>
</g>
<!-- p_2000&#45;&gt;GSL -->
<g id="edge10" class="edge"><title>p_2000&#45;&gt;GSL</title>
<path fill="none" stroke="forestgreen" d="M293.983,-103.504C303.424,-101.144 313.432,-98.642 322.839,-96.2903"/>
<polygon fill="forestgreen" stroke="forestgreen" points="323.814,-99.6542 332.667,-93.8333 322.116,-92.8632 323.814,-99.6542"/>
<text text-anchor="middle" x="309" y="-103.8" font-family="Times Roman,serif" font-size="8.00"> &#160;&#160;</text>
</g>
<!-- OIL -->
<g id="node12" class="node"><title>OIL</title>
<a xlink:href="../commodities/commodity_OIL.svg" xlink:title="OIL">
<ellipse fill="lightsteelblue" stroke="lightsteelblue" cx="29" cy="-114" rx="28.9914" ry="28.9914"/>
<text text-anchor="middle" x="29" y="-110.4" font-family="Times Roman,serif" font-size="14.00">OIL</text>
</a>
</g>
<!-- OIL&#45;&gt;v_2000 -->
<g id="edge6" class="edge"><title>OIL&#45;&gt;v_2000</title>
<path fill="none" stroke="firebrick" d="M58.21,-114C69.0377,-114 81.5767,-114 93.4614,-114"/>
<polygon fill="firebrick" stroke="firebrick" points="86.0001,-117.5 96,-114 85.9999,-110.5 86.0001,-117.5"/>
<text text-anchor="middle" x="81" y="-116.8" font-family="Times Roman,serif" font-size="8.00"> &#160;&#160;</text>
</g>
</g>
</svg>
