<?xml version="1.0" encoding="UTF-8" standalone="no"?>
<!DOCTYPE svg PUBLIC "-//W3C//DTD SVG 1.1//EN"
 "http://www.w3.org/Graphics/SVG/1.1/DTD/svg11.dtd">
<!-- Generated by graphviz version 2.26.3 (20100126.1600)
 -->
<!-- Title: model Pages: 1 -->
<svg width="412pt" height="430pt"
 viewBox="0.00 0.00 412.00 430.00" xmlns="http://www.w3.org/2000/svg" xmlns:xlink="http://www.w3.org/1999/xlink">
<g id="graph1" class="graph" transform="scale(1 1) rotate(0) translate(4 426)">
<title>model</title>
<text text-anchor="middle" x="202" y="-9.4" font-family="Times Roman,serif" font-size="14.00">E01</text>
<g id="graph2" class="cluster"><title>cluster_vintage</title>
<a xlink:href="../simple_model.svg" xlink:title="Vintages">
<polygon fill="lightgrey" stroke="lightgrey" points="106,-34 106,-382 190,-382 190,-34 106,-34"/>
<text text-anchor="middle" x="148" y="-365.4" font-family="Times Roman,serif" font-size="14.00">Vintages</text>
</a>
</g>
<g id="graph3" class="cluster"><title>cluster_period</title>
<a xlink:href="../simple_model.svg" xlink:title="Period">
<polygon fill="lightgrey" stroke="lightgrey" points="220,-35 220,-221 304,-221 304,-35 220,-35"/>
<text text-anchor="middle" x="262" y="-204.4" font-family="Times Roman,serif" font-size="14.00">Period</text>
</a>
</g>
<!-- v_1960 -->
<g id="node2" class="node"><title>v_1960</title>
<polygon fill="white" stroke="white" points="182,-348 114,-348 114,-312 182,-312 182,-348"/>
<text text-anchor="middle" x="148" y="-326.4" font-family="Times Roman,serif" font-size="14.00">v_1960</text>
</g>
<!-- p_1990 -->
<g id="node9" class="node"><title>p_1990</title>
<polygon fill="white" stroke="white" points="296,-187 228,-187 228,-151 296,-151 296,-187"/>
<text text-anchor="middle" x="262" y="-165.4" font-family="Times Roman,serif" font-size="14.00">p_1990</text>
</g>
<!-- v_1960&#45;&gt;p_1990 -->
<g id="edge11" class="edge"><title>v_1960&#45;&gt;p_1990</title>
<path fill="none" stroke="limegreen" d="M166.671,-303.631C187.782,-273.817 221.963,-225.544 243.148,-195.625"/>
<polygon fill="limegreen" stroke="limegreen" points="163.778,-301.66 160.856,-311.844 169.491,-305.706 163.778,-301.66"/>
<polygon fill="limegreen" stroke="limegreen" points="249.016,-187.336 246.91,-198.098 246.127,-191.417 243.238,-195.498 243.238,-195.498 243.238,-195.498 246.127,-191.417 239.565,-192.897 249.016,-187.336 249.016,-187.336"/>
<text text-anchor="middle" x="205" y="-414.8" font-family="Times Roman,serif" font-size="8.00"> &#160;&#160;</text>
</g>
<!-- v_1970 -->
<g id="node3" class="node"><title>v_1970</title>
<polygon fill="white" stroke="white" points="182,-294 114,-294 114,-258 182,-258 182,-294"/>
<text text-anchor="middle" x="148" y="-272.4" font-family="Times Roman,serif" font-size="14.00">v_1970</text>
</g>
<!-- v_1970&#45;&gt;p_1990 -->
<g id="edge13" class="edge"><title>v_1970&#45;&gt;p_1990</title>
<path fill="none" stroke="blue" d="M174.901,-250.751C193.083,-233.685 216.996,-211.24 235.165,-194.187"/>
<polygon fill="blue" stroke="blue" points="172.235,-248.453 167.339,-257.849 177.025,-253.557 172.235,-248.453"/>
<polygon fill="blue" stroke="blue" points="242.567,-187.24 238.355,-197.365 238.921,-190.662 235.275,-194.084 235.275,-194.084 235.275,-194.084 238.921,-190.662 232.196,-190.803 242.567,-187.24 242.567,-187.24"/>
<text text-anchor="middle" x="205" y="-400.8" font-family="Times Roman,serif" font-size="8.00"> &#160;&#160;</text>
</g>
<!-- p_2000 -->
<g id="node10" class="node"><title>p_2000</title>
<polygon fill="white" stroke="white" points="296,-133 228,-133 228,-97 296,-97 296,-133"/>
<text text-anchor="middle" x="262" y="-111.4" font-family="Times Roman,serif" font-size="14.00">p_2000</text>
</g>
<!-- v_1970&#45;&gt;p_2000 -->
<g id="edge15" class="edge"><title>v_1970&#45;&gt;p_2000</title>
<path fill="none" stroke="burlywood" d="M166.671,-249.631C187.782,-219.817 221.963,-171.544 243.148,-141.625"/>
<polygon fill="burlywood" stroke="burlywood" points="163.778,-247.66 160.856,-257.844 169.491,-251.706 163.778,-247.66"/>
<polygon fill="burlywood" stroke="burlywood" points="249.016,-133.336 246.91,-144.098 246.127,-137.417 243.238,-141.498 243.238,-141.498 243.238,-141.498 246.127,-137.417 239.565,-138.897 249.016,-133.336 249.016,-133.336"/>
<text text-anchor="middle" x="205" y="-329.8" font-family="Times Roman,serif" font-size="8.00"> &#160;&#160;</text>
</g>
<!-- v_1980 -->
<g id="node4" class="node"><title>v_1980</title>
<polygon fill="white" stroke="white" points="182,-240 114,-240 114,-204 182,-204 182,-240"/>
<text text-anchor="middle" x="148" y="-218.4" font-family="Times Roman,serif" font-size="14.00">v_1980</text>
</g>
<!-- v_1980&#45;&gt;p_1990 -->
<g id="edge17" class="edge"><title>v_1980&#45;&gt;p_1990</title>
<path fill="none" stroke="purple" d="M191.602,-201.729C200.413,-197.633 209.677,-193.326 218.485,-189.231"/>
<polygon fill="purple" stroke="purple" points="189.796,-198.709 182.204,-206.098 192.747,-205.056 189.796,-198.709"/>
<polygon fill="purple" stroke="purple" points="227.82,-184.891 220.65,-193.187 223.286,-186.998 218.752,-189.106 218.752,-189.106 218.752,-189.106 223.286,-186.998 216.855,-185.026 227.82,-184.891 227.82,-184.891"/>
<text text-anchor="middle" x="205" y="-315.8" font-family="Times Roman,serif" font-size="8.00"> &#160;&#160;</text>
</g>
<!-- v_1980&#45;&gt;p_2000 -->
<g id="edge19" class="edge"><title>v_1980&#45;&gt;p_2000</title>
<path fill="none" stroke="hotpink" d="M174.901,-196.751C193.083,-179.685 216.996,-157.24 235.165,-140.187"/>
<polygon fill="hotpink" stroke="hotpink" points="172.235,-194.453 167.339,-203.849 177.025,-199.557 172.235,-194.453"/>
<polygon fill="hotpink" stroke="hotpink" points="242.567,-133.24 238.355,-143.365 238.921,-136.662 235.275,-140.084 235.275,-140.084 235.275,-140.084 238.921,-136.662 232.196,-136.803 242.567,-133.24 242.567,-133.24"/>
<text text-anchor="middle" x="205" y="-268.8" font-family="Times Roman,serif" font-size="8.00"> &#160;&#160;</text>
</g>
<!-- p_2010 -->
<g id="node11" class="node"><title>p_2010</title>
<polygon fill="white" stroke="white" points="296,-79 228,-79 228,-43 296,-43 296,-79"/>
<text text-anchor="middle" x="262" y="-57.4" font-family="Times Roman,serif" font-size="14.00">p_2010</text>
</g>
<!-- v_1980&#45;&gt;p_2010 -->
<g id="edge21" class="edge"><title>v_1980&#45;&gt;p_2010</title>
<path fill="none" stroke="red" d="M166.671,-195.631C187.782,-165.817 221.963,-117.544 243.148,-87.6247"/>
<polygon fill="red" stroke="red" points="163.778,-193.66 160.856,-203.844 169.491,-197.706 163.778,-193.66"/>
<polygon fill="red" stroke="red" points="249.016,-79.3365 246.91,-90.0982 246.127,-83.4171 243.238,-87.4977 243.238,-87.4977 243.238,-87.4977 246.127,-83.4171 239.565,-84.8973 249.016,-79.3365 249.016,-79.3365"/>
<text text-anchor="middle" x="205" y="-201.8" font-family="Times Roman,serif" font-size="8.00"> &#160;&#160;</text>
</g>
<!-- v_1990 -->
<g id="node5" class="node"><title>v_1990</title>
<polygon fill="white" stroke="white" points="182,-186 114,-186 114,-150 182,-150 182,-186"/>
<text text-anchor="middle" x="148" y="-164.4" font-family="Times Roman,serif" font-size="14.00">v_1990</text>
</g>
<!-- v_1990&#45;&gt;p_1990 -->
<g id="edge23" class="edge"><title>v_1990&#45;&gt;p_1990</title>
<path fill="none" stroke="gold" d="M192.316,-168.389C200.607,-168.461 209.275,-168.538 217.57,-168.61"/>
<polygon fill="gold" stroke="gold" points="192.234,-164.888 182.204,-168.3 192.173,-171.888 192.234,-164.888"/>
<polygon fill="gold" stroke="gold" points="227.82,-168.7 217.781,-173.112 222.821,-168.656 217.821,-168.612 217.821,-168.612 217.821,-168.612 222.821,-168.656 217.86,-164.113 227.82,-168.7 227.82,-168.7"/>
<text text-anchor="middle" x="205" y="-301.8" font-family="Times Roman,serif" font-size="8.00"> &#160;&#160;</text>
</g>
<!-- v_1990&#45;&gt;p_2000 -->
<g id="edge25" class="edge"><title>v_1990&#45;&gt;p_2000</title>
<path fill="none" stroke="cyan" d="M191.602,-147.729C200.413,-143.633 209.677,-139.326 218.485,-135.231"/>
<polygon fill="cyan" stroke="cyan" points="189.796,-144.709 182.204,-152.098 192.747,-151.056 189.796,-144.709"/>
<polygon fill="cyan" stroke="cyan" points="227.82,-130.891 220.65,-139.187 223.286,-132.998 218.752,-135.106 218.752,-135.106 218.752,-135.106 223.286,-132.998 216.855,-131.026 227.82,-130.891 227.82,-130.891"/>
<text text-anchor="middle" x="205" y="-183.8" font-family="Times Roman,serif" font-size="8.00"> &#160;&#160;</text>
</g>
<!-- v_1990&#45;&gt;p_2010 -->
<g id="edge27" class="edge"><title>v_1990&#45;&gt;p_2010</title>
<path fill="none" stroke="coral" d="M174.901,-142.751C193.083,-125.685 216.996,-103.24 235.165,-86.1872"/>
<polygon fill="coral" stroke="coral" points="172.235,-140.453 167.339,-149.849 177.025,-145.557 172.235,-140.453"/>
<polygon fill="coral" stroke="coral" points="242.567,-79.2401 238.355,-89.365 238.921,-82.662 235.275,-86.0838 235.275,-86.0838 235.275,-86.0838 238.921,-82.662 232.196,-82.8027 242.567,-79.2401 242.567,-79.2401"/>
<text text-anchor="middle" x="205" y="-125.8" font-family="Times Roman,serif" font-size="8.00"> &#160;&#160;</text>
</g>
<!-- v_2000 -->
<g id="node6" class="node"><title>v_2000</title>
<polygon fill="white" stroke="white" points="182,-132 114,-132 114,-96 182,-96 182,-132"/>
<text text-anchor="middle" x="148" y="-110.4" font-family="Times Roman,serif" font-size="14.00">v_2000</text>
</g>
<!-- v_2000&#45;&gt;p_2000 -->
<g id="edge29" class="edge"><title>v_2000&#45;&gt;p_2000</title>
<path fill="none" stroke="green" d="M192.316,-114.389C200.607,-114.461 209.275,-114.538 217.57,-114.61"/>
<polygon fill="green" stroke="green" points="192.234,-110.888 182.204,-114.3 192.173,-117.888 192.234,-110.888"/>
<polygon fill="green" stroke="green" points="227.82,-114.7 217.781,-119.112 222.821,-114.656 217.821,-114.612 217.821,-114.612 217.821,-114.612 222.821,-114.656 217.86,-110.113 227.82,-114.7 227.82,-114.7"/>
<text text-anchor="middle" x="205" y="-169.8" font-family="Times Roman,serif" font-size="8.00"> &#160;&#160;</text>
</g>
<!-- v_2000&#45;&gt;p_2010 -->
<g id="edge31" class="edge"><title>v_2000&#45;&gt;p_2010</title>
<path fill="none" stroke="black" d="M191.602,-93.7289C200.413,-89.6326 209.677,-85.3258 218.485,-81.2308"/>
<polygon fill="black" stroke="black" points="189.796,-90.7086 182.204,-98.0983 192.747,-97.0562 189.796,-90.7086"/>
<polygon fill="black" stroke="black" points="227.82,-76.8905 220.65,-85.1869 223.286,-78.9984 218.752,-81.1064 218.752,-81.1064 218.752,-81.1064 223.286,-78.9984 216.855,-77.0258 227.82,-76.8905 227.82,-76.8905"/>
<text text-anchor="middle" x="205" y="-92.8" font-family="Times Roman,serif" font-size="8.00"> &#160;&#160;</text>
</g>
<!-- v_2010 -->
<g id="node7" class="node"><title>v_2010</title>
<polygon fill="white" stroke="white" points="182,-78 114,-78 114,-42 182,-42 182,-78"/>
<text text-anchor="middle" x="148" y="-56.4" font-family="Times Roman,serif" font-size="14.00">v_2010</text>
</g>
<!-- v_2010&#45;&gt;p_2010 -->
<g id="edge33" class="edge"><title>v_2010&#45;&gt;p_2010</title>
<path fill="none" stroke="orange" d="M192.316,-60.3887C200.607,-60.4615 209.275,-60.5375 217.57,-60.6103"/>
<polygon fill="orange" stroke="orange" points="192.234,-56.888 182.204,-60.3 192.173,-63.8877 192.234,-56.888"/>
<polygon fill="orange" stroke="orange" points="227.82,-60.7002 217.781,-65.1122 222.821,-60.6563 217.821,-60.6124 217.821,-60.6124 217.821,-60.6124 222.821,-60.6563 217.86,-56.1125 227.82,-60.7002 227.82,-60.7002"/>
<text text-anchor="middle" x="205" y="-63.8" font-family="Times Roman,serif" font-size="8.00"> &#160;&#160;</text>
</g>
<!-- ELC -->
<g id="node13" class="node"><title>ELC</title>
<a xlink:href="../commodities/commodity_ELC.svg" xlink:title="ELC">
<ellipse fill="lawngreen" stroke="lawngreen" cx="373" cy="-115" rx="31.1127" ry="31.1127"/>
<text text-anchor="middle" x="373" y="-111.4" font-family="Times Roman,serif" font-size="14.00">ELC</text>
</a>
</g>
<!-- p_2000&#45;&gt;ELC -->
<g id="edge8" class="edge"><title>p_2000&#45;&gt;ELC</title>
<path fill="none" stroke="forestgreen" d="M303.676,-115C312.74,-115 322.33,-115 331.391,-115"/>
<polygon fill="forestgreen" stroke="forestgreen" points="331.736,-118.5 341.736,-115 331.736,-111.5 331.736,-118.5"/>
<text text-anchor="middle" x="319" y="-117.8" font-family="Times Roman,serif" font-size="8.00"> &#160;&#160;</text>
</g>
<!-- HCO -->
<g id="node14" class="node"><title>HCO</title>
<a xlink:href="../commodities/commodity_HCO.svg" xlink:title="HCO">
<ellipse fill="lightsteelblue" stroke="lightsteelblue" cx="34" cy="-168" rx="33.9411" ry="33.9411"/>
<text text-anchor="middle" x="34" y="-164.4" font-family="Times Roman,serif" font-size="14.00">HCO</text>
</a>
</g>
<!-- HCO&#45;&gt;v_1990 -->
<g id="edge6" class="edge"><title>HCO&#45;&gt;v_1990</title>
<path fill="none" stroke="firebrick" d="M68.2038,-168C79.3634,-168 91.9189,-168 103.71,-168"/>
<polygon fill="firebrick" stroke="firebrick" points="96.0002,-171.5 106,-168 95.9998,-164.5 96.0002,-171.5"/>
<text text-anchor="middle" x="91" y="-170.8" font-family="Times Roman,serif" font-size="8.00"> &#160;&#160;</text>
</g>
</g>
</svg>
