<?xml version="1.0" encoding="UTF-8" standalone="no"?>
<!DOCTYPE svg PUBLIC "-//W3C//DTD SVG 1.1//EN"
 "http://www.w3.org/Graphics/SVG/1.1/DTD/svg11.dtd">
<!-- Generated by graphviz version 2.26.3 (20100126.1600)
 -->
<!-- Title: model Pages: 1 -->
<svg width="408pt" height="430pt"
 viewBox="0.00 0.00 408.00 430.00" xmlns="http://www.w3.org/2000/svg" xmlns:xlink="http://www.w3.org/1999/xlink">
<g id="graph1" class="graph" transform="scale(1 1) rotate(0) translate(4 426)">
<title>model</title>
<text text-anchor="middle" x="200" y="-9.4" font-family="Times Roman,serif" font-size="14.00">E70</text>
<g id="graph2" class="cluster"><title>cluster_vintage</title>
<a xlink:href="../simple_model.svg" xlink:title="Vintages">
<polygon fill="lightgrey" stroke="lightgrey" points="102,-34 102,-382 186,-382 186,-34 102,-34"/>
<text text-anchor="middle" x="144" y="-365.4" font-family="Times Roman,serif" font-size="14.00">Vintages</text>
</a>
</g>
<g id="graph3" class="cluster"><title>cluster_period</title>
<a xlink:href="../simple_model.svg" xlink:title="Period">
<polygon fill="lightgrey" stroke="lightgrey" points="216,-35 216,-221 300,-221 300,-35 216,-35"/>
<text text-anchor="middle" x="258" y="-204.4" font-family="Times Roman,serif" font-size="14.00">Period</text>
</a>
</g>
<!-- v_1960 -->
<g id="node2" class="node"><title>v_1960</title>
<polygon fill="white" stroke="white" points="178,-348 110,-348 110,-312 178,-312 178,-348"/>
<text text-anchor="middle" x="144" y="-326.4" font-family="Times Roman,serif" font-size="14.00">v_1960</text>
</g>
<!-- p_1990 -->
<g id="node9" class="node"><title>p_1990</title>
<polygon fill="white" stroke="white" points="292,-187 224,-187 224,-151 292,-151 292,-187"/>
<text text-anchor="middle" x="258" y="-165.4" font-family="Times Roman,serif" font-size="14.00">p_1990</text>
</g>
<!-- v_1960&#45;&gt;p_1990 -->
<g id="edge11" class="edge"><title>v_1960&#45;&gt;p_1990</title>
<path fill="none" stroke="cyan" d="M162.671,-303.631C183.782,-273.817 217.963,-225.544 239.148,-195.625"/>
<polygon fill="cyan" stroke="cyan" points="159.778,-301.66 156.856,-311.844 165.491,-305.706 159.778,-301.66"/>
<polygon fill="cyan" stroke="cyan" points="245.016,-187.336 242.91,-198.098 242.127,-191.417 239.238,-195.498 239.238,-195.498 239.238,-195.498 242.127,-191.417 235.565,-192.897 245.016,-187.336 245.016,-187.336"/>
<text text-anchor="middle" x="201" y="-414.8" font-family="Times Roman,serif" font-size="8.00"> &#160;&#160;</text>
</g>
<!-- v_1970 -->
<g id="node3" class="node"><title>v_1970</title>
<polygon fill="white" stroke="white" points="178,-294 110,-294 110,-258 178,-258 178,-294"/>
<text text-anchor="middle" x="144" y="-272.4" font-family="Times Roman,serif" font-size="14.00">v_1970</text>
</g>
<!-- v_1970&#45;&gt;p_1990 -->
<g id="edge13" class="edge"><title>v_1970&#45;&gt;p_1990</title>
<path fill="none" stroke="black" d="M170.901,-250.751C189.083,-233.685 212.996,-211.24 231.165,-194.187"/>
<polygon fill="black" stroke="black" points="168.235,-248.453 163.339,-257.849 173.025,-253.557 168.235,-248.453"/>
<polygon fill="black" stroke="black" points="238.567,-187.24 234.355,-197.365 234.921,-190.662 231.275,-194.084 231.275,-194.084 231.275,-194.084 234.921,-190.662 228.196,-190.803 238.567,-187.24 238.567,-187.24"/>
<text text-anchor="middle" x="201" y="-400.8" font-family="Times Roman,serif" font-size="8.00"> &#160;&#160;</text>
</g>
<!-- p_2000 -->
<g id="node10" class="node"><title>p_2000</title>
<polygon fill="white" stroke="white" points="292,-133 224,-133 224,-97 292,-97 292,-133"/>
<text text-anchor="middle" x="258" y="-111.4" font-family="Times Roman,serif" font-size="14.00">p_2000</text>
</g>
<!-- v_1970&#45;&gt;p_2000 -->
<g id="edge15" class="edge"><title>v_1970&#45;&gt;p_2000</title>
<path fill="none" stroke="blue" d="M162.671,-249.631C183.782,-219.817 217.963,-171.544 239.148,-141.625"/>
<polygon fill="blue" stroke="blue" points="159.778,-247.66 156.856,-257.844 165.491,-251.706 159.778,-247.66"/>
<polygon fill="blue" stroke="blue" points="245.016,-133.336 242.91,-144.098 242.127,-137.417 239.238,-141.498 239.238,-141.498 239.238,-141.498 242.127,-137.417 235.565,-138.897 245.016,-133.336 245.016,-133.336"/>
<text text-anchor="middle" x="201" y="-329.8" font-family="Times Roman,serif" font-size="8.00"> &#160;&#160;</text>
</g>
<!-- v_1980 -->
<g id="node4" class="node"><title>v_1980</title>
<polygon fill="white" stroke="white" points="178,-240 110,-240 110,-204 178,-204 178,-240"/>
<text text-anchor="middle" x="144" y="-218.4" font-family="Times Roman,serif" font-size="14.00">v_1980</text>
</g>
<!-- v_1980&#45;&gt;p_1990 -->
<g id="edge17" class="edge"><title>v_1980&#45;&gt;p_1990</title>
<path fill="none" stroke="orange" d="M187.602,-201.729C196.413,-197.633 205.677,-193.326 214.485,-189.231"/>
<polygon fill="orange" stroke="orange" points="185.796,-198.709 178.204,-206.098 188.747,-205.056 185.796,-198.709"/>
<polygon fill="orange" stroke="orange" points="223.82,-184.891 216.65,-193.187 219.286,-186.998 214.752,-189.106 214.752,-189.106 214.752,-189.106 219.286,-186.998 212.855,-185.026 223.82,-184.891 223.82,-184.891"/>
<text text-anchor="middle" x="201" y="-315.8" font-family="Times Roman,serif" font-size="8.00"> &#160;&#160;</text>
</g>
<!-- v_1980&#45;&gt;p_2000 -->
<g id="edge19" class="edge"><title>v_1980&#45;&gt;p_2000</title>
<path fill="none" stroke="purple" d="M170.901,-196.751C189.083,-179.685 212.996,-157.24 231.165,-140.187"/>
<polygon fill="purple" stroke="purple" points="168.235,-194.453 163.339,-203.849 173.025,-199.557 168.235,-194.453"/>
<polygon fill="purple" stroke="purple" points="238.567,-133.24 234.355,-143.365 234.921,-136.662 231.275,-140.084 231.275,-140.084 231.275,-140.084 234.921,-136.662 228.196,-136.803 238.567,-133.24 238.567,-133.24"/>
<text text-anchor="middle" x="201" y="-268.8" font-family="Times Roman,serif" font-size="8.00"> &#160;&#160;</text>
</g>
<!-- p_2010 -->
<g id="node11" class="node"><title>p_2010</title>
<polygon fill="white" stroke="white" points="292,-79 224,-79 224,-43 292,-43 292,-79"/>
<text text-anchor="middle" x="258" y="-57.4" font-family="Times Roman,serif" font-size="14.00">p_2010</text>
</g>
<!-- v_1980&#45;&gt;p_2010 -->
<g id="edge21" class="edge"><title>v_1980&#45;&gt;p_2010</title>
<path fill="none" stroke="red" d="M162.671,-195.631C183.782,-165.817 217.963,-117.544 239.148,-87.6247"/>
<polygon fill="red" stroke="red" points="159.778,-193.66 156.856,-203.844 165.491,-197.706 159.778,-193.66"/>
<polygon fill="red" stroke="red" points="245.016,-79.3365 242.91,-90.0982 242.127,-83.4171 239.238,-87.4977 239.238,-87.4977 239.238,-87.4977 242.127,-83.4171 235.565,-84.8973 245.016,-79.3365 245.016,-79.3365"/>
<text text-anchor="middle" x="201" y="-201.8" font-family="Times Roman,serif" font-size="8.00"> &#160;&#160;</text>
</g>
<!-- v_1990 -->
<g id="node5" class="node"><title>v_1990</title>
<polygon fill="white" stroke="white" points="178,-186 110,-186 110,-150 178,-150 178,-186"/>
<text text-anchor="middle" x="144" y="-164.4" font-family="Times Roman,serif" font-size="14.00">v_1990</text>
</g>
<!-- v_1990&#45;&gt;p_1990 -->
<g id="edge23" class="edge"><title>v_1990&#45;&gt;p_1990</title>
<path fill="none" stroke="green" d="M188.316,-168.389C196.607,-168.461 205.275,-168.538 213.57,-168.61"/>
<polygon fill="green" stroke="green" points="188.234,-164.888 178.204,-168.3 188.173,-171.888 188.234,-164.888"/>
<polygon fill="green" stroke="green" points="223.82,-168.7 213.781,-173.112 218.821,-168.656 213.821,-168.612 213.821,-168.612 213.821,-168.612 218.821,-168.656 213.86,-164.113 223.82,-168.7 223.82,-168.7"/>
<text text-anchor="middle" x="201" y="-301.8" font-family="Times Roman,serif" font-size="8.00"> &#160;&#160;</text>
</g>
<!-- v_1990&#45;&gt;p_2000 -->
<g id="edge25" class="edge"><title>v_1990&#45;&gt;p_2000</title>
<path fill="none" stroke="hotpink" d="M187.602,-147.729C196.413,-143.633 205.677,-139.326 214.485,-135.231"/>
<polygon fill="hotpink" stroke="hotpink" points="185.796,-144.709 178.204,-152.098 188.747,-151.056 185.796,-144.709"/>
<polygon fill="hotpink" stroke="hotpink" points="223.82,-130.891 216.65,-139.187 219.286,-132.998 214.752,-135.106 214.752,-135.106 214.752,-135.106 219.286,-132.998 212.855,-131.026 223.82,-130.891 223.82,-130.891"/>
<text text-anchor="middle" x="201" y="-183.8" font-family="Times Roman,serif" font-size="8.00"> &#160;&#160;</text>
</g>
<!-- v_1990&#45;&gt;p_2010 -->
<g id="edge27" class="edge"><title>v_1990&#45;&gt;p_2010</title>
<path fill="none" stroke="gold" d="M170.901,-142.751C189.083,-125.685 212.996,-103.24 231.165,-86.1872"/>
<polygon fill="gold" stroke="gold" points="168.235,-140.453 163.339,-149.849 173.025,-145.557 168.235,-140.453"/>
<polygon fill="gold" stroke="gold" points="238.567,-79.2401 234.355,-89.365 234.921,-82.662 231.275,-86.0838 231.275,-86.0838 231.275,-86.0838 234.921,-82.662 228.196,-82.8027 238.567,-79.2401 238.567,-79.2401"/>
<text text-anchor="middle" x="201" y="-125.8" font-family="Times Roman,serif" font-size="8.00"> &#160;&#160;</text>
</g>
<!-- v_2000 -->
<g id="node6" class="node"><title>v_2000</title>
<polygon fill="white" stroke="white" points="178,-132 110,-132 110,-96 178,-96 178,-132"/>
<text text-anchor="middle" x="144" y="-110.4" font-family="Times Roman,serif" font-size="14.00">v_2000</text>
</g>
<!-- v_2000&#45;&gt;p_2000 -->
<g id="edge29" class="edge"><title>v_2000&#45;&gt;p_2000</title>
<path fill="none" stroke="coral" d="M188.316,-114.389C196.607,-114.461 205.275,-114.538 213.57,-114.61"/>
<polygon fill="coral" stroke="coral" points="188.234,-110.888 178.204,-114.3 188.173,-117.888 188.234,-110.888"/>
<polygon fill="coral" stroke="coral" points="223.82,-114.7 213.781,-119.112 218.821,-114.656 213.821,-114.612 213.821,-114.612 213.821,-114.612 218.821,-114.656 213.86,-110.113 223.82,-114.7 223.82,-114.7"/>
<text text-anchor="middle" x="201" y="-169.8" font-family="Times Roman,serif" font-size="8.00"> &#160;&#160;</text>
</g>
<!-- v_2000&#45;&gt;p_2010 -->
<g id="edge31" class="edge"><title>v_2000&#45;&gt;p_2010</title>
<path fill="none" stroke="limegreen" d="M187.602,-93.7289C196.413,-89.6326 205.677,-85.3258 214.485,-81.2308"/>
<polygon fill="limegreen" stroke="limegreen" points="185.796,-90.7086 178.204,-98.0983 188.747,-97.0562 185.796,-90.7086"/>
<polygon fill="limegreen" stroke="limegreen" points="223.82,-76.8905 216.65,-85.1869 219.286,-78.9984 214.752,-81.1064 214.752,-81.1064 214.752,-81.1064 219.286,-78.9984 212.855,-77.0258 223.82,-76.8905 223.82,-76.8905"/>
<text text-anchor="middle" x="201" y="-92.8" font-family="Times Roman,serif" font-size="8.00"> &#160;&#160;</text>
</g>
<!-- v_2010 -->
<g id="node7" class="node"><title>v_2010</title>
<polygon fill="white" stroke="white" points="178,-78 110,-78 110,-42 178,-42 178,-78"/>
<text text-anchor="middle" x="144" y="-56.4" font-family="Times Roman,serif" font-size="14.00">v_2010</text>
</g>
<!-- v_2010&#45;&gt;p_2010 -->
<g id="edge33" class="edge"><title>v_2010&#45;&gt;p_2010</title>
<path fill="none" stroke="burlywood" d="M188.316,-60.3887C196.607,-60.4615 205.275,-60.5375 213.57,-60.6103"/>
<polygon fill="burlywood" stroke="burlywood" points="188.234,-56.888 178.204,-60.3 188.173,-63.8877 188.234,-56.888"/>
<polygon fill="burlywood" stroke="burlywood" points="223.82,-60.7002 213.781,-65.1122 218.821,-60.6563 213.821,-60.6124 213.821,-60.6124 213.821,-60.6124 218.821,-60.6563 213.86,-56.1125 223.82,-60.7002 223.82,-60.7002"/>
<text text-anchor="middle" x="201" y="-63.8" font-family="Times Roman,serif" font-size="8.00"> &#160;&#160;</text>
</g>
<!-- ELC -->
<g id="node13" class="node"><title>ELC</title>
<a xlink:href="../commodities/commodity_ELC.svg" xlink:title="ELC">
<ellipse fill="lawngreen" stroke="lawngreen" cx="369" cy="-115" rx="31.1127" ry="31.1127"/>
<text text-anchor="middle" x="369" y="-111.4" font-family="Times Roman,serif" font-size="14.00">ELC</text>
</a>
</g>
<!-- p_2000&#45;&gt;ELC -->
<g id="edge8" class="edge"><title>p_2000&#45;&gt;ELC</title>
<path fill="none" stroke="forestgreen" d="M299.676,-115C308.74,-115 318.33,-115 327.391,-115"/>
<polygon fill="forestgreen" stroke="forestgreen" points="327.736,-118.5 337.736,-115 327.736,-111.5 327.736,-118.5"/>
<text text-anchor="middle" x="315" y="-117.8" font-family="Times Roman,serif" font-size="8.00"> &#160;&#160;</text>
</g>
<!-- DSL -->
<g id="node14" class="node"><title>DSL</title>
<a xlink:href="../commodities/commodity_DSL.svg" xlink:title="DSL">
<ellipse fill="lightsteelblue" stroke="lightsteelblue" cx="32" cy="-168" rx="31.8198" ry="31.8198"/>
<text text-anchor="middle" x="32" y="-164.4" font-family="Times Roman,serif" font-size="14.00">DSL</text>
</a>
</g>
<!-- DSL&#45;&gt;v_1990 -->
<g id="edge6" class="edge"><title>DSL&#45;&gt;v_1990</title>
<path fill="none" stroke="firebrick" d="M64.0947,-168C75.1936,-168 87.8349,-168 99.7357,-168"/>
<polygon fill="firebrick" stroke="firebrick" points="92.0002,-171.5 102,-168 91.9998,-164.5 92.0002,-171.5"/>
<text text-anchor="middle" x="87" y="-170.8" font-family="Times Roman,serif" font-size="8.00"> &#160;&#160;</text>
</g>
</g>
</svg>
