<?xml version="1.0" encoding="UTF-8" standalone="no"?>
<!DOCTYPE svg PUBLIC "-//W3C//DTD SVG 1.1//EN"
 "http://www.w3.org/Graphics/SVG/1.1/DTD/svg11.dtd">
<!-- Generated by graphviz version 2.26.3 (20100126.1600)
 -->
<!-- Title: model Pages: 1 -->
<svg width="314pt" height="332pt"
 viewBox="0.00 0.00 314.00 332.00" xmlns="http://www.w3.org/2000/svg" xmlns:xlink="http://www.w3.org/1999/xlink">
<g id="graph1" class="graph" transform="scale(1 1) rotate(0) translate(4 328)">
<title>model</title>
<text text-anchor="middle" x="153" y="-9.4" font-family="Times Roman,serif" font-size="14.00">E51</text>
<g id="graph2" class="cluster"><title>cluster_vintage</title>
<a xlink:href="../simple_model.svg" xlink:title="Vintages">
<polygon fill="lightgrey" stroke="lightgrey" points="8,-50 8,-290 92,-290 92,-50 8,-50"/>
<text text-anchor="middle" x="50" y="-273.4" font-family="Times Roman,serif" font-size="14.00">Vintages</text>
</a>
</g>
<g id="graph3" class="cluster"><title>cluster_period</title>
<a xlink:href="../simple_model.svg" xlink:title="Period">
<polygon fill="lightgrey" stroke="lightgrey" points="122,-52 122,-238 206,-238 206,-52 122,-52"/>
<text text-anchor="middle" x="164" y="-221.4" font-family="Times Roman,serif" font-size="14.00">Period</text>
</a>
</g>
<!-- v_1980 -->
<g id="node2" class="node"><title>v_1980</title>
<polygon fill="white" stroke="white" points="84,-256 16,-256 16,-220 84,-220 84,-256"/>
<text text-anchor="middle" x="50" y="-234.4" font-family="Times Roman,serif" font-size="14.00">v_1980</text>
</g>
<!-- p_1990 -->
<g id="node7" class="node"><title>p_1990</title>
<polygon fill="white" stroke="white" points="198,-204 130,-204 130,-168 198,-168 198,-204"/>
<text text-anchor="middle" x="164" y="-182.4" font-family="Times Roman,serif" font-size="14.00">p_1990</text>
</g>
<!-- v_1980&#45;&gt;p_1990 -->
<g id="edge11" class="edge"><title>v_1980&#45;&gt;p_1990</title>
<path fill="none" stroke="burlywood" d="M93.602,-218.111C102.413,-214.092 111.677,-209.867 120.485,-205.849"/>
<polygon fill="burlywood" stroke="burlywood" points="91.8494,-215.064 84.2038,-222.398 94.7545,-221.433 91.8494,-215.064"/>
<polygon fill="burlywood" stroke="burlywood" points="129.82,-201.591 122.59,-209.835 125.271,-203.666 120.722,-205.741 120.722,-205.741 120.722,-205.741 125.271,-203.666 118.855,-201.647 129.82,-201.591 129.82,-201.591"/>
<text text-anchor="middle" x="107" y="-316.8" font-family="Times Roman,serif" font-size="8.00"> &#160;&#160;</text>
</g>
<!-- p_2000 -->
<g id="node8" class="node"><title>p_2000</title>
<polygon fill="white" stroke="white" points="198,-150 130,-150 130,-114 198,-114 198,-150"/>
<text text-anchor="middle" x="164" y="-128.4" font-family="Times Roman,serif" font-size="14.00">p_2000</text>
</g>
<!-- v_1980&#45;&gt;p_2000 -->
<g id="edge13" class="edge"><title>v_1980&#45;&gt;p_2000</title>
<path fill="none" stroke="hotpink" d="M77.1203,-212.783C95.1905,-195.981 118.846,-173.985 136.91,-157.189"/>
<polygon fill="hotpink" stroke="hotpink" points="74.5374,-210.405 69.5973,-219.778 79.304,-215.532 74.5374,-210.405"/>
<polygon fill="hotpink" stroke="hotpink" points="144.277,-150.339 140.018,-160.444 140.615,-153.744 136.954,-157.148 136.954,-157.148 136.954,-157.148 140.615,-153.744 133.889,-153.853 144.277,-150.339 144.277,-150.339"/>
<text text-anchor="middle" x="107" y="-264.8" font-family="Times Roman,serif" font-size="8.00"> &#160;&#160;</text>
</g>
<!-- p_2010 -->
<g id="node9" class="node"><title>p_2010</title>
<polygon fill="white" stroke="white" points="198,-96 130,-96 130,-60 198,-60 198,-96"/>
<text text-anchor="middle" x="164" y="-74.4" font-family="Times Roman,serif" font-size="14.00">p_2010</text>
</g>
<!-- v_1980&#45;&gt;p_2010 -->
<g id="edge15" class="edge"><title>v_1980&#45;&gt;p_2010</title>
<path fill="none" stroke="purple" d="M68.6711,-211.795C89.7817,-182.166 123.963,-134.193 145.148,-104.459"/>
<polygon fill="purple" stroke="purple" points="65.808,-209.782 62.8556,-219.957 71.5089,-213.844 65.808,-209.782"/>
<polygon fill="purple" stroke="purple" points="151.016,-96.2226 148.879,-106.978 148.115,-100.295 145.214,-104.367 145.214,-104.367 145.214,-104.367 148.115,-100.295 141.549,-101.756 151.016,-96.2226 151.016,-96.2226"/>
<text text-anchor="middle" x="107" y="-206.8" font-family="Times Roman,serif" font-size="8.00"> &#160;&#160;</text>
</g>
<!-- v_1990 -->
<g id="node3" class="node"><title>v_1990</title>
<polygon fill="white" stroke="white" points="84,-202 16,-202 16,-166 84,-166 84,-202"/>
<text text-anchor="middle" x="50" y="-180.4" font-family="Times Roman,serif" font-size="14.00">v_1990</text>
</g>
<!-- v_1990&#45;&gt;p_1990 -->
<g id="edge17" class="edge"><title>v_1990&#45;&gt;p_1990</title>
<path fill="none" stroke="green" d="M94.3157,-184.777C102.607,-184.923 111.275,-185.075 119.57,-185.221"/>
<polygon fill="green" stroke="green" points="94.2636,-181.276 84.2038,-184.6 94.1408,-188.275 94.2636,-181.276"/>
<polygon fill="green" stroke="green" points="129.82,-185.4 119.743,-189.724 124.821,-185.313 119.822,-185.225 119.822,-185.225 119.822,-185.225 124.821,-185.313 119.901,-180.726 129.82,-185.4 129.82,-185.4"/>
<text text-anchor="middle" x="107" y="-250.8" font-family="Times Roman,serif" font-size="8.00"> &#160;&#160;</text>
</g>
<!-- v_1990&#45;&gt;p_2000 -->
<g id="edge19" class="edge"><title>v_1990&#45;&gt;p_2000</title>
<path fill="none" stroke="red" d="M93.602,-164.111C102.413,-160.092 111.677,-155.867 120.485,-151.849"/>
<polygon fill="red" stroke="red" points="91.8494,-161.064 84.2038,-168.398 94.7545,-167.433 91.8494,-161.064"/>
<polygon fill="red" stroke="red" points="129.82,-147.591 122.59,-155.835 125.271,-149.666 120.722,-151.741 120.722,-151.741 120.722,-151.741 125.271,-149.666 118.855,-147.647 129.82,-147.591 129.82,-147.591"/>
<text text-anchor="middle" x="107" y="-185.8" font-family="Times Roman,serif" font-size="8.00"> &#160;&#160;</text>
</g>
<!-- v_1990&#45;&gt;p_2010 -->
<g id="edge21" class="edge"><title>v_1990&#45;&gt;p_2010</title>
<path fill="none" stroke="blue" d="M77.1203,-158.783C95.1905,-141.981 118.846,-119.985 136.91,-103.189"/>
<polygon fill="blue" stroke="blue" points="74.5374,-156.405 69.5973,-165.778 79.304,-161.532 74.5374,-156.405"/>
<polygon fill="blue" stroke="blue" points="144.277,-96.339 140.018,-106.444 140.615,-99.7437 136.954,-103.148 136.954,-103.148 136.954,-103.148 140.615,-99.7437 133.889,-99.8529 144.277,-96.339 144.277,-96.339"/>
<text text-anchor="middle" x="107" y="-139.8" font-family="Times Roman,serif" font-size="8.00"> &#160;&#160;</text>
</g>
<!-- v_2000 -->
<g id="node4" class="node"><title>v_2000</title>
<polygon fill="white" stroke="white" points="84,-94 16,-94 16,-58 84,-58 84,-94"/>
<text text-anchor="middle" x="50" y="-72.4" font-family="Times Roman,serif" font-size="14.00">v_2000</text>
</g>
<!-- v_2000&#45;&gt;p_2000 -->
<g id="edge23" class="edge"><title>v_2000&#45;&gt;p_2000</title>
<path fill="none" stroke="gold" d="M93.2459,-97.2436C102.226,-101.655 111.691,-106.304 120.674,-110.717"/>
<polygon fill="gold" stroke="gold" points="94.7225,-94.0695 84.2038,-92.8018 91.6361,-100.352 94.7225,-94.0695"/>
<polygon fill="gold" stroke="gold" points="129.82,-115.21 118.861,-114.84 125.333,-113.005 120.845,-110.801 120.845,-110.801 120.845,-110.801 125.333,-113.005 122.829,-106.762 129.82,-115.21 129.82,-115.21"/>
<text text-anchor="middle" x="107" y="-151.8" font-family="Times Roman,serif" font-size="8.00"> &#160;&#160;</text>
</g>
<!-- v_2000&#45;&gt;p_2010 -->
<g id="edge25" class="edge"><title>v_2000&#45;&gt;p_2010</title>
<path fill="none" stroke="cyan" d="M94.3157,-76.7775C102.607,-76.9229 111.275,-77.075 119.57,-77.2205"/>
<polygon fill="cyan" stroke="cyan" points="94.2636,-73.2761 84.2038,-76.6001 94.1408,-80.275 94.2636,-73.2761"/>
<polygon fill="cyan" stroke="cyan" points="129.82,-77.4004 119.743,-81.7242 124.821,-77.3126 119.822,-77.2249 119.822,-77.2249 119.822,-77.2249 124.821,-77.3126 119.901,-72.7255 129.82,-77.4004 129.82,-77.4004"/>
<text text-anchor="middle" x="107" y="-73.8" font-family="Times Roman,serif" font-size="8.00"> &#160;&#160;</text>
</g>
<!-- v_2010 -->
<g id="node5" class="node"><title>v_2010</title>
<polygon fill="white" stroke="white" points="84,-148 16,-148 16,-112 84,-112 84,-148"/>
<text text-anchor="middle" x="50" y="-126.4" font-family="Times Roman,serif" font-size="14.00">v_2010</text>
</g>
<!-- v_2010&#45;&gt;p_2010 -->
<g id="edge27" class="edge"><title>v_2010&#45;&gt;p_2010</title>
<path fill="none" stroke="orange" d="M93.602,-110.111C102.413,-106.092 111.677,-101.867 120.485,-97.8491"/>
<polygon fill="orange" stroke="orange" points="91.8494,-107.064 84.2038,-114.398 94.7545,-113.433 91.8494,-107.064"/>
<polygon fill="orange" stroke="orange" points="129.82,-93.5907 122.59,-101.835 125.271,-95.6658 120.722,-97.7408 120.722,-97.7408 120.722,-97.7408 125.271,-95.6658 118.855,-93.6466 129.82,-93.5907 129.82,-93.5907"/>
<text text-anchor="middle" x="107" y="-107.8" font-family="Times Roman,serif" font-size="8.00"> &#160;&#160;</text>
</g>
<!-- ELC -->
<g id="node11" class="node"><title>ELC</title>
<a xlink:href="../commodities/commodity_ELC.svg" xlink:title="ELC">
<ellipse fill="lightsteelblue" stroke="lightsteelblue" cx="275" cy="-87" rx="31.1127" ry="31.1127"/>
<text text-anchor="middle" x="275" y="-83.4" font-family="Times Roman,serif" font-size="14.00">ELC</text>
</a>
</g>
<!-- p_2000&#45;&gt;ELC -->
<g id="edge8" class="edge"><title>p_2000&#45;&gt;ELC</title>
<path fill="none" stroke="forestgreen" d="M205.733,-115.081C215.765,-111.014 226.438,-106.687 236.324,-102.68"/>
<polygon fill="forestgreen" stroke="forestgreen" points="238.001,-105.776 245.954,-98.7755 235.371,-99.289 238.001,-105.776"/>
<text text-anchor="middle" x="221" y="-113.8" font-family="Times Roman,serif" font-size="8.00"> &#160;&#160;</text>
</g>
<!-- ELC&#45;&gt;v_2000 -->
<g id="edge6" class="edge"><title>ELC&#45;&gt;v_2000</title>
<path fill="none" stroke="firebrick" d="M246.872,-73.4668C215.469,-58.3578 169,-36 169,-36 169,-36 127.8,-49.8487 93.8847,-61.2488"/>
<polygon fill="firebrick" stroke="firebrick" points="98.2791,-54.0037 92,-62.5376 102.23,-59.782 98.2791,-54.0037"/>
<text text-anchor="middle" x="164" y="-28.8" font-family="Times Roman,serif" font-size="8.00"> &#160;&#160;</text>
</g>
</g>
</svg>
