<?xml version="1.0" encoding="UTF-8" standalone="no"?>
<!DOCTYPE svg PUBLIC "-//W3C//DTD SVG 1.1//EN"
 "http://www.w3.org/Graphics/SVG/1.1/DTD/svg11.dtd">
<!-- Generated by graphviz version 2.26.3 (20100126.1600)
 -->
<!-- Title: model Pages: 1 -->
<svg width="410pt" height="236pt"
 viewBox="0.00 0.00 410.00 236.00" xmlns="http://www.w3.org/2000/svg" xmlns:xlink="http://www.w3.org/1999/xlink">
<g id="graph1" class="graph" transform="scale(1 1) rotate(0) translate(4 232)">
<title>model</title>
<text text-anchor="middle" x="201" y="-9.4" font-family="Times Roman,serif" font-size="14.00">E21</text>
<g id="graph2" class="cluster"><title>cluster_vintage</title>
<a xlink:href="../simple_model.svg" xlink:title="Vintages">
<polygon fill="lightgrey" stroke="lightgrey" points="104,-34 104,-220 188,-220 188,-34 104,-34"/>
<text text-anchor="middle" x="146" y="-203.4" font-family="Times Roman,serif" font-size="14.00">Vintages</text>
</a>
</g>
<g id="graph3" class="cluster"><title>cluster_period</title>
<a xlink:href="../simple_model.svg" xlink:title="Period">
<polygon fill="lightgrey" stroke="lightgrey" points="218,-34 218,-220 302,-220 302,-34 218,-34"/>
<text text-anchor="middle" x="260" y="-203.4" font-family="Times Roman,serif" font-size="14.00">Period</text>
</a>
</g>
<!-- v_1990 -->
<g id="node2" class="node"><title>v_1990</title>
<polygon fill="white" stroke="white" points="180,-186 112,-186 112,-150 180,-150 180,-186"/>
<text text-anchor="middle" x="146" y="-164.4" font-family="Times Roman,serif" font-size="14.00">v_1990</text>
</g>
<!-- p_1990 -->
<g id="node6" class="node"><title>p_1990</title>
<polygon fill="white" stroke="white" points="294,-186 226,-186 226,-150 294,-150 294,-186"/>
<text text-anchor="middle" x="260" y="-164.4" font-family="Times Roman,serif" font-size="14.00">p_1990</text>
</g>
<!-- v_1990&#45;&gt;p_1990 -->
<g id="edge13" class="edge"><title>v_1990&#45;&gt;p_1990</title>
<path fill="none" stroke="black" d="M190.316,-168C198.607,-168 207.275,-168 215.57,-168"/>
<polygon fill="black" stroke="black" points="190.204,-164.5 180.204,-168 190.204,-171.5 190.204,-164.5"/>
<polygon fill="black" stroke="black" points="225.82,-168 215.82,-172.5 220.82,-168 215.82,-168 215.82,-168 215.82,-168 220.82,-168 215.82,-163.5 225.82,-168 225.82,-168"/>
<text text-anchor="middle" x="203" y="-213.8" font-family="Times Roman,serif" font-size="8.00"> &#160;&#160;</text>
</g>
<!-- p_2000 -->
<g id="node7" class="node"><title>p_2000</title>
<polygon fill="white" stroke="white" points="294,-132 226,-132 226,-96 294,-96 294,-132"/>
<text text-anchor="middle" x="260" y="-110.4" font-family="Times Roman,serif" font-size="14.00">p_2000</text>
</g>
<!-- v_1990&#45;&gt;p_2000 -->
<g id="edge16" class="edge"><title>v_1990&#45;&gt;p_2000</title>
<path fill="none" stroke="blue" d="M189.246,-147.515C198.226,-143.261 207.691,-138.778 216.674,-134.523"/>
<polygon fill="blue" stroke="blue" points="187.743,-144.354 180.204,-151.798 190.739,-150.68 187.743,-144.354"/>
<polygon fill="blue" stroke="blue" points="225.82,-130.19 218.709,-138.538 221.302,-132.331 216.783,-134.471 216.783,-134.471 216.783,-134.471 221.302,-132.331 214.857,-130.404 225.82,-130.19 225.82,-130.19"/>
<text text-anchor="middle" x="203" y="-180.8" font-family="Times Roman,serif" font-size="8.00"> &#160;&#160;</text>
</g>
<!-- p_2010 -->
<g id="node8" class="node"><title>p_2010</title>
<polygon fill="white" stroke="white" points="294,-78 226,-78 226,-42 294,-42 294,-78"/>
<text text-anchor="middle" x="260" y="-56.4" font-family="Times Roman,serif" font-size="14.00">p_2010</text>
</g>
<!-- v_1990&#45;&gt;p_2010 -->
<g id="edge19" class="edge"><title>v_1990&#45;&gt;p_2010</title>
<path fill="none" stroke="cyan" d="M172.406,-142.984C190.721,-125.632 215.026,-102.607 233.387,-85.2127"/>
<polygon fill="cyan" stroke="cyan" points="169.933,-140.505 165.081,-149.923 174.748,-145.587 169.933,-140.505"/>
<polygon fill="cyan" stroke="cyan" points="240.857,-78.1357 236.692,-88.28 237.227,-81.5745 233.597,-85.0132 233.597,-85.0132 233.597,-85.0132 237.227,-81.5745 230.502,-81.7464 240.857,-78.1357 240.857,-78.1357"/>
<text text-anchor="middle" x="203" y="-137.8" font-family="Times Roman,serif" font-size="8.00"> &#160;&#160;</text>
</g>
<!-- v_2000 -->
<g id="node3" class="node"><title>v_2000</title>
<polygon fill="white" stroke="white" points="180,-132 112,-132 112,-96 180,-96 180,-132"/>
<text text-anchor="middle" x="146" y="-110.4" font-family="Times Roman,serif" font-size="14.00">v_2000</text>
</g>
<!-- v_2000&#45;&gt;p_2000 -->
<g id="edge22" class="edge"><title>v_2000&#45;&gt;p_2000</title>
<path fill="none" stroke="gold" d="M190.316,-114C198.607,-114 207.275,-114 215.57,-114"/>
<polygon fill="gold" stroke="gold" points="190.204,-110.5 180.204,-114 190.204,-117.5 190.204,-110.5"/>
<polygon fill="gold" stroke="gold" points="225.82,-114 215.82,-118.5 220.82,-114 215.82,-114 215.82,-114 215.82,-114 220.82,-114 215.82,-109.5 225.82,-114 225.82,-114"/>
<text text-anchor="middle" x="203" y="-116.8" font-family="Times Roman,serif" font-size="8.00"> &#160;&#160;</text>
</g>
<!-- v_2000&#45;&gt;p_2010 -->
<g id="edge25" class="edge"><title>v_2000&#45;&gt;p_2010</title>
<path fill="none" stroke="orange" d="M189.246,-93.5151C198.226,-89.2613 207.691,-84.7781 216.674,-80.5229"/>
<polygon fill="orange" stroke="orange" points="187.743,-90.3542 180.204,-97.7982 190.739,-96.6804 187.743,-90.3542"/>
<polygon fill="orange" stroke="orange" points="225.82,-76.1903 218.709,-84.5381 221.302,-78.3308 216.783,-80.4713 216.783,-80.4713 216.783,-80.4713 221.302,-78.3308 214.857,-76.4044 225.82,-76.1903 225.82,-76.1903"/>
<text text-anchor="middle" x="203" y="-91.8" font-family="Times Roman,serif" font-size="8.00"> &#160;&#160;</text>
</g>
<!-- v_2010 -->
<g id="node4" class="node"><title>v_2010</title>
<polygon fill="white" stroke="white" points="180,-78 112,-78 112,-42 180,-42 180,-78"/>
<text text-anchor="middle" x="146" y="-56.4" font-family="Times Roman,serif" font-size="14.00">v_2010</text>
</g>
<!-- v_2010&#45;&gt;p_2010 -->
<g id="edge28" class="edge"><title>v_2010&#45;&gt;p_2010</title>
<path fill="none" stroke="burlywood" d="M190.316,-60C198.607,-60 207.275,-60 215.57,-60"/>
<polygon fill="burlywood" stroke="burlywood" points="190.204,-56.5001 180.204,-60 190.204,-63.5001 190.204,-56.5001"/>
<polygon fill="burlywood" stroke="burlywood" points="225.82,-60 215.82,-64.5001 220.82,-60 215.82,-60.0001 215.82,-60.0001 215.82,-60.0001 220.82,-60 215.82,-55.5001 225.82,-60 225.82,-60"/>
<text text-anchor="middle" x="203" y="-62.8" font-family="Times Roman,serif" font-size="8.00"> &#160;&#160;</text>
</g>
<!-- ELC -->
<g id="node10" class="node"><title>ELC</title>
<a xlink:href="../commodities/commodity_ELC.svg" xlink:title="ELC">
<ellipse fill="lawngreen" stroke="lawngreen" cx="371" cy="-114" rx="31.1127" ry="31.1127"/>
<text text-anchor="middle" x="371" y="-110.4" font-family="Times Roman,serif" font-size="14.00">ELC</text>
</a>
</g>
<!-- p_2000&#45;&gt;ELC -->
<g id="edge10" class="edge"><title>p_2000&#45;&gt;ELC</title>
<path fill="none" stroke="forestgreen" d="M301.676,-114C310.74,-114 320.33,-114 329.391,-114"/>
<polygon fill="forestgreen" stroke="forestgreen" points="329.736,-117.5 339.736,-114 329.736,-110.5 329.736,-117.5"/>
<text text-anchor="middle" x="317" y="-116.8" font-family="Times Roman,serif" font-size="8.00"> &#160;&#160;</text>
</g>
<!-- FEQ -->
<g id="node11" class="node"><title>FEQ</title>
<a xlink:href="../commodities/commodity_FEQ.svg" xlink:title="FEQ">
<ellipse fill="lightsteelblue" stroke="lightsteelblue" cx="33" cy="-169" rx="31.8198" ry="31.8198"/>
<text text-anchor="middle" x="33" y="-165.4" font-family="Times Roman,serif" font-size="14.00">FEQ</text>
</a>
</g>
<!-- FEQ&#45;&gt;v_2000 -->
<g id="edge6" class="edge"><title>FEQ&#45;&gt;v_2000</title>
<path fill="none" stroke="firebrick" d="M61.8071,-154.979C74.1328,-148.98 88.7947,-141.843 102.402,-135.22"/>
<polygon fill="firebrick" stroke="firebrick" points="99.0499,-143.105 104,-133.738 94.2887,-137.974 99.0499,-143.105"/>
<text text-anchor="middle" x="89" y="-146.8" font-family="Times Roman,serif" font-size="8.00"> &#160;&#160;</text>
</g>
<!-- URN -->
<g id="node12" class="node"><title>URN</title>
<a xlink:href="../commodities/commodity_URN.svg" xlink:title="URN">
<ellipse fill="lightsteelblue" stroke="lightsteelblue" cx="33" cy="-86" rx="33.234" ry="33.234"/>
<text text-anchor="middle" x="33" y="-82.4" font-family="Times Roman,serif" font-size="14.00">URN</text>
</a>
</g>
<!-- URN&#45;&gt;v_2000 -->
<g id="edge8" class="edge"><title>URN&#45;&gt;v_2000</title>
<path fill="none" stroke="firebrick" d="M65.079,-93.9488C76.4977,-96.7782 89.5642,-100.016 101.818,-103.052"/>
<polygon fill="firebrick" stroke="firebrick" points="93.7678,-101.793 104,-104.542 97.7153,-96.0124 93.7678,-101.793"/>
<text text-anchor="middle" x="89" y="-103.8" font-family="Times Roman,serif" font-size="8.00"> &#160;&#160;</text>
</g>
</g>
</svg>
