<?xml version="1.0" encoding="UTF-8" standalone="no"?>
<!DOCTYPE svg PUBLIC "-//W3C//DTD SVG 1.1//EN"
 "http://www.w3.org/Graphics/SVG/1.1/DTD/svg11.dtd">
<!-- Generated by graphviz version 2.26.3 (20100126.1600)
 -->
<!-- Title: model Pages: 1 -->
<svg width="394pt" height="290pt"
 viewBox="0.00 0.00 394.00 290.00" xmlns="http://www.w3.org/2000/svg" xmlns:xlink="http://www.w3.org/1999/xlink">
<g id="graph1" class="graph" transform="scale(1 1) rotate(0) translate(4 286)">
<title>model</title>
<text text-anchor="middle" x="193" y="-9.4" font-family="Times Roman,serif" font-size="14.00">RL1</text>
<g id="graph2" class="cluster"><title>cluster_vintage</title>
<a xlink:href="../simple_model.svg" xlink:title="Vintages">
<polygon fill="lightgrey" stroke="lightgrey" points="100,-34 100,-274 184,-274 184,-34 100,-34"/>
<text text-anchor="middle" x="142" y="-257.4" font-family="Times Roman,serif" font-size="14.00">Vintages</text>
</a>
</g>
<g id="graph3" class="cluster"><title>cluster_period</title>
<a xlink:href="../simple_model.svg" xlink:title="Period">
<polygon fill="lightgrey" stroke="lightgrey" points="214,-38 214,-224 298,-224 298,-38 214,-38"/>
<text text-anchor="middle" x="256" y="-207.4" font-family="Times Roman,serif" font-size="14.00">Period</text>
</a>
</g>
<!-- v_1980 -->
<g id="node2" class="node"><title>v_1980</title>
<polygon fill="white" stroke="white" points="176,-240 108,-240 108,-204 176,-204 176,-240"/>
<text text-anchor="middle" x="142" y="-218.4" font-family="Times Roman,serif" font-size="14.00">v_1980</text>
</g>
<!-- p_1990 -->
<g id="node7" class="node"><title>p_1990</title>
<polygon fill="white" stroke="white" points="290,-190 222,-190 222,-154 290,-154 290,-190"/>
<text text-anchor="middle" x="256" y="-168.4" font-family="Times Roman,serif" font-size="14.00">p_1990</text>
</g>
<!-- v_1980&#45;&gt;p_1990 -->
<g id="edge11" class="edge"><title>v_1980&#45;&gt;p_1990</title>
<path fill="none" stroke="red" d="M185.602,-202.876C194.413,-199.012 203.677,-194.949 212.485,-191.086"/>
<polygon fill="red" stroke="red" points="183.956,-199.776 176.204,-206.998 186.767,-206.187 183.956,-199.776"/>
<polygon fill="red" stroke="red" points="221.82,-186.991 214.47,-195.129 217.241,-188.999 212.662,-191.008 212.662,-191.008 212.662,-191.008 217.241,-188.999 210.855,-186.887 221.82,-186.991 221.82,-186.991"/>
<text text-anchor="middle" x="199" y="-200.8" font-family="Times Roman,serif" font-size="8.00"> &#160;&#160;</text>
</g>
<!-- v_1990 -->
<g id="node3" class="node"><title>v_1990</title>
<polygon fill="white" stroke="white" points="176,-186 108,-186 108,-150 176,-150 176,-186"/>
<text text-anchor="middle" x="142" y="-164.4" font-family="Times Roman,serif" font-size="14.00">v_1990</text>
</g>
<!-- v_1990&#45;&gt;p_1990 -->
<g id="edge13" class="edge"><title>v_1990&#45;&gt;p_1990</title>
<path fill="none" stroke="green" d="M186.316,-169.555C194.607,-169.846 203.275,-170.15 211.57,-170.441"/>
<polygon fill="green" stroke="green" points="186.32,-166.053 176.204,-169.2 186.075,-173.049 186.32,-166.053"/>
<polygon fill="green" stroke="green" points="221.82,-170.801 211.669,-174.947 216.823,-170.625 211.827,-170.45 211.827,-170.45 211.827,-170.45 216.823,-170.625 211.984,-165.953 221.82,-170.801 221.82,-170.801"/>
<text text-anchor="middle" x="199" y="-141.8" font-family="Times Roman,serif" font-size="8.00"> &#160;&#160;</text>
</g>
<!-- v_2000 -->
<g id="node4" class="node"><title>v_2000</title>
<polygon fill="white" stroke="white" points="176,-132 108,-132 108,-96 176,-96 176,-132"/>
<text text-anchor="middle" x="142" y="-110.4" font-family="Times Roman,serif" font-size="14.00">v_2000</text>
</g>
<!-- p_2000 -->
<g id="node8" class="node"><title>p_2000</title>
<polygon fill="white" stroke="white" points="290,-136 222,-136 222,-100 290,-100 290,-136"/>
<text text-anchor="middle" x="256" y="-114.4" font-family="Times Roman,serif" font-size="14.00">p_2000</text>
</g>
<!-- v_2000&#45;&gt;p_2000 -->
<g id="edge15" class="edge"><title>v_2000&#45;&gt;p_2000</title>
<path fill="none" stroke="gold" d="M186.316,-115.555C194.607,-115.846 203.275,-116.15 211.57,-116.441"/>
<polygon fill="gold" stroke="gold" points="186.32,-112.053 176.204,-115.2 186.075,-119.049 186.32,-112.053"/>
<polygon fill="gold" stroke="gold" points="221.82,-116.801 211.669,-120.947 216.823,-116.625 211.827,-116.45 211.827,-116.45 211.827,-116.45 216.823,-116.625 211.984,-111.953 221.82,-116.801 221.82,-116.801"/>
<text text-anchor="middle" x="199" y="-119.8" font-family="Times Roman,serif" font-size="8.00"> &#160;&#160;</text>
</g>
<!-- v_2010 -->
<g id="node5" class="node"><title>v_2010</title>
<polygon fill="white" stroke="white" points="176,-78 108,-78 108,-42 176,-42 176,-78"/>
<text text-anchor="middle" x="142" y="-56.4" font-family="Times Roman,serif" font-size="14.00">v_2010</text>
</g>
<!-- p_2010 -->
<g id="node9" class="node"><title>p_2010</title>
<polygon fill="white" stroke="white" points="290,-82 222,-82 222,-46 290,-46 290,-82"/>
<text text-anchor="middle" x="256" y="-60.4" font-family="Times Roman,serif" font-size="14.00">p_2010</text>
</g>
<!-- v_2010&#45;&gt;p_2010 -->
<g id="edge17" class="edge"><title>v_2010&#45;&gt;p_2010</title>
<path fill="none" stroke="orange" d="M186.316,-61.5549C194.607,-61.8459 203.275,-62.15 211.57,-62.4411"/>
<polygon fill="orange" stroke="orange" points="186.32,-58.053 176.204,-61.2001 186.075,-65.0487 186.32,-58.053"/>
<polygon fill="orange" stroke="orange" points="221.82,-62.8007 211.669,-66.9472 216.823,-62.6253 211.827,-62.45 211.827,-62.45 211.827,-62.45 216.823,-62.6253 211.984,-57.9527 221.82,-62.8007 221.82,-62.8007"/>
<text text-anchor="middle" x="199" y="-65.8" font-family="Times Roman,serif" font-size="8.00"> &#160;&#160;</text>
</g>
<!-- RL -->
<g id="node11" class="node"><title>RL</title>
<a xlink:href="../commodities/commodity_RL.svg" xlink:title="RL">
<ellipse fill="lawngreen" stroke="lawngreen" cx="361" cy="-118" rx="24.2437" ry="24.7487"/>
<text text-anchor="middle" x="361" y="-114.4" font-family="Times Roman,serif" font-size="14.00">RL</text>
</a>
</g>
<!-- p_2000&#45;&gt;RL -->
<g id="edge8" class="edge"><title>p_2000&#45;&gt;RL</title>
<path fill="none" stroke="forestgreen" d="M297.84,-118C307.232,-118 317.099,-118 326.169,-118"/>
<polygon fill="forestgreen" stroke="forestgreen" points="326.388,-121.5 336.388,-118 326.388,-114.5 326.388,-121.5"/>
<text text-anchor="middle" x="313" y="-120.8" font-family="Times Roman,serif" font-size="8.00"> &#160;&#160;</text>
</g>
<!-- ELC -->
<g id="node12" class="node"><title>ELC</title>
<a xlink:href="../commodities/commodity_ELC.svg" xlink:title="ELC">
<ellipse fill="lightsteelblue" stroke="lightsteelblue" cx="31" cy="-114" rx="31.1127" ry="31.1127"/>
<text text-anchor="middle" x="31" y="-110.4" font-family="Times Roman,serif" font-size="14.00">ELC</text>
</a>
</g>
<!-- ELC&#45;&gt;v_2000 -->
<g id="edge6" class="edge"><title>ELC&#45;&gt;v_2000</title>
<path fill="none" stroke="firebrick" d="M62.2151,-114C73.2252,-114 85.8237,-114 97.7069,-114"/>
<polygon fill="firebrick" stroke="firebrick" points="90.0002,-117.5 100,-114 89.9998,-110.5 90.0002,-117.5"/>
<text text-anchor="middle" x="85" y="-116.8" font-family="Times Roman,serif" font-size="8.00"> &#160;&#160;</text>
</g>
</g>
</svg>
