<?xml version="1.0" encoding="UTF-8" standalone="no"?>
<!DOCTYPE svg PUBLIC "-//W3C//DTD SVG 1.1//EN"
 "http://www.w3.org/Graphics/SVG/1.1/DTD/svg11.dtd">
<!-- Generated by graphviz version 2.26.3 (20100126.1600)
 -->
<!-- Title: model Pages: 1 -->
<svg width="415pt" height="155pt"
 viewBox="0.00 0.00 415.00 155.00" xmlns="http://www.w3.org/2000/svg" xmlns:xlink="http://www.w3.org/1999/xlink">
<g id="graph1" class="graph" transform="scale(1 1) rotate(0) translate(4 151)">
<title>model</title>
<polygon fill="white" stroke="white" points="-4,5 -4,-151 412,-151 412,5 -4,5"/>
<text text-anchor="middle" x="203.5" y="-9.4" font-family="Times Roman,serif" font-size="14.00">Results for IMPGSL1 in 2010</text>
<g id="graph2" class="cluster"><title>cluster_vintages</title>
<a xlink:href="results2010.svg" xlink:title="Vintages\nCapacity: 30.00">
<polygon fill="lightgrey" stroke="lightgrey" points="148,-35 148,-139 273,-139 273,-35 148,-35"/>
<text text-anchor="middle" x="210.5" y="-122.4" font-family="Times Roman,serif" font-size="14.00">Vintages</text>
<text text-anchor="middle" x="210.5" y="-104.4" font-family="Times Roman,serif" font-size="14.00">Capacity: 30.00</text>
</a>
</g>
<!-- 1990 -->
<g id="node2" class="node"><title>1990</title>
<a xlink:href="results_IMPGSL1_p2010v1990_segments.svg" xlink:title="1990\nCap: 30.00">
<polygon fill="white" stroke="white" points="256,-87 164,-87 164,-43 256,-43 256,-87"/>
<text text-anchor="middle" x="210" y="-70.4" font-family="Times Roman,serif" font-size="14.00">1990</text>
<text text-anchor="middle" x="210" y="-52.4" font-family="Times Roman,serif" font-size="14.00">Cap: 30.00</text>
</a>
</g>
<!-- GSL -->
<g id="node4" class="node"><title>GSL</title>
<a xlink:href="../commodities/rc_GSL_2010.svg" xlink:title="GSL">
<ellipse fill="lightsteelblue" stroke="lightsteelblue" cx="375" cy="-65" rx="31.8198" ry="31.8198"/>
<text text-anchor="middle" x="375" y="-61.4" font-family="Times Roman,serif" font-size="14.00">GSL</text>
</a>
</g>
<!-- 1990&#45;&gt;GSL -->
<g id="edge8" class="edge"><title>1990&#45;&gt;GSL</title>
<path fill="none" stroke="forestgreen" d="M256.401,-65C280.289,-65 309.207,-65 332.508,-65"/>
<polygon fill="forestgreen" stroke="forestgreen" points="342.78,-65 332.78,-69.5001 337.78,-65 332.78,-65.0001 332.78,-65.0001 332.78,-65.0001 337.78,-65 332.78,-60.5001 342.78,-65 342.78,-65"/>
<text text-anchor="middle" x="304" y="-70.4" font-family="Times Roman,serif" font-size="14.00">30.00</text>
</g>
<!-- ethos -->
<g id="node5" class="node"><title>ethos</title>
<a xlink:href="../commodities/rc_ethos_2010.svg" xlink:title="ethos">
<ellipse fill="lightsteelblue" stroke="lightsteelblue" cx="39" cy="-65" rx="38.8909" ry="38.8909"/>
<text text-anchor="middle" x="39" y="-61.4" font-family="Times Roman,serif" font-size="14.00">ethos</text>
</a>
</g>
<!-- ethos&#45;&gt;1990 -->
<g id="edge5" class="edge"><title>ethos&#45;&gt;1990</title>
<path fill="none" stroke="firebrick" d="M78.2309,-65C100.577,-65 128.957,-65 153.652,-65"/>
<polygon fill="firebrick" stroke="firebrick" points="163.981,-65 153.981,-69.5001 158.981,-65 153.981,-65.0001 153.981,-65.0001 153.981,-65.0001 158.981,-65 153.981,-60.5001 163.981,-65 163.981,-65"/>
<text text-anchor="middle" x="117" y="-70.4" font-family="Times Roman,serif" font-size="14.00">30.00</text>
</g>
</g>
</svg>
