<?xml version="1.0" encoding="UTF-8" standalone="no"?>
<!DOCTYPE svg PUBLIC "-//W3C//DTD SVG 1.1//EN"
 "http://www.w3.org/Graphics/SVG/1.1/DTD/svg11.dtd">
<!-- Generated by graphviz version 2.26.3 (20100126.1600)
 -->
<!-- Title: model Pages: 1 -->
<svg width="438pt" height="236pt"
 viewBox="0.00 0.00 438.00 236.00" xmlns="http://www.w3.org/2000/svg" xmlns:xlink="http://www.w3.org/1999/xlink">
<g id="graph1" class="graph" transform="scale(1 1) rotate(0) translate(4 232)">
<title>model</title>
<polygon fill="white" stroke="white" points="-4,5 -4,-232 435,-232 435,5 -4,5"/>
<text text-anchor="middle" x="215" y="-9.4" font-family="Times Roman,serif" font-size="14.00">Activity split of process IMPFEQ, 1990 in year 2010</text>
<g id="graph2" class="cluster"><title>cluster_slices</title>
<polygon fill="lightgrey" stroke="lightgrey" points="144,-34 144,-220 300,-220 300,-34 144,-34"/>
<text text-anchor="middle" x="222" y="-203.4" font-family="Times Roman,serif" font-size="14.00">1990 Capacity: 0.00</text>
</g>
<!-- summer, day -->
<g id="node2" class="node"><title>summer, day</title>
<polygon fill="white" stroke="white" points="275,-186 169,-186 169,-150 275,-150 275,-186"/>
<text text-anchor="middle" x="222" y="-164.4" font-family="Times Roman,serif" font-size="14.00">summer, day</text>
</g>
<!-- FEQ -->
<g id="node6" class="node"><title>FEQ</title>
<a xlink:href="../commodities/rc_FEQ_2010.svg" xlink:title="FEQ">
<ellipse fill="lightsteelblue" stroke="lightsteelblue" cx="398" cy="-114" rx="31.8198" ry="31.8198"/>
<text text-anchor="middle" x="398" y="-110.4" font-family="Times Roman,serif" font-size="14.00">FEQ</text>
</a>
</g>
<!-- summer, day&#45;&gt;FEQ -->
<g id="edge12" class="edge"><title>summer, day&#45;&gt;FEQ</title>
<path fill="none" stroke="forestgreen" d="M275.283,-151.652C301.782,-143.521 333.283,-133.856 357.734,-126.354"/>
<polygon fill="forestgreen" stroke="forestgreen" points="367.408,-123.386 359.167,-130.622 362.627,-124.853 357.847,-126.32 357.847,-126.32 357.847,-126.32 362.627,-124.853 356.527,-122.018 367.408,-123.386 367.408,-123.386"/>
<text text-anchor="middle" x="329" y="-150.4" font-family="Times Roman,serif" font-size="14.00">&#45;0.00</text>
</g>
<!-- summer, night -->
<g id="node3" class="node"><title>summer, night</title>
<polygon fill="white" stroke="white" points="280,-132 164,-132 164,-96 280,-96 280,-132"/>
<text text-anchor="middle" x="222" y="-110.4" font-family="Times Roman,serif" font-size="14.00">summer, night</text>
</g>
<!-- summer, night&#45;&gt;FEQ -->
<g id="edge14" class="edge"><title>summer, night&#45;&gt;FEQ</title>
<path fill="none" stroke="forestgreen" d="M280.605,-114C305.122,-114 333.077,-114 355.557,-114"/>
<polygon fill="forestgreen" stroke="forestgreen" points="365.789,-114 355.789,-118.5 360.789,-114 355.789,-114 355.789,-114 355.789,-114 360.789,-114 355.789,-109.5 365.789,-114 365.789,-114"/>
<text text-anchor="middle" x="329" y="-119.4" font-family="Times Roman,serif" font-size="14.00">&#45;0.00</text>
</g>
<!-- winter, day -->
<g id="node4" class="node"><title>winter, day</title>
<polygon fill="white" stroke="white" points="270,-78 174,-78 174,-42 270,-42 270,-78"/>
<text text-anchor="middle" x="222" y="-56.4" font-family="Times Roman,serif" font-size="14.00">winter, day</text>
</g>
<!-- winter, day&#45;&gt;FEQ -->
<g id="edge16" class="edge"><title>winter, day&#45;&gt;FEQ</title>
<path fill="none" stroke="forestgreen" d="M270.093,-74.7557C297.619,-83.2011 331.753,-93.6743 357.835,-101.677"/>
<polygon fill="forestgreen" stroke="forestgreen" points="367.406,-104.613 356.526,-105.982 362.626,-103.147 357.846,-101.68 357.846,-101.68 357.846,-101.68 362.626,-103.147 359.166,-97.3778 367.406,-104.613 367.406,-104.613"/>
<text text-anchor="middle" x="329" y="-97.4" font-family="Times Roman,serif" font-size="14.00">&#45;0.00</text>
</g>
<!-- ethos -->
<g id="node7" class="node"><title>ethos</title>
<a xlink:href="../commodities/rc_ethos_2010.svg" xlink:title="ethos">
<ellipse fill="lightsteelblue" stroke="lightsteelblue" cx="39" cy="-114" rx="38.8909" ry="38.8909"/>
<text text-anchor="middle" x="39" y="-110.4" font-family="Times Roman,serif" font-size="14.00">ethos</text>
</a>
</g>
<!-- ethos&#45;&gt;summer, day -->
<g id="edge5" class="edge"><title>ethos&#45;&gt;summer, day</title>
<path fill="none" stroke="firebrick" d="M76.4744,-125.058C100.223,-132.066 131.536,-141.306 159.03,-149.419"/>
<polygon fill="firebrick" stroke="firebrick" points="168.966,-152.351 158.101,-153.836 164.171,-150.936 159.375,-149.52 159.375,-149.52 159.375,-149.52 164.171,-150.936 160.649,-145.204 168.966,-152.351 168.966,-152.351"/>
<text text-anchor="middle" x="115" y="-150.4" font-family="Times Roman,serif" font-size="14.00">&#45;0.00</text>
</g>
<!-- ethos&#45;&gt;summer, night -->
<g id="edge7" class="edge"><title>ethos&#45;&gt;summer, night</title>
<path fill="none" stroke="firebrick" d="M78.2581,-114C100.042,-114 127.767,-114 153.044,-114"/>
<polygon fill="firebrick" stroke="firebrick" points="163.331,-114 153.331,-118.5 158.331,-114 153.331,-114 153.331,-114 153.331,-114 158.331,-114 153.331,-109.5 163.331,-114 163.331,-114"/>
<text text-anchor="middle" x="115" y="-119.4" font-family="Times Roman,serif" font-size="14.00">&#45;0.00</text>
</g>
<!-- ethos&#45;&gt;winter, day -->
<g id="edge9" class="edge"><title>ethos&#45;&gt;winter, day</title>
<path fill="none" stroke="firebrick" d="M76.4744,-102.942C101.637,-95.5171 135.291,-85.5863 163.898,-77.145"/>
<polygon fill="firebrick" stroke="firebrick" points="173.783,-74.2279 165.466,-81.3741 168.988,-75.643 164.192,-77.0581 164.192,-77.0581 164.192,-77.0581 168.988,-75.643 162.919,-72.7421 173.783,-74.2279 173.783,-74.2279"/>
<text text-anchor="middle" x="115" y="-97.4" font-family="Times Roman,serif" font-size="14.00">&#45;0.00</text>
</g>
</g>
</svg>
