<?xml version="1.0" encoding="UTF-8" standalone="no"?>
<!DOCTYPE svg PUBLIC "-//W3C//DTD SVG 1.1//EN"
 "http://www.w3.org/Graphics/SVG/1.1/DTD/svg11.dtd">
<!-- Generated by graphviz version 2.26.3 (20100126.1600)
 -->
<!-- Title: model Pages: 1 -->
<svg width="370pt" height="216pt"
 viewBox="0.00 0.00 370.00 216.00" xmlns="http://www.w3.org/2000/svg" xmlns:xlink="http://www.w3.org/1999/xlink">
<g id="graph1" class="graph" transform="scale(1 1) rotate(0) translate(4 212)">
<title>model</title>
<polygon fill="white" stroke="white" points="-4,5 -4,-212 367,-212 367,5 -4,5"/>
<text text-anchor="middle" x="181" y="-9.4" font-family="Times Roman,serif" font-size="14.00">Results for TXD in 2010</text>
<g id="graph2" class="cluster"><title>cluster_vintages</title>
<a xlink:href="results2010.svg" xlink:title="Vintages\nCapacity: 4.76">
<polygon fill="lightgrey" stroke="lightgrey" points="134,-34 134,-200 250,-200 250,-34 134,-34"/>
<text text-anchor="middle" x="192" y="-183.4" font-family="Times Roman,serif" font-size="14.00">Vintages</text>
<text text-anchor="middle" x="192" y="-165.4" font-family="Times Roman,serif" font-size="14.00">Capacity: 4.76</text>
</a>
</g>
<!-- 2000 -->
<g id="node2" class="node"><title>2000</title>
<a xlink:href="results_TXD_p2010v2000_segments.svg" xlink:title="2000\nCap: 1.56">
<polygon fill="white" stroke="white" points="233,-148 151,-148 151,-104 233,-104 233,-148"/>
<text text-anchor="middle" x="192" y="-131.4" font-family="Times Roman,serif" font-size="14.00">2000</text>
<text text-anchor="middle" x="192" y="-113.4" font-family="Times Roman,serif" font-size="14.00">Cap: 1.56</text>
</a>
</g>
<!-- TX -->
<g id="node6" class="node"><title>TX</title>
<a xlink:href="../commodities/rc_TX_2010.svg" xlink:title="TX">
<ellipse fill="lightsteelblue" stroke="lightsteelblue" cx="336" cy="-97" rx="24.9567" ry="25.4558"/>
<text text-anchor="middle" x="336" y="-93.4" font-family="Times Roman,serif" font-size="14.00">TX</text>
</a>
</g>
<!-- 2000&#45;&gt;TX -->
<g id="edge10" class="edge"><title>2000&#45;&gt;TX</title>
<path fill="none" stroke="forestgreen" d="M233.651,-117.612C254.871,-113.338 280.396,-108.198 300.647,-104.12"/>
<polygon fill="forestgreen" stroke="forestgreen" points="310.706,-102.094 301.791,-108.48 305.804,-103.081 300.903,-104.068 300.903,-104.068 300.903,-104.068 305.804,-103.081 300.014,-99.6568 310.706,-102.094 310.706,-102.094"/>
<text text-anchor="middle" x="276" y="-116.4" font-family="Times Roman,serif" font-size="14.00">1.56</text>
</g>
<!-- 2010 -->
<g id="node3" class="node"><title>2010</title>
<a xlink:href="results_TXD_p2010v2010_segments.svg" xlink:title="2010\nCap: 3.20">
<polygon fill="white" stroke="white" points="233,-86 151,-86 151,-42 233,-42 233,-86"/>
<text text-anchor="middle" x="192" y="-69.4" font-family="Times Roman,serif" font-size="14.00">2010</text>
<text text-anchor="middle" x="192" y="-51.4" font-family="Times Roman,serif" font-size="14.00">Cap: 3.20</text>
</a>
</g>
<!-- 2010&#45;&gt;TX -->
<g id="edge12" class="edge"><title>2010&#45;&gt;TX</title>
<path fill="none" stroke="forestgreen" d="M233.651,-73.545C255.11,-78.4628 280.973,-84.3896 301.331,-89.055"/>
<polygon fill="forestgreen" stroke="forestgreen" points="311.13,-91.3007 300.378,-93.4531 306.257,-90.1838 301.383,-89.0668 301.383,-89.0668 301.383,-89.0668 306.257,-90.1838 302.388,-84.6805 311.13,-91.3007 311.13,-91.3007"/>
<text text-anchor="middle" x="276" y="-89.4" font-family="Times Roman,serif" font-size="14.00">3.20</text>
</g>
<!-- DSL -->
<g id="node5" class="node"><title>DSL</title>
<a xlink:href="../commodities/rc_DSL_2010.svg" xlink:title="DSL">
<ellipse fill="lightsteelblue" stroke="lightsteelblue" cx="32" cy="-97" rx="31.8198" ry="31.8198"/>
<text text-anchor="middle" x="32" y="-93.4" font-family="Times Roman,serif" font-size="14.00">DSL</text>
</a>
</g>
<!-- DSL&#45;&gt;2000 -->
<g id="edge5" class="edge"><title>DSL&#45;&gt;2000</title>
<path fill="none" stroke="firebrick" d="M63.6109,-102.729C85.4628,-106.69 115.03,-112.049 140.283,-116.626"/>
<polygon fill="firebrick" stroke="firebrick" points="150.443,-118.468 139.801,-121.112 145.523,-117.576 140.603,-116.684 140.603,-116.684 140.603,-116.684 145.523,-117.576 141.406,-112.256 150.443,-118.468 150.443,-118.468"/>
<text text-anchor="middle" x="103" y="-118.4" font-family="Times Roman,serif" font-size="14.00">6.75</text>
</g>
<!-- DSL&#45;&gt;2010 -->
<g id="edge7" class="edge"><title>DSL&#45;&gt;2010</title>
<path fill="none" stroke="firebrick" d="M63.6109,-90.4803C85.5599,-85.9533 115.293,-79.8208 140.619,-74.5973"/>
<polygon fill="firebrick" stroke="firebrick" points="150.443,-72.5711 141.558,-78.9984 145.546,-73.5811 140.649,-74.5912 140.649,-74.5912 140.649,-74.5912 145.546,-73.5811 139.74,-70.1839 150.443,-72.5711 150.443,-72.5711"/>
<text text-anchor="middle" x="103" y="-89.4" font-family="Times Roman,serif" font-size="14.00">13.85</text>
</g>
</g>
</svg>
