<?xml version="1.0" encoding="UTF-8" standalone="no"?>
<!DOCTYPE svg PUBLIC "-//W3C//DTD SVG 1.1//EN"
 "http://www.w3.org/Graphics/SVG/1.1/DTD/svg11.dtd">
<!-- Generated by graphviz version 2.26.3 (20100126.1600)
 -->
<!-- Title: model Pages: 1 -->
<svg width="365pt" height="154pt"
 viewBox="0.00 0.00 365.00 154.00" xmlns="http://www.w3.org/2000/svg" xmlns:xlink="http://www.w3.org/1999/xlink">
<g id="graph1" class="graph" transform="scale(1 1) rotate(0) translate(4 150)">
<title>model</title>
<polygon fill="white" stroke="white" points="-4,5 -4,-150 362,-150 362,5 -4,5"/>
<text text-anchor="middle" x="178.5" y="-9.4" font-family="Times Roman,serif" font-size="14.00">Results for RL1 in 2000</text>
<g id="graph2" class="cluster"><title>cluster_vintages</title>
<a xlink:href="results2000.svg" xlink:title="Vintages\nCapacity: 12.60">
<polygon fill="lightgrey" stroke="lightgrey" points="122,-34 122,-138 247,-138 247,-34 122,-34"/>
<text text-anchor="middle" x="184.5" y="-121.4" font-family="Times Roman,serif" font-size="14.00">Vintages</text>
<text text-anchor="middle" x="184.5" y="-103.4" font-family="Times Roman,serif" font-size="14.00">Capacity: 12.60</text>
</a>
</g>
<!-- 2000 -->
<g id="node2" class="node"><title>2000</title>
<a xlink:href="results_RL1_p2000v2000_segments.svg" xlink:title="2000\nCap: 12.60">
<polygon fill="white" stroke="white" points="230,-86 138,-86 138,-42 230,-42 230,-86"/>
<text text-anchor="middle" x="184" y="-69.4" font-family="Times Roman,serif" font-size="14.00">2000</text>
<text text-anchor="middle" x="184" y="-51.4" font-family="Times Roman,serif" font-size="14.00">Cap: 12.60</text>
</a>
</g>
<!-- RL -->
<g id="node5" class="node"><title>RL</title>
<a xlink:href="../commodities/rc_RL_2000.svg" xlink:title="RL">
<ellipse fill="lightsteelblue" stroke="lightsteelblue" cx="332" cy="-64" rx="24.2437" ry="24.7487"/>
<text text-anchor="middle" x="332" y="-60.4" font-family="Times Roman,serif" font-size="14.00">RL</text>
</a>
</g>
<!-- 2000&#45;&gt;RL -->
<g id="edge8" class="edge"><title>2000&#45;&gt;RL</title>
<path fill="none" stroke="forestgreen" d="M230.017,-64C251.595,-64 276.896,-64 296.899,-64"/>
<polygon fill="forestgreen" stroke="forestgreen" points="307.119,-64 297.119,-68.5001 302.119,-64 297.119,-64.0001 297.119,-64.0001 297.119,-64.0001 302.119,-64 297.119,-59.5001 307.119,-64 307.119,-64"/>
<text text-anchor="middle" x="273" y="-69.4" font-family="Times Roman,serif" font-size="14.00">8.40</text>
</g>
<!-- ELC -->
<g id="node4" class="node"><title>ELC</title>
<a xlink:href="../commodities/rc_ELC_2000.svg" xlink:title="ELC">
<ellipse fill="lightsteelblue" stroke="lightsteelblue" cx="31" cy="-64" rx="31.1127" ry="31.1127"/>
<text text-anchor="middle" x="31" y="-60.4" font-family="Times Roman,serif" font-size="14.00">ELC</text>
</a>
</g>
<!-- ELC&#45;&gt;2000 -->
<g id="edge5" class="edge"><title>ELC&#45;&gt;2000</title>
<path fill="none" stroke="firebrick" d="M62.331,-64C81.1239,-64 105.583,-64 127.637,-64"/>
<polygon fill="firebrick" stroke="firebrick" points="137.903,-64 127.903,-68.5001 132.903,-64 127.903,-64.0001 127.903,-64.0001 127.903,-64.0001 132.903,-64 127.903,-59.5001 137.903,-64 137.903,-64"/>
<text text-anchor="middle" x="96" y="-69.4" font-family="Times Roman,serif" font-size="14.00">8.40</text>
</g>
</g>
</svg>
