<?xml version="1.0" encoding="UTF-8" standalone="no"?>
<!DOCTYPE svg PUBLIC "-//W3C//DTD SVG 1.1//EN"
 "http://www.w3.org/Graphics/SVG/1.1/DTD/svg11.dtd">
<!-- Generated by graphviz version 2.26.3 (20100126.1600)
 -->
<!-- Title: model Pages: 1 -->
<svg width="434pt" height="398pt"
 viewBox="0.00 0.00 434.00 398.00" xmlns="http://www.w3.org/2000/svg" xmlns:xlink="http://www.w3.org/1999/xlink">
<g id="graph1" class="graph" transform="scale(1 1) rotate(0) translate(4 394)">
<title>model</title>
<polygon fill="white" stroke="white" points="-4,5 -4,-394 431,-394 431,5 -4,5"/>
<text text-anchor="middle" x="213" y="-9.4" font-family="Times Roman,serif" font-size="14.00">Activity split of process E01, 2000 in year 2000</text>
<g id="graph2" class="cluster"><title>cluster_slices</title>
<polygon fill="lightgrey" stroke="lightgrey" points="138,-34 138,-382 294,-382 294,-34 138,-34"/>
<text text-anchor="middle" x="216" y="-365.4" font-family="Times Roman,serif" font-size="14.00">2000 Capacity: 1.69</text>
</g>
<!-- inter, day -->
<g id="node2" class="node"><title>inter, day</title>
<polygon fill="white" stroke="white" points="257,-348 175,-348 175,-312 257,-312 257,-348"/>
<text text-anchor="middle" x="216" y="-326.4" font-family="Times Roman,serif" font-size="14.00">inter, day</text>
</g>
<!-- ELC -->
<g id="node9" class="node"><title>ELC</title>
<a xlink:href="../commodities/rc_ELC_2000.svg" xlink:title="ELC">
<ellipse fill="lightsteelblue" stroke="lightsteelblue" cx="395" cy="-194" rx="31.1127" ry="31.1127"/>
<text text-anchor="middle" x="395" y="-190.4" font-family="Times Roman,serif" font-size="14.00">ELC</text>
</a>
</g>
<!-- inter, day&#45;&gt;ELC -->
<g id="edge18" class="edge"><title>inter, day&#45;&gt;ELC</title>
<path fill="none" stroke="forestgreen" d="M239.77,-311.94C271.201,-288.06 326.736,-245.865 362.16,-218.951"/>
<polygon fill="forestgreen" stroke="forestgreen" points="370.269,-212.79 365.029,-222.423 366.287,-215.815 362.306,-218.84 362.306,-218.84 362.306,-218.84 366.287,-215.815 359.584,-215.257 370.269,-212.79 370.269,-212.79"/>
<text text-anchor="middle" x="325" y="-300.4" font-family="Times Roman,serif" font-size="14.00">3.39</text>
</g>
<!-- inter, night -->
<g id="node3" class="node"><title>inter, night</title>
<polygon fill="white" stroke="white" points="263,-294 169,-294 169,-258 263,-258 263,-294"/>
<text text-anchor="middle" x="216" y="-272.4" font-family="Times Roman,serif" font-size="14.00">inter, night</text>
</g>
<!-- inter, night&#45;&gt;ELC -->
<g id="edge20" class="edge"><title>inter, night&#45;&gt;ELC</title>
<path fill="none" stroke="forestgreen" d="M255.726,-257.802C286.117,-243.879 327.735,-224.814 357.547,-211.157"/>
<polygon fill="forestgreen" stroke="forestgreen" points="366.782,-206.927 359.565,-215.183 362.236,-209.009 357.69,-211.092 357.69,-211.092 357.69,-211.092 362.236,-209.009 355.816,-207 366.782,-206.927 366.782,-206.927"/>
<text text-anchor="middle" x="325" y="-250.4" font-family="Times Roman,serif" font-size="14.00">1.69</text>
</g>
<!-- summer, day -->
<g id="node4" class="node"><title>summer, day</title>
<polygon fill="white" stroke="white" points="269,-240 163,-240 163,-204 269,-204 269,-240"/>
<text text-anchor="middle" x="216" y="-218.4" font-family="Times Roman,serif" font-size="14.00">summer, day</text>
</g>
<!-- summer, day&#45;&gt;ELC -->
<g id="edge22" class="edge"><title>summer, day&#45;&gt;ELC</title>
<path fill="none" stroke="forestgreen" d="M269.221,-213.675C296.485,-209.41 329.154,-204.3 354.365,-200.356"/>
<polygon fill="forestgreen" stroke="forestgreen" points="364.327,-198.798 355.142,-204.79 359.387,-199.571 354.447,-200.344 354.447,-200.344 354.447,-200.344 359.387,-199.571 353.751,-195.898 364.327,-198.798 364.327,-198.798"/>
<text text-anchor="middle" x="325" y="-213.4" font-family="Times Roman,serif" font-size="14.00">0.96</text>
</g>
<!-- summer, night -->
<g id="node5" class="node"><title>summer, night</title>
<polygon fill="white" stroke="white" points="274,-186 158,-186 158,-150 274,-150 274,-186"/>
<text text-anchor="middle" x="216" y="-164.4" font-family="Times Roman,serif" font-size="14.00">summer, night</text>
</g>
<!-- summer, night&#45;&gt;ELC -->
<g id="edge24" class="edge"><title>summer, night&#45;&gt;ELC</title>
<path fill="none" stroke="forestgreen" d="M274.611,-176.513C300.635,-180.293 330.63,-184.65 354.169,-188.069"/>
<polygon fill="forestgreen" stroke="forestgreen" points="364.162,-189.521 353.619,-192.536 359.214,-188.802 354.266,-188.083 354.266,-188.083 354.266,-188.083 359.214,-188.802 354.913,-183.63 364.162,-189.521 364.162,-189.521"/>
<text text-anchor="middle" x="325" y="-183.4" font-family="Times Roman,serif" font-size="14.00">0.48</text>
</g>
<!-- winter, day -->
<g id="node6" class="node"><title>winter, day</title>
<polygon fill="white" stroke="white" points="264,-132 168,-132 168,-96 264,-96 264,-132"/>
<text text-anchor="middle" x="216" y="-110.4" font-family="Times Roman,serif" font-size="14.00">winter, day</text>
</g>
<!-- winter, day&#45;&gt;ELC -->
<g id="edge26" class="edge"><title>winter, day&#45;&gt;ELC</title>
<path fill="none" stroke="forestgreen" d="M256.618,-132.153C286.868,-145.673 327.864,-163.995 357.372,-177.183"/>
<polygon fill="forestgreen" stroke="forestgreen" points="366.521,-181.272 355.555,-181.3 361.956,-179.232 357.391,-177.192 357.391,-177.192 357.391,-177.192 361.956,-179.232 359.227,-173.083 366.521,-181.272 366.521,-181.272"/>
<text text-anchor="middle" x="325" y="-159.4" font-family="Times Roman,serif" font-size="14.00">11.48</text>
</g>
<!-- winter, night -->
<g id="node7" class="node"><title>winter, night</title>
<polygon fill="white" stroke="white" points="269,-78 163,-78 163,-42 269,-42 269,-78"/>
<text text-anchor="middle" x="216" y="-56.4" font-family="Times Roman,serif" font-size="14.00">winter, night</text>
</g>
<!-- winter, night&#45;&gt;ELC -->
<g id="edge28" class="edge"><title>winter, night&#45;&gt;ELC</title>
<path fill="none" stroke="forestgreen" d="M240.141,-78.0718C271.592,-101.616 326.72,-142.885 362.01,-169.304"/>
<polygon fill="forestgreen" stroke="forestgreen" points="370.093,-175.355 359.391,-172.964 366.09,-172.358 362.088,-169.362 362.088,-169.362 362.088,-169.362 366.09,-172.358 364.785,-165.759 370.093,-175.355 370.093,-175.355"/>
<text text-anchor="middle" x="325" y="-126.4" font-family="Times Roman,serif" font-size="14.00">5.74</text>
</g>
<!-- HCO -->
<g id="node10" class="node"><title>HCO</title>
<a xlink:href="../commodities/rc_HCO_2000.svg" xlink:title="HCO">
<ellipse fill="lightsteelblue" stroke="lightsteelblue" cx="34" cy="-194" rx="33.9411" ry="33.9411"/>
<text text-anchor="middle" x="34" y="-190.4" font-family="Times Roman,serif" font-size="14.00">HCO</text>
</a>
</g>
<!-- HCO&#45;&gt;inter, day -->
<g id="edge5" class="edge"><title>HCO&#45;&gt;inter, day</title>
<path fill="none" stroke="firebrick" d="M61.2472,-214.361C93.883,-238.748 148.504,-279.563 183.361,-305.611"/>
<polygon fill="firebrick" stroke="firebrick" points="191.772,-311.896 181.068,-309.515 187.767,-308.903 183.762,-305.91 183.762,-305.91 183.762,-305.91 187.767,-308.903 186.455,-302.305 191.772,-311.896 191.772,-311.896"/>
<text text-anchor="middle" x="107" y="-300.4" font-family="Times Roman,serif" font-size="14.00">10.59</text>
</g>
<!-- HCO&#45;&gt;inter, night -->
<g id="edge7" class="edge"><title>HCO&#45;&gt;inter, night</title>
<path fill="none" stroke="firebrick" d="M65.2869,-208.096C93.1302,-220.641 134.327,-239.202 166.615,-253.75"/>
<polygon fill="firebrick" stroke="firebrick" points="175.895,-257.931 164.929,-257.926 171.336,-255.877 166.777,-253.823 166.777,-253.823 166.777,-253.823 171.336,-255.877 168.626,-249.72 175.895,-257.931 175.895,-257.931"/>
<text text-anchor="middle" x="107" y="-250.4" font-family="Times Roman,serif" font-size="14.00">5.29</text>
</g>
<!-- HCO&#45;&gt;summer, day -->
<g id="edge9" class="edge"><title>HCO&#45;&gt;summer, day</title>
<path fill="none" stroke="firebrick" d="M67.8063,-199.201C91.6231,-202.865 124.23,-207.882 152.795,-212.276"/>
<polygon fill="firebrick" stroke="firebrick" points="162.709,-213.801 152.141,-216.728 157.767,-213.041 152.825,-212.281 152.825,-212.281 152.825,-212.281 157.767,-213.041 153.51,-207.833 162.709,-213.801 162.709,-213.801"/>
<text text-anchor="middle" x="107" y="-213.4" font-family="Times Roman,serif" font-size="14.00">3.00</text>
</g>
<!-- HCO&#45;&gt;summer, night -->
<g id="edge11" class="edge"><title>HCO&#45;&gt;summer, night</title>
<path fill="none" stroke="firebrick" d="M67.8063,-189.171C90.0478,-185.993 119.955,-181.721 147.077,-177.846"/>
<polygon fill="firebrick" stroke="firebrick" points="157.314,-176.384 148.051,-182.253 152.364,-177.091 147.415,-177.798 147.415,-177.798 147.415,-177.798 152.364,-177.091 146.778,-173.343 157.314,-176.384 157.314,-176.384"/>
<text text-anchor="middle" x="107" y="-183.4" font-family="Times Roman,serif" font-size="14.00">1.50</text>
</g>
<!-- HCO&#45;&gt;winter, day -->
<g id="edge13" class="edge"><title>HCO&#45;&gt;winter, day</title>
<path fill="none" stroke="firebrick" d="M65.2869,-180.248C92.8527,-168.131 133.507,-150.261 165.647,-136.133"/>
<polygon fill="firebrick" stroke="firebrick" points="174.895,-132.068 167.551,-140.212 170.318,-134.08 165.74,-136.092 165.74,-136.092 165.74,-136.092 170.318,-134.08 163.93,-131.973 174.895,-132.068 174.895,-132.068"/>
<text text-anchor="middle" x="107" y="-159.4" font-family="Times Roman,serif" font-size="14.00">35.87</text>
</g>
<!-- HCO&#45;&gt;winter, night -->
<g id="edge15" class="edge"><title>HCO&#45;&gt;winter, night</title>
<path fill="none" stroke="firebrick" d="M61.6419,-173.648C94.1856,-149.688 148.191,-109.925 182.926,-84.351"/>
<polygon fill="firebrick" stroke="firebrick" points="191.317,-78.1731 185.932,-87.7259 187.291,-81.1376 183.264,-84.1021 183.264,-84.1021 183.264,-84.1021 187.291,-81.1376 180.596,-80.4784 191.317,-78.1731 191.317,-78.1731"/>
<text text-anchor="middle" x="107" y="-126.4" font-family="Times Roman,serif" font-size="14.00">17.94</text>
</g>
</g>
</svg>
