<?xml version="1.0" encoding="UTF-8" standalone="no"?>
<!DOCTYPE svg PUBLIC "-//W3C//DTD SVG 1.1//EN"
 "http://www.w3.org/Graphics/SVG/1.1/DTD/svg11.dtd">
<!-- Generated by graphviz version 2.26.3 (20100126.1600)
 -->
<!-- Title: model Pages: 1 -->
<svg width="388pt" height="155pt"
 viewBox="0.00 0.00 388.00 155.00" xmlns="http://www.w3.org/2000/svg" xmlns:xlink="http://www.w3.org/1999/xlink">
<g id="graph1" class="graph" transform="scale(1 1) rotate(0) translate(4 151)">
<title>model</title>
<polygon fill="white" stroke="white" points="-4,5 -4,-151 385,-151 385,5 -4,5"/>
<text text-anchor="middle" x="190" y="-9.4" font-family="Times Roman,serif" font-size="14.00">Results for IMPHYD in 2000</text>
<g id="graph2" class="cluster"><title>cluster_vintages</title>
<a xlink:href="results2000.svg" xlink:title="Vintages\nCapacity: 3.52">
<polygon fill="lightgrey" stroke="lightgrey" points="138,-35 138,-139 254,-139 254,-35 138,-35"/>
<text text-anchor="middle" x="196" y="-122.4" font-family="Times Roman,serif" font-size="14.00">Vintages</text>
<text text-anchor="middle" x="196" y="-104.4" font-family="Times Roman,serif" font-size="14.00">Capacity: 3.52</text>
</a>
</g>
<!-- 1990 -->
<g id="node2" class="node"><title>1990</title>
<a xlink:href="results_IMPHYD_p2000v1990_segments.svg" xlink:title="1990\nCap: 3.52">
<polygon fill="white" stroke="white" points="237,-87 155,-87 155,-43 237,-43 237,-87"/>
<text text-anchor="middle" x="196" y="-70.4" font-family="Times Roman,serif" font-size="14.00">1990</text>
<text text-anchor="middle" x="196" y="-52.4" font-family="Times Roman,serif" font-size="14.00">Cap: 3.52</text>
</a>
</g>
<!-- HYD -->
<g id="node4" class="node"><title>HYD</title>
<a xlink:href="../commodities/rc_HYD_2000.svg" xlink:title="HYD">
<ellipse fill="lightsteelblue" stroke="lightsteelblue" cx="347" cy="-65" rx="33.234" ry="33.234"/>
<text text-anchor="middle" x="347" y="-61.4" font-family="Times Roman,serif" font-size="14.00">HYD</text>
</a>
</g>
<!-- 1990&#45;&gt;HYD -->
<g id="edge8" class="edge"><title>1990&#45;&gt;HYD</title>
<path fill="none" stroke="forestgreen" d="M237.661,-65C258.123,-65 282.766,-65 303.473,-65"/>
<polygon fill="forestgreen" stroke="forestgreen" points="313.592,-65 303.592,-69.5001 308.592,-65 303.592,-65.0001 303.592,-65.0001 303.592,-65.0001 308.592,-65 303.592,-60.5001 313.592,-65 313.592,-65"/>
<text text-anchor="middle" x="280" y="-70.4" font-family="Times Roman,serif" font-size="14.00">3.52</text>
</g>
<!-- ethos -->
<g id="node5" class="node"><title>ethos</title>
<a xlink:href="../commodities/rc_ethos_2000.svg" xlink:title="ethos">
<ellipse fill="lightsteelblue" stroke="lightsteelblue" cx="39" cy="-65" rx="38.8909" ry="38.8909"/>
<text text-anchor="middle" x="39" y="-61.4" font-family="Times Roman,serif" font-size="14.00">ethos</text>
</a>
</g>
<!-- ethos&#45;&gt;1990 -->
<g id="edge5" class="edge"><title>ethos&#45;&gt;1990</title>
<path fill="none" stroke="firebrick" d="M78.2127,-65C98.1161,-65 122.56,-65 144.01,-65"/>
<polygon fill="firebrick" stroke="firebrick" points="154.268,-65 144.268,-69.5001 149.268,-65 144.268,-65.0001 144.268,-65.0001 144.268,-65.0001 149.268,-65 144.267,-60.5001 154.268,-65 154.268,-65"/>
<text text-anchor="middle" x="112" y="-70.4" font-family="Times Roman,serif" font-size="14.00">3.52</text>
</g>
</g>
</svg>
