<?xml version="1.0" encoding="UTF-8" standalone="no"?>
<!DOCTYPE svg PUBLIC "-//W3C//DTD SVG 1.1//EN"
 "http://www.w3.org/Graphics/SVG/1.1/DTD/svg11.dtd">
<!-- Generated by graphviz version 2.26.3 (20100126.1600)
 -->
<!-- Title: model Pages: 1 -->
<svg width="428pt" height="155pt"
 viewBox="0.00 0.00 428.00 155.00" xmlns="http://www.w3.org/2000/svg" xmlns:xlink="http://www.w3.org/1999/xlink">
<g id="graph1" class="graph" transform="scale(1 1) rotate(0) translate(4 151)">
<title>model</title>
<polygon fill="white" stroke="white" points="-4,5 -4,-151 425,-151 425,5 -4,5"/>
<text text-anchor="middle" x="210" y="-9.4" font-family="Times Roman,serif" font-size="14.00">Results for IMPHCO1 in 2000</text>
<g id="graph2" class="cluster"><title>cluster_vintages</title>
<a xlink:href="results2000.svg" xlink:title="Vintages\nCapacity: 150.81">
<polygon fill="lightgrey" stroke="lightgrey" points="148,-35 148,-139 282,-139 282,-35 148,-35"/>
<text text-anchor="middle" x="215" y="-122.4" font-family="Times Roman,serif" font-size="14.00">Vintages</text>
<text text-anchor="middle" x="215" y="-104.4" font-family="Times Roman,serif" font-size="14.00">Capacity: 150.81</text>
</a>
</g>
<!-- 1990 -->
<g id="node2" class="node"><title>1990</title>
<a xlink:href="results_IMPHCO1_p2000v1990_segments.svg" xlink:title="1990\nCap: 150.81">
<polygon fill="white" stroke="white" points="265,-87 165,-87 165,-43 265,-43 265,-87"/>
<text text-anchor="middle" x="215" y="-70.4" font-family="Times Roman,serif" font-size="14.00">1990</text>
<text text-anchor="middle" x="215" y="-52.4" font-family="Times Roman,serif" font-size="14.00">Cap: 150.81</text>
</a>
</g>
<!-- HCO -->
<g id="node4" class="node"><title>HCO</title>
<a xlink:href="../commodities/rc_HCO_2000.svg" xlink:title="HCO">
<ellipse fill="lightsteelblue" stroke="lightsteelblue" cx="386" cy="-65" rx="33.9411" ry="33.9411"/>
<text text-anchor="middle" x="386" y="-61.4" font-family="Times Roman,serif" font-size="14.00">HCO</text>
</a>
</g>
<!-- 1990&#45;&gt;HCO -->
<g id="edge8" class="edge"><title>1990&#45;&gt;HCO</title>
<path fill="none" stroke="forestgreen" d="M265.843,-65C289.918,-65 318.407,-65 341.601,-65"/>
<polygon fill="forestgreen" stroke="forestgreen" points="351.85,-65 341.85,-69.5001 346.85,-65 341.85,-65.0001 341.85,-65.0001 341.85,-65.0001 346.85,-65 341.85,-60.5001 351.85,-65 351.85,-65"/>
<text text-anchor="middle" x="313" y="-70.4" font-family="Times Roman,serif" font-size="14.00">87.00</text>
</g>
<!-- ethos -->
<g id="node5" class="node"><title>ethos</title>
<a xlink:href="../commodities/rc_ethos_2000.svg" xlink:title="ethos">
<ellipse fill="lightsteelblue" stroke="lightsteelblue" cx="39" cy="-65" rx="38.8909" ry="38.8909"/>
<text text-anchor="middle" x="39" y="-61.4" font-family="Times Roman,serif" font-size="14.00">ethos</text>
</a>
</g>
<!-- ethos&#45;&gt;1990 -->
<g id="edge5" class="edge"><title>ethos&#45;&gt;1990</title>
<path fill="none" stroke="firebrick" d="M78.0601,-65C100.401,-65 128.913,-65 154.13,-65"/>
<polygon fill="firebrick" stroke="firebrick" points="164.341,-65 154.341,-69.5001 159.341,-65 154.341,-65.0001 154.341,-65.0001 154.341,-65.0001 159.341,-65 154.341,-60.5001 164.341,-65 164.341,-65"/>
<text text-anchor="middle" x="117" y="-70.4" font-family="Times Roman,serif" font-size="14.00">87.00</text>
</g>
</g>
</svg>
