<?xml version="1.0" encoding="UTF-8" standalone="no"?>
<!DOCTYPE svg PUBLIC "-//W3C//DTD SVG 1.1//EN"
 "http://www.w3.org/Graphics/SVG/1.1/DTD/svg11.dtd">
<!-- Generated by graphviz version 2.26.3 (20100126.1600)
 -->
<!-- Title: model Pages: 1 -->
<svg width="448pt" height="398pt"
 viewBox="0.00 0.00 448.00 398.00" xmlns="http://www.w3.org/2000/svg" xmlns:xlink="http://www.w3.org/1999/xlink">
<g id="graph1" class="graph" transform="scale(1 1) rotate(0) translate(4 394)">
<title>model</title>
<polygon fill="white" stroke="white" points="-4,5 -4,-394 445,-394 445,5 -4,5"/>
<text text-anchor="middle" x="220" y="-9.4" font-family="Times Roman,serif" font-size="14.00">Activity split of process IMPHCO1, 1990 in year 1990</text>
<g id="graph2" class="cluster"><title>cluster_slices</title>
<polygon fill="lightgrey" stroke="lightgrey" points="138,-34 138,-382 312,-382 312,-34 138,-34"/>
<text text-anchor="middle" x="225" y="-365.4" font-family="Times Roman,serif" font-size="14.00">1990 Capacity: 150.81</text>
</g>
<!-- inter, day -->
<g id="node2" class="node"><title>inter, day</title>
<polygon fill="white" stroke="white" points="266,-348 184,-348 184,-312 266,-312 266,-348"/>
<text text-anchor="middle" x="225" y="-326.4" font-family="Times Roman,serif" font-size="14.00">inter, day</text>
</g>
<!-- HCO -->
<g id="node9" class="node"><title>HCO</title>
<a xlink:href="../commodities/rc_HCO_1990.svg" xlink:title="HCO">
<ellipse fill="lightsteelblue" stroke="lightsteelblue" cx="406" cy="-194" rx="33.9411" ry="33.9411"/>
<text text-anchor="middle" x="406" y="-190.4" font-family="Times Roman,serif" font-size="14.00">HCO</text>
</a>
</g>
<!-- inter, day&#45;&gt;HCO -->
<g id="edge18" class="edge"><title>inter, day&#45;&gt;HCO</title>
<path fill="none" stroke="forestgreen" d="M249.035,-311.94C280.105,-288.595 334.469,-247.747 370.355,-220.783"/>
<polygon fill="forestgreen" stroke="forestgreen" points="378.608,-214.582 373.316,-224.187 374.61,-217.586 370.613,-220.589 370.613,-220.589 370.613,-220.589 374.61,-217.586 367.91,-216.992 378.608,-214.582 378.608,-214.582"/>
<text text-anchor="middle" x="338" y="-299.4" font-family="Times Roman,serif" font-size="14.00">1.81</text>
</g>
<!-- inter, night -->
<g id="node3" class="node"><title>inter, night</title>
<polygon fill="white" stroke="white" points="272,-294 178,-294 178,-258 272,-258 272,-294"/>
<text text-anchor="middle" x="225" y="-272.4" font-family="Times Roman,serif" font-size="14.00">inter, night</text>
</g>
<!-- inter, night&#45;&gt;HCO -->
<g id="edge20" class="edge"><title>inter, night&#45;&gt;HCO</title>
<path fill="none" stroke="forestgreen" d="M265.17,-257.802C295.055,-244.263 335.676,-225.859 365.613,-212.297"/>
<polygon fill="forestgreen" stroke="forestgreen" points="374.93,-208.076 367.678,-216.302 370.376,-210.139 365.821,-212.203 365.821,-212.203 365.821,-212.203 370.376,-210.139 363.964,-208.104 374.93,-208.076 374.93,-208.076"/>
<text text-anchor="middle" x="338" y="-250.4" font-family="Times Roman,serif" font-size="14.00">0.90</text>
</g>
<!-- summer, day -->
<g id="node4" class="node"><title>summer, day</title>
<polygon fill="white" stroke="white" points="278,-240 172,-240 172,-204 278,-204 278,-240"/>
<text text-anchor="middle" x="225" y="-218.4" font-family="Times Roman,serif" font-size="14.00">summer, day</text>
</g>
<!-- summer, day&#45;&gt;HCO -->
<g id="edge22" class="edge"><title>summer, day&#45;&gt;HCO</title>
<path fill="none" stroke="forestgreen" d="M278.327,-213.751C304.997,-209.625 336.881,-204.692 362.114,-200.789"/>
<polygon fill="forestgreen" stroke="forestgreen" points="372.134,-199.239 362.94,-205.215 367.193,-200.003 362.252,-200.768 362.252,-200.768 362.252,-200.768 367.193,-200.003 361.564,-196.321 372.134,-199.239 372.134,-199.239"/>
<text text-anchor="middle" x="338" y="-212.4" font-family="Times Roman,serif" font-size="14.00">1.81</text>
</g>
<!-- summer, night -->
<g id="node5" class="node"><title>summer, night</title>
<polygon fill="white" stroke="white" points="283,-186 167,-186 167,-150 283,-150 283,-186"/>
<text text-anchor="middle" x="225" y="-164.4" font-family="Times Roman,serif" font-size="14.00">summer, night</text>
</g>
<!-- summer, night&#45;&gt;HCO -->
<g id="edge24" class="edge"><title>summer, night&#45;&gt;HCO</title>
<path fill="none" stroke="forestgreen" d="M283.766,-176.441C309.302,-180.11 338.699,-184.332 362.263,-187.717"/>
<polygon fill="forestgreen" stroke="forestgreen" points="372.31,-189.161 361.772,-192.193 367.361,-188.45 362.412,-187.739 362.412,-187.739 362.412,-187.739 367.361,-188.45 363.051,-183.284 372.31,-189.161 372.31,-189.161"/>
<text text-anchor="middle" x="338" y="-183.4" font-family="Times Roman,serif" font-size="14.00">0.90</text>
</g>
<!-- winter, day -->
<g id="node6" class="node"><title>winter, day</title>
<polygon fill="white" stroke="white" points="273,-132 177,-132 177,-96 273,-96 273,-132"/>
<text text-anchor="middle" x="225" y="-110.4" font-family="Times Roman,serif" font-size="14.00">winter, day</text>
</g>
<!-- winter, day&#45;&gt;HCO -->
<g id="edge26" class="edge"><title>winter, day&#45;&gt;HCO</title>
<path fill="none" stroke="forestgreen" d="M266.072,-132.153C295.812,-145.298 335.826,-162.984 365.447,-176.076"/>
<polygon fill="forestgreen" stroke="forestgreen" points="374.672,-180.154 363.707,-180.227 370.099,-178.132 365.526,-176.111 365.526,-176.111 365.526,-176.111 370.099,-178.132 367.345,-171.995 374.672,-180.154 374.672,-180.154"/>
<text text-anchor="middle" x="338" y="-159.4" font-family="Times Roman,serif" font-size="14.00">6.19</text>
</g>
<!-- winter, night -->
<g id="node7" class="node"><title>winter, night</title>
<polygon fill="white" stroke="white" points="278,-78 172,-78 172,-42 278,-42 278,-78"/>
<text text-anchor="middle" x="225" y="-56.4" font-family="Times Roman,serif" font-size="14.00">winter, night</text>
</g>
<!-- winter, night&#45;&gt;HCO -->
<g id="edge28" class="edge"><title>winter, night&#45;&gt;HCO</title>
<path fill="none" stroke="forestgreen" d="M249.41,-78.0718C280.498,-101.087 334.464,-141.039 370.206,-167.501"/>
<polygon fill="forestgreen" stroke="forestgreen" points="378.43,-173.589 367.715,-171.256 374.411,-170.614 370.393,-167.639 370.393,-167.639 370.393,-167.639 374.411,-170.614 373.07,-164.022 378.43,-173.589 378.43,-173.589"/>
<text text-anchor="middle" x="338" y="-128.4" font-family="Times Roman,serif" font-size="14.00">3.09</text>
</g>
<!-- ethos -->
<g id="node10" class="node"><title>ethos</title>
<a xlink:href="../commodities/rc_ethos_1990.svg" xlink:title="ethos">
<ellipse fill="lightsteelblue" stroke="lightsteelblue" cx="39" cy="-194" rx="38.8909" ry="38.8909"/>
<text text-anchor="middle" x="39" y="-190.4" font-family="Times Roman,serif" font-size="14.00">ethos</text>
</a>
</g>
<!-- ethos&#45;&gt;inter, day -->
<g id="edge5" class="edge"><title>ethos&#45;&gt;inter, day</title>
<path fill="none" stroke="firebrick" d="M70.5524,-217.071C104.281,-241.732 157.527,-280.665 191.855,-305.765"/>
<polygon fill="firebrick" stroke="firebrick" points="200.152,-311.831 189.423,-309.562 196.116,-308.88 192.08,-305.929 192.08,-305.929 192.08,-305.929 196.116,-308.88 194.736,-302.297 200.152,-311.831 200.152,-311.831"/>
<text text-anchor="middle" x="112" y="-299.4" font-family="Times Roman,serif" font-size="14.00">1.81</text>
</g>
<!-- ethos&#45;&gt;inter, night -->
<g id="edge7" class="edge"><title>ethos&#45;&gt;inter, night</title>
<path fill="none" stroke="firebrick" d="M74.8627,-209.81C103.181,-222.295 143.038,-239.866 174.57,-253.767"/>
<polygon fill="firebrick" stroke="firebrick" points="184.066,-257.954 173.101,-258.038 179.491,-255.937 174.916,-253.92 174.916,-253.92 174.916,-253.92 179.491,-255.937 176.731,-249.802 184.066,-257.954 184.066,-257.954"/>
<text text-anchor="middle" x="112" y="-250.4" font-family="Times Roman,serif" font-size="14.00">0.90</text>
</g>
<!-- ethos&#45;&gt;summer, day -->
<g id="edge9" class="edge"><title>ethos&#45;&gt;summer, day</title>
<path fill="none" stroke="firebrick" d="M77.9917,-199.87C102.28,-203.526 134.088,-208.314 161.903,-212.502"/>
<polygon fill="firebrick" stroke="firebrick" points="171.949,-214.014 161.39,-216.975 167.004,-213.269 162.06,-212.525 162.06,-212.525 162.06,-212.525 167.004,-213.269 162.73,-208.075 171.949,-214.014 171.949,-214.014"/>
<text text-anchor="middle" x="112" y="-213.4" font-family="Times Roman,serif" font-size="14.00">1.81</text>
</g>
<!-- ethos&#45;&gt;summer, night -->
<g id="edge11" class="edge"><title>ethos&#45;&gt;summer, night</title>
<path fill="none" stroke="firebrick" d="M77.9917,-188.55C100.662,-185.381 129.884,-181.296 156.295,-177.604"/>
<polygon fill="firebrick" stroke="firebrick" points="166.26,-176.211 156.979,-182.052 161.308,-176.903 156.356,-177.595 156.356,-177.595 156.356,-177.595 161.308,-176.903 155.733,-173.139 166.26,-176.211 166.26,-176.211"/>
<text text-anchor="middle" x="112" y="-183.4" font-family="Times Roman,serif" font-size="14.00">0.90</text>
</g>
<!-- ethos&#45;&gt;winter, day -->
<g id="edge13" class="edge"><title>ethos&#45;&gt;winter, day</title>
<path fill="none" stroke="firebrick" d="M74.8627,-178.575C102.894,-166.519 142.231,-149.599 173.609,-136.104"/>
<polygon fill="firebrick" stroke="firebrick" points="183.07,-132.035 175.661,-140.12 178.476,-134.01 173.883,-135.986 173.883,-135.986 173.883,-135.986 178.476,-134.01 172.105,-131.852 183.07,-132.035 183.07,-132.035"/>
<text text-anchor="middle" x="112" y="-159.4" font-family="Times Roman,serif" font-size="14.00">6.19</text>
</g>
<!-- ethos&#45;&gt;winter, night -->
<g id="edge15" class="edge"><title>ethos&#45;&gt;winter, night</title>
<path fill="none" stroke="firebrick" d="M70.9745,-170.965C104.68,-146.682 157.531,-108.607 191.721,-83.9755"/>
<polygon fill="firebrick" stroke="firebrick" points="199.988,-78.0196 194.504,-87.5162 195.931,-80.9423 191.874,-83.865 191.874,-83.865 191.874,-83.865 195.931,-80.9423 189.244,-80.2139 199.988,-78.0196 199.988,-78.0196"/>
<text text-anchor="middle" x="112" y="-128.4" font-family="Times Roman,serif" font-size="14.00">3.09</text>
</g>
</g>
</svg>
