<?xml version="1.0" encoding="UTF-8" standalone="no"?>
<!DOCTYPE svg PUBLIC "-//W3C//DTD SVG 1.1//EN"
 "http://www.w3.org/Graphics/SVG/1.1/DTD/svg11.dtd">
<!-- Generated by graphviz version 2.26.3 (20100126.1600)
 -->
<!-- Title: model Pages: 1 -->
<svg width="409pt" height="290pt"
 viewBox="0.00 0.00 409.00 290.00" xmlns="http://www.w3.org/2000/svg" xmlns:xlink="http://www.w3.org/1999/xlink">
<g id="graph1" class="graph" transform="scale(1 1) rotate(0) translate(4 286)">
<title>model</title>
<polygon fill="white" stroke="white" points="-4,5 -4,-286 406,-286 406,5 -4,5"/>
<text text-anchor="middle" x="200.5" y="-9.4" font-family="Times Roman,serif" font-size="14.00">Activity split of process RHO, 1980 in year 1990</text>
<g id="graph2" class="cluster"><title>cluster_slices</title>
<polygon fill="lightgrey" stroke="lightgrey" points="124,-34 124,-274 289,-274 289,-34 124,-34"/>
<text text-anchor="middle" x="206.5" y="-257.4" font-family="Times Roman,serif" font-size="14.00">1980 Capacity: 41.33</text>
</g>
<!-- inter, day -->
<g id="node2" class="node"><title>inter, day</title>
<polygon fill="white" stroke="white" points="247,-240 165,-240 165,-204 247,-204 247,-240"/>
<text text-anchor="middle" x="206" y="-218.4" font-family="Times Roman,serif" font-size="14.00">inter, day</text>
</g>
<!-- RH -->
<g id="node8" class="node"><title>RH</title>
<a xlink:href="../commodities/rc_RH_1990.svg" xlink:title="RH">
<ellipse fill="lightsteelblue" stroke="lightsteelblue" cx="375" cy="-140" rx="26.163" ry="26.163"/>
<text text-anchor="middle" x="375" y="-136.4" font-family="Times Roman,serif" font-size="14.00">RH</text>
</a>
</g>
<!-- inter, day&#45;&gt;RH -->
<g id="edge14" class="edge"><title>inter, day&#45;&gt;RH</title>
<path fill="none" stroke="forestgreen" d="M243.507,-203.802C273.037,-189.473 313.794,-169.697 342.073,-155.976"/>
<polygon fill="forestgreen" stroke="forestgreen" points="351.15,-151.572 344.118,-159.986 346.652,-153.755 342.154,-155.937 342.154,-155.937 342.154,-155.937 346.652,-153.755 340.189,-151.889 351.15,-151.572 351.15,-151.572"/>
<text text-anchor="middle" x="315" y="-195.4" font-family="Times Roman,serif" font-size="14.00">0.91</text>
</g>
<!-- inter, night -->
<g id="node3" class="node"><title>inter, night</title>
<polygon fill="white" stroke="white" points="253,-186 159,-186 159,-150 253,-150 253,-186"/>
<text text-anchor="middle" x="206" y="-164.4" font-family="Times Roman,serif" font-size="14.00">inter, night</text>
</g>
<!-- inter, night&#45;&gt;RH -->
<g id="edge16" class="edge"><title>inter, night&#45;&gt;RH</title>
<path fill="none" stroke="forestgreen" d="M253.526,-160.126C280.691,-155.625 314.207,-150.072 339.148,-145.94"/>
<polygon fill="forestgreen" stroke="forestgreen" points="349.268,-144.263 340.138,-150.337 344.335,-145.081 339.402,-145.898 339.402,-145.898 339.402,-145.898 344.335,-145.081 338.667,-141.458 349.268,-144.263 349.268,-144.263"/>
<text text-anchor="middle" x="315" y="-158.4" font-family="Times Roman,serif" font-size="14.00">0.46</text>
</g>
<!-- winter, day -->
<g id="node4" class="node"><title>winter, day</title>
<polygon fill="white" stroke="white" points="254,-132 158,-132 158,-96 254,-96 254,-132"/>
<text text-anchor="middle" x="206" y="-110.4" font-family="Times Roman,serif" font-size="14.00">winter, day</text>
</g>
<!-- winter, day&#45;&gt;RH -->
<g id="edge18" class="edge"><title>winter, day&#45;&gt;RH</title>
<path fill="none" stroke="forestgreen" d="M254.429,-121.451C281.398,-125.6 314.402,-130.677 339.057,-134.47"/>
<polygon fill="forestgreen" stroke="forestgreen" points="349.071,-136.011 338.503,-138.938 344.129,-135.251 339.187,-134.49 339.187,-134.49 339.187,-134.49 344.129,-135.251 339.871,-130.043 349.071,-136.011 349.071,-136.011"/>
<text text-anchor="middle" x="315" y="-129.4" font-family="Times Roman,serif" font-size="14.00">4.17</text>
</g>
<!-- winter, night -->
<g id="node5" class="node"><title>winter, night</title>
<polygon fill="white" stroke="white" points="259,-78 153,-78 153,-42 259,-42 259,-78"/>
<text text-anchor="middle" x="206" y="-56.4" font-family="Times Roman,serif" font-size="14.00">winter, night</text>
</g>
<!-- winter, night&#45;&gt;RH -->
<g id="edge20" class="edge"><title>winter, night&#45;&gt;RH</title>
<path fill="none" stroke="forestgreen" d="M244.349,-78.1532C273.794,-92.0917 314.024,-111.136 342.033,-124.394"/>
<polygon fill="forestgreen" stroke="forestgreen" points="351.393,-128.825 340.429,-128.614 346.874,-126.686 342.354,-124.546 342.354,-124.546 342.354,-124.546 346.874,-126.686 344.28,-120.479 351.393,-128.825 351.393,-128.825"/>
<text text-anchor="middle" x="315" y="-105.4" font-family="Times Roman,serif" font-size="14.00">2.08</text>
</g>
<!-- DSL -->
<g id="node7" class="node"><title>DSL</title>
<a xlink:href="../commodities/rc_DSL_1990.svg" xlink:title="DSL">
<ellipse fill="lightsteelblue" stroke="lightsteelblue" cx="32" cy="-140" rx="31.8198" ry="31.8198"/>
<text text-anchor="middle" x="32" y="-136.4" font-family="Times Roman,serif" font-size="14.00">DSL</text>
</a>
</g>
<!-- DSL&#45;&gt;inter, day -->
<g id="edge5" class="edge"><title>DSL&#45;&gt;inter, day</title>
<path fill="none" stroke="firebrick" d="M61.1237,-153.725C87.6016,-166.203 127.169,-184.85 158.266,-199.505"/>
<polygon fill="firebrick" stroke="firebrick" points="167.621,-203.914 156.657,-203.721 163.099,-201.782 158.576,-199.651 158.576,-199.651 158.576,-199.651 163.099,-201.782 160.494,-195.58 167.621,-203.914 167.621,-203.914"/>
<text text-anchor="middle" x="98" y="-195.4" font-family="Times Roman,serif" font-size="14.00">1.31</text>
</g>
<!-- DSL&#45;&gt;inter, night -->
<g id="edge7" class="edge"><title>DSL&#45;&gt;inter, night</title>
<path fill="none" stroke="firebrick" d="M63.9143,-145.136C87.4193,-148.918 120.037,-154.167 148.094,-158.682"/>
<polygon fill="firebrick" stroke="firebrick" points="158.198,-160.308 147.61,-163.162 153.262,-159.513 148.325,-158.719 148.325,-158.719 148.325,-158.719 153.262,-159.513 149.04,-154.276 158.198,-160.308 158.198,-160.308"/>
<text text-anchor="middle" x="98" y="-159.4" font-family="Times Roman,serif" font-size="14.00">0.65</text>
</g>
<!-- DSL&#45;&gt;winter, day -->
<g id="edge9" class="edge"><title>DSL&#45;&gt;winter, day</title>
<path fill="none" stroke="firebrick" d="M63.9143,-135.231C87.3319,-131.732 119.795,-126.881 147.781,-122.699"/>
<polygon fill="firebrick" stroke="firebrick" points="157.863,-121.193 148.638,-127.121 152.918,-121.932 147.973,-122.671 147.973,-122.671 147.973,-122.671 152.918,-121.932 147.308,-118.22 157.863,-121.193 157.863,-121.193"/>
<text text-anchor="middle" x="98" y="-129.4" font-family="Times Roman,serif" font-size="14.00">5.95</text>
</g>
<!-- DSL&#45;&gt;winter, night -->
<g id="edge11" class="edge"><title>DSL&#45;&gt;winter, night</title>
<path fill="none" stroke="firebrick" d="M61.1237,-126.61C87.3386,-114.557 126.384,-96.6049 157.337,-82.3737"/>
<polygon fill="firebrick" stroke="firebrick" points="166.66,-78.0873 159.454,-86.3532 162.117,-80.1759 157.575,-82.2646 157.575,-82.2646 157.575,-82.2646 162.117,-80.1759 155.695,-78.1761 166.66,-78.0873 166.66,-78.0873"/>
<text text-anchor="middle" x="98" y="-105.4" font-family="Times Roman,serif" font-size="14.00">2.98</text>
</g>
</g>
</svg>
