<?xml version="1.0" encoding="UTF-8" standalone="no"?>
<!DOCTYPE svg PUBLIC "-//W3C//DTD SVG 1.1//EN"
 "http://www.w3.org/Graphics/SVG/1.1/DTD/svg11.dtd">
<!-- Generated by graphviz version 2.26.3 (20100126.1600)
 -->
<!-- Title: model Pages: 1 -->
<svg width="468pt" height="398pt"
 viewBox="0.00 0.00 468.00 398.00" xmlns="http://www.w3.org/2000/svg" xmlns:xlink="http://www.w3.org/1999/xlink">
<g id="graph1" class="graph" transform="scale(1 1) rotate(0) translate(4 394)">
<title>model</title>
<polygon fill="white" stroke="white" points="-4,5 -4,-394 465,-394 465,5 -4,5"/>
<text text-anchor="middle" x="230" y="-9.4" font-family="Times Roman,serif" font-size="14.00">Activity split of process IMPHCO1, 1990 in year 2000</text>
<g id="graph2" class="cluster"><title>cluster_slices</title>
<polygon fill="lightgrey" stroke="lightgrey" points="148,-34 148,-382 322,-382 322,-34 148,-34"/>
<text text-anchor="middle" x="235" y="-365.4" font-family="Times Roman,serif" font-size="14.00">1990 Capacity: 150.81</text>
</g>
<!-- inter, day -->
<g id="node2" class="node"><title>inter, day</title>
<polygon fill="white" stroke="white" points="276,-348 194,-348 194,-312 276,-312 276,-348"/>
<text text-anchor="middle" x="235" y="-326.4" font-family="Times Roman,serif" font-size="14.00">inter, day</text>
</g>
<!-- HCO -->
<g id="node9" class="node"><title>HCO</title>
<a xlink:href="../commodities/rc_HCO_2000.svg" xlink:title="HCO">
<ellipse fill="lightsteelblue" stroke="lightsteelblue" cx="426" cy="-194" rx="33.9411" ry="33.9411"/>
<text text-anchor="middle" x="426" y="-190.4" font-family="Times Roman,serif" font-size="14.00">HCO</text>
</a>
</g>
<!-- inter, day&#45;&gt;HCO -->
<g id="edge18" class="edge"><title>inter, day&#45;&gt;HCO</title>
<path fill="none" stroke="forestgreen" d="M260.363,-311.94C293.571,-288.295 351.996,-246.694 389.836,-219.751"/>
<polygon fill="forestgreen" stroke="forestgreen" points="398.048,-213.903 392.512,-223.369 393.975,-216.803 389.902,-219.703 389.902,-219.703 389.902,-219.703 393.975,-216.803 387.292,-216.038 398.048,-213.903 398.048,-213.903"/>
<text text-anchor="middle" x="353" y="-300.4" font-family="Times Roman,serif" font-size="14.00">10.59</text>
</g>
<!-- inter, night -->
<g id="node3" class="node"><title>inter, night</title>
<polygon fill="white" stroke="white" points="282,-294 188,-294 188,-258 282,-258 282,-294"/>
<text text-anchor="middle" x="235" y="-272.4" font-family="Times Roman,serif" font-size="14.00">inter, night</text>
</g>
<!-- inter, night&#45;&gt;HCO -->
<g id="edge20" class="edge"><title>inter, night&#45;&gt;HCO</title>
<path fill="none" stroke="forestgreen" d="M277.389,-257.802C309.56,-243.99 353.52,-225.117 385.274,-211.484"/>
<polygon fill="forestgreen" stroke="forestgreen" points="394.711,-207.433 387.297,-215.513 390.116,-209.406 385.522,-211.378 385.522,-211.378 385.522,-211.378 390.116,-209.406 383.747,-207.243 394.711,-207.433 394.711,-207.433"/>
<text text-anchor="middle" x="353" y="-250.4" font-family="Times Roman,serif" font-size="14.00">5.29</text>
</g>
<!-- summer, day -->
<g id="node4" class="node"><title>summer, day</title>
<polygon fill="white" stroke="white" points="288,-240 182,-240 182,-204 288,-204 288,-240"/>
<text text-anchor="middle" x="235" y="-218.4" font-family="Times Roman,serif" font-size="14.00">summer, day</text>
</g>
<!-- summer, day&#45;&gt;HCO -->
<g id="edge22" class="edge"><title>summer, day&#45;&gt;HCO</title>
<path fill="none" stroke="forestgreen" d="M288.204,-214.2C317.893,-209.848 354.417,-204.494 382.401,-200.391"/>
<polygon fill="forestgreen" stroke="forestgreen" points="392.296,-198.941 383.055,-204.844 387.349,-199.666 382.402,-200.391 382.402,-200.391 382.402,-200.391 387.349,-199.666 381.749,-195.939 392.296,-198.941 392.296,-198.941"/>
<text text-anchor="middle" x="353" y="-213.4" font-family="Times Roman,serif" font-size="14.00">3.00</text>
</g>
<!-- summer, night -->
<g id="node5" class="node"><title>summer, night</title>
<polygon fill="white" stroke="white" points="293,-186 177,-186 177,-150 293,-150 293,-186"/>
<text text-anchor="middle" x="235" y="-164.4" font-family="Times Roman,serif" font-size="14.00">summer, night</text>
</g>
<!-- summer, night&#45;&gt;HCO -->
<g id="edge24" class="edge"><title>summer, night&#45;&gt;HCO</title>
<path fill="none" stroke="forestgreen" d="M293.604,-175.978C322.163,-179.865 355.923,-184.461 382.204,-188.038"/>
<polygon fill="forestgreen" stroke="forestgreen" points="392.245,-189.405 381.73,-192.515 387.291,-188.731 382.337,-188.056 382.337,-188.056 382.337,-188.056 387.291,-188.731 382.944,-183.597 392.245,-189.405 392.245,-189.405"/>
<text text-anchor="middle" x="353" y="-183.4" font-family="Times Roman,serif" font-size="14.00">1.50</text>
</g>
<!-- winter, day -->
<g id="node6" class="node"><title>winter, day</title>
<polygon fill="white" stroke="white" points="283,-132 187,-132 187,-96 283,-96 283,-132"/>
<text text-anchor="middle" x="235" y="-110.4" font-family="Times Roman,serif" font-size="14.00">winter, day</text>
</g>
<!-- winter, day&#45;&gt;HCO -->
<g id="edge26" class="edge"><title>winter, day&#45;&gt;HCO</title>
<path fill="none" stroke="forestgreen" d="M278.341,-132.153C310.359,-145.564 353.661,-163.701 385.089,-176.864"/>
<polygon fill="forestgreen" stroke="forestgreen" points="394.435,-180.779 383.473,-181.066 389.823,-178.847 385.212,-176.916 385.212,-176.916 385.212,-176.916 389.823,-178.847 386.95,-172.765 394.435,-180.779 394.435,-180.779"/>
<text text-anchor="middle" x="353" y="-159.4" font-family="Times Roman,serif" font-size="14.00">44.41</text>
</g>
<!-- winter, night -->
<g id="node7" class="node"><title>winter, night</title>
<polygon fill="white" stroke="white" points="288,-78 182,-78 182,-42 288,-42 288,-78"/>
<text text-anchor="middle" x="235" y="-56.4" font-family="Times Roman,serif" font-size="14.00">winter, night</text>
</g>
<!-- winter, night&#45;&gt;HCO -->
<g id="edge28" class="edge"><title>winter, night&#45;&gt;HCO</title>
<path fill="none" stroke="forestgreen" d="M260.759,-78.0718C293.847,-101.286 351.495,-141.729 389.2,-168.182"/>
<polygon fill="forestgreen" stroke="forestgreen" points="397.861,-174.258 387.09,-172.199 393.767,-171.387 389.674,-168.515 389.674,-168.515 389.674,-168.515 393.767,-171.387 392.259,-164.831 397.861,-174.258 397.861,-174.258"/>
<text text-anchor="middle" x="353" y="-126.4" font-family="Times Roman,serif" font-size="14.00">22.21</text>
</g>
<!-- ethos -->
<g id="node10" class="node"><title>ethos</title>
<a xlink:href="../commodities/rc_ethos_2000.svg" xlink:title="ethos">
<ellipse fill="lightsteelblue" stroke="lightsteelblue" cx="39" cy="-194" rx="38.8909" ry="38.8909"/>
<text text-anchor="middle" x="39" y="-190.4" font-family="Times Roman,serif" font-size="14.00">ethos</text>
</a>
</g>
<!-- ethos&#45;&gt;inter, day -->
<g id="edge5" class="edge"><title>ethos&#45;&gt;inter, day</title>
<path fill="none" stroke="firebrick" d="M71.3654,-216.458C106.999,-241.183 164.059,-280.776 200.516,-306.072"/>
<polygon fill="firebrick" stroke="firebrick" points="208.865,-311.866 198.084,-309.862 204.757,-309.015 200.649,-306.165 200.649,-306.165 200.649,-306.165 204.757,-309.015 203.215,-302.468 208.865,-311.866 208.865,-311.866"/>
<text text-anchor="middle" x="117" y="-300.4" font-family="Times Roman,serif" font-size="14.00">10.59</text>
</g>
<!-- ethos&#45;&gt;inter, night -->
<g id="edge7" class="edge"><title>ethos&#45;&gt;inter, night</title>
<path fill="none" stroke="firebrick" d="M75.4068,-209.231C105.562,-221.847 148.802,-239.938 182.67,-254.107"/>
<polygon fill="firebrick" stroke="firebrick" points="191.955,-257.991 180.993,-258.283 187.342,-256.061 182.73,-254.132 182.73,-254.132 182.73,-254.132 187.342,-256.061 184.466,-249.98 191.955,-257.991 191.955,-257.991"/>
<text text-anchor="middle" x="117" y="-250.4" font-family="Times Roman,serif" font-size="14.00">5.29</text>
</g>
<!-- ethos&#45;&gt;summer, day -->
<g id="edge9" class="edge"><title>ethos&#45;&gt;summer, day</title>
<path fill="none" stroke="firebrick" d="M77.7233,-199.532C104.485,-203.355 140.694,-208.528 171.624,-212.946"/>
<polygon fill="firebrick" stroke="firebrick" points="181.889,-214.413 171.353,-217.453 176.939,-213.706 171.989,-212.998 171.989,-212.998 171.989,-212.998 176.939,-213.706 172.626,-208.544 181.889,-214.413 181.889,-214.413"/>
<text text-anchor="middle" x="117" y="-213.4" font-family="Times Roman,serif" font-size="14.00">3.00</text>
</g>
<!-- ethos&#45;&gt;summer, night -->
<g id="edge11" class="edge"><title>ethos&#45;&gt;summer, night</title>
<path fill="none" stroke="firebrick" d="M77.7233,-188.863C102.872,-185.527 136.363,-181.084 165.976,-177.156"/>
<polygon fill="firebrick" stroke="firebrick" points="176.268,-175.791 166.947,-181.567 171.312,-176.448 166.355,-177.106 166.355,-177.106 166.355,-177.106 171.312,-176.448 165.763,-172.645 176.268,-175.791 176.268,-175.791"/>
<text text-anchor="middle" x="117" y="-183.4" font-family="Times Roman,serif" font-size="14.00">1.50</text>
</g>
<!-- ethos&#45;&gt;winter, day -->
<g id="edge13" class="edge"><title>ethos&#45;&gt;winter, day</title>
<path fill="none" stroke="firebrick" d="M75.4068,-179.14C105.131,-167.008 147.569,-149.686 181.211,-135.955"/>
<polygon fill="firebrick" stroke="firebrick" points="190.896,-132.001 183.338,-139.947 186.267,-133.891 181.638,-135.78 181.638,-135.78 181.638,-135.78 186.267,-133.891 179.937,-131.614 190.896,-132.001 190.896,-132.001"/>
<text text-anchor="middle" x="117" y="-159.4" font-family="Times Roman,serif" font-size="14.00">44.41</text>
</g>
<!-- ethos&#45;&gt;winter, night -->
<g id="edge15" class="edge"><title>ethos&#45;&gt;winter, night</title>
<path fill="none" stroke="firebrick" d="M71.3654,-171.873C106.898,-147.58 163.737,-108.721 200.206,-83.7875"/>
<polygon fill="firebrick" stroke="firebrick" points="208.563,-78.074 202.848,-87.4327 204.436,-80.8959 200.308,-83.7179 200.308,-83.7179 200.308,-83.7179 204.436,-80.8959 197.768,-80.0031 208.563,-78.074 208.563,-78.074"/>
<text text-anchor="middle" x="117" y="-126.4" font-family="Times Roman,serif" font-size="14.00">22.21</text>
</g>
</g>
</svg>
