<?xml version="1.0" encoding="UTF-8" standalone="no"?>
<!DOCTYPE svg PUBLIC "-//W3C//DTD SVG 1.1//EN"
 "http://www.w3.org/Graphics/SVG/1.1/DTD/svg11.dtd">
<!-- Generated by graphviz version 2.26.3 (20100126.1600)
 -->
<!-- Title: model Pages: 1 -->
<svg width="414pt" height="182pt"
 viewBox="0.00 0.00 414.00 182.00" xmlns="http://www.w3.org/2000/svg" xmlns:xlink="http://www.w3.org/1999/xlink">
<g id="graph1" class="graph" transform="scale(1 1) rotate(0) translate(4 178)">
<title>model</title>
<polygon fill="white" stroke="white" points="-4,5 -4,-178 411,-178 411,5 -4,5"/>
<text text-anchor="middle" x="203" y="-9.4" font-family="Times Roman,serif" font-size="14.00">Activity split of process E01, 1970 in year 1990</text>
<g id="graph2" class="cluster"><title>cluster_slices</title>
<polygon fill="lightgrey" stroke="lightgrey" points="128,-34 128,-166 284,-166 284,-34 128,-34"/>
<text text-anchor="middle" x="206" y="-149.4" font-family="Times Roman,serif" font-size="14.00">1970 Capacity: 0.50</text>
</g>
<!-- winter, day -->
<g id="node2" class="node"><title>winter, day</title>
<polygon fill="white" stroke="white" points="254,-132 158,-132 158,-96 254,-96 254,-132"/>
<text text-anchor="middle" x="206" y="-110.4" font-family="Times Roman,serif" font-size="14.00">winter, day</text>
</g>
<!-- ELC -->
<g id="node5" class="node"><title>ELC</title>
<a xlink:href="../commodities/rc_ELC_1990.svg" xlink:title="ELC">
<ellipse fill="lightsteelblue" stroke="lightsteelblue" cx="375" cy="-88" rx="31.1127" ry="31.1127"/>
<text text-anchor="middle" x="375" y="-84.4" font-family="Times Roman,serif" font-size="14.00">ELC</text>
</a>
</g>
<!-- winter, day&#45;&gt;ELC -->
<g id="edge10" class="edge"><title>winter, day&#45;&gt;ELC</title>
<path fill="none" stroke="forestgreen" d="M254.429,-106.549C279.578,-102.68 309.976,-98.0038 333.957,-94.3143"/>
<polygon fill="forestgreen" stroke="forestgreen" points="344.144,-92.7471 334.945,-98.7154 339.202,-93.5074 334.26,-94.2677 334.26,-94.2677 334.26,-94.2677 339.202,-93.5074 333.576,-89.82 344.144,-92.7471 344.144,-92.7471"/>
<text text-anchor="middle" x="310" y="-105.4" font-family="Times Roman,serif" font-size="14.00">0.51</text>
</g>
<!-- winter, night -->
<g id="node3" class="node"><title>winter, night</title>
<polygon fill="white" stroke="white" points="259,-78 153,-78 153,-42 259,-42 259,-78"/>
<text text-anchor="middle" x="206" y="-56.4" font-family="Times Roman,serif" font-size="14.00">winter, night</text>
</g>
<!-- winter, night&#45;&gt;ELC -->
<g id="edge12" class="edge"><title>winter, night&#45;&gt;ELC</title>
<path fill="none" stroke="forestgreen" d="M259.937,-68.9364C283.954,-72.9155 311.778,-77.5254 334.049,-81.2152"/>
<polygon fill="forestgreen" stroke="forestgreen" points="344.175,-82.8929 333.574,-85.6977 339.242,-82.0756 334.309,-81.2583 334.309,-81.2583 334.309,-81.2583 339.242,-82.0756 335.045,-76.8188 344.175,-82.8929 344.175,-82.8929"/>
<text text-anchor="middle" x="310" y="-79.4" font-family="Times Roman,serif" font-size="14.00">0.25</text>
</g>
<!-- HCO -->
<g id="node6" class="node"><title>HCO</title>
<a xlink:href="../commodities/rc_HCO_1990.svg" xlink:title="HCO">
<ellipse fill="lightsteelblue" stroke="lightsteelblue" cx="34" cy="-88" rx="33.9411" ry="33.9411"/>
<text text-anchor="middle" x="34" y="-84.4" font-family="Times Roman,serif" font-size="14.00">HCO</text>
</a>
</g>
<!-- HCO&#45;&gt;winter, day -->
<g id="edge5" class="edge"><title>HCO&#45;&gt;winter, day</title>
<path fill="none" stroke="firebrick" d="M67.9817,-93.1368C90.7264,-96.5749 121.247,-101.188 147.804,-105.203"/>
<polygon fill="firebrick" stroke="firebrick" points="157.763,-106.708 147.203,-109.663 152.819,-105.961 147.875,-105.214 147.875,-105.214 147.875,-105.214 152.819,-105.961 148.548,-100.764 157.763,-106.708 157.763,-106.708"/>
<text text-anchor="middle" x="102" y="-105.4" font-family="Times Roman,serif" font-size="14.00">1.59</text>
</g>
<!-- HCO&#45;&gt;winter, night -->
<g id="edge7" class="edge"><title>HCO&#45;&gt;winter, night</title>
<path fill="none" stroke="firebrick" d="M67.5716,-82.5348C88.8032,-79.0785 116.929,-74.5 142.28,-70.373"/>
<polygon fill="firebrick" stroke="firebrick" points="152.207,-68.7571 143.06,-74.8055 147.271,-69.5605 142.336,-70.3639 142.336,-70.3639 142.336,-70.3639 147.271,-69.5605 141.613,-65.9224 152.207,-68.7571 152.207,-68.7571"/>
<text text-anchor="middle" x="102" y="-80.4" font-family="Times Roman,serif" font-size="14.00">0.79</text>
</g>
</g>
</svg>
