<?xml version="1.0" encoding="UTF-8" standalone="no"?>
<!DOCTYPE svg PUBLIC "-//W3C//DTD SVG 1.1//EN"
 "http://www.w3.org/Graphics/SVG/1.1/DTD/svg11.dtd">
<!-- Generated by graphviz version 2.26.3 (20100126.1600)
 -->
<!-- Title: model Pages: 1 -->
<svg width="389pt" height="216pt"
 viewBox="0.00 0.00 389.00 216.00" xmlns="http://www.w3.org/2000/svg" xmlns:xlink="http://www.w3.org/1999/xlink">
<g id="graph1" class="graph" transform="scale(1 1) rotate(0) translate(4 212)">
<title>model</title>
<polygon fill="white" stroke="white" points="-4,5 -4,-212 386,-212 386,5 -4,5"/>
<text text-anchor="middle" x="190.5" y="-9.4" font-family="Times Roman,serif" font-size="14.00">Results for RHO in 2010</text>
<g id="graph2" class="cluster"><title>cluster_vintages</title>
<a xlink:href="results2010.svg" xlink:title="Vintages\nCapacity: 59.84">
<polygon fill="lightgrey" stroke="lightgrey" points="134,-34 134,-200 259,-200 259,-34 134,-34"/>
<text text-anchor="middle" x="196.5" y="-183.4" font-family="Times Roman,serif" font-size="14.00">Vintages</text>
<text text-anchor="middle" x="196.5" y="-165.4" font-family="Times Roman,serif" font-size="14.00">Capacity: 59.84</text>
</a>
</g>
<!-- 1990 -->
<g id="node2" class="node"><title>1990</title>
<a xlink:href="results_RHO_p2010v1990_segments.svg" xlink:title="1990\nCap: 16.33">
<polygon fill="white" stroke="white" points="242,-148 150,-148 150,-104 242,-104 242,-148"/>
<text text-anchor="middle" x="196" y="-131.4" font-family="Times Roman,serif" font-size="14.00">1990</text>
<text text-anchor="middle" x="196" y="-113.4" font-family="Times Roman,serif" font-size="14.00">Cap: 16.33</text>
</a>
</g>
<!-- RH -->
<g id="node6" class="node"><title>RH</title>
<a xlink:href="../commodities/rc_RH_2010.svg" xlink:title="RH">
<ellipse fill="lightsteelblue" stroke="lightsteelblue" cx="355" cy="-97" rx="26.163" ry="26.163"/>
<text text-anchor="middle" x="355" y="-93.4" font-family="Times Roman,serif" font-size="14.00">RH</text>
</a>
</g>
<!-- 1990&#45;&gt;RH -->
<g id="edge10" class="edge"><title>1990&#45;&gt;RH</title>
<path fill="none" stroke="forestgreen" d="M242.417,-117.534C266.899,-113.069 296.476,-107.674 319.17,-103.535"/>
<polygon fill="forestgreen" stroke="forestgreen" points="329.07,-101.729 320.039,-107.951 324.151,-102.627 319.232,-103.524 319.232,-103.524 319.232,-103.524 324.151,-102.627 318.424,-99.0969 329.07,-101.729 329.07,-101.729"/>
<text text-anchor="middle" x="290" y="-117.4" font-family="Times Roman,serif" font-size="14.00">9.96</text>
</g>
<!-- 2010 -->
<g id="node3" class="node"><title>2010</title>
<a xlink:href="results_RHO_p2010v2010_segments.svg" xlink:title="2010\nCap: 43.50">
<polygon fill="white" stroke="white" points="242,-86 150,-86 150,-42 242,-42 242,-86"/>
<text text-anchor="middle" x="196" y="-69.4" font-family="Times Roman,serif" font-size="14.00">2010</text>
<text text-anchor="middle" x="196" y="-51.4" font-family="Times Roman,serif" font-size="14.00">Cap: 43.50</text>
</a>
</g>
<!-- 2010&#45;&gt;RH -->
<g id="edge12" class="edge"><title>2010&#45;&gt;RH</title>
<path fill="none" stroke="forestgreen" d="M242.417,-73.6337C267.058,-78.7479 296.861,-84.9333 319.611,-89.6552"/>
<polygon fill="forestgreen" stroke="forestgreen" points="329.524,-91.7126 318.818,-94.0864 324.629,-90.6964 319.733,-89.6803 319.733,-89.6803 319.733,-89.6803 324.629,-90.6964 320.647,-85.2742 329.524,-91.7126 329.524,-91.7126"/>
<text text-anchor="middle" x="290" y="-88.4" font-family="Times Roman,serif" font-size="14.00">26.52</text>
</g>
<!-- DSL -->
<g id="node5" class="node"><title>DSL</title>
<a xlink:href="../commodities/rc_DSL_2010.svg" xlink:title="DSL">
<ellipse fill="lightsteelblue" stroke="lightsteelblue" cx="32" cy="-97" rx="31.8198" ry="31.8198"/>
<text text-anchor="middle" x="32" y="-93.4" font-family="Times Roman,serif" font-size="14.00">DSL</text>
</a>
</g>
<!-- DSL&#45;&gt;1990 -->
<g id="edge5" class="edge"><title>DSL&#45;&gt;1990</title>
<path fill="none" stroke="firebrick" d="M63.6208,-102.591C85.2319,-106.413 114.465,-111.582 139.964,-116.091"/>
<polygon fill="firebrick" stroke="firebrick" points="149.894,-117.847 139.263,-120.537 144.97,-116.976 140.047,-116.106 140.047,-116.106 140.047,-116.106 144.97,-116.976 140.83,-111.675 149.894,-117.847 149.894,-117.847"/>
<text text-anchor="middle" x="103" y="-118.4" font-family="Times Roman,serif" font-size="14.00">14.23</text>
</g>
<!-- DSL&#45;&gt;2010 -->
<g id="edge7" class="edge"><title>DSL&#45;&gt;2010</title>
<path fill="none" stroke="firebrick" d="M63.6208,-90.6373C85.2319,-86.2887 114.465,-80.4064 139.964,-75.2756"/>
<polygon fill="firebrick" stroke="firebrick" points="149.894,-73.2774 140.978,-79.6617 144.992,-74.2638 140.091,-75.2501 140.091,-75.2501 140.091,-75.2501 144.992,-74.2638 139.203,-70.8386 149.894,-73.2774 149.894,-73.2774"/>
<text text-anchor="middle" x="103" y="-89.4" font-family="Times Roman,serif" font-size="14.00">37.89</text>
</g>
</g>
</svg>
