<?xml version="1.0" encoding="UTF-8" standalone="no"?>
<!DOCTYPE svg PUBLIC "-//W3C//DTD SVG 1.1//EN"
 "http://www.w3.org/Graphics/SVG/1.1/DTD/svg11.dtd">
<!-- Generated by graphviz version 2.26.3 (20100126.1600)
 -->
<!-- Title: model Pages: 1 -->
<svg width="360pt" height="216pt"
 viewBox="0.00 0.00 360.00 216.00" xmlns="http://www.w3.org/2000/svg" xmlns:xlink="http://www.w3.org/1999/xlink">
<g id="graph1" class="graph" transform="scale(1 1) rotate(0) translate(4 212)">
<title>model</title>
<polygon fill="white" stroke="white" points="-4,5 -4,-212 357,-212 357,5 -4,5"/>
<text text-anchor="middle" x="176" y="-9.4" font-family="Times Roman,serif" font-size="14.00">Results for TXD in 1990</text>
<g id="graph2" class="cluster"><title>cluster_vintages</title>
<a xlink:href="results1990.svg" xlink:title="Vintages\nCapacity: 0.60">
<polygon fill="lightgrey" stroke="lightgrey" points="124,-34 124,-200 240,-200 240,-34 124,-34"/>
<text text-anchor="middle" x="182" y="-183.4" font-family="Times Roman,serif" font-size="14.00">Vintages</text>
<text text-anchor="middle" x="182" y="-165.4" font-family="Times Roman,serif" font-size="14.00">Capacity: 0.60</text>
</a>
</g>
<!-- 1970 -->
<g id="node2" class="node"><title>1970</title>
<a xlink:href="results_TXD_p1990v1970_segments.svg" xlink:title="1970\nCap: 0.40">
<polygon fill="white" stroke="white" points="223,-148 141,-148 141,-104 223,-104 223,-148"/>
<text text-anchor="middle" x="182" y="-131.4" font-family="Times Roman,serif" font-size="14.00">1970</text>
<text text-anchor="middle" x="182" y="-113.4" font-family="Times Roman,serif" font-size="14.00">Cap: 0.40</text>
</a>
</g>
<!-- TX -->
<g id="node6" class="node"><title>TX</title>
<a xlink:href="../commodities/rc_TX_1990.svg" xlink:title="TX">
<ellipse fill="lightsteelblue" stroke="lightsteelblue" cx="326" cy="-97" rx="24.9567" ry="25.4558"/>
<text text-anchor="middle" x="326" y="-93.4" font-family="Times Roman,serif" font-size="14.00">TX</text>
</a>
</g>
<!-- 1970&#45;&gt;TX -->
<g id="edge10" class="edge"><title>1970&#45;&gt;TX</title>
<path fill="none" stroke="forestgreen" d="M223.651,-117.612C244.871,-113.338 270.396,-108.198 290.647,-104.12"/>
<polygon fill="forestgreen" stroke="forestgreen" points="300.706,-102.094 291.791,-108.48 295.804,-103.081 290.903,-104.068 290.903,-104.068 290.903,-104.068 295.804,-103.081 290.014,-99.6568 300.706,-102.094 300.706,-102.094"/>
<text text-anchor="middle" x="266" y="-116.4" font-family="Times Roman,serif" font-size="14.00">0.40</text>
</g>
<!-- 1980 -->
<g id="node3" class="node"><title>1980</title>
<a xlink:href="results_TXD_p1990v1980_segments.svg" xlink:title="1980\nCap: 0.20">
<polygon fill="white" stroke="white" points="223,-86 141,-86 141,-42 223,-42 223,-86"/>
<text text-anchor="middle" x="182" y="-69.4" font-family="Times Roman,serif" font-size="14.00">1980</text>
<text text-anchor="middle" x="182" y="-51.4" font-family="Times Roman,serif" font-size="14.00">Cap: 0.20</text>
</a>
</g>
<!-- 1980&#45;&gt;TX -->
<g id="edge12" class="edge"><title>1980&#45;&gt;TX</title>
<path fill="none" stroke="forestgreen" d="M223.651,-73.545C245.11,-78.4628 270.973,-84.3896 291.331,-89.055"/>
<polygon fill="forestgreen" stroke="forestgreen" points="301.13,-91.3007 290.378,-93.4531 296.257,-90.1838 291.383,-89.0668 291.383,-89.0668 291.383,-89.0668 296.257,-90.1838 292.388,-84.6805 301.13,-91.3007 301.13,-91.3007"/>
<text text-anchor="middle" x="266" y="-89.4" font-family="Times Roman,serif" font-size="14.00">0.20</text>
</g>
<!-- DSL -->
<g id="node5" class="node"><title>DSL</title>
<a xlink:href="../commodities/rc_DSL_1990.svg" xlink:title="DSL">
<ellipse fill="lightsteelblue" stroke="lightsteelblue" cx="32" cy="-97" rx="31.8198" ry="31.8198"/>
<text text-anchor="middle" x="32" y="-93.4" font-family="Times Roman,serif" font-size="14.00">DSL</text>
</a>
</g>
<!-- DSL&#45;&gt;1970 -->
<g id="edge5" class="edge"><title>DSL&#45;&gt;1970</title>
<path fill="none" stroke="firebrick" d="M63.4449,-103.079C82.8144,-106.824 108.115,-111.716 130.367,-116.018"/>
<polygon fill="firebrick" stroke="firebrick" points="140.344,-117.947 129.672,-120.466 135.435,-116.997 130.526,-116.048 130.526,-116.048 130.526,-116.048 135.435,-116.997 131.38,-111.63 140.344,-117.947 140.344,-117.947"/>
<text text-anchor="middle" x="98" y="-117.4" font-family="Times Roman,serif" font-size="14.00">1.73</text>
</g>
<!-- DSL&#45;&gt;1980 -->
<g id="edge7" class="edge"><title>DSL&#45;&gt;1980</title>
<path fill="none" stroke="firebrick" d="M63.4449,-90.0821C82.8144,-85.8208 108.115,-80.2546 130.367,-75.3592"/>
<polygon fill="firebrick" stroke="firebrick" points="140.344,-73.1643 131.545,-79.7079 135.461,-74.2386 130.578,-75.313 130.578,-75.313 130.578,-75.313 135.461,-74.2386 129.611,-70.9181 140.344,-73.1643 140.344,-73.1643"/>
<text text-anchor="middle" x="98" y="-90.4" font-family="Times Roman,serif" font-size="14.00">0.87</text>
</g>
</g>
</svg>
