<?xml version="1.0" encoding="UTF-8" standalone="no"?>
<!DOCTYPE svg PUBLIC "-//W3C//DTD SVG 1.1//EN"
 "http://www.w3.org/Graphics/SVG/1.1/DTD/svg11.dtd">
<!-- Generated by graphviz version 2.26.3 (20100126.1600)
 -->
<!-- Title: model Pages: 1 -->
<svg width="384pt" height="216pt"
 viewBox="0.00 0.00 384.00 216.00" xmlns="http://www.w3.org/2000/svg" xmlns:xlink="http://www.w3.org/1999/xlink">
<g id="graph1" class="graph" transform="scale(1 1) rotate(0) translate(4 212)">
<title>model</title>
<polygon fill="white" stroke="white" points="-4,5 -4,-212 381,-212 381,5 -4,5"/>
<text text-anchor="middle" x="188" y="-9.4" font-family="Times Roman,serif" font-size="14.00">Results for E01 in 1990</text>
<g id="graph2" class="cluster"><title>cluster_vintages</title>
<a xlink:href="results1990.svg" xlink:title="Vintages\nCapacity: 0.50">
<polygon fill="lightgrey" stroke="lightgrey" points="138,-34 138,-200 254,-200 254,-34 138,-34"/>
<text text-anchor="middle" x="196" y="-183.4" font-family="Times Roman,serif" font-size="14.00">Vintages</text>
<text text-anchor="middle" x="196" y="-165.4" font-family="Times Roman,serif" font-size="14.00">Capacity: 0.50</text>
</a>
</g>
<!-- 1960 -->
<g id="node2" class="node"><title>1960</title>
<a xlink:href="results_E01_p1990v1960_segments.svg" xlink:title="1960\nCap: 0.17">
<polygon fill="white" stroke="white" points="237,-148 155,-148 155,-104 237,-104 237,-148"/>
<text text-anchor="middle" x="196" y="-131.4" font-family="Times Roman,serif" font-size="14.00">1960</text>
<text text-anchor="middle" x="196" y="-113.4" font-family="Times Roman,serif" font-size="14.00">Cap: 0.17</text>
</a>
</g>
<!-- ELC -->
<g id="node5" class="node"><title>ELC</title>
<a xlink:href="../commodities/rc_ELC_1990.svg" xlink:title="ELC">
<ellipse fill="lightsteelblue" stroke="lightsteelblue" cx="345" cy="-97" rx="31.1127" ry="31.1127"/>
<text text-anchor="middle" x="345" y="-93.4" font-family="Times Roman,serif" font-size="14.00">ELC</text>
</a>
</g>
<!-- 1960&#45;&gt;ELC -->
<g id="edge10" class="edge"><title>1960&#45;&gt;ELC</title>
<path fill="none" stroke="forestgreen" d="M237.505,-117.922C258.278,-113.879 283.34,-109.001 304.038,-104.972"/>
<polygon fill="forestgreen" stroke="forestgreen" points="314.113,-103.012 305.157,-109.339 309.205,-103.967 304.297,-104.922 304.297,-104.922 304.297,-104.922 309.205,-103.967 303.437,-100.505 314.113,-103.012 314.113,-103.012"/>
<text text-anchor="middle" x="280" y="-117.4" font-family="Times Roman,serif" font-size="14.00">3.94</text>
</g>
<!-- 1970 -->
<g id="node3" class="node"><title>1970</title>
<a xlink:href="results_E01_p1990v1970_segments.svg" xlink:title="1970\nCap: 0.17">
<polygon fill="white" stroke="white" points="237,-86 155,-86 155,-42 237,-42 237,-86"/>
<text text-anchor="middle" x="196" y="-69.4" font-family="Times Roman,serif" font-size="14.00">1970</text>
<text text-anchor="middle" x="196" y="-51.4" font-family="Times Roman,serif" font-size="14.00">Cap: 0.17</text>
</a>
</g>
<!-- 1970&#45;&gt;ELC -->
<g id="edge12" class="edge"><title>1970&#45;&gt;ELC</title>
<path fill="none" stroke="forestgreen" d="M237.505,-73.1923C258.521,-77.8469 283.927,-83.4737 304.762,-88.0882"/>
<polygon fill="forestgreen" stroke="forestgreen" points="314.584,-90.2635 303.847,-92.4946 309.702,-89.1823 304.82,-88.1011 304.82,-88.1011 304.82,-88.1011 309.702,-89.1823 305.793,-83.7075 314.584,-90.2635 314.584,-90.2635"/>
<text text-anchor="middle" x="280" y="-90.4" font-family="Times Roman,serif" font-size="14.00">0.76</text>
</g>
<!-- HCO -->
<g id="node6" class="node"><title>HCO</title>
<a xlink:href="../commodities/rc_HCO_1990.svg" xlink:title="HCO">
<ellipse fill="lightsteelblue" stroke="lightsteelblue" cx="34" cy="-97" rx="33.9411" ry="33.9411"/>
<text text-anchor="middle" x="34" y="-93.4" font-family="Times Roman,serif" font-size="14.00">HCO</text>
</a>
</g>
<!-- HCO&#45;&gt;1960 -->
<g id="edge5" class="edge"><title>HCO&#45;&gt;1960</title>
<path fill="none" stroke="firebrick" d="M67.5665,-103.009C89.7222,-106.975 119.188,-112.25 144.308,-116.746"/>
<polygon fill="firebrick" stroke="firebrick" points="154.412,-118.555 143.776,-121.223 149.491,-117.674 144.569,-116.793 144.569,-116.793 144.569,-116.793 149.491,-117.674 145.362,-112.364 154.412,-118.555 154.412,-118.555"/>
<text text-anchor="middle" x="107" y="-118.4" font-family="Times Roman,serif" font-size="14.00">12.32</text>
</g>
<!-- HCO&#45;&gt;1970 -->
<g id="edge7" class="edge"><title>HCO&#45;&gt;1970</title>
<path fill="none" stroke="firebrick" d="M67.5665,-90.1624C89.7222,-85.6492 119.188,-79.6468 144.308,-74.5299"/>
<polygon fill="firebrick" stroke="firebrick" points="154.412,-72.4715 145.512,-78.8771 149.513,-73.4696 144.614,-74.4677 144.614,-74.4677 144.614,-74.4677 149.513,-73.4696 143.715,-70.0582 154.412,-72.4715 154.412,-72.4715"/>
<text text-anchor="middle" x="107" y="-89.4" font-family="Times Roman,serif" font-size="14.00">2.38</text>
</g>
</g>
</svg>
