<?xml version="1.0" encoding="UTF-8" standalone="no"?>
<!DOCTYPE svg PUBLIC "-//W3C//DTD SVG 1.1//EN"
 "http://www.w3.org/Graphics/SVG/1.1/DTD/svg11.dtd">
<!-- Generated by graphviz version 2.26.3 (20100126.1600)
 -->
<!-- Title: model Pages: 1 -->
<svg width="414pt" height="344pt"
 viewBox="0.00 0.00 414.00 344.00" xmlns="http://www.w3.org/2000/svg" xmlns:xlink="http://www.w3.org/1999/xlink">
<g id="graph1" class="graph" transform="scale(1 1) rotate(0) translate(4 340)">
<title>model</title>
<polygon fill="white" stroke="white" points="-4,5 -4,-340 411,-340 411,5 -4,5"/>
<text text-anchor="middle" x="203" y="-9.4" font-family="Times Roman,serif" font-size="14.00">Activity split of process E01, 1980 in year 2010</text>
<g id="graph2" class="cluster"><title>cluster_slices</title>
<polygon fill="lightgrey" stroke="lightgrey" points="128,-34 128,-328 284,-328 284,-34 128,-34"/>
<text text-anchor="middle" x="206" y="-311.4" font-family="Times Roman,serif" font-size="14.00">1980 Capacity: 1.91</text>
</g>
<!-- inter, day -->
<g id="node2" class="node"><title>inter, day</title>
<polygon fill="white" stroke="white" points="247,-294 165,-294 165,-258 247,-258 247,-294"/>
<text text-anchor="middle" x="206" y="-272.4" font-family="Times Roman,serif" font-size="14.00">inter, day</text>
</g>
<!-- ELC -->
<g id="node8" class="node"><title>ELC</title>
<a xlink:href="../commodities/rc_ELC_2010.svg" xlink:title="ELC">
<ellipse fill="lightsteelblue" stroke="lightsteelblue" cx="375" cy="-168" rx="31.1127" ry="31.1127"/>
<text text-anchor="middle" x="375" y="-164.4" font-family="Times Roman,serif" font-size="14.00">ELC</text>
</a>
</g>
<!-- inter, day&#45;&gt;ELC -->
<g id="edge16" class="edge"><title>inter, day&#45;&gt;ELC</title>
<path fill="none" stroke="forestgreen" d="M234.287,-257.923C263.489,-239.261 309.085,-210.123 340.413,-190.103"/>
<polygon fill="forestgreen" stroke="forestgreen" points="348.846,-184.714 342.843,-193.891 344.633,-187.406 340.419,-190.099 340.419,-190.099 340.419,-190.099 344.633,-187.406 337.996,-186.307 348.846,-184.714 348.846,-184.714"/>
<text text-anchor="middle" x="310" y="-246.4" font-family="Times Roman,serif" font-size="14.00">0.63</text>
</g>
<!-- inter, night -->
<g id="node3" class="node"><title>inter, night</title>
<polygon fill="white" stroke="white" points="253,-240 159,-240 159,-204 253,-204 253,-240"/>
<text text-anchor="middle" x="206" y="-218.4" font-family="Times Roman,serif" font-size="14.00">inter, night</text>
</g>
<!-- inter, night&#45;&gt;ELC -->
<g id="edge18" class="edge"><title>inter, night&#45;&gt;ELC</title>
<path fill="none" stroke="forestgreen" d="M253.526,-206.814C279.439,-198.534 311.132,-188.408 335.647,-180.574"/>
<polygon fill="forestgreen" stroke="forestgreen" points="345.337,-177.478 337.181,-184.808 340.575,-179 335.812,-180.522 335.812,-180.522 335.812,-180.522 340.575,-179 334.442,-176.235 345.337,-177.478 345.337,-177.478"/>
<text text-anchor="middle" x="310" y="-203.4" font-family="Times Roman,serif" font-size="14.00">0.32</text>
</g>
<!-- summer, night -->
<g id="node4" class="node"><title>summer, night</title>
<polygon fill="white" stroke="white" points="264,-186 148,-186 148,-150 264,-150 264,-186"/>
<text text-anchor="middle" x="206" y="-164.4" font-family="Times Roman,serif" font-size="14.00">summer, night</text>
</g>
<!-- summer, night&#45;&gt;ELC -->
<g id="edge20" class="edge"><title>summer, night&#45;&gt;ELC</title>
<path fill="none" stroke="forestgreen" d="M264.634,-168C287.469,-168 313.094,-168 333.9,-168"/>
<polygon fill="forestgreen" stroke="forestgreen" points="343.997,-168 333.997,-172.5 338.997,-168 333.997,-168 333.997,-168 333.997,-168 338.997,-168 333.997,-163.5 343.997,-168 343.997,-168"/>
<text text-anchor="middle" x="310" y="-173.4" font-family="Times Roman,serif" font-size="14.00">0.00</text>
</g>
<!-- winter, day -->
<g id="node5" class="node"><title>winter, day</title>
<polygon fill="white" stroke="white" points="254,-132 158,-132 158,-96 254,-96 254,-132"/>
<text text-anchor="middle" x="206" y="-110.4" font-family="Times Roman,serif" font-size="14.00">winter, day</text>
</g>
<!-- winter, day&#45;&gt;ELC -->
<g id="edge22" class="edge"><title>winter, day&#45;&gt;ELC</title>
<path fill="none" stroke="forestgreen" d="M254.429,-129.474C280.232,-137.719 311.56,-147.729 335.815,-155.479"/>
<polygon fill="forestgreen" stroke="forestgreen" points="345.405,-158.543 334.509,-159.786 340.642,-157.022 335.879,-155.5 335.879,-155.5 335.879,-155.5 340.642,-157.022 337.249,-151.213 345.405,-158.543 345.405,-158.543"/>
<text text-anchor="middle" x="310" y="-151.4" font-family="Times Roman,serif" font-size="14.00">1.26</text>
</g>
<!-- winter, night -->
<g id="node6" class="node"><title>winter, night</title>
<polygon fill="white" stroke="white" points="259,-78 153,-78 153,-42 259,-42 259,-78"/>
<text text-anchor="middle" x="206" y="-56.4" font-family="Times Roman,serif" font-size="14.00">winter, night</text>
</g>
<!-- winter, night&#45;&gt;ELC -->
<g id="edge24" class="edge"><title>winter, night&#45;&gt;ELC</title>
<path fill="none" stroke="forestgreen" d="M234.287,-78.0768C263.489,-96.7388 309.085,-125.877 340.413,-145.897"/>
<polygon fill="forestgreen" stroke="forestgreen" points="348.846,-151.286 337.996,-149.693 344.633,-148.594 340.419,-145.901 340.419,-145.901 340.419,-145.901 344.633,-148.594 342.843,-142.109 348.846,-151.286 348.846,-151.286"/>
<text text-anchor="middle" x="310" y="-122.4" font-family="Times Roman,serif" font-size="14.00">0.63</text>
</g>
<!-- HCO -->
<g id="node9" class="node"><title>HCO</title>
<a xlink:href="../commodities/rc_HCO_2010.svg" xlink:title="HCO">
<ellipse fill="lightsteelblue" stroke="lightsteelblue" cx="34" cy="-168" rx="33.9411" ry="33.9411"/>
<text text-anchor="middle" x="34" y="-164.4" font-family="Times Roman,serif" font-size="14.00">HCO</text>
</a>
</g>
<!-- HCO&#45;&gt;inter, day -->
<g id="edge5" class="edge"><title>HCO&#45;&gt;inter, day</title>
<path fill="none" stroke="firebrick" d="M63.1775,-186.321C92.2633,-204.584 137.045,-232.703 168.698,-252.578"/>
<polygon fill="firebrick" stroke="firebrick" points="177.253,-257.95 166.392,-256.443 173.019,-255.291 168.785,-252.632 168.785,-252.632 168.785,-252.632 173.019,-255.291 171.178,-248.821 177.253,-257.95 177.253,-257.95"/>
<text text-anchor="middle" x="102" y="-246.4" font-family="Times Roman,serif" font-size="14.00">1.97</text>
</g>
<!-- HCO&#45;&gt;inter, night -->
<g id="edge7" class="edge"><title>HCO&#45;&gt;inter, night</title>
<path fill="none" stroke="firebrick" d="M66.7567,-178.284C89.8478,-185.534 121.382,-195.434 148.602,-203.98"/>
<polygon fill="firebrick" stroke="firebrick" points="158.411,-207.059 147.523,-208.357 153.641,-205.562 148.87,-204.064 148.87,-204.064 148.87,-204.064 153.641,-205.562 150.218,-199.771 158.411,-207.059 158.411,-207.059"/>
<text text-anchor="middle" x="102" y="-203.4" font-family="Times Roman,serif" font-size="14.00">0.99</text>
</g>
<!-- HCO&#45;&gt;summer, night -->
<g id="edge9" class="edge"><title>HCO&#45;&gt;summer, night</title>
<path fill="none" stroke="firebrick" d="M68.3934,-168C88.1229,-168 113.603,-168 137.264,-168"/>
<polygon fill="firebrick" stroke="firebrick" points="147.272,-168 137.272,-172.5 142.272,-168 137.272,-168 137.272,-168 137.272,-168 142.272,-168 137.271,-163.5 147.272,-168 147.272,-168"/>
<text text-anchor="middle" x="102" y="-173.4" font-family="Times Roman,serif" font-size="14.00">0.00</text>
</g>
<!-- HCO&#45;&gt;winter, day -->
<g id="edge11" class="edge"><title>HCO&#45;&gt;winter, day</title>
<path fill="none" stroke="firebrick" d="M66.7567,-157.716C89.6742,-150.521 120.908,-140.715 147.987,-132.213"/>
<polygon fill="firebrick" stroke="firebrick" points="157.752,-129.148 149.559,-136.436 152.982,-130.645 148.212,-132.143 148.212,-132.143 148.212,-132.143 152.982,-130.645 146.864,-127.85 157.752,-129.148 157.752,-129.148"/>
<text text-anchor="middle" x="102" y="-151.4" font-family="Times Roman,serif" font-size="14.00">3.94</text>
</g>
<!-- HCO&#45;&gt;winter, night -->
<g id="edge13" class="edge"><title>HCO&#45;&gt;winter, night</title>
<path fill="none" stroke="firebrick" d="M63.1775,-149.679C92.2633,-131.416 137.045,-103.297 168.698,-83.4223"/>
<polygon fill="firebrick" stroke="firebrick" points="177.253,-78.0502 171.178,-87.1789 173.019,-80.709 168.785,-83.3679 168.785,-83.3679 168.785,-83.3679 173.019,-80.709 166.392,-79.5569 177.253,-78.0502 177.253,-78.0502"/>
<text text-anchor="middle" x="102" y="-122.4" font-family="Times Roman,serif" font-size="14.00">1.97</text>
</g>
</g>
</svg>
