<?xml version="1.0" encoding="UTF-8" standalone="no"?>
<!DOCTYPE svg PUBLIC "-//W3C//DTD SVG 1.1//EN"
 "http://www.w3.org/Graphics/SVG/1.1/DTD/svg11.dtd">
<!-- Generated by graphviz version 2.26.3 (20100126.1600)
 -->
<!-- Title: model Pages: 1 -->
<svg width="405pt" height="398pt"
 viewBox="0.00 0.00 405.00 398.00" xmlns="http://www.w3.org/2000/svg" xmlns:xlink="http://www.w3.org/1999/xlink">
<g id="graph1" class="graph" transform="scale(1 1) rotate(0) translate(4 394)">
<title>model</title>
<polygon fill="white" stroke="white" points="-4,5 -4,-394 402,-394 402,5 -4,5"/>
<text text-anchor="middle" x="198.5" y="-9.4" font-family="Times Roman,serif" font-size="14.00">Activity split of process RL1, 2010 in year 2010</text>
<g id="graph2" class="cluster"><title>cluster_slices</title>
<polygon fill="lightgrey" stroke="lightgrey" points="122,-34 122,-382 287,-382 287,-34 122,-34"/>
<text text-anchor="middle" x="204.5" y="-365.4" font-family="Times Roman,serif" font-size="14.00">2010 Capacity: 18.90</text>
</g>
<!-- inter, day -->
<g id="node2" class="node"><title>inter, day</title>
<polygon fill="white" stroke="white" points="245,-348 163,-348 163,-312 245,-312 245,-348"/>
<text text-anchor="middle" x="204" y="-326.4" font-family="Times Roman,serif" font-size="14.00">inter, day</text>
</g>
<!-- RL -->
<g id="node10" class="node"><title>RL</title>
<a xlink:href="../commodities/rc_RL_2010.svg" xlink:title="RL">
<ellipse fill="lightsteelblue" stroke="lightsteelblue" cx="372" cy="-194" rx="24.2437" ry="24.7487"/>
<text text-anchor="middle" x="372" y="-190.4" font-family="Times Roman,serif" font-size="14.00">RL</text>
</a>
</g>
<!-- inter, day&#45;&gt;RL -->
<g id="edge18" class="edge"><title>inter, day&#45;&gt;RL</title>
<path fill="none" stroke="forestgreen" d="M226.309,-311.94C257.001,-287.095 312.181,-242.425 345.113,-215.766"/>
<polygon fill="forestgreen" stroke="forestgreen" points="352.978,-209.399 348.037,-219.189 349.092,-212.545 345.205,-215.691 345.205,-215.691 345.205,-215.691 349.092,-212.545 342.374,-212.193 352.978,-209.399 352.978,-209.399"/>
<text text-anchor="middle" x="313" y="-299.4" font-family="Times Roman,serif" font-size="14.00">1.89</text>
</g>
<!-- inter, night -->
<g id="node3" class="node"><title>inter, night</title>
<polygon fill="white" stroke="white" points="251,-294 157,-294 157,-258 251,-258 251,-294"/>
<text text-anchor="middle" x="204" y="-272.4" font-family="Times Roman,serif" font-size="14.00">inter, night</text>
</g>
<!-- inter, night&#45;&gt;RL -->
<g id="edge20" class="edge"><title>inter, night&#45;&gt;RL</title>
<path fill="none" stroke="forestgreen" d="M241.285,-257.802C271.161,-243.219 312.598,-222.994 340.753,-209.252"/>
<polygon fill="forestgreen" stroke="forestgreen" points="349.756,-204.857 342.743,-213.288 345.263,-207.05 340.769,-209.244 340.769,-209.244 340.769,-209.244 345.263,-207.05 338.795,-205.2 349.756,-204.857 349.756,-204.857"/>
<text text-anchor="middle" x="313" y="-250.4" font-family="Times Roman,serif" font-size="14.00">0.63</text>
</g>
<!-- summer, day -->
<g id="node4" class="node"><title>summer, day</title>
<polygon fill="white" stroke="white" points="257,-240 151,-240 151,-204 257,-204 257,-240"/>
<text text-anchor="middle" x="204" y="-218.4" font-family="Times Roman,serif" font-size="14.00">summer, day</text>
</g>
<!-- summer, day&#45;&gt;RL -->
<g id="edge22" class="edge"><title>summer, day&#45;&gt;RL</title>
<path fill="none" stroke="forestgreen" d="M257.156,-213.141C283.499,-208.75 314.541,-203.576 337.707,-199.716"/>
<polygon fill="forestgreen" stroke="forestgreen" points="347.751,-198.042 338.627,-204.124 342.819,-198.864 337.887,-199.686 337.887,-199.686 337.887,-199.686 342.819,-198.864 337.147,-195.247 347.751,-198.042 347.751,-198.042"/>
<text text-anchor="middle" x="313" y="-212.4" font-family="Times Roman,serif" font-size="14.00">1.89</text>
</g>
<!-- summer, night -->
<g id="node5" class="node"><title>summer, night</title>
<polygon fill="white" stroke="white" points="262,-186 146,-186 146,-150 262,-150 262,-186"/>
<text text-anchor="middle" x="204" y="-164.4" font-family="Times Roman,serif" font-size="14.00">summer, night</text>
</g>
<!-- summer, night&#45;&gt;RL -->
<g id="edge24" class="edge"><title>summer, night&#45;&gt;RL</title>
<path fill="none" stroke="forestgreen" d="M262.758,-177.094C287.803,-180.97 316.149,-185.356 337.689,-188.69"/>
<polygon fill="forestgreen" stroke="forestgreen" points="347.672,-190.235 337.102,-193.153 342.731,-189.47 337.79,-188.706 337.79,-188.706 337.79,-188.706 342.731,-189.47 338.478,-184.258 347.672,-190.235 347.672,-190.235"/>
<text text-anchor="middle" x="313" y="-183.4" font-family="Times Roman,serif" font-size="14.00">0.63</text>
</g>
<!-- winter, day -->
<g id="node6" class="node"><title>winter, day</title>
<polygon fill="white" stroke="white" points="252,-132 156,-132 156,-96 252,-96 252,-132"/>
<text text-anchor="middle" x="204" y="-110.4" font-family="Times Roman,serif" font-size="14.00">winter, day</text>
</g>
<!-- winter, day&#45;&gt;RL -->
<g id="edge26" class="edge"><title>winter, day&#45;&gt;RL</title>
<path fill="none" stroke="forestgreen" d="M242.122,-132.153C271.739,-146.257 312.333,-165.587 340.212,-178.863"/>
<polygon fill="forestgreen" stroke="forestgreen" points="349.503,-183.287 338.54,-183.051 344.989,-181.138 340.475,-178.988 340.475,-178.988 340.475,-178.988 344.989,-181.138 342.41,-174.925 349.503,-183.287 349.503,-183.287"/>
<text text-anchor="middle" x="313" y="-159.4" font-family="Times Roman,serif" font-size="14.00">6.30</text>
</g>
<!-- winter, night -->
<g id="node7" class="node"><title>winter, night</title>
<polygon fill="white" stroke="white" points="257,-78 151,-78 151,-42 257,-42 257,-78"/>
<text text-anchor="middle" x="204" y="-56.4" font-family="Times Roman,serif" font-size="14.00">winter, night</text>
</g>
<!-- winter, night&#45;&gt;RL -->
<g id="edge28" class="edge"><title>winter, night&#45;&gt;RL</title>
<path fill="none" stroke="forestgreen" d="M226.657,-78.0718C257.372,-102.571 312.147,-146.26 344.971,-172.441"/>
<polygon fill="forestgreen" stroke="forestgreen" points="352.815,-178.698 342.191,-175.98 348.906,-175.58 344.997,-172.462 344.997,-172.462 344.997,-172.462 348.906,-175.58 347.803,-168.944 352.815,-178.698 352.815,-178.698"/>
<text text-anchor="middle" x="313" y="-128.4" font-family="Times Roman,serif" font-size="14.00">1.26</text>
</g>
<!-- ELC -->
<g id="node9" class="node"><title>ELC</title>
<a xlink:href="../commodities/rc_ELC_2010.svg" xlink:title="ELC">
<ellipse fill="lightsteelblue" stroke="lightsteelblue" cx="31" cy="-194" rx="31.1127" ry="31.1127"/>
<text text-anchor="middle" x="31" y="-190.4" font-family="Times Roman,serif" font-size="14.00">ELC</text>
</a>
</g>
<!-- ELC&#45;&gt;inter, day -->
<g id="edge5" class="edge"><title>ELC&#45;&gt;inter, day</title>
<path fill="none" stroke="firebrick" d="M55.4198,-213.197C86.2446,-237.429 139.3,-279.137 172.967,-305.604"/>
<polygon fill="firebrick" stroke="firebrick" points="181.083,-311.985 170.441,-309.342 177.153,-308.895 173.222,-305.804 173.222,-305.804 173.222,-305.804 177.153,-308.895 176.003,-302.267 181.083,-311.985 181.083,-311.985"/>
<text text-anchor="middle" x="96" y="-299.4" font-family="Times Roman,serif" font-size="14.00">1.89</text>
</g>
<!-- ELC&#45;&gt;inter, night -->
<g id="edge7" class="edge"><title>ELC&#45;&gt;inter, night</title>
<path fill="none" stroke="firebrick" d="M59.1805,-207.357C85.4715,-219.819 125.217,-238.658 156.423,-253.449"/>
<polygon fill="firebrick" stroke="firebrick" points="165.809,-257.898 154.846,-257.681 161.291,-255.756 156.773,-253.615 156.773,-253.615 156.773,-253.615 161.291,-255.756 158.7,-249.549 165.809,-257.898 165.809,-257.898"/>
<text text-anchor="middle" x="96" y="-250.4" font-family="Times Roman,serif" font-size="14.00">0.63</text>
</g>
<!-- ELC&#45;&gt;summer, day -->
<g id="edge9" class="edge"><title>ELC&#45;&gt;summer, day</title>
<path fill="none" stroke="firebrick" d="M61.9289,-199.006C83.8185,-202.549 113.942,-207.424 140.819,-211.774"/>
<polygon fill="firebrick" stroke="firebrick" points="150.937,-213.412 140.346,-216.256 146.001,-212.613 141.065,-211.814 141.065,-211.814 141.065,-211.814 146.001,-212.613 141.784,-207.372 150.937,-213.412 150.937,-213.412"/>
<text text-anchor="middle" x="96" y="-212.4" font-family="Times Roman,serif" font-size="14.00">1.89</text>
</g>
<!-- ELC&#45;&gt;summer, night -->
<g id="edge11" class="edge"><title>ELC&#45;&gt;summer, night</title>
<path fill="none" stroke="firebrick" d="M61.9289,-189.352C82.3493,-186.283 109.935,-182.137 135.367,-178.315"/>
<polygon fill="firebrick" stroke="firebrick" points="145.358,-176.813 136.138,-182.749 140.414,-177.556 135.47,-178.299 135.47,-178.299 135.47,-178.299 140.414,-177.556 134.801,-173.849 145.358,-176.813 145.358,-176.813"/>
<text text-anchor="middle" x="96" y="-183.4" font-family="Times Roman,serif" font-size="14.00">0.63</text>
</g>
<!-- ELC&#45;&gt;winter, day -->
<g id="edge13" class="edge"><title>ELC&#45;&gt;winter, day</title>
<path fill="none" stroke="firebrick" d="M59.1805,-180.969C85.2112,-168.931 124.431,-150.795 155.494,-136.431"/>
<polygon fill="firebrick" stroke="firebrick" points="164.848,-132.105 157.661,-140.387 160.31,-134.203 155.772,-136.302 155.772,-136.302 155.772,-136.302 160.31,-134.203 153.883,-132.218 164.848,-132.105 164.848,-132.105"/>
<text text-anchor="middle" x="96" y="-159.4" font-family="Times Roman,serif" font-size="14.00">6.30</text>
</g>
<!-- ELC&#45;&gt;winter, night -->
<g id="edge15" class="edge"><title>ELC&#45;&gt;winter, night</title>
<path fill="none" stroke="firebrick" d="M55.7867,-174.801C86.5353,-150.984 138.993,-110.352 172.546,-84.3631"/>
<polygon fill="firebrick" stroke="firebrick" points="180.645,-78.0903 175.494,-87.7716 176.692,-81.1521 172.739,-84.2139 172.739,-84.2139 172.739,-84.2139 176.692,-81.1521 169.983,-80.6563 180.645,-78.0903 180.645,-78.0903"/>
<text text-anchor="middle" x="96" y="-128.4" font-family="Times Roman,serif" font-size="14.00">1.26</text>
</g>
</g>
</svg>
