<?xml version="1.0" encoding="UTF-8" standalone="no"?>
<!DOCTYPE svg PUBLIC "-//W3C//DTD SVG 1.1//EN"
 "http://www.w3.org/Graphics/SVG/1.1/DTD/svg11.dtd">
<!-- Generated by graphviz version 2.26.3 (20100126.1600)
 -->
<!-- Title: model Pages: 1 -->
<svg width="426pt" height="236pt"
 viewBox="0.00 0.00 426.00 236.00" xmlns="http://www.w3.org/2000/svg" xmlns:xlink="http://www.w3.org/1999/xlink">
<g id="graph1" class="graph" transform="scale(1 1) rotate(0) translate(4 232)">
<title>model</title>
<polygon fill="white" stroke="white" points="-4,5 -4,-232 423,-232 423,5 -4,5"/>
<text text-anchor="middle" x="209" y="-9.4" font-family="Times Roman,serif" font-size="14.00">Activity split of process E01, 1980 in year 2000</text>
<g id="graph2" class="cluster"><title>cluster_slices</title>
<polygon fill="lightgrey" stroke="lightgrey" points="134,-34 134,-220 290,-220 290,-34 134,-34"/>
<text text-anchor="middle" x="212" y="-203.4" font-family="Times Roman,serif" font-size="14.00">1980 Capacity: 1.69</text>
</g>
<!-- inter, night -->
<g id="node2" class="node"><title>inter, night</title>
<polygon fill="white" stroke="white" points="259,-186 165,-186 165,-150 259,-150 259,-186"/>
<text text-anchor="middle" x="212" y="-164.4" font-family="Times Roman,serif" font-size="14.00">inter, night</text>
</g>
<!-- ELC -->
<g id="node6" class="node"><title>ELC</title>
<a xlink:href="../commodities/rc_ELC_2000.svg" xlink:title="ELC">
<ellipse fill="lightsteelblue" stroke="lightsteelblue" cx="387" cy="-114" rx="31.1127" ry="31.1127"/>
<text text-anchor="middle" x="387" y="-110.4" font-family="Times Roman,serif" font-size="14.00">ELC</text>
</a>
</g>
<!-- inter, night&#45;&gt;ELC -->
<g id="edge12" class="edge"><title>inter, night&#45;&gt;ELC</title>
<path fill="none" stroke="forestgreen" d="M259.82,-153.244C287.336,-144.753 321.496,-134.213 347.482,-126.194"/>
<polygon fill="forestgreen" stroke="forestgreen" points="357.363,-123.145 349.135,-130.394 352.585,-124.619 347.808,-126.094 347.808,-126.094 347.808,-126.094 352.585,-124.619 346.481,-121.794 357.363,-123.145 357.363,-123.145"/>
<text text-anchor="middle" x="319" y="-150.4" font-family="Times Roman,serif" font-size="14.00">&#45;0.00</text>
</g>
<!-- winter, day -->
<g id="node3" class="node"><title>winter, day</title>
<polygon fill="white" stroke="white" points="260,-132 164,-132 164,-96 260,-96 260,-132"/>
<text text-anchor="middle" x="212" y="-110.4" font-family="Times Roman,serif" font-size="14.00">winter, day</text>
</g>
<!-- winter, day&#45;&gt;ELC -->
<g id="edge14" class="edge"><title>winter, day&#45;&gt;ELC</title>
<path fill="none" stroke="forestgreen" d="M260.283,-114C287.136,-114 320.203,-114 345.824,-114"/>
<polygon fill="forestgreen" stroke="forestgreen" points="355.954,-114 345.955,-118.5 350.954,-114 345.954,-114 345.954,-114 345.954,-114 350.954,-114 345.954,-109.5 355.954,-114 355.954,-114"/>
<text text-anchor="middle" x="319" y="-119.4" font-family="Times Roman,serif" font-size="14.00">1.26</text>
</g>
<!-- winter, night -->
<g id="node4" class="node"><title>winter, night</title>
<polygon fill="white" stroke="white" points="265,-78 159,-78 159,-42 265,-42 265,-78"/>
<text text-anchor="middle" x="212" y="-56.4" font-family="Times Roman,serif" font-size="14.00">winter, night</text>
</g>
<!-- winter, night&#45;&gt;ELC -->
<g id="edge16" class="edge"><title>winter, night&#45;&gt;ELC</title>
<path fill="none" stroke="forestgreen" d="M265.934,-76.6424C292.208,-84.75 323.242,-94.3261 347.311,-101.753"/>
<polygon fill="forestgreen" stroke="forestgreen" points="357.166,-104.794 346.283,-106.145 352.388,-103.32 347.61,-101.845 347.61,-101.845 347.61,-101.845 352.388,-103.32 348.937,-97.5454 357.166,-104.794 357.166,-104.794"/>
<text text-anchor="middle" x="319" y="-97.4" font-family="Times Roman,serif" font-size="14.00">0.63</text>
</g>
<!-- HCO -->
<g id="node7" class="node"><title>HCO</title>
<a xlink:href="../commodities/rc_HCO_2000.svg" xlink:title="HCO">
<ellipse fill="lightsteelblue" stroke="lightsteelblue" cx="34" cy="-114" rx="33.9411" ry="33.9411"/>
<text text-anchor="middle" x="34" y="-110.4" font-family="Times Roman,serif" font-size="14.00">HCO</text>
</a>
</g>
<!-- HCO&#45;&gt;inter, night -->
<g id="edge5" class="edge"><title>HCO&#45;&gt;inter, night</title>
<path fill="none" stroke="firebrick" d="M66.6479,-123.904C91.2649,-131.373 125.653,-141.805 154.801,-150.648"/>
<polygon fill="firebrick" stroke="firebrick" points="164.464,-153.579 153.588,-154.982 159.679,-152.127 154.894,-150.676 154.894,-150.676 154.894,-150.676 159.679,-152.127 156.201,-146.37 164.464,-153.579 164.464,-153.579"/>
<text text-anchor="middle" x="105" y="-150.4" font-family="Times Roman,serif" font-size="14.00">&#45;0.00</text>
</g>
<!-- HCO&#45;&gt;winter, day -->
<g id="edge7" class="edge"><title>HCO&#45;&gt;winter, day</title>
<path fill="none" stroke="firebrick" d="M68.3202,-114C92.5235,-114 125.536,-114 153.813,-114"/>
<polygon fill="firebrick" stroke="firebrick" points="163.992,-114 153.992,-118.5 158.992,-114 153.992,-114 153.992,-114 153.992,-114 158.992,-114 153.992,-109.5 163.992,-114 163.992,-114"/>
<text text-anchor="middle" x="105" y="-119.4" font-family="Times Roman,serif" font-size="14.00">3.94</text>
</g>
<!-- HCO&#45;&gt;winter, night -->
<g id="edge9" class="edge"><title>HCO&#45;&gt;winter, night</title>
<path fill="none" stroke="firebrick" d="M66.6479,-104.096C89.5418,-97.1502 120.887,-87.6411 148.609,-79.2311"/>
<polygon fill="firebrick" stroke="firebrick" points="158.243,-76.3082 149.98,-83.5176 153.459,-77.7598 148.674,-79.2113 148.674,-79.2113 148.674,-79.2113 153.459,-77.7598 147.368,-74.9051 158.243,-76.3082 158.243,-76.3082"/>
<text text-anchor="middle" x="105" y="-97.4" font-family="Times Roman,serif" font-size="14.00">1.97</text>
</g>
</g>
</svg>
