<?xml version="1.0" encoding="UTF-8" standalone="no"?>
<!DOCTYPE svg PUBLIC "-//W3C//DTD SVG 1.1//EN"
 "http://www.w3.org/Graphics/SVG/1.1/DTD/svg11.dtd">
<!-- Generated by graphviz version 2.26.3 (20100126.1600)
 -->
<!-- Title: model Pages: 1 -->
<svg width="400pt" height="398pt"
 viewBox="0.00 0.00 400.00 398.00" xmlns="http://www.w3.org/2000/svg" xmlns:xlink="http://www.w3.org/1999/xlink">
<g id="graph1" class="graph" transform="scale(1 1) rotate(0) translate(4 394)">
<title>model</title>
<polygon fill="white" stroke="white" points="-4,5 -4,-394 397,-394 397,5 -4,5"/>
<text text-anchor="middle" x="196" y="-9.4" font-family="Times Roman,serif" font-size="14.00">Activity split of process TXG, 2000 in year 2000</text>
<g id="graph2" class="cluster"><title>cluster_slices</title>
<polygon fill="lightgrey" stroke="lightgrey" points="124,-34 124,-382 280,-382 280,-34 124,-34"/>
<text text-anchor="middle" x="202" y="-365.4" font-family="Times Roman,serif" font-size="14.00">2000 Capacity: 6.04</text>
</g>
<!-- inter, day -->
<g id="node2" class="node"><title>inter, day</title>
<polygon fill="white" stroke="white" points="243,-348 161,-348 161,-312 243,-312 243,-348"/>
<text text-anchor="middle" x="202" y="-326.4" font-family="Times Roman,serif" font-size="14.00">inter, day</text>
</g>
<!-- TX -->
<g id="node10" class="node"><title>TX</title>
<a xlink:href="../commodities/rc_TX_2000.svg" xlink:title="TX">
<ellipse fill="lightsteelblue" stroke="lightsteelblue" cx="366" cy="-194" rx="24.9567" ry="25.4558"/>
<text text-anchor="middle" x="366" y="-190.4" font-family="Times Roman,serif" font-size="14.00">TX</text>
</a>
</g>
<!-- inter, day&#45;&gt;TX -->
<g id="edge18" class="edge"><title>inter, day&#45;&gt;TX</title>
<path fill="none" stroke="forestgreen" d="M223.778,-311.94C253.337,-287.428 306.165,-243.619 338.449,-216.847"/>
<polygon fill="forestgreen" stroke="forestgreen" points="346.187,-210.43 341.362,-220.277 342.338,-213.622 338.49,-216.814 338.49,-216.814 338.49,-216.814 342.338,-213.622 335.617,-213.35 346.187,-210.43 346.187,-210.43"/>
<text text-anchor="middle" x="306" y="-299.4" font-family="Times Roman,serif" font-size="14.00">0.76</text>
</g>
<!-- inter, night -->
<g id="node3" class="node"><title>inter, night</title>
<polygon fill="white" stroke="white" points="249,-294 155,-294 155,-258 249,-258 249,-294"/>
<text text-anchor="middle" x="202" y="-272.4" font-family="Times Roman,serif" font-size="14.00">inter, night</text>
</g>
<!-- inter, night&#45;&gt;TX -->
<g id="edge20" class="edge"><title>inter, night&#45;&gt;TX</title>
<path fill="none" stroke="forestgreen" d="M238.397,-257.802C266.929,-243.536 306.261,-223.869 333.688,-210.156"/>
<polygon fill="forestgreen" stroke="forestgreen" points="342.856,-205.572 335.924,-214.069 338.384,-207.808 333.912,-210.044 333.912,-210.044 333.912,-210.044 338.384,-207.808 331.899,-206.019 342.856,-205.572 342.856,-205.572"/>
<text text-anchor="middle" x="306" y="-250.4" font-family="Times Roman,serif" font-size="14.00">0.38</text>
</g>
<!-- summer, day -->
<g id="node4" class="node"><title>summer, day</title>
<polygon fill="white" stroke="white" points="255,-240 149,-240 149,-204 255,-204 255,-240"/>
<text text-anchor="middle" x="202" y="-218.4" font-family="Times Roman,serif" font-size="14.00">summer, day</text>
</g>
<!-- summer, day&#45;&gt;TX -->
<g id="edge22" class="edge"><title>summer, day&#45;&gt;TX</title>
<path fill="none" stroke="forestgreen" d="M255.246,-212.909C279.953,-208.691 308.648,-203.792 330.638,-200.037"/>
<polygon fill="forestgreen" stroke="forestgreen" points="340.539,-198.347 331.44,-204.466 335.611,-199.188 330.682,-200.03 330.682,-200.03 330.682,-200.03 335.611,-199.188 329.925,-195.594 340.539,-198.347 340.539,-198.347"/>
<text text-anchor="middle" x="306" y="-212.4" font-family="Times Roman,serif" font-size="14.00">0.76</text>
</g>
<!-- summer, night -->
<g id="node5" class="node"><title>summer, night</title>
<polygon fill="white" stroke="white" points="260,-186 144,-186 144,-150 260,-150 260,-186"/>
<text text-anchor="middle" x="202" y="-164.4" font-family="Times Roman,serif" font-size="14.00">summer, night</text>
</g>
<!-- summer, night&#45;&gt;TX -->
<g id="edge24" class="edge"><title>summer, night&#45;&gt;TX</title>
<path fill="none" stroke="forestgreen" d="M260.745,-177.313C284.068,-181.011 310.128,-185.142 330.483,-188.369"/>
<polygon fill="forestgreen" stroke="forestgreen" points="340.562,-189.967 329.981,-192.846 335.624,-189.184 330.685,-188.401 330.685,-188.401 330.685,-188.401 335.624,-189.184 331.39,-183.957 340.562,-189.967 340.562,-189.967"/>
<text text-anchor="middle" x="306" y="-183.4" font-family="Times Roman,serif" font-size="14.00">0.38</text>
</g>
<!-- winter, day -->
<g id="node6" class="node"><title>winter, day</title>
<polygon fill="white" stroke="white" points="250,-132 154,-132 154,-96 250,-96 250,-132"/>
<text text-anchor="middle" x="202" y="-110.4" font-family="Times Roman,serif" font-size="14.00">winter, day</text>
</g>
<!-- winter, day&#45;&gt;TX -->
<g id="edge26" class="edge"><title>winter, day&#45;&gt;TX</title>
<path fill="none" stroke="forestgreen" d="M239.214,-132.153C267.788,-146.092 306.828,-165.136 334.008,-178.394"/>
<polygon fill="forestgreen" stroke="forestgreen" points="343.091,-182.825 332.131,-182.485 338.597,-180.633 334.104,-178.441 334.104,-178.441 334.104,-178.441 338.597,-180.633 336.077,-174.396 343.091,-182.825 343.091,-182.825"/>
<text text-anchor="middle" x="306" y="-159.4" font-family="Times Roman,serif" font-size="14.00">1.51</text>
</g>
<!-- winter, night -->
<g id="node7" class="node"><title>winter, night</title>
<polygon fill="white" stroke="white" points="255,-78 149,-78 149,-42 255,-42 255,-78"/>
<text text-anchor="middle" x="202" y="-56.4" font-family="Times Roman,serif" font-size="14.00">winter, night</text>
</g>
<!-- winter, night&#45;&gt;TX -->
<g id="edge28" class="edge"><title>winter, night&#45;&gt;TX</title>
<path fill="none" stroke="forestgreen" d="M224.118,-78.0718C253.653,-102.204 305.979,-144.958 338.164,-171.256"/>
<polygon fill="forestgreen" stroke="forestgreen" points="346.279,-177.886 335.688,-175.044 342.407,-174.723 338.535,-171.559 338.535,-171.559 338.535,-171.559 342.407,-174.723 341.382,-168.074 346.279,-177.886 346.279,-177.886"/>
<text text-anchor="middle" x="306" y="-128.4" font-family="Times Roman,serif" font-size="14.00">0.76</text>
</g>
<!-- GSL -->
<g id="node9" class="node"><title>GSL</title>
<a xlink:href="../commodities/rc_GSL_2000.svg" xlink:title="GSL">
<ellipse fill="lightsteelblue" stroke="lightsteelblue" cx="32" cy="-194" rx="31.8198" ry="31.8198"/>
<text text-anchor="middle" x="32" y="-190.4" font-family="Times Roman,serif" font-size="14.00">GSL</text>
</a>
</g>
<!-- GSL&#45;&gt;inter, day -->
<g id="edge5" class="edge"><title>GSL&#45;&gt;inter, day</title>
<path fill="none" stroke="firebrick" d="M57.0841,-214.067C87.4806,-238.385 138.676,-279.341 171.373,-305.498"/>
<polygon fill="firebrick" stroke="firebrick" points="179.263,-311.811 168.643,-309.077 175.359,-308.687 171.454,-305.564 171.454,-305.564 171.454,-305.564 175.359,-308.687 174.266,-302.05 179.263,-311.811 179.263,-311.811"/>
<text text-anchor="middle" x="98" y="-299.4" font-family="Times Roman,serif" font-size="14.00">3.28</text>
</g>
<!-- GSL&#45;&gt;inter, night -->
<g id="edge7" class="edge"><title>GSL&#45;&gt;inter, night</title>
<path fill="none" stroke="firebrick" d="M60.8382,-207.91C86.7646,-220.416 125.309,-239.008 155.573,-253.606"/>
<polygon fill="firebrick" stroke="firebrick" points="164.676,-257.997 153.714,-257.705 160.173,-255.825 155.669,-253.652 155.669,-253.652 155.669,-253.652 160.173,-255.825 157.624,-249.599 164.676,-257.997 164.676,-257.997"/>
<text text-anchor="middle" x="98" y="-250.4" font-family="Times Roman,serif" font-size="14.00">1.64</text>
</g>
<!-- GSL&#45;&gt;summer, day -->
<g id="edge9" class="edge"><title>GSL&#45;&gt;summer, day</title>
<path fill="none" stroke="firebrick" d="M63.5773,-199.201C84.6846,-202.677 113.183,-207.371 138.835,-211.596"/>
<polygon fill="firebrick" stroke="firebrick" points="148.877,-213.25 138.278,-216.065 143.943,-212.438 139.01,-211.625 139.01,-211.625 139.01,-211.625 143.943,-212.438 139.741,-207.185 148.877,-213.25 148.877,-213.25"/>
<text text-anchor="middle" x="98" y="-213.4" font-family="Times Roman,serif" font-size="14.00">3.28</text>
</g>
<!-- GSL&#45;&gt;summer, night -->
<g id="edge11" class="edge"><title>GSL&#45;&gt;summer, night</title>
<path fill="none" stroke="firebrick" d="M63.9757,-189.11C83.5005,-186.123 109.24,-182.187 133.197,-178.523"/>
<polygon fill="firebrick" stroke="firebrick" points="143.332,-176.973 134.127,-182.933 138.389,-177.729 133.447,-178.485 133.447,-178.485 133.447,-178.485 138.389,-177.729 132.767,-174.036 143.332,-176.973 143.332,-176.973"/>
<text text-anchor="middle" x="98" y="-183.4" font-family="Times Roman,serif" font-size="14.00">1.64</text>
</g>
<!-- GSL&#45;&gt;winter, day -->
<g id="edge13" class="edge"><title>GSL&#45;&gt;winter, day</title>
<path fill="none" stroke="firebrick" d="M61.224,-180.248C86.7513,-168.235 124.295,-150.567 154.192,-136.498"/>
<polygon fill="firebrick" stroke="firebrick" points="163.605,-132.068 156.473,-140.398 159.081,-134.197 154.557,-136.326 154.557,-136.326 154.557,-136.326 159.081,-134.197 152.641,-132.254 163.605,-132.068 163.605,-132.068"/>
<text text-anchor="middle" x="98" y="-159.4" font-family="Times Roman,serif" font-size="14.00">6.55</text>
</g>
<!-- GSL&#45;&gt;winter, night -->
<g id="edge15" class="edge"><title>GSL&#45;&gt;winter, night</title>
<path fill="none" stroke="firebrick" d="M57.4507,-173.939C87.8493,-149.978 138.668,-109.92 171.239,-84.2466"/>
<polygon fill="firebrick" stroke="firebrick" points="179.103,-78.0479 174.036,-87.7725 175.177,-81.1432 171.25,-84.2384 171.25,-84.2384 171.25,-84.2384 175.177,-81.1432 168.464,-80.7043 179.103,-78.0479 179.103,-78.0479"/>
<text text-anchor="middle" x="98" y="-128.4" font-family="Times Roman,serif" font-size="14.00">3.28</text>
</g>
</g>
</svg>
