<?xml version="1.0" encoding="UTF-8" standalone="no"?>
<!DOCTYPE svg PUBLIC "-//W3C//DTD SVG 1.1//EN"
 "http://www.w3.org/Graphics/SVG/1.1/DTD/svg11.dtd">
<!-- Generated by graphviz version 2.26.3 (20100126.1600)
 -->
<!-- Title: model Pages: 1 -->
<svg width="428pt" height="398pt"
 viewBox="0.00 0.00 428.00 398.00" xmlns="http://www.w3.org/2000/svg" xmlns:xlink="http://www.w3.org/1999/xlink">
<g id="graph1" class="graph" transform="scale(1 1) rotate(0) translate(4 394)">
<title>model</title>
<polygon fill="white" stroke="white" points="-4,5 -4,-394 425,-394 425,5 -4,5"/>
<text text-anchor="middle" x="210" y="-9.4" font-family="Times Roman,serif" font-size="14.00">Activity split of process IMPHYD, 1990 in year 2010</text>
<g id="graph2" class="cluster"><title>cluster_slices</title>
<polygon fill="lightgrey" stroke="lightgrey" points="138,-34 138,-382 294,-382 294,-34 138,-34"/>
<text text-anchor="middle" x="216" y="-365.4" font-family="Times Roman,serif" font-size="14.00">1990 Capacity: 3.52</text>
</g>
<!-- inter, day -->
<g id="node2" class="node"><title>inter, day</title>
<polygon fill="white" stroke="white" points="257,-348 175,-348 175,-312 257,-312 257,-348"/>
<text text-anchor="middle" x="216" y="-326.4" font-family="Times Roman,serif" font-size="14.00">inter, day</text>
</g>
<!-- HYD -->
<g id="node9" class="node"><title>HYD</title>
<a xlink:href="../commodities/rc_HYD_2010.svg" xlink:title="HYD">
<ellipse fill="lightsteelblue" stroke="lightsteelblue" cx="387" cy="-194" rx="33.234" ry="33.234"/>
<text text-anchor="middle" x="387" y="-190.4" font-family="Times Roman,serif" font-size="14.00">HYD</text>
</a>
</g>
<!-- inter, day&#45;&gt;HYD -->
<g id="edge18" class="edge"><title>inter, day&#45;&gt;HYD</title>
<path fill="none" stroke="forestgreen" d="M238.707,-311.94C267.937,-288.693 318.988,-248.091 352.894,-221.125"/>
<polygon fill="forestgreen" stroke="forestgreen" points="361.121,-214.582 356.095,-224.329 357.208,-217.694 353.294,-220.807 353.294,-220.807 353.294,-220.807 357.208,-217.694 350.493,-217.285 361.121,-214.582 361.121,-214.582"/>
<text text-anchor="middle" x="320" y="-299.4" font-family="Times Roman,serif" font-size="14.00">0.59</text>
</g>
<!-- inter, night -->
<g id="node3" class="node"><title>inter, night</title>
<polygon fill="white" stroke="white" points="263,-294 169,-294 169,-258 263,-258 263,-294"/>
<text text-anchor="middle" x="216" y="-272.4" font-family="Times Roman,serif" font-size="14.00">inter, night</text>
</g>
<!-- inter, night&#45;&gt;HYD -->
<g id="edge20" class="edge"><title>inter, night&#45;&gt;HYD</title>
<path fill="none" stroke="forestgreen" d="M253.95,-257.802C281.885,-244.406 319.75,-226.249 347.942,-212.729"/>
<polygon fill="forestgreen" stroke="forestgreen" points="357.104,-208.336 350.033,-216.718 352.596,-210.498 348.087,-212.66 348.087,-212.66 348.087,-212.66 352.596,-210.498 346.141,-208.602 357.104,-208.336 357.104,-208.336"/>
<text text-anchor="middle" x="320" y="-250.4" font-family="Times Roman,serif" font-size="14.00">0.29</text>
</g>
<!-- summer, day -->
<g id="node4" class="node"><title>summer, day</title>
<polygon fill="white" stroke="white" points="269,-240 163,-240 163,-204 269,-204 269,-240"/>
<text text-anchor="middle" x="216" y="-218.4" font-family="Times Roman,serif" font-size="14.00">summer, day</text>
</g>
<!-- summer, day&#45;&gt;HYD -->
<g id="edge22" class="edge"><title>summer, day&#45;&gt;HYD</title>
<path fill="none" stroke="forestgreen" d="M269.168,-213.294C293.314,-209.34 321.494,-204.726 344.241,-201.001"/>
<polygon fill="forestgreen" stroke="forestgreen" points="354.276,-199.358 345.135,-205.415 349.342,-200.166 344.407,-200.974 344.407,-200.974 344.407,-200.974 349.342,-200.166 343.68,-196.533 354.276,-199.358 354.276,-199.358"/>
<text text-anchor="middle" x="320" y="-213.4" font-family="Times Roman,serif" font-size="14.00">0.59</text>
</g>
<!-- summer, night -->
<g id="node5" class="node"><title>summer, night</title>
<polygon fill="white" stroke="white" points="274,-186 158,-186 158,-150 274,-150 274,-186"/>
<text text-anchor="middle" x="216" y="-164.4" font-family="Times Roman,serif" font-size="14.00">summer, night</text>
</g>
<!-- summer, night&#45;&gt;HYD -->
<g id="edge24" class="edge"><title>summer, night&#45;&gt;HYD</title>
<path fill="none" stroke="forestgreen" d="M274.848,-176.948C297.597,-180.407 323.142,-184.291 344.101,-187.477"/>
<polygon fill="forestgreen" stroke="forestgreen" points="353.988,-188.981 343.425,-191.926 349.045,-188.229 344.102,-187.477 344.102,-187.477 344.102,-187.477 349.045,-188.229 344.778,-183.029 353.988,-188.981 353.988,-188.981"/>
<text text-anchor="middle" x="320" y="-183.4" font-family="Times Roman,serif" font-size="14.00">0.29</text>
</g>
<!-- winter, day -->
<g id="node6" class="node"><title>winter, day</title>
<polygon fill="white" stroke="white" points="264,-132 168,-132 168,-96 264,-96 264,-132"/>
<text text-anchor="middle" x="216" y="-110.4" font-family="Times Roman,serif" font-size="14.00">winter, day</text>
</g>
<!-- winter, day&#45;&gt;HYD -->
<g id="edge26" class="edge"><title>winter, day&#45;&gt;HYD</title>
<path fill="none" stroke="forestgreen" d="M254.803,-132.153C282.601,-145.159 319.901,-162.609 347.792,-175.657"/>
<polygon fill="forestgreen" stroke="forestgreen" points="356.862,-179.9 345.897,-179.739 352.333,-177.782 347.804,-175.663 347.804,-175.663 347.804,-175.663 352.333,-177.782 349.711,-171.587 356.862,-179.9 356.862,-179.9"/>
<text text-anchor="middle" x="320" y="-159.4" font-family="Times Roman,serif" font-size="14.00">1.17</text>
</g>
<!-- winter, night -->
<g id="node7" class="node"><title>winter, night</title>
<polygon fill="white" stroke="white" points="269,-78 163,-78 163,-42 269,-42 269,-78"/>
<text text-anchor="middle" x="216" y="-56.4" font-family="Times Roman,serif" font-size="14.00">winter, night</text>
</g>
<!-- winter, night&#45;&gt;HYD -->
<g id="edge28" class="edge"><title>winter, night&#45;&gt;HYD</title>
<path fill="none" stroke="forestgreen" d="M239.062,-78.0718C268.308,-100.99 318.986,-140.702 352.755,-167.165"/>
<polygon fill="forestgreen" stroke="forestgreen" points="360.953,-173.589 350.306,-170.963 357.018,-170.505 353.082,-167.421 353.082,-167.421 353.082,-167.421 357.018,-170.505 355.858,-163.879 360.953,-173.589 360.953,-173.589"/>
<text text-anchor="middle" x="320" y="-128.4" font-family="Times Roman,serif" font-size="14.00">0.59</text>
</g>
<!-- ethos -->
<g id="node10" class="node"><title>ethos</title>
<a xlink:href="../commodities/rc_ethos_2010.svg" xlink:title="ethos">
<ellipse fill="lightsteelblue" stroke="lightsteelblue" cx="39" cy="-194" rx="38.8909" ry="38.8909"/>
<text text-anchor="middle" x="39" y="-190.4" font-family="Times Roman,serif" font-size="14.00">ethos</text>
</a>
</g>
<!-- ethos&#45;&gt;inter, day -->
<g id="edge5" class="edge"><title>ethos&#45;&gt;inter, day</title>
<path fill="none" stroke="firebrick" d="M70.2366,-218.001C102.305,-242.641 151.953,-280.789 184.219,-305.58"/>
<polygon fill="firebrick" stroke="firebrick" points="192.427,-311.888 181.756,-309.363 188.462,-308.841 184.498,-305.795 184.498,-305.795 184.498,-305.795 188.462,-308.841 187.239,-302.226 192.427,-311.888 192.427,-311.888"/>
<text text-anchor="middle" x="112" y="-299.4" font-family="Times Roman,serif" font-size="14.00">0.59</text>
</g>
<!-- ethos&#45;&gt;inter, night -->
<g id="edge7" class="edge"><title>ethos&#45;&gt;inter, night</title>
<path fill="none" stroke="firebrick" d="M74.3932,-210.397C101.157,-222.796 138.203,-239.959 167.691,-253.62"/>
<polygon fill="firebrick" stroke="firebrick" points="176.977,-257.921 166.012,-257.801 172.44,-255.82 167.903,-253.718 167.903,-253.718 167.903,-253.718 172.44,-255.82 169.795,-249.635 176.977,-257.921 176.977,-257.921"/>
<text text-anchor="middle" x="112" y="-250.4" font-family="Times Roman,serif" font-size="14.00">0.29</text>
</g>
<!-- ethos&#45;&gt;summer, day -->
<g id="edge9" class="edge"><title>ethos&#45;&gt;summer, day</title>
<path fill="none" stroke="firebrick" d="M77.8434,-200.145C99.7563,-203.611 127.674,-208.028 152.671,-211.982"/>
<polygon fill="firebrick" stroke="firebrick" points="162.813,-213.586 152.232,-216.468 157.874,-212.805 152.935,-212.024 152.935,-212.024 152.935,-212.024 157.874,-212.805 153.639,-207.579 162.813,-213.586 162.813,-213.586"/>
<text text-anchor="middle" x="112" y="-213.4" font-family="Times Roman,serif" font-size="14.00">0.59</text>
</g>
<!-- ethos&#45;&gt;summer, night -->
<g id="edge11" class="edge"><title>ethos&#45;&gt;summer, night</title>
<path fill="none" stroke="firebrick" d="M77.8434,-188.294C98.2342,-185.299 123.825,-181.54 147.423,-178.074"/>
<polygon fill="firebrick" stroke="firebrick" points="157.393,-176.609 148.153,-182.515 152.446,-177.336 147.499,-178.062 147.499,-178.062 147.499,-178.062 152.446,-177.336 146.845,-173.61 157.393,-176.609 157.393,-176.609"/>
<text text-anchor="middle" x="112" y="-183.4" font-family="Times Roman,serif" font-size="14.00">0.29</text>
</g>
<!-- ethos&#45;&gt;winter, day -->
<g id="edge13" class="edge"><title>ethos&#45;&gt;winter, day</title>
<path fill="none" stroke="firebrick" d="M74.8186,-177.811C101.252,-165.863 137.545,-149.46 166.713,-136.276"/>
<polygon fill="firebrick" stroke="firebrick" points="175.912,-132.119 168.653,-140.338 171.356,-134.178 166.8,-136.238 166.8,-136.238 166.8,-136.238 171.356,-134.178 164.946,-132.137 175.912,-132.119 175.912,-132.119"/>
<text text-anchor="middle" x="112" y="-159.4" font-family="Times Roman,serif" font-size="14.00">1.17</text>
</g>
<!-- ethos&#45;&gt;winter, night -->
<g id="edge15" class="edge"><title>ethos&#45;&gt;winter, night</title>
<path fill="none" stroke="firebrick" d="M70.2366,-170.352C102.214,-146.143 151.671,-108.701 183.943,-84.269"/>
<polygon fill="firebrick" stroke="firebrick" points="192.158,-78.0495 186.902,-87.6734 188.172,-81.0675 184.186,-84.0856 184.186,-84.0856 184.186,-84.0856 188.172,-81.0675 181.469,-80.4977 192.158,-78.0495 192.158,-78.0495"/>
<text text-anchor="middle" x="112" y="-128.4" font-family="Times Roman,serif" font-size="14.00">0.59</text>
</g>
</g>
</svg>
