<?xml version="1.0" encoding="UTF-8" standalone="no"?>
<!DOCTYPE svg PUBLIC "-//W3C//DTD SVG 1.1//EN"
 "http://www.w3.org/Graphics/SVG/1.1/DTD/svg11.dtd">
<!-- Generated by graphviz version 2.26.3 (20100126.1600)
 -->
<!-- Title: model Pages: 1 -->
<svg width="356pt" height="216pt"
 viewBox="0.00 0.00 356.00 216.00" xmlns="http://www.w3.org/2000/svg" xmlns:xlink="http://www.w3.org/1999/xlink">
<g id="graph1" class="graph" transform="scale(1 1) rotate(0) translate(4 212)">
<title>model</title>
<polygon fill="white" stroke="white" points="-4,5 -4,-212 353,-212 353,5 -4,5"/>
<text text-anchor="middle" x="174" y="-9.4" font-family="Times Roman,serif" font-size="14.00">Results for RL1 in 1990</text>
<g id="graph2" class="cluster"><title>cluster_vintages</title>
<a xlink:href="results1990.svg" xlink:title="Vintages\nCapacity: 8.40">
<polygon fill="lightgrey" stroke="lightgrey" points="122,-34 122,-200 238,-200 238,-34 122,-34"/>
<text text-anchor="middle" x="180" y="-183.4" font-family="Times Roman,serif" font-size="14.00">Vintages</text>
<text text-anchor="middle" x="180" y="-165.4" font-family="Times Roman,serif" font-size="14.00">Capacity: 8.40</text>
</a>
</g>
<!-- 1980 -->
<g id="node2" class="node"><title>1980</title>
<a xlink:href="results_RL1_p1990v1980_segments.svg" xlink:title="1980\nCap: 5.60">
<polygon fill="white" stroke="white" points="221,-148 139,-148 139,-104 221,-104 221,-148"/>
<text text-anchor="middle" x="180" y="-131.4" font-family="Times Roman,serif" font-size="14.00">1980</text>
<text text-anchor="middle" x="180" y="-113.4" font-family="Times Roman,serif" font-size="14.00">Cap: 5.60</text>
</a>
</g>
<!-- RL -->
<g id="node6" class="node"><title>RL</title>
<a xlink:href="../commodities/rc_RL_1990.svg" xlink:title="RL">
<ellipse fill="lightsteelblue" stroke="lightsteelblue" cx="323" cy="-97" rx="24.2437" ry="24.7487"/>
<text text-anchor="middle" x="323" y="-93.4" font-family="Times Roman,serif" font-size="14.00">RL</text>
</a>
</g>
<!-- 1980&#45;&gt;RL -->
<g id="edge10" class="edge"><title>1980&#45;&gt;RL</title>
<path fill="none" stroke="forestgreen" d="M221.746,-117.534C243.087,-113.206 268.733,-108.005 288.874,-103.921"/>
<polygon fill="forestgreen" stroke="forestgreen" points="298.853,-101.897 289.947,-108.295 293.953,-102.891 289.053,-103.884 289.053,-103.884 289.053,-103.884 293.953,-102.891 288.158,-99.4743 298.853,-101.897 298.853,-101.897"/>
<text text-anchor="middle" x="264" y="-116.4" font-family="Times Roman,serif" font-size="14.00">3.73</text>
</g>
<!-- 1990 -->
<g id="node3" class="node"><title>1990</title>
<a xlink:href="results_RL1_p1990v1990_segments.svg" xlink:title="1990\nCap: 2.80">
<polygon fill="white" stroke="white" points="221,-86 139,-86 139,-42 221,-42 221,-86"/>
<text text-anchor="middle" x="180" y="-69.4" font-family="Times Roman,serif" font-size="14.00">1990</text>
<text text-anchor="middle" x="180" y="-51.4" font-family="Times Roman,serif" font-size="14.00">Cap: 2.80</text>
</a>
</g>
<!-- 1990&#45;&gt;RL -->
<g id="edge12" class="edge"><title>1990&#45;&gt;RL</title>
<path fill="none" stroke="forestgreen" d="M221.746,-73.6337C243.087,-78.5586 268.733,-84.4768 288.874,-89.1248"/>
<polygon fill="forestgreen" stroke="forestgreen" points="298.853,-91.4277 288.097,-93.5638 293.981,-90.3033 289.109,-89.179 289.109,-89.179 289.109,-89.179 293.981,-90.3033 290.121,-84.7942 298.853,-91.4277 298.853,-91.4277"/>
<text text-anchor="middle" x="264" y="-89.4" font-family="Times Roman,serif" font-size="14.00">1.87</text>
</g>
<!-- ELC -->
<g id="node5" class="node"><title>ELC</title>
<a xlink:href="../commodities/rc_ELC_1990.svg" xlink:title="ELC">
<ellipse fill="lightsteelblue" stroke="lightsteelblue" cx="31" cy="-97" rx="31.1127" ry="31.1127"/>
<text text-anchor="middle" x="31" y="-93.4" font-family="Times Roman,serif" font-size="14.00">ELC</text>
</a>
</g>
<!-- ELC&#45;&gt;1980 -->
<g id="edge5" class="edge"><title>ELC&#45;&gt;1980</title>
<path fill="none" stroke="firebrick" d="M61.5119,-102.939C80.7084,-106.675 105.976,-111.593 128.244,-115.927"/>
<polygon fill="firebrick" stroke="firebrick" points="138.232,-117.871 127.556,-120.377 133.324,-116.915 128.416,-115.96 128.416,-115.96 128.416,-115.96 133.324,-116.915 129.276,-111.543 138.232,-117.871 138.232,-117.871"/>
<text text-anchor="middle" x="96" y="-117.4" font-family="Times Roman,serif" font-size="14.00">3.73</text>
</g>
<!-- ELC&#45;&gt;1990 -->
<g id="edge7" class="edge"><title>ELC&#45;&gt;1990</title>
<path fill="none" stroke="firebrick" d="M61.5119,-90.2423C80.7084,-85.9907 105.976,-80.3947 128.244,-75.4627"/>
<polygon fill="firebrick" stroke="firebrick" points="138.232,-73.2506 129.442,-79.8066 133.35,-74.3319 128.469,-75.4131 128.469,-75.4131 128.469,-75.4131 133.35,-74.3319 127.495,-71.0195 138.232,-73.2506 138.232,-73.2506"/>
<text text-anchor="middle" x="96" y="-90.4" font-family="Times Roman,serif" font-size="14.00">1.87</text>
</g>
</g>
</svg>
