<?xml version="1.0" encoding="UTF-8" standalone="no"?>
<!DOCTYPE svg PUBLIC "-//W3C//DTD SVG 1.1//EN"
 "http://www.w3.org/Graphics/SVG/1.1/DTD/svg11.dtd">
<!-- Generated by graphviz version 2.26.3 (20100126.1600)
 -->
<!-- Title: model Pages: 1 -->
<svg width="412pt" height="398pt"
 viewBox="0.00 0.00 412.00 398.00" xmlns="http://www.w3.org/2000/svg" xmlns:xlink="http://www.w3.org/1999/xlink">
<g id="graph1" class="graph" transform="scale(1 1) rotate(0) translate(4 394)">
<title>model</title>
<polygon fill="white" stroke="white" points="-4,5 -4,-394 409,-394 409,5 -4,5"/>
<text text-anchor="middle" x="202" y="-9.4" font-family="Times Roman,serif" font-size="14.00">Activity split of process E31, 1990 in year 2000</text>
<g id="graph2" class="cluster"><title>cluster_slices</title>
<polygon fill="lightgrey" stroke="lightgrey" points="126,-34 126,-382 282,-382 282,-34 126,-34"/>
<text text-anchor="middle" x="204" y="-365.4" font-family="Times Roman,serif" font-size="14.00">1990 Capacity: 0.13</text>
</g>
<!-- inter, day -->
<g id="node2" class="node"><title>inter, day</title>
<polygon fill="white" stroke="white" points="245,-348 163,-348 163,-312 245,-312 245,-348"/>
<text text-anchor="middle" x="204" y="-326.4" font-family="Times Roman,serif" font-size="14.00">inter, day</text>
</g>
<!-- ELC -->
<g id="node9" class="node"><title>ELC</title>
<a xlink:href="../commodities/rc_ELC_2000.svg" xlink:title="ELC">
<ellipse fill="lightsteelblue" stroke="lightsteelblue" cx="373" cy="-194" rx="31.1127" ry="31.1127"/>
<text text-anchor="middle" x="373" y="-190.4" font-family="Times Roman,serif" font-size="14.00">ELC</text>
</a>
</g>
<!-- inter, day&#45;&gt;ELC -->
<g id="edge18" class="edge"><title>inter, day&#45;&gt;ELC</title>
<path fill="none" stroke="forestgreen" d="M226.442,-311.94C255.744,-288.36 307.234,-246.924 340.723,-219.975"/>
<polygon fill="forestgreen" stroke="forestgreen" points="348.824,-213.455 343.855,-223.23 344.929,-216.59 341.034,-219.724 341.034,-219.724 341.034,-219.724 344.929,-216.59 338.212,-216.219 348.824,-213.455 348.824,-213.455"/>
<text text-anchor="middle" x="308" y="-299.4" font-family="Times Roman,serif" font-size="14.00">0.04</text>
</g>
<!-- inter, night -->
<g id="node3" class="node"><title>inter, night</title>
<polygon fill="white" stroke="white" points="251,-294 157,-294 157,-258 251,-258 251,-294"/>
<text text-anchor="middle" x="204" y="-272.4" font-family="Times Roman,serif" font-size="14.00">inter, night</text>
</g>
<!-- inter, night&#45;&gt;ELC -->
<g id="edge20" class="edge"><title>inter, night&#45;&gt;ELC</title>
<path fill="none" stroke="forestgreen" d="M241.507,-257.802C269.639,-244.152 307.961,-225.558 335.976,-211.964"/>
<polygon fill="forestgreen" stroke="forestgreen" points="345.052,-207.561 338.019,-215.975 340.553,-209.743 336.055,-211.926 336.055,-211.926 336.055,-211.926 340.553,-209.743 334.09,-207.878 345.052,-207.561 345.052,-207.561"/>
<text text-anchor="middle" x="308" y="-250.4" font-family="Times Roman,serif" font-size="14.00">0.02</text>
</g>
<!-- summer, day -->
<g id="node4" class="node"><title>summer, day</title>
<polygon fill="white" stroke="white" points="257,-240 151,-240 151,-204 257,-204 257,-240"/>
<text text-anchor="middle" x="204" y="-218.4" font-family="Times Roman,serif" font-size="14.00">summer, day</text>
</g>
<!-- summer, day&#45;&gt;ELC -->
<g id="edge22" class="edge"><title>summer, day&#45;&gt;ELC</title>
<path fill="none" stroke="forestgreen" d="M257.009,-213.217C281.353,-209.184 309.766,-204.477 332.378,-200.73"/>
<polygon fill="forestgreen" stroke="forestgreen" points="342.323,-199.083 333.193,-205.157 337.391,-199.9 332.458,-200.717 332.458,-200.717 332.458,-200.717 337.391,-199.9 331.722,-196.278 342.323,-199.083 342.323,-199.083"/>
<text text-anchor="middle" x="308" y="-213.4" font-family="Times Roman,serif" font-size="14.00">0.04</text>
</g>
<!-- summer, night -->
<g id="node5" class="node"><title>summer, night</title>
<polygon fill="white" stroke="white" points="262,-186 146,-186 146,-150 262,-150 262,-186"/>
<text text-anchor="middle" x="204" y="-164.4" font-family="Times Roman,serif" font-size="14.00">summer, night</text>
</g>
<!-- summer, night&#45;&gt;ELC -->
<g id="edge24" class="edge"><title>summer, night&#45;&gt;ELC</title>
<path fill="none" stroke="forestgreen" d="M262.634,-177.021C285.469,-180.534 311.094,-184.476 331.9,-187.677"/>
<polygon fill="forestgreen" stroke="forestgreen" points="341.997,-189.23 331.429,-192.157 337.055,-188.47 332.113,-187.71 332.113,-187.71 332.113,-187.71 337.055,-188.47 332.797,-183.262 341.997,-189.23 341.997,-189.23"/>
<text text-anchor="middle" x="308" y="-183.4" font-family="Times Roman,serif" font-size="14.00">0.02</text>
</g>
<!-- winter, day -->
<g id="node6" class="node"><title>winter, day</title>
<polygon fill="white" stroke="white" points="252,-132 156,-132 156,-96 252,-96 252,-132"/>
<text text-anchor="middle" x="204" y="-110.4" font-family="Times Roman,serif" font-size="14.00">winter, day</text>
</g>
<!-- winter, day&#45;&gt;ELC -->
<g id="edge26" class="edge"><title>winter, day&#45;&gt;ELC</title>
<path fill="none" stroke="forestgreen" d="M242.349,-132.153C270.226,-145.349 307.77,-163.122 335.458,-176.229"/>
<polygon fill="forestgreen" stroke="forestgreen" points="344.808,-180.655 333.844,-180.444 340.289,-178.516 335.77,-176.376 335.77,-176.376 335.77,-176.376 340.289,-178.516 337.695,-172.309 344.808,-180.655 344.808,-180.655"/>
<text text-anchor="middle" x="308" y="-159.4" font-family="Times Roman,serif" font-size="14.00">0.09</text>
</g>
<!-- winter, night -->
<g id="node7" class="node"><title>winter, night</title>
<polygon fill="white" stroke="white" points="257,-78 151,-78 151,-42 257,-42 257,-78"/>
<text text-anchor="middle" x="204" y="-56.4" font-family="Times Roman,serif" font-size="14.00">winter, night</text>
</g>
<!-- winter, night&#45;&gt;ELC -->
<g id="edge28" class="edge"><title>winter, night&#45;&gt;ELC</title>
<path fill="none" stroke="forestgreen" d="M226.792,-78.0718C256.112,-101.319 307.225,-141.847 340.584,-168.297"/>
<polygon fill="forestgreen" stroke="forestgreen" points="348.659,-174.7 338.027,-172.013 344.741,-171.593 340.823,-168.487 340.823,-168.487 340.823,-168.487 344.741,-171.593 343.619,-164.961 348.659,-174.7 348.659,-174.7"/>
<text text-anchor="middle" x="308" y="-128.4" font-family="Times Roman,serif" font-size="14.00">0.04</text>
</g>
<!-- HYD -->
<g id="node10" class="node"><title>HYD</title>
<a xlink:href="../commodities/rc_HYD_2000.svg" xlink:title="HYD">
<ellipse fill="lightsteelblue" stroke="lightsteelblue" cx="33" cy="-194" rx="33.234" ry="33.234"/>
<text text-anchor="middle" x="33" y="-190.4" font-family="Times Roman,serif" font-size="14.00">HYD</text>
</a>
</g>
<!-- HYD&#45;&gt;inter, day -->
<g id="edge5" class="edge"><title>HYD&#45;&gt;inter, day</title>
<path fill="none" stroke="firebrick" d="M58.9712,-214.655C89.7203,-239.111 140.862,-279.785 173.475,-305.723"/>
<polygon fill="firebrick" stroke="firebrick" points="181.344,-311.981 170.716,-309.278 177.43,-308.869 173.517,-305.756 173.517,-305.756 173.517,-305.756 177.43,-308.869 176.318,-302.234 181.344,-311.981 181.344,-311.981"/>
<text text-anchor="middle" x="100" y="-299.4" font-family="Times Roman,serif" font-size="14.00">0.14</text>
</g>
<!-- HYD&#45;&gt;inter, night -->
<g id="edge7" class="edge"><title>HYD&#45;&gt;inter, night</title>
<path fill="none" stroke="firebrick" d="M62.7859,-208.283C88.8013,-220.759 127.006,-239.079 157.119,-253.519"/>
<polygon fill="firebrick" stroke="firebrick" points="166.182,-257.865 155.219,-257.599 161.674,-255.703 157.165,-253.541 157.165,-253.541 157.165,-253.541 161.674,-255.703 159.111,-249.484 166.182,-257.865 166.182,-257.865"/>
<text text-anchor="middle" x="100" y="-250.4" font-family="Times Roman,serif" font-size="14.00">0.07</text>
</g>
<!-- HYD&#45;&gt;summer, day -->
<g id="edge9" class="edge"><title>HYD&#45;&gt;summer, day</title>
<path fill="none" stroke="firebrick" d="M65.9705,-199.399C87.2188,-202.878 115.534,-207.514 140.987,-211.682"/>
<polygon fill="firebrick" stroke="firebrick" points="150.949,-213.313 140.353,-216.138 146.014,-212.505 141.08,-211.697 141.08,-211.697 141.08,-211.697 146.014,-212.505 141.807,-207.256 150.949,-213.313 150.949,-213.313"/>
<text text-anchor="middle" x="100" y="-213.4" font-family="Times Roman,serif" font-size="14.00">0.14</text>
</g>
<!-- HYD&#45;&gt;summer, night -->
<g id="edge11" class="edge"><title>HYD&#45;&gt;summer, night</title>
<path fill="none" stroke="firebrick" d="M65.9705,-188.987C85.5872,-186.004 111.227,-182.106 135.077,-178.479"/>
<polygon fill="firebrick" stroke="firebrick" points="145.166,-176.945 135.957,-182.898 140.223,-177.697 135.28,-178.449 135.28,-178.449 135.28,-178.449 140.223,-177.697 134.604,-174 145.166,-176.945 145.166,-176.945"/>
<text text-anchor="middle" x="100" y="-183.4" font-family="Times Roman,serif" font-size="14.00">0.07</text>
</g>
<!-- HYD&#45;&gt;winter, day -->
<g id="edge13" class="edge"><title>HYD&#45;&gt;winter, day</title>
<path fill="none" stroke="firebrick" d="M63.1777,-179.882C88.8733,-167.86 126.252,-150.374 156.042,-136.436"/>
<polygon fill="firebrick" stroke="firebrick" points="165.424,-132.047 158.273,-140.361 160.895,-134.166 156.366,-136.285 156.366,-136.285 156.366,-136.285 160.895,-134.166 154.459,-132.209 165.424,-132.047 165.424,-132.047"/>
<text text-anchor="middle" x="100" y="-159.4" font-family="Times Roman,serif" font-size="14.00">0.27</text>
</g>
<!-- HYD&#45;&gt;winter, night -->
<g id="edge15" class="edge"><title>HYD&#45;&gt;winter, night</title>
<path fill="none" stroke="firebrick" d="M59.344,-173.356C89.8741,-149.432 140.142,-110.041 172.654,-84.5634"/>
<polygon fill="firebrick" stroke="firebrick" points="180.918,-78.0876 175.822,-87.7977 176.982,-81.1717 173.047,-84.2557 173.047,-84.2557 173.047,-84.2557 176.982,-81.1717 170.271,-80.7137 180.918,-78.0876 180.918,-78.0876"/>
<text text-anchor="middle" x="100" y="-128.4" font-family="Times Roman,serif" font-size="14.00">0.14</text>
</g>
</g>
</svg>
