<?xml version="1.0" encoding="UTF-8" standalone="no"?>
<!DOCTYPE svg PUBLIC "-//W3C//DTD SVG 1.1//EN"
 "http://www.w3.org/Graphics/SVG/1.1/DTD/svg11.dtd">
<!-- Generated by graphviz version 2.26.3 (20100126.1600)
 -->
<!-- Title: model Pages: 1 -->
<svg width="394pt" height="278pt"
 viewBox="0.00 0.00 394.00 278.00" xmlns="http://www.w3.org/2000/svg" xmlns:xlink="http://www.w3.org/1999/xlink">
<g id="graph1" class="graph" transform="scale(1 1) rotate(0) translate(4 274)">
<title>model</title>
<polygon fill="white" stroke="white" points="-4,5 -4,-274 391,-274 391,5 -4,5"/>
<text text-anchor="middle" x="193" y="-9.4" font-family="Times Roman,serif" font-size="14.00">Results for E01 in 2010</text>
<g id="graph2" class="cluster"><title>cluster_vintages</title>
<a xlink:href="results2010.svg" xlink:title="Vintages\nCapacity: 1.91">
<polygon fill="lightgrey" stroke="lightgrey" points="138,-34 138,-262 254,-262 254,-34 138,-34"/>
<text text-anchor="middle" x="196" y="-245.4" font-family="Times Roman,serif" font-size="14.00">Vintages</text>
<text text-anchor="middle" x="196" y="-227.4" font-family="Times Roman,serif" font-size="14.00">Capacity: 1.91</text>
</a>
</g>
<!-- 1980 -->
<g id="node2" class="node"><title>1980</title>
<a xlink:href="results_E01_p2010v1980_segments.svg" xlink:title="1980\nCap: 0.15">
<polygon fill="white" stroke="white" points="237,-210 155,-210 155,-166 237,-166 237,-210"/>
<text text-anchor="middle" x="196" y="-193.4" font-family="Times Roman,serif" font-size="14.00">1980</text>
<text text-anchor="middle" x="196" y="-175.4" font-family="Times Roman,serif" font-size="14.00">Cap: 0.15</text>
</a>
</g>
<!-- ELC -->
<g id="node6" class="node"><title>ELC</title>
<a xlink:href="../commodities/rc_ELC_2010.svg" xlink:title="ELC">
<ellipse fill="lightsteelblue" stroke="lightsteelblue" cx="355" cy="-126" rx="31.1127" ry="31.1127"/>
<text text-anchor="middle" x="355" y="-122.4" font-family="Times Roman,serif" font-size="14.00">ELC</text>
</a>
</g>
<!-- 1980&#45;&gt;ELC -->
<g id="edge12" class="edge"><title>1980&#45;&gt;ELC</title>
<path fill="none" stroke="forestgreen" d="M237.775,-171.71C262.197,-162.187 292.803,-150.253 316.617,-140.967"/>
<polygon fill="forestgreen" stroke="forestgreen" points="326.039,-137.293 318.357,-145.118 321.381,-139.109 316.722,-140.926 316.722,-140.926 316.722,-140.926 321.381,-139.109 315.088,-136.733 326.039,-137.293 326.039,-137.293"/>
<text text-anchor="middle" x="285" y="-168.4" font-family="Times Roman,serif" font-size="14.00">2.84</text>
</g>
<!-- 2000 -->
<g id="node3" class="node"><title>2000</title>
<a xlink:href="results_E01_p2010v2000_segments.svg" xlink:title="2000\nCap: 1.36">
<polygon fill="white" stroke="white" points="237,-148 155,-148 155,-104 237,-104 237,-148"/>
<text text-anchor="middle" x="196" y="-131.4" font-family="Times Roman,serif" font-size="14.00">2000</text>
<text text-anchor="middle" x="196" y="-113.4" font-family="Times Roman,serif" font-size="14.00">Cap: 1.36</text>
</a>
</g>
<!-- 2000&#45;&gt;ELC -->
<g id="edge14" class="edge"><title>2000&#45;&gt;ELC</title>
<path fill="none" stroke="forestgreen" d="M237.775,-126C261.154,-126 290.198,-126 313.527,-126"/>
<polygon fill="forestgreen" stroke="forestgreen" points="323.803,-126 313.803,-130.5 318.803,-126 313.803,-126 313.803,-126 313.803,-126 318.803,-126 313.803,-121.5 323.803,-126 323.803,-126"/>
<text text-anchor="middle" x="285" y="-131.4" font-family="Times Roman,serif" font-size="14.00">22.01</text>
</g>
<!-- 2010 -->
<g id="node4" class="node"><title>2010</title>
<a xlink:href="results_E01_p2010v2010_segments.svg" xlink:title="2010\nCap: 0.40">
<polygon fill="white" stroke="white" points="237,-86 155,-86 155,-42 237,-42 237,-86"/>
<text text-anchor="middle" x="196" y="-69.4" font-family="Times Roman,serif" font-size="14.00">2010</text>
<text text-anchor="middle" x="196" y="-51.4" font-family="Times Roman,serif" font-size="14.00">Cap: 0.40</text>
</a>
</g>
<!-- 2010&#45;&gt;ELC -->
<g id="edge16" class="edge"><title>2010&#45;&gt;ELC</title>
<path fill="none" stroke="forestgreen" d="M237.775,-80.2898C262.197,-89.8129 292.803,-101.747 316.617,-111.033"/>
<polygon fill="forestgreen" stroke="forestgreen" points="326.039,-114.707 315.088,-115.267 321.381,-112.891 316.722,-111.074 316.722,-111.074 316.722,-111.074 321.381,-112.891 318.357,-106.882 326.039,-114.707 326.039,-114.707"/>
<text text-anchor="middle" x="285" y="-109.4" font-family="Times Roman,serif" font-size="14.00">7.53</text>
</g>
<!-- HCO -->
<g id="node7" class="node"><title>HCO</title>
<a xlink:href="../commodities/rc_HCO_2010.svg" xlink:title="HCO">
<ellipse fill="lightsteelblue" stroke="lightsteelblue" cx="34" cy="-126" rx="33.9411" ry="33.9411"/>
<text text-anchor="middle" x="34" y="-122.4" font-family="Times Roman,serif" font-size="14.00">HCO</text>
</a>
</g>
<!-- HCO&#45;&gt;1980 -->
<g id="edge5" class="edge"><title>HCO&#45;&gt;1980</title>
<path fill="none" stroke="firebrick" d="M66.006,-138.249C88.4095,-146.823 118.823,-158.463 144.599,-168.328"/>
<polygon fill="firebrick" stroke="firebrick" points="154.225,-172.012 143.277,-172.64 149.555,-170.225 144.886,-168.438 144.886,-168.438 144.886,-168.438 149.555,-170.225 146.494,-164.235 154.225,-172.012 154.225,-172.012"/>
<text text-anchor="middle" x="107" y="-168.4" font-family="Times Roman,serif" font-size="14.00">8.87</text>
</g>
<!-- HCO&#45;&gt;2000 -->
<g id="edge7" class="edge"><title>HCO&#45;&gt;2000</title>
<path fill="none" stroke="firebrick" d="M68.356,-126C90.2985,-126 119.168,-126 143.901,-126"/>
<polygon fill="firebrick" stroke="firebrick" points="154.215,-126 144.215,-130.5 149.215,-126 144.215,-126 144.215,-126 144.215,-126 149.215,-126 144.215,-121.5 154.215,-126 154.215,-126"/>
<text text-anchor="middle" x="107" y="-131.4" font-family="Times Roman,serif" font-size="14.00">68.77</text>
</g>
<!-- HCO&#45;&gt;2010 -->
<g id="edge9" class="edge"><title>HCO&#45;&gt;2010</title>
<path fill="none" stroke="firebrick" d="M66.006,-113.751C88.4095,-105.177 118.823,-93.5369 144.599,-83.6718"/>
<polygon fill="firebrick" stroke="firebrick" points="154.225,-79.9879 146.494,-87.7651 149.555,-81.7751 144.886,-83.5623 144.886,-83.5623 144.886,-83.5623 149.555,-81.7751 143.277,-79.3596 154.225,-79.9879 154.225,-79.9879"/>
<text text-anchor="middle" x="107" y="-109.4" font-family="Times Roman,serif" font-size="14.00">23.54</text>
</g>
</g>
</svg>
