<?xml version="1.0" encoding="UTF-8" standalone="no"?>
<!DOCTYPE svg PUBLIC "-//W3C//DTD SVG 1.1//EN"
 "http://www.w3.org/Graphics/SVG/1.1/DTD/svg11.dtd">
<!-- Generated by graphviz version 2.26.3 (20100126.1600)
 -->
<!-- Title: model Pages: 1 -->
<svg width="427pt" height="290pt"
 viewBox="0.00 0.00 427.00 290.00" xmlns="http://www.w3.org/2000/svg" xmlns:xlink="http://www.w3.org/1999/xlink">
<g id="graph1" class="graph" transform="scale(1 1) rotate(0) translate(4 286)">
<title>model</title>
<polygon fill="white" stroke="white" points="-4,5 -4,-286 424,-286 424,5 -4,5"/>
<text text-anchor="middle" x="209.5" y="-9.4" font-family="Times Roman,serif" font-size="14.00">Activity split of process RHE, 2000 in year 2010</text>
<g id="graph2" class="cluster"><title>cluster_slices</title>
<polygon fill="lightgrey" stroke="lightgrey" points="132,-34 132,-274 297,-274 297,-34 132,-34"/>
<text text-anchor="middle" x="214.5" y="-257.4" font-family="Times Roman,serif" font-size="14.00">2000 Capacity: 33.17</text>
</g>
<!-- inter, day -->
<g id="node2" class="node"><title>inter, day</title>
<polygon fill="white" stroke="white" points="255,-240 173,-240 173,-204 255,-204 255,-240"/>
<text text-anchor="middle" x="214" y="-218.4" font-family="Times Roman,serif" font-size="14.00">inter, day</text>
</g>
<!-- RH -->
<g id="node8" class="node"><title>RH</title>
<a xlink:href="../commodities/rc_RH_2010.svg" xlink:title="RH">
<ellipse fill="lightsteelblue" stroke="lightsteelblue" cx="393" cy="-140" rx="26.163" ry="26.163"/>
<text text-anchor="middle" x="393" y="-136.4" font-family="Times Roman,serif" font-size="14.00">RH</text>
</a>
</g>
<!-- inter, day&#45;&gt;RH -->
<g id="edge14" class="edge"><title>inter, day&#45;&gt;RH</title>
<path fill="none" stroke="forestgreen" d="M253.726,-203.802C285.697,-189.156 330.093,-168.818 360.097,-155.073"/>
<polygon fill="forestgreen" stroke="forestgreen" points="369.299,-150.857 362.082,-159.113 364.754,-152.94 360.208,-155.022 360.208,-155.022 360.208,-155.022 364.754,-152.94 358.334,-150.931 369.299,-150.857 369.299,-150.857"/>
<text text-anchor="middle" x="328" y="-195.4" font-family="Times Roman,serif" font-size="14.00">2.43</text>
</g>
<!-- inter, night -->
<g id="node3" class="node"><title>inter, night</title>
<polygon fill="white" stroke="white" points="261,-186 167,-186 167,-150 261,-150 261,-186"/>
<text text-anchor="middle" x="214" y="-164.4" font-family="Times Roman,serif" font-size="14.00">inter, night</text>
</g>
<!-- inter, night&#45;&gt;RH -->
<g id="edge16" class="edge"><title>inter, night&#45;&gt;RH</title>
<path fill="none" stroke="forestgreen" d="M261.969,-160.497C291.996,-155.799 330.038,-149.849 357.386,-145.571"/>
<polygon fill="forestgreen" stroke="forestgreen" points="367.305,-144.019 358.12,-150.011 362.365,-144.792 357.425,-145.565 357.425,-145.565 357.425,-145.565 362.365,-144.792 356.729,-141.119 367.305,-144.019 367.305,-144.019"/>
<text text-anchor="middle" x="328" y="-159.4" font-family="Times Roman,serif" font-size="14.00">1.21</text>
</g>
<!-- winter, day -->
<g id="node4" class="node"><title>winter, day</title>
<polygon fill="white" stroke="white" points="262,-132 166,-132 166,-96 262,-96 262,-132"/>
<text text-anchor="middle" x="214" y="-110.4" font-family="Times Roman,serif" font-size="14.00">winter, day</text>
</g>
<!-- winter, day&#45;&gt;RH -->
<g id="edge18" class="edge"><title>winter, day&#45;&gt;RH</title>
<path fill="none" stroke="forestgreen" d="M262.44,-121.036C292.238,-125.364 329.789,-130.818 356.961,-134.765"/>
<polygon fill="forestgreen" stroke="forestgreen" points="367.191,-136.251 356.648,-139.267 362.243,-135.533 357.295,-134.814 357.295,-134.814 357.295,-134.814 362.243,-135.533 357.942,-130.36 367.191,-136.251 367.191,-136.251"/>
<text text-anchor="middle" x="328" y="-129.4" font-family="Times Roman,serif" font-size="14.00">11.05</text>
</g>
<!-- winter, night -->
<g id="node5" class="node"><title>winter, night</title>
<polygon fill="white" stroke="white" points="267,-78 161,-78 161,-42 267,-42 267,-78"/>
<text text-anchor="middle" x="214" y="-56.4" font-family="Times Roman,serif" font-size="14.00">winter, night</text>
</g>
<!-- winter, night&#45;&gt;RH -->
<g id="edge20" class="edge"><title>winter, night&#45;&gt;RH</title>
<path fill="none" stroke="forestgreen" d="M254.618,-78.1532C286.312,-92.3183 329.804,-111.756 359.519,-125.036"/>
<polygon fill="forestgreen" stroke="forestgreen" points="369.031,-129.287 358.065,-129.315 364.466,-127.247 359.901,-125.207 359.901,-125.207 359.901,-125.207 364.466,-127.247 361.737,-121.099 369.031,-129.287 369.031,-129.287"/>
<text text-anchor="middle" x="328" y="-105.4" font-family="Times Roman,serif" font-size="14.00">5.53</text>
</g>
<!-- ELC -->
<g id="node7" class="node"><title>ELC</title>
<a xlink:href="../commodities/rc_ELC_2010.svg" xlink:title="ELC">
<ellipse fill="lightsteelblue" stroke="lightsteelblue" cx="31" cy="-140" rx="31.1127" ry="31.1127"/>
<text text-anchor="middle" x="31" y="-136.4" font-family="Times Roman,serif" font-size="14.00">ELC</text>
</a>
</g>
<!-- ELC&#45;&gt;inter, day -->
<g id="edge5" class="edge"><title>ELC&#45;&gt;inter, day</title>
<path fill="none" stroke="firebrick" d="M59.5938,-152.812C87.619,-165.37 130.904,-184.766 164.522,-199.829"/>
<polygon fill="firebrick" stroke="firebrick" points="173.727,-203.954 162.761,-203.971 169.164,-201.909 164.601,-199.865 164.601,-199.865 164.601,-199.865 169.164,-201.909 166.441,-195.758 173.727,-203.954 173.727,-203.954"/>
<text text-anchor="middle" x="101" y="-195.4" font-family="Times Roman,serif" font-size="14.00">2.43</text>
</g>
<!-- ELC&#45;&gt;inter, night -->
<g id="edge7" class="edge"><title>ELC&#45;&gt;inter, night</title>
<path fill="none" stroke="firebrick" d="M62.0435,-144.75C87.8078,-148.692 125.148,-154.405 156.365,-159.181"/>
<polygon fill="firebrick" stroke="firebrick" points="166.262,-160.696 155.697,-163.632 161.32,-159.94 156.377,-159.183 156.377,-159.183 156.377,-159.183 161.32,-159.94 157.058,-154.735 166.262,-160.696 166.262,-160.696"/>
<text text-anchor="middle" x="101" y="-159.4" font-family="Times Roman,serif" font-size="14.00">1.21</text>
</g>
<!-- ELC&#45;&gt;winter, day -->
<g id="edge9" class="edge"><title>ELC&#45;&gt;winter, day</title>
<path fill="none" stroke="firebrick" d="M62.0435,-135.589C87.6047,-131.958 124.559,-126.707 155.625,-122.294"/>
<polygon fill="firebrick" stroke="firebrick" points="165.91,-120.833 156.642,-126.695 160.959,-121.536 156.009,-122.239 156.009,-122.239 156.009,-122.239 160.959,-121.536 155.376,-117.784 165.91,-120.833 165.91,-120.833"/>
<text text-anchor="middle" x="101" y="-129.4" font-family="Times Roman,serif" font-size="14.00">11.05</text>
</g>
<!-- ELC&#45;&gt;winter, night -->
<g id="edge11" class="edge"><title>ELC&#45;&gt;winter, night</title>
<path fill="none" stroke="firebrick" d="M59.5938,-127.5C87.3433,-115.369 130.054,-96.6976 163.527,-82.0647"/>
<polygon fill="firebrick" stroke="firebrick" points="172.703,-78.0533 165.343,-86.1822 168.122,-80.0561 163.54,-82.0589 163.54,-82.0589 163.54,-82.0589 168.122,-80.0561 161.738,-77.9357 172.703,-78.0533 172.703,-78.0533"/>
<text text-anchor="middle" x="101" y="-105.4" font-family="Times Roman,serif" font-size="14.00">5.53</text>
</g>
</g>
</svg>
