<?xml version="1.0" encoding="UTF-8" standalone="no"?>
<!DOCTYPE svg PUBLIC "-//W3C//DTD SVG 1.1//EN"
 "http://www.w3.org/Graphics/SVG/1.1/DTD/svg11.dtd">
<!-- Generated by graphviz version 2.26.3 (20100126.1600)
 -->
<!-- Title: model Pages: 1 -->
<svg width="398pt" height="155pt"
 viewBox="0.00 0.00 398.00 155.00" xmlns="http://www.w3.org/2000/svg" xmlns:xlink="http://www.w3.org/1999/xlink">
<g id="graph1" class="graph" transform="scale(1 1) rotate(0) translate(4 151)">
<title>model</title>
<polygon fill="white" stroke="white" points="-4,5 -4,-151 395,-151 395,5 -4,5"/>
<text text-anchor="middle" x="195" y="-9.4" font-family="Times Roman,serif" font-size="14.00">Results for IMPFEQ in 2010</text>
<g id="graph2" class="cluster"><title>cluster_vintages</title>
<a xlink:href="results2010.svg" xlink:title="Vintages\nCapacity: 0.00">
<polygon fill="lightgrey" stroke="lightgrey" points="144,-35 144,-139 260,-139 260,-35 144,-35"/>
<text text-anchor="middle" x="202" y="-122.4" font-family="Times Roman,serif" font-size="14.00">Vintages</text>
<text text-anchor="middle" x="202" y="-104.4" font-family="Times Roman,serif" font-size="14.00">Capacity: 0.00</text>
</a>
</g>
<!-- 1990 -->
<g id="node2" class="node"><title>1990</title>
<a xlink:href="results_IMPFEQ_p2010v1990_segments.svg" xlink:title="1990\nCap: 0.00">
<polygon fill="white" stroke="white" points="243,-87 161,-87 161,-43 243,-43 243,-87"/>
<text text-anchor="middle" x="202" y="-70.4" font-family="Times Roman,serif" font-size="14.00">1990</text>
<text text-anchor="middle" x="202" y="-52.4" font-family="Times Roman,serif" font-size="14.00">Cap: 0.00</text>
</a>
</g>
<!-- FEQ -->
<g id="node4" class="node"><title>FEQ</title>
<a xlink:href="../commodities/rc_FEQ_2010.svg" xlink:title="FEQ">
<ellipse fill="lightsteelblue" stroke="lightsteelblue" cx="358" cy="-65" rx="31.8198" ry="31.8198"/>
<text text-anchor="middle" x="358" y="-61.4" font-family="Times Roman,serif" font-size="14.00">FEQ</text>
</a>
</g>
<!-- 1990&#45;&gt;FEQ -->
<g id="edge8" class="edge"><title>1990&#45;&gt;FEQ</title>
<path fill="none" stroke="forestgreen" d="M243.805,-65C266.088,-65 293.435,-65 315.781,-65"/>
<polygon fill="forestgreen" stroke="forestgreen" points="325.981,-65 315.981,-69.5001 320.981,-65 315.981,-65.0001 315.981,-65.0001 315.981,-65.0001 320.981,-65 315.981,-60.5001 325.981,-65 325.981,-65"/>
<text text-anchor="middle" x="289" y="-70.4" font-family="Times Roman,serif" font-size="14.00">&#45;0.00</text>
</g>
<!-- ethos -->
<g id="node5" class="node"><title>ethos</title>
<a xlink:href="../commodities/rc_ethos_2010.svg" xlink:title="ethos">
<ellipse fill="lightsteelblue" stroke="lightsteelblue" cx="39" cy="-65" rx="38.8909" ry="38.8909"/>
<text text-anchor="middle" x="39" y="-61.4" font-family="Times Roman,serif" font-size="14.00">ethos</text>
</a>
</g>
<!-- ethos&#45;&gt;1990 -->
<g id="edge5" class="edge"><title>ethos&#45;&gt;1990</title>
<path fill="none" stroke="firebrick" d="M78.0426,-65C99.7019,-65 126.912,-65 150.317,-65"/>
<polygon fill="firebrick" stroke="firebrick" points="160.427,-65 150.427,-69.5001 155.427,-65 150.427,-65.0001 150.427,-65.0001 150.427,-65.0001 155.427,-65 150.427,-60.5001 160.427,-65 160.427,-65"/>
<text text-anchor="middle" x="115" y="-70.4" font-family="Times Roman,serif" font-size="14.00">&#45;0.00</text>
</g>
</g>
</svg>
