<?xml version="1.0" encoding="UTF-8" standalone="no"?>
<!DOCTYPE svg PUBLIC "-//W3C//DTD SVG 1.1//EN"
 "http://www.w3.org/Graphics/SVG/1.1/DTD/svg11.dtd">
<!-- Generated by graphviz version 2.26.3 (20100126.1600)
 -->
<!-- Title: model Pages: 1 -->
<svg width="372pt" height="216pt"
 viewBox="0.00 0.00 372.00 216.00" xmlns="http://www.w3.org/2000/svg" xmlns:xlink="http://www.w3.org/1999/xlink">
<g id="graph1" class="graph" transform="scale(1 1) rotate(0) translate(4 212)">
<title>model</title>
<polygon fill="white" stroke="white" points="-4,5 -4,-212 369,-212 369,5 -4,5"/>
<text text-anchor="middle" x="182" y="-9.4" font-family="Times Roman,serif" font-size="14.00">Results for E31 in 2010</text>
<g id="graph2" class="cluster"><title>cluster_vintages</title>
<a xlink:href="results2010.svg" xlink:title="Vintages\nCapacity: 0.13">
<polygon fill="lightgrey" stroke="lightgrey" points="126,-34 126,-200 242,-200 242,-34 126,-34"/>
<text text-anchor="middle" x="184" y="-183.4" font-family="Times Roman,serif" font-size="14.00">Vintages</text>
<text text-anchor="middle" x="184" y="-165.4" font-family="Times Roman,serif" font-size="14.00">Capacity: 0.13</text>
</a>
</g>
<!-- 1980 -->
<g id="node2" class="node"><title>1980</title>
<a xlink:href="results_E31_p2010v1980_segments.svg" xlink:title="1980\nCap: 0.10">
<polygon fill="white" stroke="white" points="225,-148 143,-148 143,-104 225,-104 225,-148"/>
<text text-anchor="middle" x="184" y="-131.4" font-family="Times Roman,serif" font-size="14.00">1980</text>
<text text-anchor="middle" x="184" y="-113.4" font-family="Times Roman,serif" font-size="14.00">Cap: 0.10</text>
</a>
</g>
<!-- ELC -->
<g id="node5" class="node"><title>ELC</title>
<a xlink:href="../commodities/rc_ELC_2010.svg" xlink:title="ELC">
<ellipse fill="lightsteelblue" stroke="lightsteelblue" cx="333" cy="-97" rx="31.1127" ry="31.1127"/>
<text text-anchor="middle" x="333" y="-93.4" font-family="Times Roman,serif" font-size="14.00">ELC</text>
</a>
</g>
<!-- 1980&#45;&gt;ELC -->
<g id="edge10" class="edge"><title>1980&#45;&gt;ELC</title>
<path fill="none" stroke="forestgreen" d="M225.505,-117.922C246.278,-113.879 271.34,-109.001 292.038,-104.972"/>
<polygon fill="forestgreen" stroke="forestgreen" points="302.113,-103.012 293.157,-109.339 297.205,-103.967 292.297,-104.922 292.297,-104.922 292.297,-104.922 297.205,-103.967 291.437,-100.505 302.113,-103.012 302.113,-103.012"/>
<text text-anchor="middle" x="268" y="-117.4" font-family="Times Roman,serif" font-size="14.00">0.87</text>
</g>
<!-- 1990 -->
<g id="node3" class="node"><title>1990</title>
<a xlink:href="results_E31_p2010v1990_segments.svg" xlink:title="1990\nCap: 0.03">
<polygon fill="white" stroke="white" points="225,-86 143,-86 143,-42 225,-42 225,-86"/>
<text text-anchor="middle" x="184" y="-69.4" font-family="Times Roman,serif" font-size="14.00">1990</text>
<text text-anchor="middle" x="184" y="-51.4" font-family="Times Roman,serif" font-size="14.00">Cap: 0.03</text>
</a>
</g>
<!-- 1990&#45;&gt;ELC -->
<g id="edge12" class="edge"><title>1990&#45;&gt;ELC</title>
<path fill="none" stroke="forestgreen" d="M225.505,-73.1923C246.521,-77.8469 271.927,-83.4737 292.762,-88.0882"/>
<polygon fill="forestgreen" stroke="forestgreen" points="302.584,-90.2635 291.847,-92.4946 297.702,-89.1823 292.82,-88.1011 292.82,-88.1011 292.82,-88.1011 297.702,-89.1823 293.793,-83.7075 302.584,-90.2635 302.584,-90.2635"/>
<text text-anchor="middle" x="268" y="-90.4" font-family="Times Roman,serif" font-size="14.00">0.26</text>
</g>
<!-- HYD -->
<g id="node6" class="node"><title>HYD</title>
<a xlink:href="../commodities/rc_HYD_2010.svg" xlink:title="HYD">
<ellipse fill="lightsteelblue" stroke="lightsteelblue" cx="33" cy="-97" rx="33.234" ry="33.234"/>
<text text-anchor="middle" x="33" y="-93.4" font-family="Times Roman,serif" font-size="14.00">HYD</text>
</a>
</g>
<!-- HYD&#45;&gt;1980 -->
<g id="edge5" class="edge"><title>HYD&#45;&gt;1980</title>
<path fill="none" stroke="firebrick" d="M65.7648,-103.293C85.2464,-107.034 110.389,-111.863 132.476,-116.105"/>
<polygon fill="firebrick" stroke="firebrick" points="142.378,-118.006 131.709,-120.539 137.468,-117.063 132.557,-116.12 132.557,-116.12 132.557,-116.12 137.468,-117.063 133.406,-111.701 142.378,-118.006 142.378,-118.006"/>
<text text-anchor="middle" x="100" y="-117.4" font-family="Times Roman,serif" font-size="14.00">2.71</text>
</g>
<!-- HYD&#45;&gt;1990 -->
<g id="edge7" class="edge"><title>HYD&#45;&gt;1990</title>
<path fill="none" stroke="firebrick" d="M65.3933,-89.9207C84.9319,-85.6506 110.263,-80.1147 132.496,-75.2559"/>
<polygon fill="firebrick" stroke="firebrick" points="142.461,-73.0781 133.652,-79.6095 137.576,-74.1457 132.691,-75.2132 132.691,-75.2132 132.691,-75.2132 137.576,-74.1457 131.731,-70.817 142.461,-73.0781 142.461,-73.0781"/>
<text text-anchor="middle" x="100" y="-90.4" font-family="Times Roman,serif" font-size="14.00">0.81</text>
</g>
</g>
</svg>
