<?xml version="1.0" encoding="UTF-8" standalone="no"?>
<!DOCTYPE svg PUBLIC "-//W3C//DTD SVG 1.1//EN"
 "http://www.w3.org/Graphics/SVG/1.1/DTD/svg11.dtd">
<!-- Generated by graphviz version 2.26.3 (20100126.1600)
 -->
<!-- Title: model Pages: 1 -->
<svg width="1660pt" height="585pt"
 viewBox="0.00 0.00 1660.00 585.00" xmlns="http://www.w3.org/2000/svg" xmlns:xlink="http://www.w3.org/1999/xlink">
<g id="graph1" class="graph" transform="scale(1 1) rotate(0) translate(4 581)">
<title>model</title>
<polygon fill="white" stroke="white" points="-4,5 -4,-581 1657,-581 1657,5 -4,5"/>
<text text-anchor="middle" x="826" y="-9.4" font-family="Times Roman,serif" font-size="14.00">Results for 1990</text>
<!-- E21 -->
<g id="node2" class="node"><title>E21</title>
<polygon fill="powderblue" stroke="powderblue" points="599,-479 545,-479 545,-443 599,-443 599,-479"/>
<text text-anchor="middle" x="572" y="-457.4" font-family="Times Roman,serif" font-size="14.00" fill="chocolate">E21</text>
</g>
<!-- ELC -->
<g id="node31" class="node"><title>ELC</title>
<a xlink:href="../commodities/rc_ELC_1990.svg" xlink:title="ELC">
<ellipse fill="lightsteelblue" stroke="lightsteelblue" cx="1307" cy="-326" rx="31.1127" ry="31.1127"/>
<text text-anchor="middle" x="1307" y="-322.4" font-family="Times Roman,serif" font-size="14.00">ELC</text>
</a>
</g>
<!-- E21&#45;&gt;ELC -->
<g id="edge11" class="edge"><title>E21&#45;&gt;ELC</title>
<path fill="none" stroke="powderblue" d="M599.031,-456.035C710.22,-435.613 1132.71,-358.012 1266.27,-333.481"/>
<polygon fill="powderblue" stroke="powderblue" points="1276.11,-331.673 1267.09,-337.906 1271.19,-332.577 1266.28,-333.48 1266.28,-333.48 1266.28,-333.48 1271.19,-332.577 1265.46,-329.054 1276.11,-331.673 1276.11,-331.673"/>
</g>
<!-- IMPFEQ -->
<g id="node3" class="node"><title>IMPFEQ</title>
<polygon fill="powderblue" stroke="powderblue" points="258,-424 188,-424 188,-388 258,-388 258,-424"/>
<text text-anchor="middle" x="223" y="-402.4" font-family="Times Roman,serif" font-size="14.00" fill="chocolate">IMPFEQ</text>
</g>
<!-- FEQ -->
<g id="node10" class="node"><title>FEQ</title>
<ellipse fill="powderblue" stroke="powderblue" cx="402" cy="-461" rx="31.8198" ry="31.8198"/>
<text text-anchor="middle" x="402" y="-457.4" font-family="Times Roman,serif" font-size="14.00" fill="chocolate">FEQ</text>
</g>
<!-- IMPFEQ&#45;&gt;FEQ -->
<g id="edge21" class="edge"><title>IMPFEQ&#45;&gt;FEQ</title>
<path fill="none" stroke="powderblue" d="M258.793,-416.998C288.529,-426.135 330.816,-439.128 361.729,-448.626"/>
<polygon fill="powderblue" stroke="powderblue" points="371.336,-451.578 360.455,-452.942 366.557,-450.11 361.777,-448.641 361.777,-448.641 361.777,-448.641 366.557,-450.11 363.099,-444.339 371.336,-451.578 371.336,-451.578"/>
</g>
<!-- IMPOIL1 -->
<g id="node4" class="node"><title>IMPOIL1</title>
<polygon fill="powderblue" stroke="powderblue" points="260,-89 186,-89 186,-53 260,-53 260,-89"/>
<text text-anchor="middle" x="223" y="-67.4" font-family="Times Roman,serif" font-size="14.00" fill="chocolate">IMPOIL1</text>
</g>
<!-- OIL -->
<g id="node12" class="node"><title>OIL</title>
<ellipse fill="powderblue" stroke="powderblue" cx="402" cy="-55" rx="28.9914" ry="28.9914"/>
<text text-anchor="middle" x="402" y="-51.4" font-family="Times Roman,serif" font-size="14.00" fill="chocolate">OIL</text>
</g>
<!-- IMPOIL1&#45;&gt;OIL -->
<g id="edge23" class="edge"><title>IMPOIL1&#45;&gt;OIL</title>
<path fill="none" stroke="powderblue" d="M260.524,-67.6459C290.512,-64.9654 332.412,-61.2202 362.826,-58.5016"/>
<polygon fill="powderblue" stroke="powderblue" points="373.066,-57.5863 363.506,-62.9588 368.086,-58.0315 363.105,-58.4767 363.105,-58.4767 363.105,-58.4767 368.086,-58.0315 362.705,-53.9946 373.066,-57.5863 373.066,-57.5863"/>
</g>
<!-- IMPURN1 -->
<g id="node5" class="node"><title>IMPURN1</title>
<polygon fill="powderblue" stroke="powderblue" points="264,-496 182,-496 182,-460 264,-460 264,-496"/>
<text text-anchor="middle" x="223" y="-474.4" font-family="Times Roman,serif" font-size="14.00" fill="chocolate">IMPURN1</text>
</g>
<!-- URN -->
<g id="node13" class="node"><title>URN</title>
<ellipse fill="powderblue" stroke="powderblue" cx="402" cy="-544" rx="33.234" ry="33.234"/>
<text text-anchor="middle" x="402" y="-540.4" font-family="Times Roman,serif" font-size="14.00" fill="chocolate">URN</text>
</g>
<!-- IMPURN1&#45;&gt;URN -->
<g id="edge25" class="edge"><title>IMPURN1&#45;&gt;URN</title>
<path fill="none" stroke="powderblue" d="M264.066,-493.142C293.277,-503.912 332.339,-518.315 361.436,-529.043"/>
<polygon fill="powderblue" stroke="powderblue" points="370.893,-532.53 359.954,-533.293 366.202,-530.801 361.511,-529.071 361.511,-529.071 361.511,-529.071 366.202,-530.801 363.068,-524.849 370.893,-532.53 370.893,-532.53"/>
</g>
<!-- RHE -->
<g id="node6" class="node"><title>RHE</title>
<polygon fill="powderblue" stroke="powderblue" points="1501,-377 1447,-377 1447,-341 1501,-341 1501,-377"/>
<text text-anchor="middle" x="1474" y="-355.4" font-family="Times Roman,serif" font-size="14.00" fill="chocolate">RHE</text>
</g>
<!-- RH -->
<g id="node35" class="node"><title>RH</title>
<a xlink:href="../commodities/rc_RH_1990.svg" xlink:title="RH">
<ellipse fill="lightsteelblue" stroke="lightsteelblue" cx="1626" cy="-301" rx="26.163" ry="26.163"/>
<text text-anchor="middle" x="1626" y="-297.4" font-family="Times Roman,serif" font-size="14.00">RH</text>
</a>
</g>
<!-- RHE&#45;&gt;RH -->
<g id="edge29" class="edge"><title>RHE&#45;&gt;RH</title>
<path fill="none" stroke="powderblue" d="M1501.17,-348.631C1526.58,-338.938 1564.6,-324.43 1592,-313.974"/>
<polygon fill="powderblue" stroke="powderblue" points="1601.57,-310.322 1593.83,-318.091 1596.9,-312.104 1592.23,-313.887 1592.23,-313.887 1592.23,-313.887 1596.9,-312.104 1590.62,-309.683 1601.57,-310.322 1601.57,-310.322"/>
</g>
<!-- TXE -->
<g id="node7" class="node"><title>TXE</title>
<polygon fill="powderblue" stroke="powderblue" points="1501,-261 1447,-261 1447,-225 1501,-225 1501,-261"/>
<text text-anchor="middle" x="1474" y="-239.4" font-family="Times Roman,serif" font-size="14.00" fill="chocolate">TXE</text>
</g>
<!-- TX -->
<g id="node37" class="node"><title>TX</title>
<a xlink:href="../commodities/rc_TX_1990.svg" xlink:title="TX">
<ellipse fill="lightsteelblue" stroke="lightsteelblue" cx="1626" cy="-156" rx="24.9567" ry="25.4558"/>
<text text-anchor="middle" x="1626" y="-152.4" font-family="Times Roman,serif" font-size="14.00">TX</text>
</a>
</g>
<!-- TXE&#45;&gt;TX -->
<g id="edge35" class="edge"><title>TXE&#45;&gt;TX</title>
<path fill="none" stroke="powderblue" d="M1501.17,-227.446C1527.41,-212.428 1567.11,-189.704 1594.67,-173.932"/>
<polygon fill="powderblue" stroke="powderblue" points="1603.51,-168.871 1597.07,-177.744 1599.17,-171.355 1594.83,-173.838 1594.83,-173.838 1594.83,-173.838 1599.17,-171.355 1592.6,-169.933 1603.51,-168.871 1603.51,-168.871"/>
</g>
<!-- CSV -->
<g id="node9" class="node"><title>CSV</title>
<ellipse fill="powderblue" stroke="powderblue" cx="39" cy="-369" rx="31.8198" ry="31.8198"/>
<text text-anchor="middle" x="39" y="-365.4" font-family="Times Roman,serif" font-size="14.00" fill="chocolate">CSV</text>
</g>
<!-- FEQ&#45;&gt;E21 -->
<g id="edge19" class="edge"><title>FEQ&#45;&gt;E21</title>
<path fill="none" stroke="powderblue" d="M434.376,-461C462.986,-461 504.71,-461 534.709,-461"/>
<polygon fill="powderblue" stroke="powderblue" points="544.79,-461 534.79,-465.5 539.79,-461 534.79,-461 534.79,-461 534.79,-461 539.79,-461 534.79,-456.5 544.79,-461 544.79,-461"/>
</g>
<!-- LTH -->
<g id="node11" class="node"><title>LTH</title>
<ellipse fill="powderblue" stroke="powderblue" cx="39" cy="-448" rx="29.1951" ry="29.6985"/>
<text text-anchor="middle" x="39" y="-444.4" font-family="Times Roman,serif" font-size="14.00" fill="chocolate">LTH</text>
</g>
<!-- SRE -->
<g id="node26" class="node"><title>SRE</title>
<a xlink:href="results_SRE_1990.svg" xlink:title="SRE\nCapacity: 0.10">
<polygon fill="darkseagreen" stroke="darkseagreen" points="630,-84 514,-84 514,-40 630,-40 630,-84"/>
<text text-anchor="middle" x="572" y="-67.4" font-family="Times Roman,serif" font-size="14.00">SRE</text>
<text text-anchor="middle" x="572" y="-49.4" font-family="Times Roman,serif" font-size="14.00">Capacity: 0.10</text>
</a>
</g>
<!-- OIL&#45;&gt;SRE -->
<g id="edge27" class="edge"><title>OIL&#45;&gt;SRE</title>
<path fill="none" stroke="powderblue" d="M431.224,-56.2033C451.165,-57.0245 478.44,-58.1475 503.674,-59.1866"/>
<polygon fill="powderblue" stroke="powderblue" points="513.963,-59.6102 503.786,-63.6949 508.967,-59.4045 503.971,-59.1987 503.971,-59.1987 503.971,-59.1987 508.967,-59.4045 504.156,-54.7025 513.963,-59.6102 513.963,-59.6102"/>
</g>
<!-- URN&#45;&gt;E21 -->
<g id="edge37" class="edge"><title>URN&#45;&gt;E21</title>
<path fill="none" stroke="powderblue" d="M432.001,-529.352C460.94,-515.224 504.783,-493.818 535.68,-478.733"/>
<polygon fill="powderblue" stroke="powderblue" points="544.823,-474.269 537.811,-482.7 540.33,-476.463 535.837,-478.656 535.837,-478.656 535.837,-478.656 540.33,-476.463 533.862,-474.613 544.823,-474.269 544.823,-474.269"/>
</g>
<!-- E01 -->
<g id="node16" class="node"><title>E01</title>
<a xlink:href="results_E01_1990.svg" xlink:title="E01\nCapacity: 0.50">
<polygon fill="darkseagreen" stroke="darkseagreen" points="764,-333 648,-333 648,-289 764,-289 764,-333"/>
<text text-anchor="middle" x="706" y="-316.4" font-family="Times Roman,serif" font-size="14.00">E01</text>
<text text-anchor="middle" x="706" y="-298.4" font-family="Times Roman,serif" font-size="14.00">Capacity: 0.50</text>
</a>
</g>
<!-- E01&#45;&gt;ELC -->
<g id="edge70" class="edge"><title>E01&#45;&gt;ELC</title>
<path fill="none" stroke="forestgreen" d="M764.117,-315.359C823.167,-319.788 906,-326 906,-326 906,-326 1163.13,-326 1265.59,-326"/>
<polygon fill="forestgreen" stroke="forestgreen" points="1275.87,-326 1265.87,-330.5 1270.87,-326 1265.87,-326 1265.87,-326 1265.87,-326 1270.87,-326 1265.87,-321.5 1275.87,-326 1275.87,-326"/>
<text text-anchor="middle" x="922" y="-331.4" font-family="Times Roman,serif" font-size="14.00">4.70</text>
</g>
<!-- E31 -->
<g id="node17" class="node"><title>E31</title>
<a xlink:href="results_E31_1990.svg" xlink:title="E31\nCapacity: 0.13">
<polygon fill="darkseagreen" stroke="darkseagreen" points="980,-398 864,-398 864,-354 980,-354 980,-398"/>
<text text-anchor="middle" x="922" y="-381.4" font-family="Times Roman,serif" font-size="14.00">E31</text>
<text text-anchor="middle" x="922" y="-363.4" font-family="Times Roman,serif" font-size="14.00">Capacity: 0.13</text>
</a>
</g>
<!-- E31&#45;&gt;ELC -->
<g id="edge72" class="edge"><title>E31&#45;&gt;ELC</title>
<path fill="none" stroke="forestgreen" d="M980.309,-374.518C1010.04,-373.762 1040,-373 1040,-373 1040,-373 1191.64,-346.307 1266.36,-333.153"/>
<polygon fill="forestgreen" stroke="forestgreen" points="1276.37,-331.391 1267.3,-337.557 1271.45,-332.258 1266.52,-333.125 1266.52,-333.125 1266.52,-333.125 1271.45,-332.258 1265.74,-328.693 1276.37,-331.391 1276.37,-331.391"/>
<text text-anchor="middle" x="1056" y="-378.4" font-family="Times Roman,serif" font-size="14.00">1.13</text>
</g>
<!-- E51 -->
<g id="node18" class="node"><title>E51</title>
<a xlink:href="results_E51_1990.svg" xlink:title="E51\nCapacity: 0.50">
<polygon fill="darkseagreen" stroke="darkseagreen" points="1532,-323 1416,-323 1416,-279 1532,-279 1532,-323"/>
<text text-anchor="middle" x="1474" y="-306.4" font-family="Times Roman,serif" font-size="14.00">E51</text>
<text text-anchor="middle" x="1474" y="-288.4" font-family="Times Roman,serif" font-size="14.00">Capacity: 0.50</text>
</a>
</g>
<!-- E51&#45;&gt;ELC -->
<g id="edge74" class="edge"><title>E51&#45;&gt;ELC</title>
<path fill="none" stroke="forestgreen" d="M1415.77,-309.717C1393.4,-313.066 1368.35,-316.816 1347.94,-319.872"/>
<polygon fill="forestgreen" stroke="forestgreen" points="1338.02,-321.356 1347.24,-315.425 1342.96,-320.616 1347.91,-319.876 1347.91,-319.876 1347.91,-319.876 1342.96,-320.616 1348.58,-324.326 1338.02,-321.356 1338.02,-321.356"/>
<text text-anchor="middle" x="1377" y="-323.4" font-family="Times Roman,serif" font-size="14.00">0.59</text>
</g>
<!-- E70 -->
<g id="node19" class="node"><title>E70</title>
<a xlink:href="results_E70_1990.svg" xlink:title="E70\nCapacity: 0.30">
<polygon fill="darkseagreen" stroke="darkseagreen" points="1114,-284 998,-284 998,-240 1114,-240 1114,-284"/>
<text text-anchor="middle" x="1056" y="-267.4" font-family="Times Roman,serif" font-size="14.00">E70</text>
<text text-anchor="middle" x="1056" y="-249.4" font-family="Times Roman,serif" font-size="14.00">Capacity: 0.30</text>
</a>
</g>
<!-- E70&#45;&gt;ELC -->
<g id="edge13" class="edge"><title>E70&#45;&gt;ELC</title>
<path fill="none" stroke="powderblue" d="M1114.22,-276.844C1161.08,-288.792 1225.71,-305.272 1266.93,-315.783"/>
<polygon fill="powderblue" stroke="powderblue" points="1276.88,-318.32 1266.08,-320.21 1272.03,-317.084 1267.19,-315.849 1267.19,-315.849 1267.19,-315.849 1272.03,-317.084 1268.3,-311.489 1276.88,-318.32 1276.88,-318.32"/>
</g>
<!-- IMPDSL1 -->
<g id="node20" class="node"><title>IMPDSL1</title>
<a xlink:href="results_IMPDSL1_1990.svg" xlink:title="IMPDSL1\nCapacity: 106.09">
<polygon fill="darkseagreen" stroke="darkseagreen" points="290,-233 156,-233 156,-189 290,-189 290,-233"/>
<text text-anchor="middle" x="223" y="-216.4" font-family="Times Roman,serif" font-size="14.00">IMPDSL1</text>
<text text-anchor="middle" x="223" y="-198.4" font-family="Times Roman,serif" font-size="14.00">Capacity: 106.09</text>
</a>
</g>
<!-- DSL -->
<g id="node30" class="node"><title>DSL</title>
<a xlink:href="../commodities/rc_DSL_1990.svg" xlink:title="DSL">
<ellipse fill="lightsteelblue" stroke="lightsteelblue" cx="814" cy="-155" rx="31.8198" ry="31.8198"/>
<text text-anchor="middle" x="814" y="-151.4" font-family="Times Roman,serif" font-size="14.00">DSL</text>
</a>
</g>
<!-- IMPDSL1&#45;&gt;DSL -->
<g id="edge76" class="edge"><title>IMPDSL1&#45;&gt;DSL</title>
<path fill="none" stroke="forestgreen" d="M290.01,-201.655C370.695,-190.404 495.5,-173 495.5,-173 495.5,-173 685.476,-162.264 771.985,-157.374"/>
<polygon fill="forestgreen" stroke="forestgreen" points="782.003,-156.808 772.273,-161.865 777.011,-157.09 772.019,-157.373 772.019,-157.373 772.019,-157.373 777.011,-157.09 771.765,-152.88 782.003,-156.808 782.003,-156.808"/>
<text text-anchor="middle" x="475" y="-160.4" font-family="Times Roman,serif" font-size="14.00">38.60</text>
</g>
<!-- co2 -->
<g id="node40" class="node"><title>co2</title>
<ellipse fill="lightsteelblue" stroke="lightsteelblue" cx="402" cy="-212" rx="28.9914" ry="28.9914"/>
<text text-anchor="middle" x="402" y="-208.4" font-family="Times Roman,serif" font-size="14.00">co2</text>
</g>
<!-- IMPDSL1&#45;&gt;co2 -->
<g id="edge78" class="edge"><title>IMPDSL1&#45;&gt;co2</title>
<path fill="none" stroke="forestgreen" d="M290.162,-211.375C314.603,-211.512 341.419,-211.662 362.664,-211.78"/>
<polygon fill="forestgreen" stroke="forestgreen" points="372.917,-211.838 362.892,-216.281 367.917,-211.81 362.917,-211.782 362.917,-211.782 362.917,-211.782 367.917,-211.81 362.942,-207.282 372.917,-211.838 372.917,-211.838"/>
<text text-anchor="middle" x="329" y="-217.4" font-family="Times Roman,serif" font-size="14.00">2.89</text>
</g>
<!-- IMPGSL1 -->
<g id="node21" class="node"><title>IMPGSL1</title>
<a xlink:href="results_IMPGSL1_1990.svg" xlink:title="IMPGSL1\nCapacity: 30.00">
<polygon fill="darkseagreen" stroke="darkseagreen" points="285,-167 161,-167 161,-123 285,-123 285,-167"/>
<text text-anchor="middle" x="223" y="-150.4" font-family="Times Roman,serif" font-size="14.00">IMPGSL1</text>
<text text-anchor="middle" x="223" y="-132.4" font-family="Times Roman,serif" font-size="14.00">Capacity: 30.00</text>
</a>
</g>
<!-- GSL -->
<g id="node32" class="node"><title>GSL</title>
<a xlink:href="../commodities/rc_GSL_1990.svg" xlink:title="GSL">
<ellipse fill="lightsteelblue" stroke="lightsteelblue" cx="814" cy="-68" rx="31.8198" ry="31.8198"/>
<text text-anchor="middle" x="814" y="-64.4" font-family="Times Roman,serif" font-size="14.00">GSL</text>
</a>
</g>
<!-- IMPGSL1&#45;&gt;GSL -->
<g id="edge80" class="edge"><title>IMPGSL1&#45;&gt;GSL</title>
<path fill="none" stroke="forestgreen" d="M285.647,-136.07C354.207,-126.297 454.5,-112 454.5,-112 454.5,-112 677.111,-84.7542 771.984,-73.1424"/>
<polygon fill="forestgreen" stroke="forestgreen" points="782.097,-71.9047 772.718,-77.5863 777.134,-72.5122 772.171,-73.1196 772.171,-73.1196 772.171,-73.1196 777.134,-72.5122 771.624,-68.653 782.097,-71.9047 782.097,-71.9047"/>
<text text-anchor="middle" x="475" y="-117.4" font-family="Times Roman,serif" font-size="14.00">19.91</text>
</g>
<!-- IMPGSL1&#45;&gt;co2 -->
<g id="edge82" class="edge"><title>IMPGSL1&#45;&gt;co2</title>
<path fill="none" stroke="forestgreen" d="M282.107,-167.124C309.495,-177.375 341.191,-189.239 365.113,-198.193"/>
<polygon fill="forestgreen" stroke="forestgreen" points="374.526,-201.716 363.583,-202.425 369.843,-199.964 365.16,-198.211 365.16,-198.211 365.16,-198.211 369.843,-199.964 366.738,-193.996 374.526,-201.716 374.526,-201.716"/>
<text text-anchor="middle" x="329" y="-195.4" font-family="Times Roman,serif" font-size="14.00">1.49</text>
</g>
<!-- IMPHCO1 -->
<g id="node22" class="node"><title>IMPHCO1</title>
<a xlink:href="results_IMPHCO1_1990.svg" xlink:title="IMPHCO1\nCapacity: 150.81">
<polygon fill="darkseagreen" stroke="darkseagreen" points="290,-302 156,-302 156,-258 290,-258 290,-302"/>
<text text-anchor="middle" x="223" y="-285.4" font-family="Times Roman,serif" font-size="14.00">IMPHCO1</text>
<text text-anchor="middle" x="223" y="-267.4" font-family="Times Roman,serif" font-size="14.00">Capacity: 150.81</text>
</a>
</g>
<!-- HCO -->
<g id="node33" class="node"><title>HCO</title>
<a xlink:href="../commodities/rc_HCO_1990.svg" xlink:title="HCO">
<ellipse fill="lightsteelblue" stroke="lightsteelblue" cx="402" cy="-293" rx="33.9411" ry="33.9411"/>
<text text-anchor="middle" x="402" y="-289.4" font-family="Times Roman,serif" font-size="14.00">HCO</text>
</a>
</g>
<!-- IMPHCO1&#45;&gt;HCO -->
<g id="edge84" class="edge"><title>IMPHCO1&#45;&gt;HCO</title>
<path fill="none" stroke="forestgreen" d="M290.162,-284.878C312.633,-286.51 337.111,-288.287 357.422,-289.763"/>
<polygon fill="forestgreen" stroke="forestgreen" points="367.631,-290.504 357.331,-294.268 362.644,-290.142 357.657,-289.779 357.657,-289.779 357.657,-289.779 362.644,-290.142 357.983,-285.291 367.631,-290.504 367.631,-290.504"/>
<text text-anchor="middle" x="329" y="-294.4" font-family="Times Roman,serif" font-size="14.00">14.70</text>
</g>
<!-- IMPHCO1&#45;&gt;co2 -->
<g id="edge86" class="edge"><title>IMPHCO1&#45;&gt;co2</title>
<path fill="none" stroke="forestgreen" d="M281.116,-257.922C308.751,-247.424 340.955,-235.19 365.173,-225.99"/>
<polygon fill="forestgreen" stroke="forestgreen" points="374.695,-222.373 366.945,-230.131 370.021,-224.148 365.347,-225.924 365.347,-225.924 365.347,-225.924 370.021,-224.148 363.749,-221.717 374.695,-222.373 374.695,-222.373"/>
<text text-anchor="middle" x="329" y="-251.4" font-family="Times Roman,serif" font-size="14.00">1.31</text>
</g>
<!-- IMPHYD -->
<g id="node23" class="node"><title>IMPHYD</title>
<a xlink:href="results_IMPHYD_1990.svg" xlink:title="IMPHYD\nCapacity: 3.52">
<polygon fill="darkseagreen" stroke="darkseagreen" points="281,-368 165,-368 165,-324 281,-324 281,-368"/>
<text text-anchor="middle" x="223" y="-351.4" font-family="Times Roman,serif" font-size="14.00">IMPHYD</text>
<text text-anchor="middle" x="223" y="-333.4" font-family="Times Roman,serif" font-size="14.00">Capacity: 3.52</text>
</a>
</g>
<!-- HYD -->
<g id="node34" class="node"><title>HYD</title>
<a xlink:href="../commodities/rc_HYD_1990.svg" xlink:title="HYD">
<ellipse fill="lightsteelblue" stroke="lightsteelblue" cx="402" cy="-378" rx="33.234" ry="33.234"/>
<text text-anchor="middle" x="402" y="-374.4" font-family="Times Roman,serif" font-size="14.00">HYD</text>
</a>
</g>
<!-- IMPHYD&#45;&gt;HYD -->
<g id="edge88" class="edge"><title>IMPHYD&#45;&gt;HYD</title>
<path fill="none" stroke="forestgreen" d="M281.116,-356.389C306.637,-360.952 336.057,-366.211 359.483,-370.399"/>
<polygon fill="forestgreen" stroke="forestgreen" points="369.457,-372.182 358.821,-374.852 364.535,-371.302 359.613,-370.422 359.613,-370.422 359.613,-370.422 364.535,-371.302 360.405,-365.993 369.457,-372.182 369.457,-372.182"/>
<text text-anchor="middle" x="329" y="-373.4" font-family="Times Roman,serif" font-size="14.00">3.52</text>
</g>
<!-- RHO -->
<g id="node24" class="node"><title>RHO</title>
<a xlink:href="results_RHO_1990.svg" xlink:title="RHO\nCapacity: 41.33">
<polygon fill="darkseagreen" stroke="darkseagreen" points="1257,-219 1133,-219 1133,-175 1257,-175 1257,-219"/>
<text text-anchor="middle" x="1195" y="-202.4" font-family="Times Roman,serif" font-size="14.00">RHO</text>
<text text-anchor="middle" x="1195" y="-184.4" font-family="Times Roman,serif" font-size="14.00">Capacity: 41.33</text>
</a>
</g>
<!-- RHO&#45;&gt;RH -->
<g id="edge90" class="edge"><title>RHO&#45;&gt;RH</title>
<path fill="none" stroke="forestgreen" d="M1257.69,-202.572C1317.16,-207.858 1397.5,-215 1397.5,-215 1397.5,-215 1528.24,-264.205 1591.93,-288.177"/>
<polygon fill="forestgreen" stroke="forestgreen" points="1601.55,-291.796 1590.6,-292.486 1596.87,-290.035 1592.19,-288.274 1592.19,-288.274 1592.19,-288.274 1596.87,-290.035 1593.77,-284.062 1601.55,-291.796 1601.55,-291.796"/>
<text text-anchor="middle" x="1377" y="-202.4" font-family="Times Roman,serif" font-size="14.00">25.20</text>
</g>
<!-- RL1 -->
<g id="node25" class="node"><title>RL1</title>
<a xlink:href="results_RL1_1990.svg" xlink:title="RL1\nCapacity: 8.40">
<polygon fill="darkseagreen" stroke="darkseagreen" points="1532,-439 1416,-439 1416,-395 1532,-395 1532,-439"/>
<text text-anchor="middle" x="1474" y="-422.4" font-family="Times Roman,serif" font-size="14.00">RL1</text>
<text text-anchor="middle" x="1474" y="-404.4" font-family="Times Roman,serif" font-size="14.00">Capacity: 8.40</text>
</a>
</g>
<!-- RL -->
<g id="node36" class="node"><title>RL</title>
<a xlink:href="../commodities/rc_RL_1990.svg" xlink:title="RL">
<ellipse fill="lightsteelblue" stroke="lightsteelblue" cx="1626" cy="-417" rx="24.2437" ry="24.7487"/>
<text text-anchor="middle" x="1626" y="-413.4" font-family="Times Roman,serif" font-size="14.00">RL</text>
</a>
</g>
<!-- RL1&#45;&gt;RL -->
<g id="edge92" class="edge"><title>RL1&#45;&gt;RL</title>
<path fill="none" stroke="forestgreen" d="M1532.33,-417C1552.16,-417 1573.69,-417 1591.1,-417"/>
<polygon fill="forestgreen" stroke="forestgreen" points="1601.36,-417 1591.36,-421.5 1596.36,-417 1591.36,-417 1591.36,-417 1591.36,-417 1596.36,-417 1591.36,-412.5 1601.36,-417 1601.36,-417"/>
<text text-anchor="middle" x="1566" y="-422.4" font-family="Times Roman,serif" font-size="14.00">5.60</text>
</g>
<!-- SRE&#45;&gt;DSL -->
<g id="edge31" class="edge"><title>SRE&#45;&gt;DSL</title>
<path fill="none" stroke="powderblue" d="M629.351,-84.0397C674.062,-101.222 734.983,-124.634 774.404,-139.784"/>
<polygon fill="powderblue" stroke="powderblue" points="783.941,-143.448 772.992,-144.062 779.274,-141.655 774.606,-139.861 774.606,-139.861 774.606,-139.861 779.274,-141.655 776.221,-135.661 783.941,-143.448 783.941,-143.448"/>
</g>
<!-- SRE&#45;&gt;GSL -->
<g id="edge33" class="edge"><title>SRE&#45;&gt;GSL</title>
<path fill="none" stroke="powderblue" d="M630.273,-63.4448C673.924,-64.527 732.629,-65.9825 771.815,-66.9541"/>
<polygon fill="powderblue" stroke="powderblue" points="781.827,-67.2023 771.719,-71.453 776.829,-67.0783 771.83,-66.9544 771.83,-66.9544 771.83,-66.9544 776.829,-67.0783 771.942,-62.4558 781.827,-67.2023 781.827,-67.2023"/>
</g>
<!-- TXD -->
<g id="node27" class="node"><title>TXD</title>
<a xlink:href="results_TXD_1990.svg" xlink:title="TXD\nCapacity: 0.60">
<polygon fill="darkseagreen" stroke="darkseagreen" points="1114,-169 998,-169 998,-125 1114,-125 1114,-169"/>
<text text-anchor="middle" x="1056" y="-152.4" font-family="Times Roman,serif" font-size="14.00">TXD</text>
<text text-anchor="middle" x="1056" y="-134.4" font-family="Times Roman,serif" font-size="14.00">Capacity: 0.60</text>
</a>
</g>
<!-- TXD&#45;&gt;TX -->
<g id="edge94" class="edge"><title>TXD&#45;&gt;TX</title>
<path fill="none" stroke="forestgreen" d="M1114.09,-148.714C1202.58,-151.325 1361,-156 1361,-156 1361,-156 1517.64,-156 1590.06,-156"/>
<polygon fill="forestgreen" stroke="forestgreen" points="1600.11,-156 1590.11,-160.5 1595.11,-156 1590.11,-156 1590.11,-156 1590.11,-156 1595.11,-156 1590.11,-151.5 1600.11,-156 1600.11,-156"/>
<text text-anchor="middle" x="1377" y="-161.4" font-family="Times Roman,serif" font-size="14.00">0.60</text>
</g>
<!-- nox -->
<g id="node41" class="node"><title>nox</title>
<ellipse fill="lightsteelblue" stroke="lightsteelblue" cx="1307" cy="-99" rx="28.9914" ry="28.9914"/>
<text text-anchor="middle" x="1307" y="-95.4" font-family="Times Roman,serif" font-size="14.00">nox</text>
</g>
<!-- TXD&#45;&gt;nox -->
<g id="edge96" class="edge"><title>TXD&#45;&gt;nox</title>
<path fill="none" stroke="forestgreen" d="M1114.22,-135.867C1161.61,-126.804 1227.18,-114.264 1268.33,-106.395"/>
<polygon fill="forestgreen" stroke="forestgreen" points="1278.24,-104.5 1269.26,-110.799 1273.33,-105.44 1268.42,-106.379 1268.42,-106.379 1268.42,-106.379 1273.33,-105.44 1267.57,-101.959 1278.24,-104.5 1278.24,-104.5"/>
<text text-anchor="middle" x="1195" y="-129.4" font-family="Times Roman,serif" font-size="14.00">0.60</text>
</g>
<!-- TXG -->
<g id="node28" class="node"><title>TXG</title>
<a xlink:href="results_TXG_1990.svg" xlink:title="TXG\nCapacity: 4.60">
<polygon fill="darkseagreen" stroke="darkseagreen" points="1114,-90 998,-90 998,-46 1114,-46 1114,-90"/>
<text text-anchor="middle" x="1056" y="-73.4" font-family="Times Roman,serif" font-size="14.00">TXG</text>
<text text-anchor="middle" x="1056" y="-55.4" font-family="Times Roman,serif" font-size="14.00">Capacity: 4.60</text>
</a>
</g>
<!-- TXG&#45;&gt;TX -->
<g id="edge98" class="edge"><title>TXG&#45;&gt;TX</title>
<path fill="none" stroke="forestgreen" d="M1114.32,-66.6156C1210.77,-64.3259 1393,-60 1393,-60 1393,-60 1528.84,-115.967 1593.08,-142.435"/>
<polygon fill="forestgreen" stroke="forestgreen" points="1602.38,-146.267 1591.42,-146.618 1597.75,-144.362 1593.13,-142.457 1593.13,-142.457 1593.13,-142.457 1597.75,-144.362 1594.84,-138.296 1602.38,-146.267 1602.38,-146.267"/>
<text text-anchor="middle" x="1377" y="-47.4" font-family="Times Roman,serif" font-size="14.00">4.60</text>
</g>
<!-- TXG&#45;&gt;nox -->
<g id="edge100" class="edge"><title>TXG&#45;&gt;nox</title>
<path fill="none" stroke="forestgreen" d="M1114.22,-75.1899C1161.38,-81.0146 1226.54,-89.0621 1267.72,-94.1485"/>
<polygon fill="forestgreen" stroke="forestgreen" points="1277.9,-95.406 1267.42,-98.6463 1272.94,-94.7931 1267.98,-94.1802 1267.98,-94.1802 1267.98,-94.1802 1272.94,-94.7931 1268.53,-89.7141 1277.9,-95.406 1277.9,-95.406"/>
<text text-anchor="middle" x="1195" y="-85.4" font-family="Times Roman,serif" font-size="14.00">4.60</text>
</g>
<!-- DSL&#45;&gt;E70 -->
<g id="edge9" class="edge"><title>DSL&#45;&gt;E70</title>
<path fill="none" stroke="powderblue" d="M843.674,-168.12C881.538,-184.862 947.926,-214.215 996.413,-235.654"/>
<polygon fill="powderblue" stroke="powderblue" points="1005.86,-239.83 994.892,-239.901 1001.28,-237.808 996.712,-235.786 996.712,-235.786 996.712,-235.786 1001.28,-237.808 998.531,-231.67 1005.86,-239.83 1005.86,-239.83"/>
</g>
<!-- DSL&#45;&gt;RHO -->
<g id="edge47" class="edge"><title>DSL&#45;&gt;RHO</title>
<path fill="none" stroke="firebrick" d="M843.136,-168.985C868.59,-181.203 901.5,-197 901.5,-197 901.5,-197 1035.39,-197 1122.3,-197"/>
<polygon fill="firebrick" stroke="firebrick" points="1132.4,-197 1122.4,-201.5 1127.4,-197 1122.4,-197 1122.4,-197 1122.4,-197 1127.4,-197 1122.4,-192.5 1132.4,-197 1132.4,-197"/>
<text text-anchor="middle" x="922" y="-202.4" font-family="Times Roman,serif" font-size="14.00">36.00</text>
</g>
<!-- DSL&#45;&gt;TXD -->
<g id="edge49" class="edge"><title>DSL&#45;&gt;TXD</title>
<path fill="none" stroke="firebrick" d="M846.136,-153.938C881.995,-152.752 941.062,-150.8 987.411,-149.267"/>
<polygon fill="firebrick" stroke="firebrick" points="997.693,-148.927 987.847,-153.756 992.696,-149.093 987.699,-149.258 987.699,-149.258 987.699,-149.258 992.696,-149.093 987.55,-144.76 997.693,-148.927 997.693,-148.927"/>
<text text-anchor="middle" x="922" y="-159.4" font-family="Times Roman,serif" font-size="14.00">2.60</text>
</g>
<!-- ELC&#45;&gt;RHE -->
<g id="edge15" class="edge"><title>ELC&#45;&gt;RHE</title>
<path fill="none" stroke="powderblue" d="M1337.63,-332.053C1365.6,-337.579 1407,-345.761 1436.85,-351.658"/>
<polygon fill="powderblue" stroke="powderblue" points="1446.88,-353.641 1436.2,-356.117 1441.97,-352.671 1437.07,-351.702 1437.07,-351.702 1437.07,-351.702 1441.97,-352.671 1437.94,-347.287 1446.88,-353.641 1446.88,-353.641"/>
</g>
<!-- ELC&#45;&gt;TXE -->
<g id="edge17" class="edge"><title>ELC&#45;&gt;TXE</title>
<path fill="none" stroke="powderblue" d="M1334.95,-312.108C1363.14,-298.097 1406.79,-276.404 1437.65,-261.065"/>
<polygon fill="powderblue" stroke="powderblue" points="1446.79,-256.524 1439.84,-265.005 1442.31,-258.749 1437.83,-260.975 1437.83,-260.975 1437.83,-260.975 1442.31,-258.749 1435.83,-256.945 1446.79,-256.524 1446.79,-256.524"/>
</g>
<!-- ELC&#45;&gt;E51 -->
<g id="edge51" class="edge"><title>ELC&#45;&gt;E51</title>
<path fill="none" stroke="firebrick" d="M1338.02,-321.356C1357.09,-318.502 1382.29,-314.729 1405.82,-311.207"/>
<polygon fill="firebrick" stroke="firebrick" points="1415.77,-309.717 1406.55,-315.648 1410.83,-310.457 1405.88,-311.197 1405.88,-311.197 1405.88,-311.197 1410.83,-310.457 1405.22,-306.747 1415.77,-309.717 1415.77,-309.717"/>
<text text-anchor="middle" x="1377" y="-291.4" font-family="Times Roman,serif" font-size="14.00">0.82</text>
</g>
<!-- ELC&#45;&gt;RL1 -->
<g id="edge53" class="edge"><title>ELC&#45;&gt;RL1</title>
<path fill="none" stroke="firebrick" d="M1334.58,-341.027C1359.01,-354.34 1395.26,-374.094 1424.68,-390.123"/>
<polygon fill="firebrick" stroke="firebrick" points="1433.56,-394.966 1422.63,-394.133 1429.17,-392.574 1424.78,-390.181 1424.78,-390.181 1424.78,-390.181 1429.17,-392.574 1426.94,-386.23 1433.56,-394.966 1433.56,-394.966"/>
<text text-anchor="middle" x="1377" y="-383.4" font-family="Times Roman,serif" font-size="14.00">5.60</text>
</g>
<!-- GSL&#45;&gt;TXG -->
<g id="edge55" class="edge"><title>GSL&#45;&gt;TXG</title>
<path fill="none" stroke="firebrick" d="M846.136,-68C881.995,-68 941.062,-68 987.411,-68"/>
<polygon fill="firebrick" stroke="firebrick" points="997.693,-68 987.693,-72.5001 992.693,-68 987.693,-68.0001 987.693,-68.0001 987.693,-68.0001 992.693,-68 987.693,-63.5001 997.693,-68 997.693,-68"/>
<text text-anchor="middle" x="922" y="-73.4" font-family="Times Roman,serif" font-size="14.00">19.91</text>
</g>
<!-- HCO&#45;&gt;E01 -->
<g id="edge57" class="edge"><title>HCO&#45;&gt;E01</title>
<path fill="none" stroke="firebrick" d="M435.546,-298.751C445.835,-300.515 454.5,-302 454.5,-302 454.5,-302 563.241,-305.891 637.718,-308.557"/>
<polygon fill="firebrick" stroke="firebrick" points="647.985,-308.924 637.83,-313.063 642.988,-308.745 637.991,-308.566 637.991,-308.566 637.991,-308.566 642.988,-308.745 638.152,-304.069 647.985,-308.924 647.985,-308.924"/>
<text text-anchor="middle" x="475" y="-307.4" font-family="Times Roman,serif" font-size="14.00">14.70</text>
</g>
<!-- HYD&#45;&gt;E31 -->
<g id="edge59" class="edge"><title>HYD&#45;&gt;E31</title>
<path fill="none" stroke="firebrick" d="M435.037,-378C480.287,-378 556,-378 556,-378 556,-378 747.316,-376.955 853.307,-376.375"/>
<polygon fill="firebrick" stroke="firebrick" points="863.602,-376.319 853.626,-380.874 858.602,-376.346 853.602,-376.374 853.602,-376.374 853.602,-376.374 858.602,-376.346 853.577,-371.874 863.602,-376.319 863.602,-376.319"/>
<text text-anchor="middle" x="572" y="-383.4" font-family="Times Roman,serif" font-size="14.00">3.52</text>
</g>
<!-- ethos -->
<g id="node38" class="node"><title>ethos</title>
<a xlink:href="../commodities/rc_ethos_1990.svg" xlink:title="ethos">
<ellipse fill="lightsteelblue" stroke="lightsteelblue" cx="39" cy="-280" rx="38.8909" ry="38.8909"/>
<text text-anchor="middle" x="39" y="-276.4" font-family="Times Roman,serif" font-size="14.00">ethos</text>
</a>
</g>
<!-- ethos&#45;&gt;IMPFEQ -->
<g id="edge39" class="edge"><title>ethos&#45;&gt;IMPFEQ</title>
<path fill="none" stroke="powderblue" d="M71.472,-302.236C104.146,-324.611 154.374,-359.006 187.939,-381.991"/>
<polygon fill="powderblue" stroke="powderblue" points="196.514,-387.863 185.721,-385.926 192.389,-385.038 188.263,-382.213 188.263,-382.213 188.263,-382.213 192.389,-385.038 190.806,-378.5 196.514,-387.863 196.514,-387.863"/>
</g>
<!-- ethos&#45;&gt;IMPOIL1 -->
<g id="edge41" class="edge"><title>ethos&#45;&gt;IMPOIL1</title>
<path fill="none" stroke="powderblue" d="M64.9725,-250.499C101.041,-209.529 165.727,-136.055 200.088,-97.0246"/>
<polygon fill="powderblue" stroke="powderblue" points="206.939,-89.243 203.709,-99.7223 203.635,-92.9958 200.331,-96.7487 200.331,-96.7487 200.331,-96.7487 203.635,-92.9958 196.954,-93.7751 206.939,-89.243 206.939,-89.243"/>
</g>
<!-- ethos&#45;&gt;IMPURN1 -->
<g id="edge43" class="edge"><title>ethos&#45;&gt;IMPURN1</title>
<path fill="none" stroke="powderblue" d="M65.7552,-308.791C101.674,-347.442 164.928,-415.51 199.245,-452.437"/>
<polygon fill="powderblue" stroke="powderblue" points="206.108,-459.823 196.004,-455.561 202.704,-456.16 199.301,-452.497 199.301,-452.497 199.301,-452.497 202.704,-456.16 202.597,-449.434 206.108,-459.823 206.108,-459.823"/>
</g>
<!-- ethos&#45;&gt;IMPDSL1 -->
<g id="edge61" class="edge"><title>ethos&#45;&gt;IMPDSL1</title>
<path fill="none" stroke="firebrick" d="M75.7929,-266.203C98.3033,-257.761 127.811,-246.696 154.493,-236.69"/>
<polygon fill="firebrick" stroke="firebrick" points="164.177,-233.058 156.394,-240.783 159.496,-234.814 154.814,-236.57 154.814,-236.57 154.814,-236.57 159.496,-234.814 153.234,-232.356 164.177,-233.058 164.177,-233.058"/>
<text text-anchor="middle" x="117" y="-263.4" font-family="Times Roman,serif" font-size="14.00">38.60</text>
</g>
<!-- ethos&#45;&gt;IMPGSL1 -->
<g id="edge63" class="edge"><title>ethos&#45;&gt;IMPGSL1</title>
<path fill="none" stroke="firebrick" d="M70.6307,-256.793C102.268,-233.58 150.959,-197.856 184.75,-173.064"/>
<polygon fill="firebrick" stroke="firebrick" points="193,-167.011 187.6,-176.554 188.969,-169.968 184.938,-172.926 184.938,-172.926 184.938,-172.926 188.969,-169.968 182.276,-169.298 193,-167.011 193,-167.011"/>
<text text-anchor="middle" x="117" y="-226.4" font-family="Times Roman,serif" font-size="14.00">19.91</text>
</g>
<!-- ethos&#45;&gt;IMPHCO1 -->
<g id="edge65" class="edge"><title>ethos&#45;&gt;IMPHCO1</title>
<path fill="none" stroke="firebrick" d="M78.0217,-280C97.6867,-280 122.251,-280 145.539,-280"/>
<polygon fill="firebrick" stroke="firebrick" points="155.774,-280 145.774,-284.5 150.774,-280 145.774,-280 145.774,-280 145.774,-280 150.774,-280 145.774,-275.5 155.774,-280 155.774,-280"/>
<text text-anchor="middle" x="117" y="-285.4" font-family="Times Roman,serif" font-size="14.00">14.70</text>
</g>
<!-- ethos&#45;&gt;IMPHYD -->
<g id="edge67" class="edge"><title>ethos&#45;&gt;IMPHYD</title>
<path fill="none" stroke="firebrick" d="M75.7929,-293.197C98.4901,-301.339 128.301,-312.032 155.157,-321.665"/>
<polygon fill="firebrick" stroke="firebrick" points="164.899,-325.159 153.967,-326.019 160.192,-323.471 155.486,-321.783 155.486,-321.783 155.486,-321.783 160.192,-323.471 157.005,-317.547 164.899,-325.159 164.899,-325.159"/>
<text text-anchor="middle" x="117" y="-321.4" font-family="Times Roman,serif" font-size="14.00">3.52</text>
</g>
</g>
</svg>
