<?xml version="1.0" encoding="UTF-8" standalone="no"?>
<!DOCTYPE svg PUBLIC "-//W3C//DTD SVG 1.1//EN"
 "http://www.w3.org/Graphics/SVG/1.1/DTD/svg11.dtd">
<!-- Generated by graphviz version 2.26.3 (20100126.1600)
 -->
<!-- Title: model Pages: 1 -->
<svg width="379pt" height="278pt"
 viewBox="0.00 0.00 379.00 278.00" xmlns="http://www.w3.org/2000/svg" xmlns:xlink="http://www.w3.org/1999/xlink">
<g id="graph1" class="graph" transform="scale(1 1) rotate(0) translate(4 274)">
<title>model</title>
<polygon fill="white" stroke="white" points="-4,5 -4,-274 376,-274 376,5 -4,5"/>
<text text-anchor="middle" x="185.5" y="-9.4" font-family="Times Roman,serif" font-size="14.00">Results for RHO in 1990</text>
<g id="graph2" class="cluster"><title>cluster_vintages</title>
<a xlink:href="results1990.svg" xlink:title="Vintages\nCapacity: 41.33">
<polygon fill="lightgrey" stroke="lightgrey" points="134,-34 134,-262 259,-262 259,-34 134,-34"/>
<text text-anchor="middle" x="196.5" y="-245.4" font-family="Times Roman,serif" font-size="14.00">Vintages</text>
<text text-anchor="middle" x="196.5" y="-227.4" font-family="Times Roman,serif" font-size="14.00">Capacity: 41.33</text>
</a>
</g>
<!-- 1970 -->
<g id="node2" class="node"><title>1970</title>
<a xlink:href="results_RHO_p1990v1970_segments.svg" xlink:title="1970\nCap: 12.50">
<polygon fill="white" stroke="white" points="242,-210 150,-210 150,-166 242,-166 242,-210"/>
<text text-anchor="middle" x="196" y="-193.4" font-family="Times Roman,serif" font-size="14.00">1970</text>
<text text-anchor="middle" x="196" y="-175.4" font-family="Times Roman,serif" font-size="14.00">Cap: 12.50</text>
</a>
</g>
<!-- RH -->
<g id="node7" class="node"><title>RH</title>
<a xlink:href="../commodities/rc_RH_1990.svg" xlink:title="RH">
<ellipse fill="lightsteelblue" stroke="lightsteelblue" cx="345" cy="-126" rx="26.163" ry="26.163"/>
<text text-anchor="middle" x="345" y="-122.4" font-family="Times Roman,serif" font-size="14.00">RH</text>
</a>
</g>
<!-- 1970&#45;&gt;RH -->
<g id="edge12" class="edge"><title>1970&#45;&gt;RH</title>
<path fill="none" stroke="forestgreen" d="M242.328,-168.723C264.646,-159.436 290.92,-148.503 311.302,-140.022"/>
<polygon fill="forestgreen" stroke="forestgreen" points="320.791,-136.073 313.287,-144.07 316.175,-137.994 311.559,-139.915 311.559,-139.915 311.559,-139.915 316.175,-137.994 309.83,-135.761 320.791,-136.073 320.791,-136.073"/>
<text text-anchor="middle" x="285" y="-164.4" font-family="Times Roman,serif" font-size="14.00">7.62</text>
</g>
<!-- 1980 -->
<g id="node3" class="node"><title>1980</title>
<a xlink:href="results_RHO_p1990v1980_segments.svg" xlink:title="1980\nCap: 12.50">
<polygon fill="white" stroke="white" points="242,-148 150,-148 150,-104 242,-104 242,-148"/>
<text text-anchor="middle" x="196" y="-131.4" font-family="Times Roman,serif" font-size="14.00">1980</text>
<text text-anchor="middle" x="196" y="-113.4" font-family="Times Roman,serif" font-size="14.00">Cap: 12.50</text>
</a>
</g>
<!-- 1980&#45;&gt;RH -->
<g id="edge14" class="edge"><title>1980&#45;&gt;RH</title>
<path fill="none" stroke="forestgreen" d="M242.328,-126C263.617,-126 288.507,-126 308.448,-126"/>
<polygon fill="forestgreen" stroke="forestgreen" points="318.67,-126 308.67,-130.5 313.67,-126 308.67,-126 308.67,-126 308.67,-126 313.67,-126 308.67,-121.5 318.67,-126 318.67,-126"/>
<text text-anchor="middle" x="285" y="-131.4" font-family="Times Roman,serif" font-size="14.00">7.62</text>
</g>
<!-- 1990 -->
<g id="node4" class="node"><title>1990</title>
<a xlink:href="results_RHO_p1990v1990_segments.svg" xlink:title="1990\nCap: 16.33">
<polygon fill="white" stroke="white" points="242,-86 150,-86 150,-42 242,-42 242,-86"/>
<text text-anchor="middle" x="196" y="-69.4" font-family="Times Roman,serif" font-size="14.00">1990</text>
<text text-anchor="middle" x="196" y="-51.4" font-family="Times Roman,serif" font-size="14.00">Cap: 16.33</text>
</a>
</g>
<!-- 1990&#45;&gt;RH -->
<g id="edge16" class="edge"><title>1990&#45;&gt;RH</title>
<path fill="none" stroke="forestgreen" d="M242.328,-83.2773C264.646,-92.5641 290.92,-103.497 311.302,-111.978"/>
<polygon fill="forestgreen" stroke="forestgreen" points="320.791,-115.927 309.83,-116.239 316.175,-114.006 311.559,-112.085 311.559,-112.085 311.559,-112.085 316.175,-114.006 313.287,-107.93 320.791,-115.927 320.791,-115.927"/>
<text text-anchor="middle" x="285" y="-109.4" font-family="Times Roman,serif" font-size="14.00">9.96</text>
</g>
<!-- DSL -->
<g id="node6" class="node"><title>DSL</title>
<a xlink:href="../commodities/rc_DSL_1990.svg" xlink:title="DSL">
<ellipse fill="lightsteelblue" stroke="lightsteelblue" cx="32" cy="-126" rx="31.8198" ry="31.8198"/>
<text text-anchor="middle" x="32" y="-122.4" font-family="Times Roman,serif" font-size="14.00">DSL</text>
</a>
</g>
<!-- DSL&#45;&gt;1970 -->
<g id="edge5" class="edge"><title>DSL&#45;&gt;1970</title>
<path fill="none" stroke="firebrick" d="M62.0801,-137.372C83.9872,-145.654 114.293,-157.111 140.535,-167.032"/>
<polygon fill="firebrick" stroke="firebrick" points="149.996,-170.608 139.051,-171.281 145.32,-168.84 140.643,-167.072 140.643,-167.072 140.643,-167.072 145.32,-168.84 142.234,-162.863 149.996,-170.608 149.996,-170.608"/>
<text text-anchor="middle" x="103" y="-167.4" font-family="Times Roman,serif" font-size="14.00">10.89</text>
</g>
<!-- DSL&#45;&gt;1980 -->
<g id="edge7" class="edge"><title>DSL&#45;&gt;1980</title>
<path fill="none" stroke="firebrick" d="M64.0102,-126C85.4755,-126 114.331,-126 139.588,-126"/>
<polygon fill="firebrick" stroke="firebrick" points="149.793,-126 139.793,-130.5 144.793,-126 139.793,-126 139.793,-126 139.793,-126 144.793,-126 139.793,-121.5 149.793,-126 149.793,-126"/>
<text text-anchor="middle" x="103" y="-131.4" font-family="Times Roman,serif" font-size="14.00">10.89</text>
</g>
<!-- DSL&#45;&gt;1990 -->
<g id="edge9" class="edge"><title>DSL&#45;&gt;1990</title>
<path fill="none" stroke="firebrick" d="M62.0801,-114.628C83.9872,-106.346 114.293,-94.8892 140.535,-84.9684"/>
<polygon fill="firebrick" stroke="firebrick" points="149.996,-81.3916 142.234,-89.1371 145.32,-83.1597 140.643,-84.9279 140.643,-84.9279 140.643,-84.9279 145.32,-83.1597 139.051,-80.7186 149.996,-81.3916 149.996,-81.3916"/>
<text text-anchor="middle" x="103" y="-109.4" font-family="Times Roman,serif" font-size="14.00">14.23</text>
</g>
</g>
</svg>
