<?xml version="1.0" encoding="UTF-8" standalone="no"?>
<!DOCTYPE svg PUBLIC "-//W3C//DTD SVG 1.1//EN"
 "http://www.w3.org/Graphics/SVG/1.1/DTD/svg11.dtd">
<!-- Generated by graphviz version 2.26.3 (20100126.1600)
 -->
<!-- Title: model Pages: 1 -->
<svg width="414pt" height="398pt"
 viewBox="0.00 0.00 414.00 398.00" xmlns="http://www.w3.org/2000/svg" xmlns:xlink="http://www.w3.org/1999/xlink">
<g id="graph1" class="graph" transform="scale(1 1) rotate(0) translate(4 394)">
<title>model</title>
<polygon fill="white" stroke="white" points="-4,5 -4,-394 411,-394 411,5 -4,5"/>
<text text-anchor="middle" x="203" y="-9.4" font-family="Times Roman,serif" font-size="14.00">Activity split of process E01, 1960 in year 1990</text>
<g id="graph2" class="cluster"><title>cluster_slices</title>
<polygon fill="lightgrey" stroke="lightgrey" points="128,-34 128,-382 284,-382 284,-34 128,-34"/>
<text text-anchor="middle" x="206" y="-365.4" font-family="Times Roman,serif" font-size="14.00">1960 Capacity: 0.50</text>
</g>
<!-- inter, day -->
<g id="node2" class="node"><title>inter, day</title>
<polygon fill="white" stroke="white" points="247,-348 165,-348 165,-312 247,-312 247,-348"/>
<text text-anchor="middle" x="206" y="-326.4" font-family="Times Roman,serif" font-size="14.00">inter, day</text>
</g>
<!-- ELC -->
<g id="node9" class="node"><title>ELC</title>
<a xlink:href="../commodities/rc_ELC_1990.svg" xlink:title="ELC">
<ellipse fill="lightsteelblue" stroke="lightsteelblue" cx="375" cy="-194" rx="31.1127" ry="31.1127"/>
<text text-anchor="middle" x="375" y="-190.4" font-family="Times Roman,serif" font-size="14.00">ELC</text>
</a>
</g>
<!-- inter, day&#45;&gt;ELC -->
<g id="edge18" class="edge"><title>inter, day&#45;&gt;ELC</title>
<path fill="none" stroke="forestgreen" d="M228.442,-311.94C257.744,-288.36 309.234,-246.924 342.723,-219.975"/>
<polygon fill="forestgreen" stroke="forestgreen" points="350.824,-213.455 345.855,-223.23 346.929,-216.59 343.034,-219.724 343.034,-219.724 343.034,-219.724 346.929,-216.59 340.212,-216.219 350.824,-213.455 350.824,-213.455"/>
<text text-anchor="middle" x="310" y="-299.4" font-family="Times Roman,serif" font-size="14.00">0.58</text>
</g>
<!-- inter, night -->
<g id="node3" class="node"><title>inter, night</title>
<polygon fill="white" stroke="white" points="253,-294 159,-294 159,-258 253,-258 253,-294"/>
<text text-anchor="middle" x="206" y="-272.4" font-family="Times Roman,serif" font-size="14.00">inter, night</text>
</g>
<!-- inter, night&#45;&gt;ELC -->
<g id="edge20" class="edge"><title>inter, night&#45;&gt;ELC</title>
<path fill="none" stroke="forestgreen" d="M243.507,-257.802C271.639,-244.152 309.961,-225.558 337.976,-211.964"/>
<polygon fill="forestgreen" stroke="forestgreen" points="347.052,-207.561 340.019,-215.975 342.553,-209.743 338.055,-211.926 338.055,-211.926 338.055,-211.926 342.553,-209.743 336.09,-207.878 347.052,-207.561 347.052,-207.561"/>
<text text-anchor="middle" x="310" y="-250.4" font-family="Times Roman,serif" font-size="14.00">0.29</text>
</g>
<!-- summer, day -->
<g id="node4" class="node"><title>summer, day</title>
<polygon fill="white" stroke="white" points="259,-240 153,-240 153,-204 259,-204 259,-240"/>
<text text-anchor="middle" x="206" y="-218.4" font-family="Times Roman,serif" font-size="14.00">summer, day</text>
</g>
<!-- summer, day&#45;&gt;ELC -->
<g id="edge22" class="edge"><title>summer, day&#45;&gt;ELC</title>
<path fill="none" stroke="forestgreen" d="M259.009,-213.217C283.353,-209.184 311.766,-204.477 334.378,-200.73"/>
<polygon fill="forestgreen" stroke="forestgreen" points="344.323,-199.083 335.193,-205.157 339.391,-199.9 334.458,-200.717 334.458,-200.717 334.458,-200.717 339.391,-199.9 333.722,-196.278 344.323,-199.083 344.323,-199.083"/>
<text text-anchor="middle" x="310" y="-213.4" font-family="Times Roman,serif" font-size="14.00">0.58</text>
</g>
<!-- summer, night -->
<g id="node5" class="node"><title>summer, night</title>
<polygon fill="white" stroke="white" points="264,-186 148,-186 148,-150 264,-150 264,-186"/>
<text text-anchor="middle" x="206" y="-164.4" font-family="Times Roman,serif" font-size="14.00">summer, night</text>
</g>
<!-- summer, night&#45;&gt;ELC -->
<g id="edge24" class="edge"><title>summer, night&#45;&gt;ELC</title>
<path fill="none" stroke="forestgreen" d="M264.634,-177.021C287.469,-180.534 313.094,-184.476 333.9,-187.677"/>
<polygon fill="forestgreen" stroke="forestgreen" points="343.997,-189.23 333.429,-192.157 339.055,-188.47 334.113,-187.71 334.113,-187.71 334.113,-187.71 339.055,-188.47 334.797,-183.262 343.997,-189.23 343.997,-189.23"/>
<text text-anchor="middle" x="310" y="-183.4" font-family="Times Roman,serif" font-size="14.00">0.29</text>
</g>
<!-- winter, day -->
<g id="node6" class="node"><title>winter, day</title>
<polygon fill="white" stroke="white" points="254,-132 158,-132 158,-96 254,-96 254,-132"/>
<text text-anchor="middle" x="206" y="-110.4" font-family="Times Roman,serif" font-size="14.00">winter, day</text>
</g>
<!-- winter, day&#45;&gt;ELC -->
<g id="edge26" class="edge"><title>winter, day&#45;&gt;ELC</title>
<path fill="none" stroke="forestgreen" d="M244.349,-132.153C272.226,-145.349 309.77,-163.122 337.458,-176.229"/>
<polygon fill="forestgreen" stroke="forestgreen" points="346.808,-180.655 335.844,-180.444 342.289,-178.516 337.77,-176.376 337.77,-176.376 337.77,-176.376 342.289,-178.516 339.695,-172.309 346.808,-180.655 346.808,-180.655"/>
<text text-anchor="middle" x="310" y="-159.4" font-family="Times Roman,serif" font-size="14.00">1.47</text>
</g>
<!-- winter, night -->
<g id="node7" class="node"><title>winter, night</title>
<polygon fill="white" stroke="white" points="259,-78 153,-78 153,-42 259,-42 259,-78"/>
<text text-anchor="middle" x="206" y="-56.4" font-family="Times Roman,serif" font-size="14.00">winter, night</text>
</g>
<!-- winter, night&#45;&gt;ELC -->
<g id="edge28" class="edge"><title>winter, night&#45;&gt;ELC</title>
<path fill="none" stroke="forestgreen" d="M228.792,-78.0718C258.112,-101.319 309.225,-141.847 342.584,-168.297"/>
<polygon fill="forestgreen" stroke="forestgreen" points="350.659,-174.7 340.027,-172.013 346.741,-171.593 342.823,-168.487 342.823,-168.487 342.823,-168.487 346.741,-171.593 345.619,-164.961 350.659,-174.7 350.659,-174.7"/>
<text text-anchor="middle" x="310" y="-128.4" font-family="Times Roman,serif" font-size="14.00">0.74</text>
</g>
<!-- HCO -->
<g id="node10" class="node"><title>HCO</title>
<a xlink:href="../commodities/rc_HCO_1990.svg" xlink:title="HCO">
<ellipse fill="lightsteelblue" stroke="lightsteelblue" cx="34" cy="-194" rx="33.9411" ry="33.9411"/>
<text text-anchor="middle" x="34" y="-190.4" font-family="Times Roman,serif" font-size="14.00">HCO</text>
</a>
</g>
<!-- HCO&#45;&gt;inter, day -->
<g id="edge5" class="edge"><title>HCO&#45;&gt;inter, day</title>
<path fill="none" stroke="firebrick" d="M60.875,-215.25C91.8829,-239.768 142.767,-280.002 175.306,-305.73"/>
<polygon fill="firebrick" stroke="firebrick" points="183.16,-311.94 172.524,-309.268 179.238,-308.839 175.316,-305.738 175.316,-305.738 175.316,-305.738 179.238,-308.839 178.107,-302.208 183.16,-311.94 183.16,-311.94"/>
<text text-anchor="middle" x="102" y="-299.4" font-family="Times Roman,serif" font-size="14.00">1.81</text>
</g>
<!-- HCO&#45;&gt;inter, night -->
<g id="edge7" class="edge"><title>HCO&#45;&gt;inter, night</title>
<path fill="none" stroke="firebrick" d="M64.7502,-208.66C90.9332,-221.143 128.965,-239.274 158.97,-253.579"/>
<polygon fill="firebrick" stroke="firebrick" points="168.003,-257.885 157.039,-257.644 163.489,-255.733 158.976,-253.582 158.976,-253.582 158.976,-253.582 163.489,-255.733 160.913,-249.52 168.003,-257.885 168.003,-257.885"/>
<text text-anchor="middle" x="102" y="-250.4" font-family="Times Roman,serif" font-size="14.00">0.90</text>
</g>
<!-- HCO&#45;&gt;summer, day -->
<g id="edge9" class="edge"><title>HCO&#45;&gt;summer, day</title>
<path fill="none" stroke="firebrick" d="M67.5716,-199.465C88.9758,-202.95 117.387,-207.575 142.898,-211.728"/>
<polygon fill="firebrick" stroke="firebrick" points="152.881,-213.353 142.288,-216.187 147.946,-212.549 143.011,-211.746 143.011,-211.746 143.011,-211.746 147.946,-212.549 143.734,-207.304 152.881,-213.353 152.881,-213.353"/>
<text text-anchor="middle" x="102" y="-213.4" font-family="Times Roman,serif" font-size="14.00">1.81</text>
</g>
<!-- HCO&#45;&gt;summer, night -->
<g id="edge11" class="edge"><title>HCO&#45;&gt;summer, night</title>
<path fill="none" stroke="firebrick" d="M67.9817,-188.863C87.7702,-185.872 113.445,-181.991 137.273,-178.389"/>
<polygon fill="firebrick" stroke="firebrick" points="147.35,-176.866 138.135,-182.81 142.407,-177.613 137.463,-178.36 137.463,-178.36 137.463,-178.36 142.407,-177.613 136.79,-173.911 147.35,-176.866 147.35,-176.866"/>
<text text-anchor="middle" x="102" y="-183.4" font-family="Times Roman,serif" font-size="14.00">0.90</text>
</g>
<!-- HCO&#45;&gt;winter, day -->
<g id="edge13" class="edge"><title>HCO&#45;&gt;winter, day</title>
<path fill="none" stroke="firebrick" d="M65.1479,-179.513C91.0047,-167.486 128.215,-150.179 157.897,-136.373"/>
<polygon fill="firebrick" stroke="firebrick" points="167.246,-132.025 160.076,-140.323 162.712,-134.134 158.179,-136.243 158.179,-136.243 158.179,-136.243 162.712,-134.134 156.281,-132.162 167.246,-132.025 167.246,-132.025"/>
<text text-anchor="middle" x="102" y="-159.4" font-family="Times Roman,serif" font-size="14.00">4.60</text>
</g>
<!-- HCO&#45;&gt;winter, night -->
<g id="edge15" class="edge"><title>HCO&#45;&gt;winter, night</title>
<path fill="none" stroke="firebrick" d="M60.875,-173.062C91.6648,-149.075 142.052,-109.82 174.616,-84.4501"/>
<polygon fill="firebrick" stroke="firebrick" points="182.893,-78.0023 177.77,-87.6979 178.948,-81.0752 175.004,-84.1481 175.004,-84.1481 175.004,-84.1481 178.948,-81.0752 172.238,-80.5982 182.893,-78.0023 182.893,-78.0023"/>
<text text-anchor="middle" x="102" y="-128.4" font-family="Times Roman,serif" font-size="14.00">2.30</text>
</g>
</g>
</svg>
