<?xml version="1.0" encoding="UTF-8" standalone="no"?>
<!DOCTYPE svg PUBLIC "-//W3C//DTD SVG 1.1//EN"
 "http://www.w3.org/Graphics/SVG/1.1/DTD/svg11.dtd">
<!-- Generated by graphviz version 2.26.3 (20100126.1600)
 -->
<!-- Title: model Pages: 1 -->
<svg width="1704pt" height="585pt"
 viewBox="0.00 0.00 1704.00 585.00" xmlns="http://www.w3.org/2000/svg" xmlns:xlink="http://www.w3.org/1999/xlink">
<g id="graph1" class="graph" transform="scale(1 1) rotate(0) translate(4 581)">
<title>model</title>
<polygon fill="white" stroke="white" points="-4,5 -4,-581 1701,-581 1701,5 -4,5"/>
<text text-anchor="middle" x="848" y="-9.4" font-family="Times Roman,serif" font-size="14.00">Results for 2010</text>
<!-- E21 -->
<g id="node2" class="node"><title>E21</title>
<polygon fill="powderblue" stroke="powderblue" points="623,-479 569,-479 569,-443 623,-443 623,-479"/>
<text text-anchor="middle" x="596" y="-457.4" font-family="Times Roman,serif" font-size="14.00" fill="chocolate">E21</text>
</g>
<!-- ELC -->
<g id="node31" class="node"><title>ELC</title>
<a xlink:href="../commodities/rc_ELC_2010.svg" xlink:title="ELC">
<ellipse fill="lightsteelblue" stroke="lightsteelblue" cx="1331" cy="-314" rx="31.1127" ry="31.1127"/>
<text text-anchor="middle" x="1331" y="-310.4" font-family="Times Roman,serif" font-size="14.00">ELC</text>
</a>
</g>
<!-- E21&#45;&gt;ELC -->
<g id="edge11" class="edge"><title>E21&#45;&gt;ELC</title>
<path fill="none" stroke="powderblue" d="M623.031,-455.594C734.235,-433.353 1156.82,-348.835 1290.32,-322.135"/>
<polygon fill="powderblue" stroke="powderblue" points="1300.52,-320.096 1291.6,-326.469 1295.62,-321.076 1290.72,-322.057 1290.72,-322.057 1290.72,-322.057 1295.62,-321.076 1289.83,-317.644 1300.52,-320.096 1300.52,-320.096"/>
</g>
<!-- IMPFEQ -->
<g id="node3" class="node"><title>IMPFEQ</title>
<polygon fill="powderblue" stroke="powderblue" points="266,-424 196,-424 196,-388 266,-388 266,-424"/>
<text text-anchor="middle" x="231" y="-402.4" font-family="Times Roman,serif" font-size="14.00" fill="chocolate">IMPFEQ</text>
</g>
<!-- FEQ -->
<g id="node9" class="node"><title>FEQ</title>
<ellipse fill="powderblue" stroke="powderblue" cx="418" cy="-461" rx="31.8198" ry="31.8198"/>
<text text-anchor="middle" x="418" y="-457.4" font-family="Times Roman,serif" font-size="14.00" fill="chocolate">FEQ</text>
</g>
<!-- IMPFEQ&#45;&gt;FEQ -->
<g id="edge19" class="edge"><title>IMPFEQ&#45;&gt;FEQ</title>
<path fill="none" stroke="powderblue" d="M266.613,-416.475C298.209,-425.767 344.344,-439.336 377.369,-449.05"/>
<polygon fill="powderblue" stroke="powderblue" points="387.167,-451.932 376.304,-453.427 382.371,-450.521 377.574,-449.11 377.574,-449.11 377.574,-449.11 382.371,-450.521 378.844,-444.793 387.167,-451.932 387.167,-451.932"/>
</g>
<!-- IMPOIL1 -->
<g id="node4" class="node"><title>IMPOIL1</title>
<polygon fill="powderblue" stroke="powderblue" points="268,-89 194,-89 194,-53 268,-53 268,-89"/>
<text text-anchor="middle" x="231" y="-67.4" font-family="Times Roman,serif" font-size="14.00" fill="chocolate">IMPOIL1</text>
</g>
<!-- OIL -->
<g id="node11" class="node"><title>OIL</title>
<ellipse fill="powderblue" stroke="powderblue" cx="418" cy="-55" rx="28.9914" ry="28.9914"/>
<text text-anchor="middle" x="418" y="-51.4" font-family="Times Roman,serif" font-size="14.00" fill="chocolate">OIL</text>
</g>
<!-- IMPOIL1&#45;&gt;OIL -->
<g id="edge21" class="edge"><title>IMPOIL1&#45;&gt;OIL</title>
<path fill="none" stroke="powderblue" d="M268.842,-67.7622C300.91,-65.0184 346.712,-61.0995 379.082,-58.3299"/>
<polygon fill="powderblue" stroke="powderblue" points="389.086,-57.474 379.506,-62.8102 384.104,-57.9003 379.122,-58.3265 379.122,-58.3265 379.122,-58.3265 384.104,-57.9003 378.738,-53.8429 389.086,-57.474 389.086,-57.474"/>
</g>
<!-- IMPURN1 -->
<g id="node5" class="node"><title>IMPURN1</title>
<polygon fill="powderblue" stroke="powderblue" points="272,-496 190,-496 190,-460 272,-460 272,-496"/>
<text text-anchor="middle" x="231" y="-474.4" font-family="Times Roman,serif" font-size="14.00" fill="chocolate">IMPURN1</text>
</g>
<!-- URN -->
<g id="node12" class="node"><title>URN</title>
<ellipse fill="powderblue" stroke="powderblue" cx="418" cy="-544" rx="33.234" ry="33.234"/>
<text text-anchor="middle" x="418" y="-540.4" font-family="Times Roman,serif" font-size="14.00" fill="chocolate">URN</text>
</g>
<!-- IMPURN1&#45;&gt;URN -->
<g id="edge23" class="edge"><title>IMPURN1&#45;&gt;URN</title>
<path fill="none" stroke="powderblue" d="M272.038,-492.484C303.179,-503.475 345.8,-518.518 376.946,-529.51"/>
<polygon fill="powderblue" stroke="powderblue" points="386.625,-532.927 375.698,-533.842 381.911,-531.263 377.196,-529.598 377.196,-529.598 377.196,-529.598 381.911,-531.263 378.693,-525.355 386.625,-532.927 386.625,-532.927"/>
</g>
<!-- TXE -->
<g id="node6" class="node"><title>TXE</title>
<polygon fill="powderblue" stroke="powderblue" points="1530,-253 1476,-253 1476,-217 1530,-217 1530,-253"/>
<text text-anchor="middle" x="1503" y="-231.4" font-family="Times Roman,serif" font-size="14.00" fill="chocolate">TXE</text>
</g>
<!-- TX -->
<g id="node37" class="node"><title>TX</title>
<a xlink:href="../commodities/rc_TX_2010.svg" xlink:title="TX">
<ellipse fill="lightsteelblue" stroke="lightsteelblue" cx="1670" cy="-148" rx="24.9567" ry="25.4558"/>
<text text-anchor="middle" x="1670" y="-144.4" font-family="Times Roman,serif" font-size="14.00">TX</text>
</a>
</g>
<!-- TXE&#45;&gt;TX -->
<g id="edge31" class="edge"><title>TXE&#45;&gt;TX</title>
<path fill="none" stroke="powderblue" d="M1530.2,-220.828C1559.77,-205.425 1606.97,-180.838 1638.22,-164.557"/>
<polygon fill="powderblue" stroke="powderblue" points="1647.37,-159.791 1640.58,-168.402 1642.93,-162.101 1638.5,-164.411 1638.5,-164.411 1638.5,-164.411 1642.93,-162.101 1636.42,-160.42 1647.37,-159.791 1647.37,-159.791"/>
</g>
<!-- CSV -->
<g id="node8" class="node"><title>CSV</title>
<ellipse fill="powderblue" stroke="powderblue" cx="39" cy="-369" rx="31.8198" ry="31.8198"/>
<text text-anchor="middle" x="39" y="-365.4" font-family="Times Roman,serif" font-size="14.00" fill="chocolate">CSV</text>
</g>
<!-- FEQ&#45;&gt;E21 -->
<g id="edge17" class="edge"><title>FEQ&#45;&gt;E21</title>
<path fill="none" stroke="powderblue" d="M450.234,-461C480.748,-461 526.54,-461 558.635,-461"/>
<polygon fill="powderblue" stroke="powderblue" points="568.953,-461 558.953,-465.5 563.953,-461 558.953,-461 558.953,-461 558.953,-461 563.953,-461 558.953,-456.5 568.953,-461 568.953,-461"/>
</g>
<!-- LTH -->
<g id="node10" class="node"><title>LTH</title>
<ellipse fill="powderblue" stroke="powderblue" cx="39" cy="-448" rx="29.1951" ry="29.6985"/>
<text text-anchor="middle" x="39" y="-444.4" font-family="Times Roman,serif" font-size="14.00" fill="chocolate">LTH</text>
</g>
<!-- SRE -->
<g id="node26" class="node"><title>SRE</title>
<a xlink:href="results_SRE_2010.svg" xlink:title="SRE\nCapacity: 0.10">
<polygon fill="darkseagreen" stroke="darkseagreen" points="654,-84 538,-84 538,-40 654,-40 654,-84"/>
<text text-anchor="middle" x="596" y="-67.4" font-family="Times Roman,serif" font-size="14.00">SRE</text>
<text text-anchor="middle" x="596" y="-49.4" font-family="Times Roman,serif" font-size="14.00">Capacity: 0.10</text>
</a>
</g>
<!-- OIL&#45;&gt;SRE -->
<g id="edge25" class="edge"><title>OIL&#45;&gt;SRE</title>
<path fill="none" stroke="powderblue" d="M446.995,-56.1403C468.842,-56.9994 499.717,-58.2136 527.702,-59.3141"/>
<polygon fill="powderblue" stroke="powderblue" points="537.86,-59.7136 527.69,-63.8171 532.863,-59.5171 527.867,-59.3205 527.867,-59.3205 527.867,-59.3205 532.863,-59.5171 528.044,-54.824 537.86,-59.7136 537.86,-59.7136"/>
</g>
<!-- URN&#45;&gt;E21 -->
<g id="edge33" class="edge"><title>URN&#45;&gt;E21</title>
<path fill="none" stroke="powderblue" d="M448.195,-529.92C478.98,-515.566 526.753,-493.289 559.608,-477.969"/>
<polygon fill="powderblue" stroke="powderblue" points="568.87,-473.65 561.709,-481.955 564.339,-475.763 559.807,-477.876 559.807,-477.876 559.807,-477.876 564.339,-475.763 557.905,-473.798 568.87,-473.65 568.87,-473.65"/>
</g>
<!-- E01 -->
<g id="node15" class="node"><title>E01</title>
<a xlink:href="results_E01_2010.svg" xlink:title="E01\nCapacity: 1.91">
<polygon fill="darkseagreen" stroke="darkseagreen" points="788,-326 672,-326 672,-282 788,-282 788,-326"/>
<text text-anchor="middle" x="730" y="-309.4" font-family="Times Roman,serif" font-size="14.00">E01</text>
<text text-anchor="middle" x="730" y="-291.4" font-family="Times Roman,serif" font-size="14.00">Capacity: 1.91</text>
</a>
</g>
<!-- E01&#45;&gt;ELC -->
<g id="edge68" class="edge"><title>E01&#45;&gt;ELC</title>
<path fill="none" stroke="forestgreen" d="M788.127,-305.189C845.755,-306.368 925.5,-308 925.5,-308 925.5,-308 1186.66,-311.864 1289.8,-313.39"/>
<polygon fill="forestgreen" stroke="forestgreen" points="1299.85,-313.539 1289.79,-317.891 1294.85,-313.465 1289.86,-313.391 1289.86,-313.391 1289.86,-313.391 1294.85,-313.465 1289.92,-308.892 1299.85,-313.539 1299.85,-313.539"/>
<text text-anchor="middle" x="946" y="-313.4" font-family="Times Roman,serif" font-size="14.00">32.38</text>
</g>
<!-- E31 -->
<g id="node16" class="node"><title>E31</title>
<a xlink:href="results_E31_2010.svg" xlink:title="E31\nCapacity: 0.13">
<polygon fill="darkseagreen" stroke="darkseagreen" points="1004,-385 888,-385 888,-341 1004,-341 1004,-385"/>
<text text-anchor="middle" x="946" y="-368.4" font-family="Times Roman,serif" font-size="14.00">E31</text>
<text text-anchor="middle" x="946" y="-350.4" font-family="Times Roman,serif" font-size="14.00">Capacity: 0.13</text>
</a>
</g>
<!-- E31&#45;&gt;ELC -->
<g id="edge70" class="edge"><title>E31&#45;&gt;ELC</title>
<path fill="none" stroke="forestgreen" d="M1004.31,-361.023C1034.04,-360.016 1064,-359 1064,-359 1064,-359 1215.64,-333.443 1290.36,-320.849"/>
<polygon fill="forestgreen" stroke="forestgreen" points="1300.37,-319.162 1291.26,-325.262 1295.44,-319.993 1290.51,-320.824 1290.51,-320.824 1290.51,-320.824 1295.44,-319.993 1289.76,-316.387 1300.37,-319.162 1300.37,-319.162"/>
<text text-anchor="middle" x="1080" y="-364.4" font-family="Times Roman,serif" font-size="14.00">1.13</text>
</g>
<!-- E51 -->
<g id="node17" class="node"><title>E51</title>
<a xlink:href="results_E51_2010.svg" xlink:title="E51\nCapacity: 0.50">
<polygon fill="darkseagreen" stroke="darkseagreen" points="1561,-315 1445,-315 1445,-271 1561,-271 1561,-315"/>
<text text-anchor="middle" x="1503" y="-298.4" font-family="Times Roman,serif" font-size="14.00">E51</text>
<text text-anchor="middle" x="1503" y="-280.4" font-family="Times Roman,serif" font-size="14.00">Capacity: 0.50</text>
</a>
</g>
<!-- E51&#45;&gt;ELC -->
<g id="edge72" class="edge"><title>E51&#45;&gt;ELC</title>
<path fill="none" stroke="forestgreen" d="M1444.95,-300.087C1421.14,-302.994 1394.12,-306.294 1372.37,-308.95"/>
<polygon fill="forestgreen" stroke="forestgreen" points="1362.15,-310.197 1371.53,-304.518 1367.11,-309.591 1372.07,-308.985 1372.07,-308.985 1372.07,-308.985 1367.11,-309.591 1372.62,-313.452 1362.15,-310.197 1362.15,-310.197"/>
<text text-anchor="middle" x="1401" y="-312.4" font-family="Times Roman,serif" font-size="14.00">1.23</text>
</g>
<!-- E70 -->
<g id="node18" class="node"><title>E70</title>
<a xlink:href="results_E70_2010.svg" xlink:title="E70\nCapacity: 0.20">
<polygon fill="darkseagreen" stroke="darkseagreen" points="1138,-271 1022,-271 1022,-227 1138,-227 1138,-271"/>
<text text-anchor="middle" x="1080" y="-254.4" font-family="Times Roman,serif" font-size="14.00">E70</text>
<text text-anchor="middle" x="1080" y="-236.4" font-family="Times Roman,serif" font-size="14.00">Capacity: 0.20</text>
</a>
</g>
<!-- E70&#45;&gt;ELC -->
<g id="edge13" class="edge"><title>E70&#45;&gt;ELC</title>
<path fill="none" stroke="powderblue" d="M1138.22,-264.076C1185.18,-276.237 1249.98,-293.019 1291.19,-303.691"/>
<polygon fill="powderblue" stroke="powderblue" points="1300.88,-306.2 1290.07,-308.049 1296.04,-304.946 1291.2,-303.693 1291.2,-303.693 1291.2,-303.693 1296.04,-304.946 1292.33,-299.337 1300.88,-306.2 1300.88,-306.2"/>
</g>
<!-- IMPDSL1 -->
<g id="node19" class="node"><title>IMPDSL1</title>
<a xlink:href="results_IMPDSL1_2010.svg" xlink:title="IMPDSL1\nCapacity: 106.09">
<polygon fill="darkseagreen" stroke="darkseagreen" points="298,-233 164,-233 164,-189 298,-189 298,-233"/>
<text text-anchor="middle" x="231" y="-216.4" font-family="Times Roman,serif" font-size="14.00">IMPDSL1</text>
<text text-anchor="middle" x="231" y="-198.4" font-family="Times Roman,serif" font-size="14.00">Capacity: 106.09</text>
</a>
</g>
<!-- DSL -->
<g id="node30" class="node"><title>DSL</title>
<a xlink:href="../commodities/rc_DSL_2010.svg" xlink:title="DSL">
<ellipse fill="lightsteelblue" stroke="lightsteelblue" cx="838" cy="-155" rx="31.8198" ry="31.8198"/>
<text text-anchor="middle" x="838" y="-151.4" font-family="Times Roman,serif" font-size="14.00">DSL</text>
</a>
</g>
<!-- IMPDSL1&#45;&gt;DSL -->
<g id="edge74" class="edge"><title>IMPDSL1&#45;&gt;DSL</title>
<path fill="none" stroke="forestgreen" d="M298.062,-202.043C382.173,-190.808 515.5,-173 515.5,-173 515.5,-173 708.33,-162.237 795.777,-157.357"/>
<polygon fill="forestgreen" stroke="forestgreen" points="805.898,-156.792 796.165,-161.842 800.906,-157.07 795.914,-157.349 795.914,-157.349 795.914,-157.349 800.906,-157.07 795.663,-152.856 805.898,-156.792 805.898,-156.792"/>
<text text-anchor="middle" x="495" y="-160.4" font-family="Times Roman,serif" font-size="14.00">72.72</text>
</g>
<!-- co2 -->
<g id="node40" class="node"><title>co2</title>
<ellipse fill="lightsteelblue" stroke="lightsteelblue" cx="418" cy="-212" rx="28.9914" ry="28.9914"/>
<text text-anchor="middle" x="418" y="-208.4" font-family="Times Roman,serif" font-size="14.00">co2</text>
</g>
<!-- IMPDSL1&#45;&gt;co2 -->
<g id="edge76" class="edge"><title>IMPDSL1&#45;&gt;co2</title>
<path fill="none" stroke="forestgreen" d="M298.247,-211.36C325.125,-211.503 355.152,-211.664 378.415,-211.788"/>
<polygon fill="forestgreen" stroke="forestgreen" points="388.592,-211.843 378.568,-216.289 383.592,-211.816 378.592,-211.789 378.592,-211.789 378.592,-211.789 383.592,-211.816 378.616,-207.289 388.592,-211.843 388.592,-211.843"/>
<text text-anchor="middle" x="341" y="-217.4" font-family="Times Roman,serif" font-size="14.00">5.45</text>
</g>
<!-- IMPGSL1 -->
<g id="node20" class="node"><title>IMPGSL1</title>
<a xlink:href="results_IMPGSL1_2010.svg" xlink:title="IMPGSL1\nCapacity: 30.00">
<polygon fill="darkseagreen" stroke="darkseagreen" points="293,-167 169,-167 169,-123 293,-123 293,-167"/>
<text text-anchor="middle" x="231" y="-150.4" font-family="Times Roman,serif" font-size="14.00">IMPGSL1</text>
<text text-anchor="middle" x="231" y="-132.4" font-family="Times Roman,serif" font-size="14.00">Capacity: 30.00</text>
</a>
</g>
<!-- GSL -->
<g id="node32" class="node"><title>GSL</title>
<a xlink:href="../commodities/rc_GSL_2010.svg" xlink:title="GSL">
<ellipse fill="lightsteelblue" stroke="lightsteelblue" cx="838" cy="-67" rx="31.8198" ry="31.8198"/>
<text text-anchor="middle" x="838" y="-63.4" font-family="Times Roman,serif" font-size="14.00">GSL</text>
</a>
</g>
<!-- IMPGSL1&#45;&gt;GSL -->
<g id="edge78" class="edge"><title>IMPGSL1&#45;&gt;GSL</title>
<path fill="none" stroke="forestgreen" d="M293.707,-136.502C365.855,-126.724 474.5,-112 474.5,-112 474.5,-112 700.126,-84.0683 795.86,-72.2167"/>
<polygon fill="forestgreen" stroke="forestgreen" points="806.06,-70.954 796.689,-76.6486 801.098,-71.5683 796.136,-72.1827 796.136,-72.1827 796.136,-72.1827 801.098,-71.5683 795.583,-67.7168 806.06,-70.954 806.06,-70.954"/>
<text text-anchor="middle" x="495" y="-117.4" font-family="Times Roman,serif" font-size="14.00">30.00</text>
</g>
<!-- IMPGSL1&#45;&gt;co2 -->
<g id="edge80" class="edge"><title>IMPGSL1&#45;&gt;co2</title>
<path fill="none" stroke="forestgreen" d="M292.49,-167.031C321.623,-177.469 355.471,-189.596 380.67,-198.625"/>
<polygon fill="forestgreen" stroke="forestgreen" points="390.216,-202.045 379.285,-202.909 385.509,-200.359 380.802,-198.672 380.802,-198.672 380.802,-198.672 385.509,-200.359 382.32,-194.436 390.216,-202.045 390.216,-202.045"/>
<text text-anchor="middle" x="341" y="-195.4" font-family="Times Roman,serif" font-size="14.00">2.25</text>
</g>
<!-- IMPHCO1 -->
<g id="node21" class="node"><title>IMPHCO1</title>
<a xlink:href="results_IMPHCO1_2010.svg" xlink:title="IMPHCO1\nCapacity: 150.81">
<polygon fill="darkseagreen" stroke="darkseagreen" points="298,-302 164,-302 164,-258 298,-258 298,-302"/>
<text text-anchor="middle" x="231" y="-285.4" font-family="Times Roman,serif" font-size="14.00">IMPHCO1</text>
<text text-anchor="middle" x="231" y="-267.4" font-family="Times Roman,serif" font-size="14.00">Capacity: 150.81</text>
</a>
</g>
<!-- HCO -->
<g id="node33" class="node"><title>HCO</title>
<a xlink:href="../commodities/rc_HCO_2010.svg" xlink:title="HCO">
<ellipse fill="lightsteelblue" stroke="lightsteelblue" cx="418" cy="-293" rx="33.9411" ry="33.9411"/>
<text text-anchor="middle" x="418" y="-289.4" font-family="Times Roman,serif" font-size="14.00">HCO</text>
</a>
</g>
<!-- IMPHCO1&#45;&gt;HCO -->
<g id="edge82" class="edge"><title>IMPHCO1&#45;&gt;HCO</title>
<path fill="none" stroke="forestgreen" d="M298.247,-284.675C323.376,-286.422 351.259,-288.36 373.792,-289.927"/>
<polygon fill="forestgreen" stroke="forestgreen" points="384.064,-290.641 373.776,-294.436 379.076,-290.294 374.088,-289.947 374.088,-289.947 374.088,-289.947 379.076,-290.294 374.4,-285.458 384.064,-290.641 384.064,-290.641"/>
<text text-anchor="middle" x="341" y="-294.4" font-family="Times Roman,serif" font-size="14.00">101.17</text>
</g>
<!-- IMPHCO1&#45;&gt;co2 -->
<g id="edge84" class="edge"><title>IMPHCO1&#45;&gt;co2</title>
<path fill="none" stroke="forestgreen" d="M291.714,-257.922C321.088,-247.241 355.405,-234.762 380.847,-225.51"/>
<polygon fill="forestgreen" stroke="forestgreen" points="390.477,-222.009 382.617,-229.655 385.778,-223.717 381.079,-225.426 381.079,-225.426 381.079,-225.426 385.778,-223.717 379.541,-221.197 390.477,-222.009 390.477,-222.009"/>
<text text-anchor="middle" x="341" y="-254.4" font-family="Times Roman,serif" font-size="14.00">9.00</text>
</g>
<!-- IMPHYD -->
<g id="node22" class="node"><title>IMPHYD</title>
<a xlink:href="results_IMPHYD_2010.svg" xlink:title="IMPHYD\nCapacity: 3.52">
<polygon fill="darkseagreen" stroke="darkseagreen" points="289,-368 173,-368 173,-324 289,-324 289,-368"/>
<text text-anchor="middle" x="231" y="-351.4" font-family="Times Roman,serif" font-size="14.00">IMPHYD</text>
<text text-anchor="middle" x="231" y="-333.4" font-family="Times Roman,serif" font-size="14.00">Capacity: 3.52</text>
</a>
</g>
<!-- HYD -->
<g id="node34" class="node"><title>HYD</title>
<a xlink:href="../commodities/rc_HYD_2010.svg" xlink:title="HYD">
<ellipse fill="lightsteelblue" stroke="lightsteelblue" cx="418" cy="-378" rx="33.234" ry="33.234"/>
<text text-anchor="middle" x="418" y="-374.4" font-family="Times Roman,serif" font-size="14.00">HYD</text>
</a>
</g>
<!-- IMPHYD&#45;&gt;HYD -->
<g id="edge86" class="edge"><title>IMPHYD&#45;&gt;HYD</title>
<path fill="none" stroke="forestgreen" d="M289.143,-355.95C316.941,-360.707 349.63,-366.3 375.127,-370.663"/>
<polygon fill="forestgreen" stroke="forestgreen" points="385.225,-372.391 374.609,-375.14 380.296,-371.548 375.368,-370.705 375.368,-370.705 375.368,-370.705 380.296,-371.548 376.127,-366.269 385.225,-372.391 385.225,-372.391"/>
<text text-anchor="middle" x="341" y="-373.4" font-family="Times Roman,serif" font-size="14.00">3.52</text>
</g>
<!-- RHE -->
<g id="node23" class="node"><title>RHE</title>
<a xlink:href="results_RHE_2010.svg" xlink:title="RHE\nCapacity: 33.17">
<polygon fill="darkseagreen" stroke="darkseagreen" points="1565,-377 1441,-377 1441,-333 1565,-333 1565,-377"/>
<text text-anchor="middle" x="1503" y="-360.4" font-family="Times Roman,serif" font-size="14.00">RHE</text>
<text text-anchor="middle" x="1503" y="-342.4" font-family="Times Roman,serif" font-size="14.00">Capacity: 33.17</text>
</a>
</g>
<!-- RH -->
<g id="node35" class="node"><title>RH</title>
<a xlink:href="../commodities/rc_RH_2010.svg" xlink:title="RH">
<ellipse fill="lightsteelblue" stroke="lightsteelblue" cx="1670" cy="-283" rx="26.163" ry="26.163"/>
<text text-anchor="middle" x="1670" y="-279.4" font-family="Times Roman,serif" font-size="14.00">RH</text>
</a>
</g>
<!-- RHE&#45;&gt;RH -->
<g id="edge88" class="edge"><title>RHE&#45;&gt;RH</title>
<path fill="none" stroke="forestgreen" d="M1554.47,-332.81C1581.25,-321.262 1613.22,-307.479 1636.73,-297.342"/>
<polygon fill="forestgreen" stroke="forestgreen" points="1645.94,-293.375 1638.53,-301.467 1641.34,-295.355 1636.75,-297.334 1636.75,-297.334 1636.75,-297.334 1641.34,-295.355 1634.97,-293.202 1645.94,-293.375 1645.94,-293.375"/>
<text text-anchor="middle" x="1605" y="-324.4" font-family="Times Roman,serif" font-size="14.00">20.22</text>
</g>
<!-- RHO -->
<g id="node24" class="node"><title>RHO</title>
<a xlink:href="results_RHO_2010.svg" xlink:title="RHO\nCapacity: 59.84">
<polygon fill="darkseagreen" stroke="darkseagreen" points="1281,-211 1157,-211 1157,-167 1281,-167 1281,-211"/>
<text text-anchor="middle" x="1219" y="-194.4" font-family="Times Roman,serif" font-size="14.00">RHO</text>
<text text-anchor="middle" x="1219" y="-176.4" font-family="Times Roman,serif" font-size="14.00">Capacity: 59.84</text>
</a>
</g>
<!-- RHO&#45;&gt;RH -->
<g id="edge90" class="edge"><title>RHO&#45;&gt;RH</title>
<path fill="none" stroke="forestgreen" d="M1281.69,-194.572C1341.16,-199.858 1421.5,-207 1421.5,-207 1421.5,-207 1566.37,-251.307 1634.89,-272.261"/>
<polygon fill="forestgreen" stroke="forestgreen" points="1644.8,-275.294 1633.93,-276.673 1640.02,-273.832 1635.24,-272.37 1635.24,-272.37 1635.24,-272.37 1640.02,-273.832 1636.56,-268.067 1644.8,-275.294 1644.8,-275.294"/>
<text text-anchor="middle" x="1401" y="-194.4" font-family="Times Roman,serif" font-size="14.00">36.48</text>
</g>
<!-- RL1 -->
<g id="node25" class="node"><title>RL1</title>
<a xlink:href="results_RL1_2010.svg" xlink:title="RL1\nCapacity: 18.90">
<polygon fill="darkseagreen" stroke="darkseagreen" points="1565,-439 1441,-439 1441,-395 1565,-395 1565,-439"/>
<text text-anchor="middle" x="1503" y="-422.4" font-family="Times Roman,serif" font-size="14.00">RL1</text>
<text text-anchor="middle" x="1503" y="-404.4" font-family="Times Roman,serif" font-size="14.00">Capacity: 18.90</text>
</a>
</g>
<!-- RL -->
<g id="node36" class="node"><title>RL</title>
<a xlink:href="../commodities/rc_RL_2010.svg" xlink:title="RL">
<ellipse fill="lightsteelblue" stroke="lightsteelblue" cx="1670" cy="-417" rx="24.2437" ry="24.7487"/>
<text text-anchor="middle" x="1670" y="-413.4" font-family="Times Roman,serif" font-size="14.00">RL</text>
</a>
</g>
<!-- RL1&#45;&gt;RL -->
<g id="edge92" class="edge"><title>RL1&#45;&gt;RL</title>
<path fill="none" stroke="forestgreen" d="M1565.66,-417C1589.2,-417 1615.09,-417 1635.2,-417"/>
<polygon fill="forestgreen" stroke="forestgreen" points="1645.43,-417 1635.43,-421.5 1640.43,-417 1635.43,-417 1635.43,-417 1635.43,-417 1640.43,-417 1635.43,-412.5 1645.43,-417 1645.43,-417"/>
<text text-anchor="middle" x="1605" y="-422.4" font-family="Times Roman,serif" font-size="14.00">12.60</text>
</g>
<!-- SRE&#45;&gt;DSL -->
<g id="edge27" class="edge"><title>SRE&#45;&gt;DSL</title>
<path fill="none" stroke="powderblue" d="M653.351,-84.0397C698.062,-101.222 758.983,-124.634 798.404,-139.784"/>
<polygon fill="powderblue" stroke="powderblue" points="807.941,-143.448 796.992,-144.062 803.274,-141.655 798.606,-139.861 798.606,-139.861 798.606,-139.861 803.274,-141.655 800.221,-135.661 807.941,-143.448 807.941,-143.448"/>
</g>
<!-- SRE&#45;&gt;GSL -->
<g id="edge29" class="edge"><title>SRE&#45;&gt;GSL</title>
<path fill="none" stroke="powderblue" d="M654.273,-63.204C697.924,-64.1059 756.629,-65.3188 795.815,-66.1284"/>
<polygon fill="powderblue" stroke="powderblue" points="805.827,-66.3353 795.736,-70.6276 800.828,-66.2319 795.829,-66.1286 795.829,-66.1286 795.829,-66.1286 800.828,-66.2319 795.922,-61.6296 805.827,-66.3353 805.827,-66.3353"/>
</g>
<!-- TXD -->
<g id="node27" class="node"><title>TXD</title>
<a xlink:href="results_TXD_2010.svg" xlink:title="TXD\nCapacity: 4.76">
<polygon fill="darkseagreen" stroke="darkseagreen" points="1138,-161 1022,-161 1022,-117 1138,-117 1138,-161"/>
<text text-anchor="middle" x="1080" y="-144.4" font-family="Times Roman,serif" font-size="14.00">TXD</text>
<text text-anchor="middle" x="1080" y="-126.4" font-family="Times Roman,serif" font-size="14.00">Capacity: 4.76</text>
</a>
</g>
<!-- TXD&#45;&gt;TX -->
<g id="edge94" class="edge"><title>TXD&#45;&gt;TX</title>
<path fill="none" stroke="forestgreen" d="M1138.09,-140.714C1226.58,-143.325 1385,-148 1385,-148 1385,-148 1557.86,-148 1634.33,-148"/>
<polygon fill="forestgreen" stroke="forestgreen" points="1644.46,-148 1634.46,-152.5 1639.46,-148 1634.46,-148 1634.46,-148 1634.46,-148 1639.46,-148 1634.46,-143.5 1644.46,-148 1644.46,-148"/>
<text text-anchor="middle" x="1401" y="-153.4" font-family="Times Roman,serif" font-size="14.00">4.76</text>
</g>
<!-- nox -->
<g id="node41" class="node"><title>nox</title>
<ellipse fill="lightsteelblue" stroke="lightsteelblue" cx="1331" cy="-91" rx="28.9914" ry="28.9914"/>
<text text-anchor="middle" x="1331" y="-87.4" font-family="Times Roman,serif" font-size="14.00">nox</text>
</g>
<!-- TXD&#45;&gt;nox -->
<g id="edge96" class="edge"><title>TXD&#45;&gt;nox</title>
<path fill="none" stroke="forestgreen" d="M1138.22,-127.867C1185.61,-118.804 1251.18,-106.264 1292.33,-98.3953"/>
<polygon fill="forestgreen" stroke="forestgreen" points="1302.24,-96.5004 1293.26,-102.799 1297.33,-97.4396 1292.42,-98.3788 1292.42,-98.3788 1292.42,-98.3788 1297.33,-97.4396 1291.57,-93.9588 1302.24,-96.5004 1302.24,-96.5004"/>
<text text-anchor="middle" x="1219" y="-121.4" font-family="Times Roman,serif" font-size="14.00">4.76</text>
</g>
<!-- TXG -->
<g id="node28" class="node"><title>TXG</title>
<a xlink:href="results_TXG_2010.svg" xlink:title="TXG\nCapacity: 6.93">
<polygon fill="darkseagreen" stroke="darkseagreen" points="1138,-89 1022,-89 1022,-45 1138,-45 1138,-89"/>
<text text-anchor="middle" x="1080" y="-72.4" font-family="Times Roman,serif" font-size="14.00">TXG</text>
<text text-anchor="middle" x="1080" y="-54.4" font-family="Times Roman,serif" font-size="14.00">Capacity: 6.93</text>
</a>
</g>
<!-- TXG&#45;&gt;TX -->
<g id="edge98" class="edge"><title>TXG&#45;&gt;TX</title>
<path fill="none" stroke="forestgreen" d="M1138.32,-64.4043C1234.77,-60.1111 1417,-52 1417,-52 1417,-52 1568,-109.296 1636.69,-135.36"/>
<polygon fill="forestgreen" stroke="forestgreen" points="1646.2,-138.969 1635.25,-139.628 1641.52,-137.195 1636.85,-135.421 1636.85,-135.421 1636.85,-135.421 1641.52,-137.195 1638.45,-131.214 1646.2,-138.969 1646.2,-138.969"/>
<text text-anchor="middle" x="1401" y="-39.4" font-family="Times Roman,serif" font-size="14.00">6.93</text>
</g>
<!-- TXG&#45;&gt;nox -->
<g id="edge100" class="edge"><title>TXG&#45;&gt;nox</title>
<path fill="none" stroke="forestgreen" d="M1138.22,-72.5664C1185.38,-77.0758 1250.54,-83.3062 1291.72,-87.244"/>
<polygon fill="forestgreen" stroke="forestgreen" points="1301.9,-88.2176 1291.52,-91.7452 1296.92,-87.7416 1291.95,-87.2657 1291.95,-87.2657 1291.95,-87.2657 1296.92,-87.7416 1292.37,-82.7861 1301.9,-88.2176 1301.9,-88.2176"/>
<text text-anchor="middle" x="1219" y="-78.4" font-family="Times Roman,serif" font-size="14.00">6.93</text>
</g>
<!-- DSL&#45;&gt;E70 -->
<g id="edge9" class="edge"><title>DSL&#45;&gt;E70</title>
<path fill="none" stroke="powderblue" d="M868.16,-166.715C904.314,-180.758 965.966,-204.706 1013.47,-223.156"/>
<polygon fill="powderblue" stroke="powderblue" points="1023.07,-226.886 1012.12,-227.46 1018.41,-225.076 1013.75,-223.266 1013.75,-223.266 1013.75,-223.266 1018.41,-225.076 1015.38,-219.071 1023.07,-226.886 1023.07,-226.886"/>
</g>
<!-- DSL&#45;&gt;RHO -->
<g id="edge43" class="edge"><title>DSL&#45;&gt;RHO</title>
<path fill="none" stroke="firebrick" d="M868.113,-166.701C893.423,-176.536 925.5,-189 925.5,-189 925.5,-189 1059.39,-189 1146.3,-189"/>
<polygon fill="firebrick" stroke="firebrick" points="1156.4,-189 1146.4,-193.5 1151.4,-189 1146.4,-189 1146.4,-189 1146.4,-189 1151.4,-189 1146.4,-184.5 1156.4,-189 1156.4,-189"/>
<text text-anchor="middle" x="946" y="-194.4" font-family="Times Roman,serif" font-size="14.00">52.11</text>
</g>
<!-- DSL&#45;&gt;TXD -->
<g id="edge45" class="edge"><title>DSL&#45;&gt;TXD</title>
<path fill="none" stroke="firebrick" d="M870.136,-152.875C906.071,-150.499 965.31,-146.583 1011.7,-143.516"/>
<polygon fill="firebrick" stroke="firebrick" points="1021.69,-142.855 1012.01,-148.005 1016.7,-143.185 1011.72,-143.515 1011.72,-143.515 1011.72,-143.515 1016.7,-143.185 1011.42,-139.025 1021.69,-142.855 1021.69,-142.855"/>
<text text-anchor="middle" x="946" y="-154.4" font-family="Times Roman,serif" font-size="14.00">20.61</text>
</g>
<!-- ELC&#45;&gt;TXE -->
<g id="edge15" class="edge"><title>ELC&#45;&gt;TXE</title>
<path fill="none" stroke="powderblue" d="M1359.4,-300.955C1388.72,-287.491 1434.55,-266.438 1466.53,-251.751"/>
<polygon fill="powderblue" stroke="powderblue" points="1475.97,-247.413 1468.77,-255.676 1471.43,-249.5 1466.89,-251.587 1466.89,-251.587 1466.89,-251.587 1471.43,-249.5 1465.01,-247.498 1475.97,-247.413 1475.97,-247.413"/>
</g>
<!-- ELC&#45;&gt;E51 -->
<g id="edge47" class="edge"><title>ELC&#45;&gt;E51</title>
<path fill="none" stroke="firebrick" d="M1362.15,-310.197C1382.4,-307.725 1409.61,-304.402 1434.72,-301.337"/>
<polygon fill="firebrick" stroke="firebrick" points="1444.95,-300.087 1435.57,-305.766 1439.99,-300.693 1435.03,-301.299 1435.03,-301.299 1435.03,-301.299 1439.99,-300.693 1434.48,-296.832 1444.95,-300.087 1444.95,-300.087"/>
<text text-anchor="middle" x="1401" y="-279.4" font-family="Times Roman,serif" font-size="14.00">1.70</text>
</g>
<!-- ELC&#45;&gt;RHE -->
<g id="edge49" class="edge"><title>ELC&#45;&gt;RHE</title>
<path fill="none" stroke="firebrick" d="M1361.35,-321.236C1380.51,-325.802 1406.12,-331.907 1430.3,-337.67"/>
<polygon fill="firebrick" stroke="firebrick" points="1440.19,-340.027 1429.42,-342.086 1435.32,-338.868 1430.46,-337.708 1430.46,-337.708 1430.46,-337.708 1435.32,-338.868 1431.5,-333.331 1440.19,-340.027 1440.19,-340.027"/>
<text text-anchor="middle" x="1401" y="-342.4" font-family="Times Roman,serif" font-size="14.00">20.22</text>
</g>
<!-- ELC&#45;&gt;RL1 -->
<g id="edge51" class="edge"><title>ELC&#45;&gt;RL1</title>
<path fill="none" stroke="firebrick" d="M1357.88,-330.094C1384.47,-346.023 1425.7,-370.71 1457.43,-389.708"/>
<polygon fill="firebrick" stroke="firebrick" points="1466.1,-394.904 1455.21,-393.627 1461.81,-392.335 1457.52,-389.766 1457.52,-389.766 1457.52,-389.766 1461.81,-392.335 1459.83,-385.906 1466.1,-394.904 1466.1,-394.904"/>
<text text-anchor="middle" x="1401" y="-382.4" font-family="Times Roman,serif" font-size="14.00">12.60</text>
</g>
<!-- GSL&#45;&gt;TXG -->
<g id="edge53" class="edge"><title>GSL&#45;&gt;TXG</title>
<path fill="none" stroke="firebrick" d="M870.136,-67C905.995,-67 965.062,-67 1011.41,-67"/>
<polygon fill="firebrick" stroke="firebrick" points="1021.69,-67 1011.69,-71.5001 1016.69,-67 1011.69,-67.0001 1011.69,-67.0001 1011.69,-67.0001 1016.69,-67 1011.69,-62.5001 1021.69,-67 1021.69,-67"/>
<text text-anchor="middle" x="946" y="-72.4" font-family="Times Roman,serif" font-size="14.00">30.00</text>
</g>
<!-- HCO&#45;&gt;E01 -->
<g id="edge55" class="edge"><title>HCO&#45;&gt;E01</title>
<path fill="none" stroke="firebrick" d="M452.105,-295.623C461.906,-296.377 470,-297 470,-297 470,-297 584.806,-300.091 661.841,-302.165"/>
<polygon fill="firebrick" stroke="firebrick" points="671.975,-302.438 661.857,-306.667 666.976,-302.303 661.978,-302.169 661.978,-302.169 661.978,-302.169 666.976,-302.303 662.099,-297.67 671.975,-302.438 671.975,-302.438"/>
<text text-anchor="middle" x="495" y="-302.4" font-family="Times Roman,serif" font-size="14.00">101.17</text>
</g>
<!-- HYD&#45;&gt;E31 -->
<g id="edge57" class="edge"><title>HYD&#45;&gt;E31</title>
<path fill="none" stroke="firebrick" d="M451.174,-375.543C498.569,-372.032 580,-366 580,-366 580,-366 771.316,-364.432 877.307,-363.563"/>
<polygon fill="firebrick" stroke="firebrick" points="887.602,-363.479 877.639,-368.061 882.602,-363.52 877.602,-363.561 877.602,-363.561 877.602,-363.561 882.602,-363.52 877.565,-359.061 887.602,-363.479 887.602,-363.479"/>
<text text-anchor="middle" x="596" y="-371.4" font-family="Times Roman,serif" font-size="14.00">3.52</text>
</g>
<!-- ethos -->
<g id="node38" class="node"><title>ethos</title>
<a xlink:href="../commodities/rc_ethos_2010.svg" xlink:title="ethos">
<ellipse fill="lightsteelblue" stroke="lightsteelblue" cx="39" cy="-280" rx="38.8909" ry="38.8909"/>
<text text-anchor="middle" x="39" y="-276.4" font-family="Times Roman,serif" font-size="14.00">ethos</text>
</a>
</g>
<!-- ethos&#45;&gt;IMPFEQ -->
<g id="edge35" class="edge"><title>ethos&#45;&gt;IMPFEQ</title>
<path fill="none" stroke="powderblue" d="M72.006,-301.66C106.205,-324.103 159.501,-359.078 194.826,-382.261"/>
<polygon fill="powderblue" stroke="powderblue" points="203.397,-387.885 192.567,-386.161 199.217,-385.142 195.036,-382.399 195.036,-382.399 195.036,-382.399 199.217,-385.142 197.505,-378.637 203.397,-387.885 203.397,-387.885"/>
</g>
<!-- ethos&#45;&gt;IMPOIL1 -->
<g id="edge37" class="edge"><title>ethos&#45;&gt;IMPOIL1</title>
<path fill="none" stroke="powderblue" d="M65.6968,-250.939C103.31,-209.996 171.315,-135.969 207.257,-96.8455"/>
<polygon fill="powderblue" stroke="powderblue" points="214.417,-89.0511 210.966,-99.4597 211.035,-92.7332 207.652,-96.4154 207.652,-96.4154 207.652,-96.4154 211.035,-92.7332 204.338,-93.371 214.417,-89.0511 214.417,-89.0511"/>
</g>
<!-- ethos&#45;&gt;IMPURN1 -->
<g id="edge39" class="edge"><title>ethos&#45;&gt;IMPURN1</title>
<path fill="none" stroke="powderblue" d="M66.5089,-308.369C103.876,-346.903 170.13,-415.228 206.096,-452.317"/>
<polygon fill="powderblue" stroke="powderblue" points="213.289,-459.736 203.097,-455.689 209.809,-456.146 206.328,-452.557 206.328,-452.557 206.328,-452.557 209.809,-456.146 209.558,-449.424 213.289,-459.736 213.289,-459.736"/>
</g>
<!-- ethos&#45;&gt;IMPDSL1 -->
<g id="edge59" class="edge"><title>ethos&#45;&gt;IMPDSL1</title>
<path fill="none" stroke="firebrick" d="M76.0195,-266.696C99.81,-258.146 131.491,-246.761 160.007,-236.513"/>
<polygon fill="firebrick" stroke="firebrick" points="169.54,-233.087 161.652,-240.704 164.835,-234.778 160.13,-236.469 160.13,-236.469 160.13,-236.469 164.835,-234.778 158.608,-232.234 169.54,-233.087 169.54,-233.087"/>
<text text-anchor="middle" x="121" y="-263.4" font-family="Times Roman,serif" font-size="14.00">72.72</text>
</g>
<!-- ethos&#45;&gt;IMPGSL1 -->
<g id="edge61" class="edge"><title>ethos&#45;&gt;IMPGSL1</title>
<path fill="none" stroke="firebrick" d="M71.1365,-257.404C104.146,-234.194 155.591,-198.022 191.166,-173.009"/>
<polygon fill="firebrick" stroke="firebrick" points="199.398,-167.22 193.806,-176.653 195.307,-170.096 191.217,-172.972 191.217,-172.972 191.217,-172.972 195.307,-170.096 188.629,-169.291 199.398,-167.22 199.398,-167.22"/>
<text text-anchor="middle" x="121" y="-225.4" font-family="Times Roman,serif" font-size="14.00">30.00</text>
</g>
<!-- ethos&#45;&gt;IMPHCO1 -->
<g id="edge63" class="edge"><title>ethos&#45;&gt;IMPHCO1</title>
<path fill="none" stroke="firebrick" d="M78.3174,-280C100.013,-280 127.726,-280 153.571,-280"/>
<polygon fill="firebrick" stroke="firebrick" points="163.747,-280 153.747,-284.5 158.747,-280 153.747,-280 153.747,-280 153.747,-280 158.747,-280 153.747,-275.5 163.747,-280 163.747,-280"/>
<text text-anchor="middle" x="121" y="-285.4" font-family="Times Roman,serif" font-size="14.00">101.17</text>
</g>
<!-- ethos&#45;&gt;IMPHYD -->
<g id="edge65" class="edge"><title>ethos&#45;&gt;IMPHYD</title>
<path fill="none" stroke="firebrick" d="M76.0195,-292.725C100.691,-301.206 133.848,-312.604 163.162,-322.681"/>
<polygon fill="firebrick" stroke="firebrick" points="172.938,-326.041 162.018,-327.046 168.209,-324.416 163.481,-322.79 163.481,-322.79 163.481,-322.79 168.209,-324.416 164.944,-318.535 172.938,-326.041 172.938,-326.041"/>
<text text-anchor="middle" x="121" y="-322.4" font-family="Times Roman,serif" font-size="14.00">3.52</text>
</g>
</g>
</svg>
