<?xml version="1.0" encoding="UTF-8" standalone="no"?>
<!DOCTYPE svg PUBLIC "-//W3C//DTD SVG 1.1//EN"
 "http://www.w3.org/Graphics/SVG/1.1/DTD/svg11.dtd">
<!-- Generated by graphviz version 2.26.3 (20100126.1600)
 -->
<!-- Title: model Pages: 1 -->
<svg width="455pt" height="398pt"
 viewBox="0.00 0.00 455.00 398.00" xmlns="http://www.w3.org/2000/svg" xmlns:xlink="http://www.w3.org/1999/xlink">
<g id="graph1" class="graph" transform="scale(1 1) rotate(0) translate(4 394)">
<title>model</title>
<polygon fill="white" stroke="white" points="-4,5 -4,-394 452,-394 452,5 -4,5"/>
<text text-anchor="middle" x="223.5" y="-9.4" font-family="Times Roman,serif" font-size="14.00">Activity split of process IMPGSL1, 1990 in year 2010</text>
<g id="graph2" class="cluster"><title>cluster_slices</title>
<polygon fill="lightgrey" stroke="lightgrey" points="148,-34 148,-382 313,-382 313,-34 148,-34"/>
<text text-anchor="middle" x="230.5" y="-365.4" font-family="Times Roman,serif" font-size="14.00">1990 Capacity: 30.00</text>
</g>
<!-- inter, day -->
<g id="node2" class="node"><title>inter, day</title>
<polygon fill="white" stroke="white" points="271,-348 189,-348 189,-312 271,-312 271,-348"/>
<text text-anchor="middle" x="230" y="-326.4" font-family="Times Roman,serif" font-size="14.00">inter, day</text>
</g>
<!-- GSL -->
<g id="node9" class="node"><title>GSL</title>
<a xlink:href="../commodities/rc_GSL_2010.svg" xlink:title="GSL">
<ellipse fill="lightsteelblue" stroke="lightsteelblue" cx="415" cy="-194" rx="31.8198" ry="31.8198"/>
<text text-anchor="middle" x="415" y="-190.4" font-family="Times Roman,serif" font-size="14.00">GSL</text>
</a>
</g>
<!-- inter, day&#45;&gt;GSL -->
<g id="edge18" class="edge"><title>inter, day&#45;&gt;GSL</title>
<path fill="none" stroke="forestgreen" d="M254.567,-311.94C286.96,-288.127 344.127,-246.101 380.751,-219.178"/>
<polygon fill="forestgreen" stroke="forestgreen" points="389.14,-213.011 383.748,-222.56 385.111,-215.972 381.082,-218.934 381.082,-218.934 381.082,-218.934 385.111,-215.972 378.417,-215.308 389.14,-213.011 389.14,-213.011"/>
<text text-anchor="middle" x="344" y="-300.4" font-family="Times Roman,serif" font-size="14.00">5.00</text>
</g>
<!-- inter, night -->
<g id="node3" class="node"><title>inter, night</title>
<polygon fill="white" stroke="white" points="277,-294 183,-294 183,-258 277,-258 277,-294"/>
<text text-anchor="middle" x="230" y="-272.4" font-family="Times Roman,serif" font-size="14.00">inter, night</text>
</g>
<!-- inter, night&#45;&gt;GSL -->
<g id="edge20" class="edge"><title>inter, night&#45;&gt;GSL</title>
<path fill="none" stroke="forestgreen" d="M271.057,-257.802C302.507,-243.862 345.589,-224.766 376.408,-211.106"/>
<polygon fill="forestgreen" stroke="forestgreen" points="385.552,-207.053 378.233,-215.219 380.981,-209.079 376.41,-211.105 376.41,-211.105 376.41,-211.105 380.981,-209.079 374.586,-206.991 385.552,-207.053 385.552,-207.053"/>
<text text-anchor="middle" x="344" y="-250.4" font-family="Times Roman,serif" font-size="14.00">2.50</text>
</g>
<!-- summer, day -->
<g id="node4" class="node"><title>summer, day</title>
<polygon fill="white" stroke="white" points="283,-240 177,-240 177,-204 283,-204 283,-240"/>
<text text-anchor="middle" x="230" y="-218.4" font-family="Times Roman,serif" font-size="14.00">summer, day</text>
</g>
<!-- summer, day&#45;&gt;GSL -->
<g id="edge22" class="edge"><title>summer, day&#45;&gt;GSL</title>
<path fill="none" stroke="forestgreen" d="M283.014,-213.976C311.574,-209.654 346.318,-204.395 372.988,-200.359"/>
<polygon fill="forestgreen" stroke="forestgreen" points="383.149,-198.821 373.935,-204.767 378.205,-199.569 373.261,-200.317 373.261,-200.317 373.261,-200.317 378.205,-199.569 372.588,-195.868 383.149,-198.821 383.149,-198.821"/>
<text text-anchor="middle" x="344" y="-213.4" font-family="Times Roman,serif" font-size="14.00">5.00</text>
</g>
<!-- summer, night -->
<g id="node5" class="node"><title>summer, night</title>
<polygon fill="white" stroke="white" points="288,-186 172,-186 172,-150 288,-150 288,-186"/>
<text text-anchor="middle" x="230" y="-164.4" font-family="Times Roman,serif" font-size="14.00">summer, night</text>
</g>
<!-- summer, night&#45;&gt;GSL -->
<g id="edge24" class="edge"><title>summer, night&#45;&gt;GSL</title>
<path fill="none" stroke="forestgreen" d="M288.535,-176.227C315.952,-180.08 347.993,-184.583 372.963,-188.092"/>
<polygon fill="forestgreen" stroke="forestgreen" points="383.197,-189.53 372.668,-192.595 378.246,-188.835 373.295,-188.139 373.295,-188.139 373.295,-188.139 378.246,-188.835 373.921,-183.682 383.197,-189.53 383.197,-189.53"/>
<text text-anchor="middle" x="344" y="-183.4" font-family="Times Roman,serif" font-size="14.00">2.50</text>
</g>
<!-- winter, day -->
<g id="node6" class="node"><title>winter, day</title>
<polygon fill="white" stroke="white" points="278,-132 182,-132 182,-96 278,-96 278,-132"/>
<text text-anchor="middle" x="230" y="-110.4" font-family="Times Roman,serif" font-size="14.00">winter, day</text>
</g>
<!-- winter, day&#45;&gt;GSL -->
<g id="edge26" class="edge"><title>winter, day&#45;&gt;GSL</title>
<path fill="none" stroke="forestgreen" d="M271.979,-132.153C303.243,-145.673 345.614,-163.995 376.111,-177.183"/>
<polygon fill="forestgreen" stroke="forestgreen" points="385.566,-181.272 374.602,-181.433 380.977,-179.287 376.388,-177.303 376.388,-177.303 376.388,-177.303 380.977,-179.287 378.174,-173.172 385.566,-181.272 385.566,-181.272"/>
<text text-anchor="middle" x="344" y="-159.4" font-family="Times Roman,serif" font-size="14.00">10.00</text>
</g>
<!-- winter, night -->
<g id="node7" class="node"><title>winter, night</title>
<polygon fill="white" stroke="white" points="283,-78 177,-78 177,-42 283,-42 283,-78"/>
<text text-anchor="middle" x="230" y="-56.4" font-family="Times Roman,serif" font-size="14.00">winter, night</text>
</g>
<!-- winter, night&#45;&gt;GSL -->
<g id="edge28" class="edge"><title>winter, night&#45;&gt;GSL</title>
<path fill="none" stroke="forestgreen" d="M254.95,-78.0718C287.364,-101.55 344.111,-142.653 380.597,-169.081"/>
<polygon fill="forestgreen" stroke="forestgreen" points="388.958,-175.137 378.22,-172.916 384.909,-172.204 380.859,-169.271 380.859,-169.271 380.859,-169.271 384.909,-172.204 383.499,-165.627 388.958,-175.137 388.958,-175.137"/>
<text text-anchor="middle" x="344" y="-126.4" font-family="Times Roman,serif" font-size="14.00">5.00</text>
</g>
<!-- ethos -->
<g id="node10" class="node"><title>ethos</title>
<a xlink:href="../commodities/rc_ethos_2010.svg" xlink:title="ethos">
<ellipse fill="lightsteelblue" stroke="lightsteelblue" cx="39" cy="-194" rx="38.8909" ry="38.8909"/>
<text text-anchor="middle" x="39" y="-190.4" font-family="Times Roman,serif" font-size="14.00">ethos</text>
</a>
</g>
<!-- ethos&#45;&gt;inter, day -->
<g id="edge5" class="edge"><title>ethos&#45;&gt;inter, day</title>
<path fill="none" stroke="firebrick" d="M70.9691,-216.763C105.626,-241.44 160.712,-280.664 196.104,-305.865"/>
<polygon fill="firebrick" stroke="firebrick" points="204.654,-311.952 193.897,-309.818 200.581,-309.052 196.508,-306.152 196.508,-306.152 196.508,-306.152 200.581,-309.052 199.118,-302.486 204.654,-311.952 204.654,-311.952"/>
<text text-anchor="middle" x="117" y="-300.4" font-family="Times Roman,serif" font-size="14.00">5.00</text>
</g>
<!-- ethos&#45;&gt;inter, night -->
<g id="edge7" class="edge"><title>ethos&#45;&gt;inter, night</title>
<path fill="none" stroke="firebrick" d="M74.9256,-209.424C104.137,-221.964 145.729,-239.821 178.487,-253.884"/>
<polygon fill="firebrick" stroke="firebrick" points="187.909,-257.929 176.945,-258.119 183.314,-255.957 178.72,-253.984 178.72,-253.984 178.72,-253.984 183.314,-255.957 180.495,-249.849 187.909,-257.929 187.909,-257.929"/>
<text text-anchor="middle" x="117" y="-250.4" font-family="Times Roman,serif" font-size="14.00">2.50</text>
</g>
<!-- ethos&#45;&gt;summer, day -->
<g id="edge9" class="edge"><title>ethos&#45;&gt;summer, day</title>
<path fill="none" stroke="firebrick" d="M77.6517,-199.666C103.199,-203.411 137.28,-208.408 166.729,-212.725"/>
<polygon fill="firebrick" stroke="firebrick" points="176.931,-214.22 166.384,-217.222 171.984,-213.495 167.036,-212.77 167.036,-212.77 167.036,-212.77 171.984,-213.495 167.689,-208.317 176.931,-214.22 176.931,-214.22"/>
<text text-anchor="middle" x="117" y="-213.4" font-family="Times Roman,serif" font-size="14.00">5.00</text>
</g>
<!-- ethos&#45;&gt;summer, night -->
<g id="edge11" class="edge"><title>ethos&#45;&gt;summer, night</title>
<path fill="none" stroke="firebrick" d="M77.6517,-188.739C101.631,-185.474 133.129,-181.187 161.258,-177.358"/>
<polygon fill="firebrick" stroke="firebrick" points="171.449,-175.97 162.147,-181.778 166.494,-176.645 161.54,-177.319 161.54,-177.319 161.54,-177.319 166.494,-176.645 160.933,-172.86 171.449,-175.97 171.449,-175.97"/>
<text text-anchor="middle" x="117" y="-183.4" font-family="Times Roman,serif" font-size="14.00">2.50</text>
</g>
<!-- ethos&#45;&gt;winter, day -->
<g id="edge13" class="edge"><title>ethos&#45;&gt;winter, day</title>
<path fill="none" stroke="firebrick" d="M75.3752,-178.764C104.239,-166.675 144.983,-149.609 177.401,-136.031"/>
<polygon fill="firebrick" stroke="firebrick" points="186.738,-132.12 179.253,-140.134 182.127,-134.052 177.515,-135.983 177.515,-135.983 177.515,-135.983 182.127,-134.052 175.776,-131.833 186.738,-132.12 186.738,-132.12"/>
<text text-anchor="middle" x="117" y="-159.4" font-family="Times Roman,serif" font-size="14.00">10.00</text>
</g>
<!-- ethos&#45;&gt;winter, night -->
<g id="edge15" class="edge"><title>ethos&#45;&gt;winter, night</title>
<path fill="none" stroke="firebrick" d="M70.9691,-171.571C105.43,-147.395 160.09,-109.047 195.503,-84.2024"/>
<polygon fill="firebrick" stroke="firebrick" points="204.067,-78.1938 198.465,-87.621 199.974,-81.0655 195.881,-83.9371 195.881,-83.9371 195.881,-83.9371 199.974,-81.0655 193.296,-80.2533 204.067,-78.1938 204.067,-78.1938"/>
<text text-anchor="middle" x="117" y="-126.4" font-family="Times Roman,serif" font-size="14.00">5.00</text>
</g>
</g>
</svg>
