<?xml version="1.0" encoding="UTF-8" standalone="no"?>
<!DOCTYPE svg PUBLIC "-//W3C//DTD SVG 1.1//EN"
 "http://www.w3.org/Graphics/SVG/1.1/DTD/svg11.dtd">
<!-- Generated by graphviz version 2.26.3 (20100126.1600)
 -->
<!-- Title: model Pages: 1 -->
<svg width="429pt" height="290pt"
 viewBox="0.00 0.00 429.00 290.00" xmlns="http://www.w3.org/2000/svg" xmlns:xlink="http://www.w3.org/1999/xlink">
<g id="graph1" class="graph" transform="scale(1 1) rotate(0) translate(4 286)">
<title>model</title>
<polygon fill="white" stroke="white" points="-4,5 -4,-286 426,-286 426,5 -4,5"/>
<text text-anchor="middle" x="210.5" y="-9.4" font-family="Times Roman,serif" font-size="14.00">Activity split of process RHO, 2010 in year 2010</text>
<g id="graph2" class="cluster"><title>cluster_slices</title>
<polygon fill="lightgrey" stroke="lightgrey" points="134,-34 134,-274 299,-274 299,-34 134,-34"/>
<text text-anchor="middle" x="216.5" y="-257.4" font-family="Times Roman,serif" font-size="14.00">2010 Capacity: 59.84</text>
</g>
<!-- inter, day -->
<g id="node2" class="node"><title>inter, day</title>
<polygon fill="white" stroke="white" points="257,-240 175,-240 175,-204 257,-204 257,-240"/>
<text text-anchor="middle" x="216" y="-218.4" font-family="Times Roman,serif" font-size="14.00">inter, day</text>
</g>
<!-- RH -->
<g id="node8" class="node"><title>RH</title>
<a xlink:href="../commodities/rc_RH_2010.svg" xlink:title="RH">
<ellipse fill="lightsteelblue" stroke="lightsteelblue" cx="395" cy="-140" rx="26.163" ry="26.163"/>
<text text-anchor="middle" x="395" y="-136.4" font-family="Times Roman,serif" font-size="14.00">RH</text>
</a>
</g>
<!-- inter, day&#45;&gt;RH -->
<g id="edge14" class="edge"><title>inter, day&#45;&gt;RH</title>
<path fill="none" stroke="forestgreen" d="M255.726,-203.802C287.697,-189.156 332.093,-168.818 362.097,-155.073"/>
<polygon fill="forestgreen" stroke="forestgreen" points="371.299,-150.857 364.082,-159.113 366.754,-152.94 362.208,-155.022 362.208,-155.022 362.208,-155.022 366.754,-152.94 360.334,-150.931 371.299,-150.857 371.299,-150.857"/>
<text text-anchor="middle" x="330" y="-195.4" font-family="Times Roman,serif" font-size="14.00">3.18</text>
</g>
<!-- inter, night -->
<g id="node3" class="node"><title>inter, night</title>
<polygon fill="white" stroke="white" points="263,-186 169,-186 169,-150 263,-150 263,-186"/>
<text text-anchor="middle" x="216" y="-164.4" font-family="Times Roman,serif" font-size="14.00">inter, night</text>
</g>
<!-- inter, night&#45;&gt;RH -->
<g id="edge16" class="edge"><title>inter, night&#45;&gt;RH</title>
<path fill="none" stroke="forestgreen" d="M263.969,-160.497C293.996,-155.799 332.038,-149.849 359.386,-145.571"/>
<polygon fill="forestgreen" stroke="forestgreen" points="369.305,-144.019 360.12,-150.011 364.365,-144.792 359.425,-145.565 359.425,-145.565 359.425,-145.565 364.365,-144.792 358.729,-141.119 369.305,-144.019 369.305,-144.019"/>
<text text-anchor="middle" x="330" y="-159.4" font-family="Times Roman,serif" font-size="14.00">1.59</text>
</g>
<!-- winter, day -->
<g id="node4" class="node"><title>winter, day</title>
<polygon fill="white" stroke="white" points="264,-132 168,-132 168,-96 264,-96 264,-132"/>
<text text-anchor="middle" x="216" y="-110.4" font-family="Times Roman,serif" font-size="14.00">winter, day</text>
</g>
<!-- winter, day&#45;&gt;RH -->
<g id="edge18" class="edge"><title>winter, day&#45;&gt;RH</title>
<path fill="none" stroke="forestgreen" d="M264.44,-121.036C294.238,-125.364 331.789,-130.818 358.961,-134.765"/>
<polygon fill="forestgreen" stroke="forestgreen" points="369.191,-136.251 358.648,-139.267 364.243,-135.533 359.295,-134.814 359.295,-134.814 359.295,-134.814 364.243,-135.533 359.942,-130.36 369.191,-136.251 369.191,-136.251"/>
<text text-anchor="middle" x="330" y="-129.4" font-family="Times Roman,serif" font-size="14.00">14.50</text>
</g>
<!-- winter, night -->
<g id="node5" class="node"><title>winter, night</title>
<polygon fill="white" stroke="white" points="269,-78 163,-78 163,-42 269,-42 269,-78"/>
<text text-anchor="middle" x="216" y="-56.4" font-family="Times Roman,serif" font-size="14.00">winter, night</text>
</g>
<!-- winter, night&#45;&gt;RH -->
<g id="edge20" class="edge"><title>winter, night&#45;&gt;RH</title>
<path fill="none" stroke="forestgreen" d="M256.618,-78.1532C288.312,-92.3183 331.804,-111.756 361.519,-125.036"/>
<polygon fill="forestgreen" stroke="forestgreen" points="371.031,-129.287 360.065,-129.315 366.466,-127.247 361.901,-125.207 361.901,-125.207 361.901,-125.207 366.466,-127.247 363.737,-121.099 371.031,-129.287 371.031,-129.287"/>
<text text-anchor="middle" x="330" y="-105.4" font-family="Times Roman,serif" font-size="14.00">7.25</text>
</g>
<!-- DSL -->
<g id="node7" class="node"><title>DSL</title>
<a xlink:href="../commodities/rc_DSL_2010.svg" xlink:title="DSL">
<ellipse fill="lightsteelblue" stroke="lightsteelblue" cx="32" cy="-140" rx="31.8198" ry="31.8198"/>
<text text-anchor="middle" x="32" y="-136.4" font-family="Times Roman,serif" font-size="14.00">DSL</text>
</a>
</g>
<!-- DSL&#45;&gt;inter, day -->
<g id="edge5" class="edge"><title>DSL&#45;&gt;inter, day</title>
<path fill="none" stroke="firebrick" d="M61.5628,-153.175C89.7913,-165.755 132.869,-184.952 166.363,-199.879"/>
<polygon fill="firebrick" stroke="firebrick" points="175.535,-203.967 164.569,-204.006 170.968,-201.931 166.401,-199.896 166.401,-199.896 166.401,-199.896 170.968,-201.931 168.233,-195.786 175.535,-203.967 175.535,-203.967"/>
<text text-anchor="middle" x="103" y="-195.4" font-family="Times Roman,serif" font-size="14.00">4.55</text>
</g>
<!-- DSL&#45;&gt;inter, night -->
<g id="edge7" class="edge"><title>DSL&#45;&gt;inter, night</title>
<path fill="none" stroke="firebrick" d="M64.0504,-144.877C89.9521,-148.819 127.083,-154.469 158.156,-159.198"/>
<polygon fill="firebrick" stroke="firebrick" points="168.436,-160.762 157.873,-163.706 163.493,-160.01 158.55,-159.257 158.55,-159.257 158.55,-159.257 163.493,-160.01 159.227,-154.809 168.436,-160.762 168.436,-160.762"/>
<text text-anchor="middle" x="103" y="-159.4" font-family="Times Roman,serif" font-size="14.00">2.27</text>
</g>
<!-- DSL&#45;&gt;winter, day -->
<g id="edge9" class="edge"><title>DSL&#45;&gt;winter, day</title>
<path fill="none" stroke="firebrick" d="M64.0504,-135.471C89.7671,-131.837 126.553,-126.639 157.489,-122.268"/>
<polygon fill="firebrick" stroke="firebrick" points="167.731,-120.821 158.459,-126.676 162.78,-121.52 157.83,-122.22 157.83,-122.22 157.83,-122.22 162.78,-121.52 157.2,-117.764 167.731,-120.821 167.731,-120.821"/>
<text text-anchor="middle" x="103" y="-129.4" font-family="Times Roman,serif" font-size="14.00">20.71</text>
</g>
<!-- DSL&#45;&gt;winter, night -->
<g id="edge11" class="edge"><title>DSL&#45;&gt;winter, night</title>
<path fill="none" stroke="firebrick" d="M61.5628,-127.147C89.3933,-115.046 131.657,-96.6709 164.94,-82.2"/>
<polygon fill="firebrick" stroke="firebrick" points="174.511,-78.0385 167.135,-86.1526 169.926,-80.0322 165.341,-82.0258 165.341,-82.0258 165.341,-82.0258 169.926,-80.0322 163.546,-77.899 174.511,-78.0385 174.511,-78.0385"/>
<text text-anchor="middle" x="103" y="-105.4" font-family="Times Roman,serif" font-size="14.00">10.35</text>
</g>
</g>
</svg>
