<?xml version="1.0" encoding="UTF-8" standalone="no"?>
<!DOCTYPE svg PUBLIC "-//W3C//DTD SVG 1.1//EN"
 "http://www.w3.org/Graphics/SVG/1.1/DTD/svg11.dtd">
<!-- Generated by graphviz version 2.26.3 (20100126.1600)
 -->
<!-- Title: model Pages: 1 -->
<svg width="1680pt" height="585pt"
 viewBox="0.00 0.00 1680.00 585.00" xmlns="http://www.w3.org/2000/svg" xmlns:xlink="http://www.w3.org/1999/xlink">
<g id="graph1" class="graph" transform="scale(1 1) rotate(0) translate(4 581)">
<title>model</title>
<polygon fill="white" stroke="white" points="-4,5 -4,-581 1677,-581 1677,5 -4,5"/>
<text text-anchor="middle" x="836" y="-9.4" font-family="Times Roman,serif" font-size="14.00">Results for 2000</text>
<!-- E21 -->
<g id="node2" class="node"><title>E21</title>
<polygon fill="powderblue" stroke="powderblue" points="599,-479 545,-479 545,-443 599,-443 599,-479"/>
<text text-anchor="middle" x="572" y="-457.4" font-family="Times Roman,serif" font-size="14.00" fill="chocolate">E21</text>
</g>
<!-- ELC -->
<g id="node31" class="node"><title>ELC</title>
<a xlink:href="../commodities/rc_ELC_2000.svg" xlink:title="ELC">
<ellipse fill="lightsteelblue" stroke="lightsteelblue" cx="1307" cy="-314" rx="31.1127" ry="31.1127"/>
<text text-anchor="middle" x="1307" y="-310.4" font-family="Times Roman,serif" font-size="14.00">ELC</text>
</a>
</g>
<!-- E21&#45;&gt;ELC -->
<g id="edge11" class="edge"><title>E21&#45;&gt;ELC</title>
<path fill="none" stroke="powderblue" d="M599.031,-455.594C710.235,-433.353 1132.82,-348.835 1266.32,-322.135"/>
<polygon fill="powderblue" stroke="powderblue" points="1276.52,-320.096 1267.6,-326.469 1271.62,-321.076 1266.72,-322.057 1266.72,-322.057 1266.72,-322.057 1271.62,-321.076 1265.83,-317.644 1276.52,-320.096 1276.52,-320.096"/>
</g>
<!-- IMPFEQ -->
<g id="node3" class="node"><title>IMPFEQ</title>
<polygon fill="powderblue" stroke="powderblue" points="258,-424 188,-424 188,-388 258,-388 258,-424"/>
<text text-anchor="middle" x="223" y="-402.4" font-family="Times Roman,serif" font-size="14.00" fill="chocolate">IMPFEQ</text>
</g>
<!-- FEQ -->
<g id="node9" class="node"><title>FEQ</title>
<ellipse fill="powderblue" stroke="powderblue" cx="402" cy="-461" rx="31.8198" ry="31.8198"/>
<text text-anchor="middle" x="402" y="-457.4" font-family="Times Roman,serif" font-size="14.00" fill="chocolate">FEQ</text>
</g>
<!-- IMPFEQ&#45;&gt;FEQ -->
<g id="edge19" class="edge"><title>IMPFEQ&#45;&gt;FEQ</title>
<path fill="none" stroke="powderblue" d="M258.793,-416.998C288.529,-426.135 330.816,-439.128 361.729,-448.626"/>
<polygon fill="powderblue" stroke="powderblue" points="371.336,-451.578 360.455,-452.942 366.557,-450.11 361.777,-448.641 361.777,-448.641 361.777,-448.641 366.557,-450.11 363.099,-444.339 371.336,-451.578 371.336,-451.578"/>
</g>
<!-- IMPOIL1 -->
<g id="node4" class="node"><title>IMPOIL1</title>
<polygon fill="powderblue" stroke="powderblue" points="260,-89 186,-89 186,-53 260,-53 260,-89"/>
<text text-anchor="middle" x="223" y="-67.4" font-family="Times Roman,serif" font-size="14.00" fill="chocolate">IMPOIL1</text>
</g>
<!-- OIL -->
<g id="node11" class="node"><title>OIL</title>
<ellipse fill="powderblue" stroke="powderblue" cx="402" cy="-55" rx="28.9914" ry="28.9914"/>
<text text-anchor="middle" x="402" y="-51.4" font-family="Times Roman,serif" font-size="14.00" fill="chocolate">OIL</text>
</g>
<!-- IMPOIL1&#45;&gt;OIL -->
<g id="edge21" class="edge"><title>IMPOIL1&#45;&gt;OIL</title>
<path fill="none" stroke="powderblue" d="M260.524,-67.6459C290.512,-64.9654 332.412,-61.2202 362.826,-58.5016"/>
<polygon fill="powderblue" stroke="powderblue" points="373.066,-57.5863 363.506,-62.9588 368.086,-58.0315 363.105,-58.4767 363.105,-58.4767 363.105,-58.4767 368.086,-58.0315 362.705,-53.9946 373.066,-57.5863 373.066,-57.5863"/>
</g>
<!-- IMPURN1 -->
<g id="node5" class="node"><title>IMPURN1</title>
<polygon fill="powderblue" stroke="powderblue" points="264,-496 182,-496 182,-460 264,-460 264,-496"/>
<text text-anchor="middle" x="223" y="-474.4" font-family="Times Roman,serif" font-size="14.00" fill="chocolate">IMPURN1</text>
</g>
<!-- URN -->
<g id="node12" class="node"><title>URN</title>
<ellipse fill="powderblue" stroke="powderblue" cx="402" cy="-544" rx="33.234" ry="33.234"/>
<text text-anchor="middle" x="402" y="-540.4" font-family="Times Roman,serif" font-size="14.00" fill="chocolate">URN</text>
</g>
<!-- IMPURN1&#45;&gt;URN -->
<g id="edge23" class="edge"><title>IMPURN1&#45;&gt;URN</title>
<path fill="none" stroke="powderblue" d="M264.066,-493.142C293.277,-503.912 332.339,-518.315 361.436,-529.043"/>
<polygon fill="powderblue" stroke="powderblue" points="370.893,-532.53 359.954,-533.293 366.202,-530.801 361.511,-529.071 361.511,-529.071 361.511,-529.071 366.202,-530.801 363.068,-524.849 370.893,-532.53 370.893,-532.53"/>
</g>
<!-- TXE -->
<g id="node6" class="node"><title>TXE</title>
<polygon fill="powderblue" stroke="powderblue" points="1506,-253 1452,-253 1452,-217 1506,-217 1506,-253"/>
<text text-anchor="middle" x="1479" y="-231.4" font-family="Times Roman,serif" font-size="14.00" fill="chocolate">TXE</text>
</g>
<!-- TX -->
<g id="node37" class="node"><title>TX</title>
<a xlink:href="../commodities/rc_TX_2000.svg" xlink:title="TX">
<ellipse fill="lightsteelblue" stroke="lightsteelblue" cx="1646" cy="-148" rx="24.9567" ry="25.4558"/>
<text text-anchor="middle" x="1646" y="-144.4" font-family="Times Roman,serif" font-size="14.00">TX</text>
</a>
</g>
<!-- TXE&#45;&gt;TX -->
<g id="edge31" class="edge"><title>TXE&#45;&gt;TX</title>
<path fill="none" stroke="powderblue" d="M1506.2,-220.828C1535.77,-205.425 1582.97,-180.838 1614.22,-164.557"/>
<polygon fill="powderblue" stroke="powderblue" points="1623.37,-159.791 1616.58,-168.402 1618.93,-162.101 1614.5,-164.411 1614.5,-164.411 1614.5,-164.411 1618.93,-162.101 1612.42,-160.42 1623.37,-159.791 1623.37,-159.791"/>
</g>
<!-- CSV -->
<g id="node8" class="node"><title>CSV</title>
<ellipse fill="powderblue" stroke="powderblue" cx="39" cy="-369" rx="31.8198" ry="31.8198"/>
<text text-anchor="middle" x="39" y="-365.4" font-family="Times Roman,serif" font-size="14.00" fill="chocolate">CSV</text>
</g>
<!-- FEQ&#45;&gt;E21 -->
<g id="edge17" class="edge"><title>FEQ&#45;&gt;E21</title>
<path fill="none" stroke="powderblue" d="M434.376,-461C462.986,-461 504.71,-461 534.709,-461"/>
<polygon fill="powderblue" stroke="powderblue" points="544.79,-461 534.79,-465.5 539.79,-461 534.79,-461 534.79,-461 534.79,-461 539.79,-461 534.79,-456.5 544.79,-461 544.79,-461"/>
</g>
<!-- LTH -->
<g id="node10" class="node"><title>LTH</title>
<ellipse fill="powderblue" stroke="powderblue" cx="39" cy="-448" rx="29.1951" ry="29.6985"/>
<text text-anchor="middle" x="39" y="-444.4" font-family="Times Roman,serif" font-size="14.00" fill="chocolate">LTH</text>
</g>
<!-- SRE -->
<g id="node26" class="node"><title>SRE</title>
<a xlink:href="results_SRE_2000.svg" xlink:title="SRE\nCapacity: 0.10">
<polygon fill="darkseagreen" stroke="darkseagreen" points="630,-84 514,-84 514,-40 630,-40 630,-84"/>
<text text-anchor="middle" x="572" y="-67.4" font-family="Times Roman,serif" font-size="14.00">SRE</text>
<text text-anchor="middle" x="572" y="-49.4" font-family="Times Roman,serif" font-size="14.00">Capacity: 0.10</text>
</a>
</g>
<!-- OIL&#45;&gt;SRE -->
<g id="edge25" class="edge"><title>OIL&#45;&gt;SRE</title>
<path fill="none" stroke="powderblue" d="M431.224,-56.2033C451.165,-57.0245 478.44,-58.1475 503.674,-59.1866"/>
<polygon fill="powderblue" stroke="powderblue" points="513.963,-59.6102 503.786,-63.6949 508.967,-59.4045 503.971,-59.1987 503.971,-59.1987 503.971,-59.1987 508.967,-59.4045 504.156,-54.7025 513.963,-59.6102 513.963,-59.6102"/>
</g>
<!-- URN&#45;&gt;E21 -->
<g id="edge33" class="edge"><title>URN&#45;&gt;E21</title>
<path fill="none" stroke="powderblue" d="M432.001,-529.352C460.94,-515.224 504.783,-493.818 535.68,-478.733"/>
<polygon fill="powderblue" stroke="powderblue" points="544.823,-474.269 537.811,-482.7 540.33,-476.463 535.837,-478.656 535.837,-478.656 535.837,-478.656 540.33,-476.463 533.862,-474.613 544.823,-474.269 544.823,-474.269"/>
</g>
<!-- E01 -->
<g id="node15" class="node"><title>E01</title>
<a xlink:href="results_E01_2000.svg" xlink:title="E01\nCapacity: 1.69">
<polygon fill="darkseagreen" stroke="darkseagreen" points="764,-326 648,-326 648,-282 764,-282 764,-326"/>
<text text-anchor="middle" x="706" y="-309.4" font-family="Times Roman,serif" font-size="14.00">E01</text>
<text text-anchor="middle" x="706" y="-291.4" font-family="Times Roman,serif" font-size="14.00">Capacity: 1.69</text>
</a>
</g>
<!-- E01&#45;&gt;ELC -->
<g id="edge68" class="edge"><title>E01&#45;&gt;ELC</title>
<path fill="none" stroke="forestgreen" d="M764.127,-305.189C821.755,-306.368 901.5,-308 901.5,-308 901.5,-308 1162.66,-311.864 1265.8,-313.39"/>
<polygon fill="forestgreen" stroke="forestgreen" points="1275.85,-313.539 1265.79,-317.891 1270.85,-313.465 1265.86,-313.391 1265.86,-313.391 1265.86,-313.391 1270.85,-313.465 1265.92,-308.892 1275.85,-313.539 1275.85,-313.539"/>
<text text-anchor="middle" x="922" y="-313.4" font-family="Times Roman,serif" font-size="14.00">27.84</text>
</g>
<!-- E31 -->
<g id="node16" class="node"><title>E31</title>
<a xlink:href="results_E31_2000.svg" xlink:title="E31\nCapacity: 0.13">
<polygon fill="darkseagreen" stroke="darkseagreen" points="980,-385 864,-385 864,-341 980,-341 980,-385"/>
<text text-anchor="middle" x="922" y="-368.4" font-family="Times Roman,serif" font-size="14.00">E31</text>
<text text-anchor="middle" x="922" y="-350.4" font-family="Times Roman,serif" font-size="14.00">Capacity: 0.13</text>
</a>
</g>
<!-- E31&#45;&gt;ELC -->
<g id="edge70" class="edge"><title>E31&#45;&gt;ELC</title>
<path fill="none" stroke="forestgreen" d="M980.309,-361.023C1010.04,-360.016 1040,-359 1040,-359 1040,-359 1191.64,-333.443 1266.36,-320.849"/>
<polygon fill="forestgreen" stroke="forestgreen" points="1276.37,-319.162 1267.26,-325.262 1271.44,-319.993 1266.51,-320.824 1266.51,-320.824 1266.51,-320.824 1271.44,-319.993 1265.76,-316.387 1276.37,-319.162 1276.37,-319.162"/>
<text text-anchor="middle" x="1056" y="-364.4" font-family="Times Roman,serif" font-size="14.00">1.13</text>
</g>
<!-- E51 -->
<g id="node17" class="node"><title>E51</title>
<a xlink:href="results_E51_2000.svg" xlink:title="E51\nCapacity: 0.50">
<polygon fill="darkseagreen" stroke="darkseagreen" points="1537,-315 1421,-315 1421,-271 1537,-271 1537,-315"/>
<text text-anchor="middle" x="1479" y="-298.4" font-family="Times Roman,serif" font-size="14.00">E51</text>
<text text-anchor="middle" x="1479" y="-280.4" font-family="Times Roman,serif" font-size="14.00">Capacity: 0.50</text>
</a>
</g>
<!-- E51&#45;&gt;ELC -->
<g id="edge72" class="edge"><title>E51&#45;&gt;ELC</title>
<path fill="none" stroke="forestgreen" d="M1420.95,-300.087C1397.14,-302.994 1370.12,-306.294 1348.37,-308.95"/>
<polygon fill="forestgreen" stroke="forestgreen" points="1338.15,-310.197 1347.53,-304.518 1343.11,-309.591 1348.07,-308.985 1348.07,-308.985 1348.07,-308.985 1343.11,-309.591 1348.62,-313.452 1338.15,-310.197 1338.15,-310.197"/>
<text text-anchor="middle" x="1377" y="-312.4" font-family="Times Roman,serif" font-size="14.00">0.89</text>
</g>
<!-- E70 -->
<g id="node18" class="node"><title>E70</title>
<a xlink:href="results_E70_2000.svg" xlink:title="E70\nCapacity: 0.25">
<polygon fill="darkseagreen" stroke="darkseagreen" points="1114,-271 998,-271 998,-227 1114,-227 1114,-271"/>
<text text-anchor="middle" x="1056" y="-254.4" font-family="Times Roman,serif" font-size="14.00">E70</text>
<text text-anchor="middle" x="1056" y="-236.4" font-family="Times Roman,serif" font-size="14.00">Capacity: 0.25</text>
</a>
</g>
<!-- E70&#45;&gt;ELC -->
<g id="edge13" class="edge"><title>E70&#45;&gt;ELC</title>
<path fill="none" stroke="powderblue" d="M1114.22,-264.076C1161.18,-276.237 1225.98,-293.019 1267.19,-303.691"/>
<polygon fill="powderblue" stroke="powderblue" points="1276.88,-306.2 1266.07,-308.049 1272.04,-304.946 1267.2,-303.693 1267.2,-303.693 1267.2,-303.693 1272.04,-304.946 1268.33,-299.337 1276.88,-306.2 1276.88,-306.2"/>
</g>
<!-- IMPDSL1 -->
<g id="node19" class="node"><title>IMPDSL1</title>
<a xlink:href="results_IMPDSL1_2000.svg" xlink:title="IMPDSL1\nCapacity: 106.09">
<polygon fill="darkseagreen" stroke="darkseagreen" points="290,-233 156,-233 156,-189 290,-189 290,-233"/>
<text text-anchor="middle" x="223" y="-216.4" font-family="Times Roman,serif" font-size="14.00">IMPDSL1</text>
<text text-anchor="middle" x="223" y="-198.4" font-family="Times Roman,serif" font-size="14.00">Capacity: 106.09</text>
</a>
</g>
<!-- DSL -->
<g id="node30" class="node"><title>DSL</title>
<a xlink:href="../commodities/rc_DSL_2000.svg" xlink:title="DSL">
<ellipse fill="lightsteelblue" stroke="lightsteelblue" cx="814" cy="-155" rx="31.8198" ry="31.8198"/>
<text text-anchor="middle" x="814" y="-151.4" font-family="Times Roman,serif" font-size="14.00">DSL</text>
</a>
</g>
<!-- IMPDSL1&#45;&gt;DSL -->
<g id="edge74" class="edge"><title>IMPDSL1&#45;&gt;DSL</title>
<path fill="none" stroke="forestgreen" d="M290.01,-201.655C370.695,-190.404 495.5,-173 495.5,-173 495.5,-173 685.476,-162.264 771.985,-157.374"/>
<polygon fill="forestgreen" stroke="forestgreen" points="782.003,-156.808 772.273,-161.865 777.011,-157.09 772.019,-157.373 772.019,-157.373 772.019,-157.373 777.011,-157.09 771.765,-152.88 782.003,-156.808 782.003,-156.808"/>
<text text-anchor="middle" x="475" y="-160.4" font-family="Times Roman,serif" font-size="14.00">32.73</text>
</g>
<!-- co2 -->
<g id="node40" class="node"><title>co2</title>
<ellipse fill="lightsteelblue" stroke="lightsteelblue" cx="402" cy="-212" rx="28.9914" ry="28.9914"/>
<text text-anchor="middle" x="402" y="-208.4" font-family="Times Roman,serif" font-size="14.00">co2</text>
</g>
<!-- IMPDSL1&#45;&gt;co2 -->
<g id="edge76" class="edge"><title>IMPDSL1&#45;&gt;co2</title>
<path fill="none" stroke="forestgreen" d="M290.162,-211.375C314.603,-211.512 341.419,-211.662 362.664,-211.78"/>
<polygon fill="forestgreen" stroke="forestgreen" points="372.917,-211.838 362.892,-216.281 367.917,-211.81 362.917,-211.782 362.917,-211.782 362.917,-211.782 367.917,-211.81 362.942,-207.282 372.917,-211.838 372.917,-211.838"/>
<text text-anchor="middle" x="329" y="-217.4" font-family="Times Roman,serif" font-size="14.00">2.45</text>
</g>
<!-- IMPGSL1 -->
<g id="node20" class="node"><title>IMPGSL1</title>
<a xlink:href="results_IMPGSL1_2000.svg" xlink:title="IMPGSL1\nCapacity: 30.00">
<polygon fill="darkseagreen" stroke="darkseagreen" points="285,-167 161,-167 161,-123 285,-123 285,-167"/>
<text text-anchor="middle" x="223" y="-150.4" font-family="Times Roman,serif" font-size="14.00">IMPGSL1</text>
<text text-anchor="middle" x="223" y="-132.4" font-family="Times Roman,serif" font-size="14.00">Capacity: 30.00</text>
</a>
</g>
<!-- GSL -->
<g id="node32" class="node"><title>GSL</title>
<a xlink:href="../commodities/rc_GSL_2000.svg" xlink:title="GSL">
<ellipse fill="lightsteelblue" stroke="lightsteelblue" cx="814" cy="-67" rx="31.8198" ry="31.8198"/>
<text text-anchor="middle" x="814" y="-63.4" font-family="Times Roman,serif" font-size="14.00">GSL</text>
</a>
</g>
<!-- IMPGSL1&#45;&gt;GSL -->
<g id="edge78" class="edge"><title>IMPGSL1&#45;&gt;GSL</title>
<path fill="none" stroke="forestgreen" d="M285.647,-136.07C354.207,-126.297 454.5,-112 454.5,-112 454.5,-112 677.111,-84.135 771.984,-72.2593"/>
<polygon fill="forestgreen" stroke="forestgreen" points="782.097,-70.9934 772.733,-76.7007 777.135,-71.6145 772.174,-72.2356 772.174,-72.2356 772.174,-72.2356 777.135,-71.6145 771.615,-67.7704 782.097,-70.9934 782.097,-70.9934"/>
<text text-anchor="middle" x="475" y="-117.4" font-family="Times Roman,serif" font-size="14.00">26.15</text>
</g>
<!-- IMPGSL1&#45;&gt;co2 -->
<g id="edge80" class="edge"><title>IMPGSL1&#45;&gt;co2</title>
<path fill="none" stroke="forestgreen" d="M282.107,-167.124C309.495,-177.375 341.191,-189.239 365.113,-198.193"/>
<polygon fill="forestgreen" stroke="forestgreen" points="374.526,-201.716 363.583,-202.425 369.843,-199.964 365.16,-198.211 365.16,-198.211 365.16,-198.211 369.843,-199.964 366.738,-193.996 374.526,-201.716 374.526,-201.716"/>
<text text-anchor="middle" x="329" y="-195.4" font-family="Times Roman,serif" font-size="14.00">1.96</text>
</g>
<!-- IMPHCO1 -->
<g id="node21" class="node"><title>IMPHCO1</title>
<a xlink:href="results_IMPHCO1_2000.svg" xlink:title="IMPHCO1\nCapacity: 150.81">
<polygon fill="darkseagreen" stroke="darkseagreen" points="290,-302 156,-302 156,-258 290,-258 290,-302"/>
<text text-anchor="middle" x="223" y="-285.4" font-family="Times Roman,serif" font-size="14.00">IMPHCO1</text>
<text text-anchor="middle" x="223" y="-267.4" font-family="Times Roman,serif" font-size="14.00">Capacity: 150.81</text>
</a>
</g>
<!-- HCO -->
<g id="node33" class="node"><title>HCO</title>
<a xlink:href="../commodities/rc_HCO_2000.svg" xlink:title="HCO">
<ellipse fill="lightsteelblue" stroke="lightsteelblue" cx="402" cy="-293" rx="33.9411" ry="33.9411"/>
<text text-anchor="middle" x="402" y="-289.4" font-family="Times Roman,serif" font-size="14.00">HCO</text>
</a>
</g>
<!-- IMPHCO1&#45;&gt;HCO -->
<g id="edge82" class="edge"><title>IMPHCO1&#45;&gt;HCO</title>
<path fill="none" stroke="forestgreen" d="M290.162,-284.878C312.633,-286.51 337.111,-288.287 357.422,-289.763"/>
<polygon fill="forestgreen" stroke="forestgreen" points="367.631,-290.504 357.331,-294.268 362.644,-290.142 357.657,-289.779 357.657,-289.779 357.657,-289.779 362.644,-290.142 357.983,-285.291 367.631,-290.504 367.631,-290.504"/>
<text text-anchor="middle" x="329" y="-294.4" font-family="Times Roman,serif" font-size="14.00">87.00</text>
</g>
<!-- IMPHCO1&#45;&gt;co2 -->
<g id="edge84" class="edge"><title>IMPHCO1&#45;&gt;co2</title>
<path fill="none" stroke="forestgreen" d="M281.116,-257.922C308.751,-247.424 340.955,-235.19 365.173,-225.99"/>
<polygon fill="forestgreen" stroke="forestgreen" points="374.695,-222.373 366.945,-230.131 370.021,-224.148 365.347,-225.924 365.347,-225.924 365.347,-225.924 370.021,-224.148 363.749,-221.717 374.695,-222.373 374.695,-222.373"/>
<text text-anchor="middle" x="329" y="-251.4" font-family="Times Roman,serif" font-size="14.00">7.74</text>
</g>
<!-- IMPHYD -->
<g id="node22" class="node"><title>IMPHYD</title>
<a xlink:href="results_IMPHYD_2000.svg" xlink:title="IMPHYD\nCapacity: 3.52">
<polygon fill="darkseagreen" stroke="darkseagreen" points="281,-368 165,-368 165,-324 281,-324 281,-368"/>
<text text-anchor="middle" x="223" y="-351.4" font-family="Times Roman,serif" font-size="14.00">IMPHYD</text>
<text text-anchor="middle" x="223" y="-333.4" font-family="Times Roman,serif" font-size="14.00">Capacity: 3.52</text>
</a>
</g>
<!-- HYD -->
<g id="node34" class="node"><title>HYD</title>
<a xlink:href="../commodities/rc_HYD_2000.svg" xlink:title="HYD">
<ellipse fill="lightsteelblue" stroke="lightsteelblue" cx="402" cy="-378" rx="33.234" ry="33.234"/>
<text text-anchor="middle" x="402" y="-374.4" font-family="Times Roman,serif" font-size="14.00">HYD</text>
</a>
</g>
<!-- IMPHYD&#45;&gt;HYD -->
<g id="edge86" class="edge"><title>IMPHYD&#45;&gt;HYD</title>
<path fill="none" stroke="forestgreen" d="M281.116,-356.389C306.637,-360.952 336.057,-366.211 359.483,-370.399"/>
<polygon fill="forestgreen" stroke="forestgreen" points="369.457,-372.182 358.821,-374.852 364.535,-371.302 359.613,-370.422 359.613,-370.422 359.613,-370.422 364.535,-371.302 360.405,-365.993 369.457,-372.182 369.457,-372.182"/>
<text text-anchor="middle" x="329" y="-373.4" font-family="Times Roman,serif" font-size="14.00">3.52</text>
</g>
<!-- RHE -->
<g id="node23" class="node"><title>RHE</title>
<a xlink:href="results_RHE_2000.svg" xlink:title="RHE\nCapacity: 33.17">
<polygon fill="darkseagreen" stroke="darkseagreen" points="1541,-377 1417,-377 1417,-333 1541,-333 1541,-377"/>
<text text-anchor="middle" x="1479" y="-360.4" font-family="Times Roman,serif" font-size="14.00">RHE</text>
<text text-anchor="middle" x="1479" y="-342.4" font-family="Times Roman,serif" font-size="14.00">Capacity: 33.17</text>
</a>
</g>
<!-- RH -->
<g id="node35" class="node"><title>RH</title>
<a xlink:href="../commodities/rc_RH_2000.svg" xlink:title="RH">
<ellipse fill="lightsteelblue" stroke="lightsteelblue" cx="1646" cy="-283" rx="26.163" ry="26.163"/>
<text text-anchor="middle" x="1646" y="-279.4" font-family="Times Roman,serif" font-size="14.00">RH</text>
</a>
</g>
<!-- RHE&#45;&gt;RH -->
<g id="edge88" class="edge"><title>RHE&#45;&gt;RH</title>
<path fill="none" stroke="forestgreen" d="M1530.47,-332.81C1557.25,-321.262 1589.22,-307.479 1612.73,-297.342"/>
<polygon fill="forestgreen" stroke="forestgreen" points="1621.94,-293.375 1614.53,-301.467 1617.34,-295.355 1612.75,-297.334 1612.75,-297.334 1612.75,-297.334 1617.34,-295.355 1610.97,-293.202 1621.94,-293.375 1621.94,-293.375"/>
<text text-anchor="middle" x="1581" y="-324.4" font-family="Times Roman,serif" font-size="14.00">20.22</text>
</g>
<!-- RHO -->
<g id="node24" class="node"><title>RHO</title>
<a xlink:href="results_RHO_2000.svg" xlink:title="RHO\nCapacity: 28.83">
<polygon fill="darkseagreen" stroke="darkseagreen" points="1257,-211 1133,-211 1133,-167 1257,-167 1257,-211"/>
<text text-anchor="middle" x="1195" y="-194.4" font-family="Times Roman,serif" font-size="14.00">RHO</text>
<text text-anchor="middle" x="1195" y="-176.4" font-family="Times Roman,serif" font-size="14.00">Capacity: 28.83</text>
</a>
</g>
<!-- RHO&#45;&gt;RH -->
<g id="edge90" class="edge"><title>RHO&#45;&gt;RH</title>
<path fill="none" stroke="forestgreen" d="M1257.69,-194.572C1317.16,-199.858 1397.5,-207 1397.5,-207 1397.5,-207 1542.37,-251.307 1610.89,-272.261"/>
<polygon fill="forestgreen" stroke="forestgreen" points="1620.8,-275.294 1609.93,-276.673 1616.02,-273.832 1611.24,-272.37 1611.24,-272.37 1611.24,-272.37 1616.02,-273.832 1612.56,-268.067 1620.8,-275.294 1620.8,-275.294"/>
<text text-anchor="middle" x="1377" y="-194.4" font-family="Times Roman,serif" font-size="14.00">17.58</text>
</g>
<!-- RL1 -->
<g id="node25" class="node"><title>RL1</title>
<a xlink:href="results_RL1_2000.svg" xlink:title="RL1\nCapacity: 12.60">
<polygon fill="darkseagreen" stroke="darkseagreen" points="1541,-439 1417,-439 1417,-395 1541,-395 1541,-439"/>
<text text-anchor="middle" x="1479" y="-422.4" font-family="Times Roman,serif" font-size="14.00">RL1</text>
<text text-anchor="middle" x="1479" y="-404.4" font-family="Times Roman,serif" font-size="14.00">Capacity: 12.60</text>
</a>
</g>
<!-- RL -->
<g id="node36" class="node"><title>RL</title>
<a xlink:href="../commodities/rc_RL_2000.svg" xlink:title="RL">
<ellipse fill="lightsteelblue" stroke="lightsteelblue" cx="1646" cy="-417" rx="24.2437" ry="24.7487"/>
<text text-anchor="middle" x="1646" y="-413.4" font-family="Times Roman,serif" font-size="14.00">RL</text>
</a>
</g>
<!-- RL1&#45;&gt;RL -->
<g id="edge92" class="edge"><title>RL1&#45;&gt;RL</title>
<path fill="none" stroke="forestgreen" d="M1541.66,-417C1565.2,-417 1591.09,-417 1611.2,-417"/>
<polygon fill="forestgreen" stroke="forestgreen" points="1621.43,-417 1611.43,-421.5 1616.43,-417 1611.43,-417 1611.43,-417 1611.43,-417 1616.43,-417 1611.43,-412.5 1621.43,-417 1621.43,-417"/>
<text text-anchor="middle" x="1581" y="-422.4" font-family="Times Roman,serif" font-size="14.00">8.40</text>
</g>
<!-- SRE&#45;&gt;DSL -->
<g id="edge27" class="edge"><title>SRE&#45;&gt;DSL</title>
<path fill="none" stroke="powderblue" d="M629.351,-84.0397C674.062,-101.222 734.983,-124.634 774.404,-139.784"/>
<polygon fill="powderblue" stroke="powderblue" points="783.941,-143.448 772.992,-144.062 779.274,-141.655 774.606,-139.861 774.606,-139.861 774.606,-139.861 779.274,-141.655 776.221,-135.661 783.941,-143.448 783.941,-143.448"/>
</g>
<!-- SRE&#45;&gt;GSL -->
<g id="edge29" class="edge"><title>SRE&#45;&gt;GSL</title>
<path fill="none" stroke="powderblue" d="M630.273,-63.204C673.924,-64.1059 732.629,-65.3188 771.815,-66.1284"/>
<polygon fill="powderblue" stroke="powderblue" points="781.827,-66.3353 771.736,-70.6276 776.828,-66.2319 771.829,-66.1286 771.829,-66.1286 771.829,-66.1286 776.828,-66.2319 771.922,-61.6296 781.827,-66.3353 781.827,-66.3353"/>
</g>
<!-- TXD -->
<g id="node27" class="node"><title>TXD</title>
<a xlink:href="results_TXD_2000.svg" xlink:title="TXD\nCapacity: 1.76">
<polygon fill="darkseagreen" stroke="darkseagreen" points="1114,-161 998,-161 998,-117 1114,-117 1114,-161"/>
<text text-anchor="middle" x="1056" y="-144.4" font-family="Times Roman,serif" font-size="14.00">TXD</text>
<text text-anchor="middle" x="1056" y="-126.4" font-family="Times Roman,serif" font-size="14.00">Capacity: 1.76</text>
</a>
</g>
<!-- TXD&#45;&gt;TX -->
<g id="edge94" class="edge"><title>TXD&#45;&gt;TX</title>
<path fill="none" stroke="forestgreen" d="M1114.09,-140.714C1202.58,-143.325 1361,-148 1361,-148 1361,-148 1533.86,-148 1610.33,-148"/>
<polygon fill="forestgreen" stroke="forestgreen" points="1620.46,-148 1610.46,-152.5 1615.46,-148 1610.46,-148 1610.46,-148 1610.46,-148 1615.46,-148 1610.46,-143.5 1620.46,-148 1620.46,-148"/>
<text text-anchor="middle" x="1377" y="-153.4" font-family="Times Roman,serif" font-size="14.00">1.76</text>
</g>
<!-- nox -->
<g id="node41" class="node"><title>nox</title>
<ellipse fill="lightsteelblue" stroke="lightsteelblue" cx="1307" cy="-91" rx="28.9914" ry="28.9914"/>
<text text-anchor="middle" x="1307" y="-87.4" font-family="Times Roman,serif" font-size="14.00">nox</text>
</g>
<!-- TXD&#45;&gt;nox -->
<g id="edge96" class="edge"><title>TXD&#45;&gt;nox</title>
<path fill="none" stroke="forestgreen" d="M1114.22,-127.867C1161.61,-118.804 1227.18,-106.264 1268.33,-98.3953"/>
<polygon fill="forestgreen" stroke="forestgreen" points="1278.24,-96.5004 1269.26,-102.799 1273.33,-97.4396 1268.42,-98.3788 1268.42,-98.3788 1268.42,-98.3788 1273.33,-97.4396 1267.57,-93.9588 1278.24,-96.5004 1278.24,-96.5004"/>
<text text-anchor="middle" x="1195" y="-121.4" font-family="Times Roman,serif" font-size="14.00">1.76</text>
</g>
<!-- TXG -->
<g id="node28" class="node"><title>TXG</title>
<a xlink:href="results_TXG_2000.svg" xlink:title="TXG\nCapacity: 6.04">
<polygon fill="darkseagreen" stroke="darkseagreen" points="1114,-89 998,-89 998,-45 1114,-45 1114,-89"/>
<text text-anchor="middle" x="1056" y="-72.4" font-family="Times Roman,serif" font-size="14.00">TXG</text>
<text text-anchor="middle" x="1056" y="-54.4" font-family="Times Roman,serif" font-size="14.00">Capacity: 6.04</text>
</a>
</g>
<!-- TXG&#45;&gt;TX -->
<g id="edge98" class="edge"><title>TXG&#45;&gt;TX</title>
<path fill="none" stroke="forestgreen" d="M1114.32,-64.4043C1210.77,-60.1111 1393,-52 1393,-52 1393,-52 1544,-109.296 1612.69,-135.36"/>
<polygon fill="forestgreen" stroke="forestgreen" points="1622.2,-138.969 1611.25,-139.628 1617.52,-137.195 1612.85,-135.421 1612.85,-135.421 1612.85,-135.421 1617.52,-137.195 1614.45,-131.214 1622.2,-138.969 1622.2,-138.969"/>
<text text-anchor="middle" x="1377" y="-39.4" font-family="Times Roman,serif" font-size="14.00">6.04</text>
</g>
<!-- TXG&#45;&gt;nox -->
<g id="edge100" class="edge"><title>TXG&#45;&gt;nox</title>
<path fill="none" stroke="forestgreen" d="M1114.22,-72.5664C1161.38,-77.0758 1226.54,-83.3062 1267.72,-87.244"/>
<polygon fill="forestgreen" stroke="forestgreen" points="1277.9,-88.2176 1267.52,-91.7452 1272.92,-87.7416 1267.95,-87.2657 1267.95,-87.2657 1267.95,-87.2657 1272.92,-87.7416 1268.37,-82.7861 1277.9,-88.2176 1277.9,-88.2176"/>
<text text-anchor="middle" x="1195" y="-78.4" font-family="Times Roman,serif" font-size="14.00">6.04</text>
</g>
<!-- DSL&#45;&gt;E70 -->
<g id="edge9" class="edge"><title>DSL&#45;&gt;E70</title>
<path fill="none" stroke="powderblue" d="M844.16,-166.715C880.314,-180.758 941.966,-204.706 989.466,-223.156"/>
<polygon fill="powderblue" stroke="powderblue" points="999.069,-226.886 988.119,-227.46 994.409,-225.076 989.748,-223.266 989.748,-223.266 989.748,-223.266 994.409,-225.076 991.377,-219.071 999.069,-226.886 999.069,-226.886"/>
</g>
<!-- DSL&#45;&gt;RHO -->
<g id="edge43" class="edge"><title>DSL&#45;&gt;RHO</title>
<path fill="none" stroke="firebrick" d="M844.113,-166.701C869.423,-176.536 901.5,-189 901.5,-189 901.5,-189 1035.39,-189 1122.3,-189"/>
<polygon fill="firebrick" stroke="firebrick" points="1132.4,-189 1122.4,-193.5 1127.4,-189 1122.4,-189 1122.4,-189 1122.4,-189 1127.4,-189 1122.4,-184.5 1132.4,-189 1132.4,-189"/>
<text text-anchor="middle" x="922" y="-194.4" font-family="Times Roman,serif" font-size="14.00">25.11</text>
</g>
<!-- DSL&#45;&gt;TXD -->
<g id="edge45" class="edge"><title>DSL&#45;&gt;TXD</title>
<path fill="none" stroke="firebrick" d="M846.136,-152.875C882.071,-150.499 941.31,-146.583 987.703,-143.516"/>
<polygon fill="firebrick" stroke="firebrick" points="997.693,-142.855 988.012,-148.005 992.704,-143.185 987.715,-143.515 987.715,-143.515 987.715,-143.515 992.704,-143.185 987.418,-139.025 997.693,-142.855 997.693,-142.855"/>
<text text-anchor="middle" x="922" y="-154.4" font-family="Times Roman,serif" font-size="14.00">7.62</text>
</g>
<!-- ELC&#45;&gt;TXE -->
<g id="edge15" class="edge"><title>ELC&#45;&gt;TXE</title>
<path fill="none" stroke="powderblue" d="M1335.4,-300.955C1364.72,-287.491 1410.55,-266.438 1442.53,-251.751"/>
<polygon fill="powderblue" stroke="powderblue" points="1451.97,-247.413 1444.77,-255.676 1447.43,-249.5 1442.89,-251.587 1442.89,-251.587 1442.89,-251.587 1447.43,-249.5 1441.01,-247.498 1451.97,-247.413 1451.97,-247.413"/>
</g>
<!-- ELC&#45;&gt;E51 -->
<g id="edge47" class="edge"><title>ELC&#45;&gt;E51</title>
<path fill="none" stroke="firebrick" d="M1338.15,-310.197C1358.4,-307.725 1385.61,-304.402 1410.72,-301.337"/>
<polygon fill="firebrick" stroke="firebrick" points="1420.95,-300.087 1411.57,-305.766 1415.99,-300.693 1411.03,-301.299 1411.03,-301.299 1411.03,-301.299 1415.99,-300.693 1410.48,-296.832 1420.95,-300.087 1420.95,-300.087"/>
<text text-anchor="middle" x="1377" y="-279.4" font-family="Times Roman,serif" font-size="14.00">1.24</text>
</g>
<!-- ELC&#45;&gt;RHE -->
<g id="edge49" class="edge"><title>ELC&#45;&gt;RHE</title>
<path fill="none" stroke="firebrick" d="M1337.35,-321.236C1356.51,-325.802 1382.12,-331.907 1406.3,-337.67"/>
<polygon fill="firebrick" stroke="firebrick" points="1416.19,-340.027 1405.42,-342.086 1411.32,-338.868 1406.46,-337.708 1406.46,-337.708 1406.46,-337.708 1411.32,-338.868 1407.5,-333.331 1416.19,-340.027 1416.19,-340.027"/>
<text text-anchor="middle" x="1377" y="-342.4" font-family="Times Roman,serif" font-size="14.00">20.22</text>
</g>
<!-- ELC&#45;&gt;RL1 -->
<g id="edge51" class="edge"><title>ELC&#45;&gt;RL1</title>
<path fill="none" stroke="firebrick" d="M1333.88,-330.094C1360.47,-346.023 1401.7,-370.71 1433.43,-389.708"/>
<polygon fill="firebrick" stroke="firebrick" points="1442.1,-394.904 1431.21,-393.627 1437.81,-392.335 1433.52,-389.766 1433.52,-389.766 1433.52,-389.766 1437.81,-392.335 1435.83,-385.906 1442.1,-394.904 1442.1,-394.904"/>
<text text-anchor="middle" x="1377" y="-382.4" font-family="Times Roman,serif" font-size="14.00">8.40</text>
</g>
<!-- GSL&#45;&gt;TXG -->
<g id="edge53" class="edge"><title>GSL&#45;&gt;TXG</title>
<path fill="none" stroke="firebrick" d="M846.136,-67C881.995,-67 941.062,-67 987.411,-67"/>
<polygon fill="firebrick" stroke="firebrick" points="997.693,-67 987.693,-71.5001 992.693,-67 987.693,-67.0001 987.693,-67.0001 987.693,-67.0001 992.693,-67 987.693,-62.5001 997.693,-67 997.693,-67"/>
<text text-anchor="middle" x="922" y="-72.4" font-family="Times Roman,serif" font-size="14.00">26.15</text>
</g>
<!-- HCO&#45;&gt;E01 -->
<g id="edge55" class="edge"><title>HCO&#45;&gt;E01</title>
<path fill="none" stroke="firebrick" d="M436.138,-295.601C446.165,-296.365 454.5,-297 454.5,-297 454.5,-297 563.241,-300.027 637.718,-302.1"/>
<polygon fill="firebrick" stroke="firebrick" points="647.985,-302.385 637.864,-306.605 642.987,-302.246 637.989,-302.107 637.989,-302.107 637.989,-302.107 642.987,-302.246 638.114,-297.609 647.985,-302.385 647.985,-302.385"/>
<text text-anchor="middle" x="475" y="-302.4" font-family="Times Roman,serif" font-size="14.00">87.00</text>
</g>
<!-- HYD&#45;&gt;E31 -->
<g id="edge57" class="edge"><title>HYD&#45;&gt;E31</title>
<path fill="none" stroke="firebrick" d="M435.037,-375.426C480.287,-371.9 556,-366 556,-366 556,-366 747.316,-364.432 853.307,-363.563"/>
<polygon fill="firebrick" stroke="firebrick" points="863.602,-363.479 853.639,-368.061 858.602,-363.52 853.602,-363.561 853.602,-363.561 853.602,-363.561 858.602,-363.52 853.565,-359.061 863.602,-363.479 863.602,-363.479"/>
<text text-anchor="middle" x="572" y="-371.4" font-family="Times Roman,serif" font-size="14.00">3.52</text>
</g>
<!-- ethos -->
<g id="node38" class="node"><title>ethos</title>
<a xlink:href="../commodities/rc_ethos_2000.svg" xlink:title="ethos">
<ellipse fill="lightsteelblue" stroke="lightsteelblue" cx="39" cy="-280" rx="38.8909" ry="38.8909"/>
<text text-anchor="middle" x="39" y="-276.4" font-family="Times Roman,serif" font-size="14.00">ethos</text>
</a>
</g>
<!-- ethos&#45;&gt;IMPFEQ -->
<g id="edge35" class="edge"><title>ethos&#45;&gt;IMPFEQ</title>
<path fill="none" stroke="powderblue" d="M71.472,-302.236C104.146,-324.611 154.374,-359.006 187.939,-381.991"/>
<polygon fill="powderblue" stroke="powderblue" points="196.514,-387.863 185.721,-385.926 192.389,-385.038 188.263,-382.213 188.263,-382.213 188.263,-382.213 192.389,-385.038 190.806,-378.5 196.514,-387.863 196.514,-387.863"/>
</g>
<!-- ethos&#45;&gt;IMPOIL1 -->
<g id="edge37" class="edge"><title>ethos&#45;&gt;IMPOIL1</title>
<path fill="none" stroke="powderblue" d="M64.9725,-250.499C101.041,-209.529 165.727,-136.055 200.088,-97.0246"/>
<polygon fill="powderblue" stroke="powderblue" points="206.939,-89.243 203.709,-99.7223 203.635,-92.9958 200.331,-96.7487 200.331,-96.7487 200.331,-96.7487 203.635,-92.9958 196.954,-93.7751 206.939,-89.243 206.939,-89.243"/>
</g>
<!-- ethos&#45;&gt;IMPURN1 -->
<g id="edge39" class="edge"><title>ethos&#45;&gt;IMPURN1</title>
<path fill="none" stroke="powderblue" d="M65.7552,-308.791C101.674,-347.442 164.928,-415.51 199.245,-452.437"/>
<polygon fill="powderblue" stroke="powderblue" points="206.108,-459.823 196.004,-455.561 202.704,-456.16 199.301,-452.497 199.301,-452.497 199.301,-452.497 202.704,-456.16 202.597,-449.434 206.108,-459.823 206.108,-459.823"/>
</g>
<!-- ethos&#45;&gt;IMPDSL1 -->
<g id="edge59" class="edge"><title>ethos&#45;&gt;IMPDSL1</title>
<path fill="none" stroke="firebrick" d="M75.7929,-266.203C98.3033,-257.761 127.811,-246.696 154.493,-236.69"/>
<polygon fill="firebrick" stroke="firebrick" points="164.177,-233.058 156.394,-240.783 159.496,-234.814 154.814,-236.57 154.814,-236.57 154.814,-236.57 159.496,-234.814 153.234,-232.356 164.177,-233.058 164.177,-233.058"/>
<text text-anchor="middle" x="117" y="-263.4" font-family="Times Roman,serif" font-size="14.00">32.73</text>
</g>
<!-- ethos&#45;&gt;IMPGSL1 -->
<g id="edge61" class="edge"><title>ethos&#45;&gt;IMPGSL1</title>
<path fill="none" stroke="firebrick" d="M70.6307,-256.793C102.268,-233.58 150.959,-197.856 184.75,-173.064"/>
<polygon fill="firebrick" stroke="firebrick" points="193,-167.011 187.6,-176.554 188.969,-169.968 184.938,-172.926 184.938,-172.926 184.938,-172.926 188.969,-169.968 182.276,-169.298 193,-167.011 193,-167.011"/>
<text text-anchor="middle" x="117" y="-226.4" font-family="Times Roman,serif" font-size="14.00">26.15</text>
</g>
<!-- ethos&#45;&gt;IMPHCO1 -->
<g id="edge63" class="edge"><title>ethos&#45;&gt;IMPHCO1</title>
<path fill="none" stroke="firebrick" d="M78.0217,-280C97.6867,-280 122.251,-280 145.539,-280"/>
<polygon fill="firebrick" stroke="firebrick" points="155.774,-280 145.774,-284.5 150.774,-280 145.774,-280 145.774,-280 145.774,-280 150.774,-280 145.774,-275.5 155.774,-280 155.774,-280"/>
<text text-anchor="middle" x="117" y="-285.4" font-family="Times Roman,serif" font-size="14.00">87.00</text>
</g>
<!-- ethos&#45;&gt;IMPHYD -->
<g id="edge65" class="edge"><title>ethos&#45;&gt;IMPHYD</title>
<path fill="none" stroke="firebrick" d="M75.7929,-293.197C98.4901,-301.339 128.301,-312.032 155.157,-321.665"/>
<polygon fill="firebrick" stroke="firebrick" points="164.899,-325.159 153.967,-326.019 160.192,-323.471 155.486,-321.783 155.486,-321.783 155.486,-321.783 160.192,-323.471 157.005,-317.547 164.899,-325.159 164.899,-325.159"/>
<text text-anchor="middle" x="117" y="-321.4" font-family="Times Roman,serif" font-size="14.00">3.52</text>
</g>
</g>
</svg>
