<?xml version="1.0" encoding="UTF-8" standalone="no"?>
<!DOCTYPE svg PUBLIC "-//W3C//DTD SVG 1.1//EN"
 "http://www.w3.org/Graphics/SVG/1.1/DTD/svg11.dtd">
<!-- Generated by graphviz version 2.26.3 (20100126.1600)
 -->
<!-- Title: model Pages: 1 -->
<svg width="387pt" height="154pt"
 viewBox="0.00 0.00 387.00 154.00" xmlns="http://www.w3.org/2000/svg" xmlns:xlink="http://www.w3.org/1999/xlink">
<g id="graph1" class="graph" transform="scale(1 1) rotate(0) translate(4 150)">
<title>model</title>
<polygon fill="white" stroke="white" points="-4,5 -4,-150 384,-150 384,5 -4,5"/>
<text text-anchor="middle" x="189.5" y="-9.4" font-family="Times Roman,serif" font-size="14.00">Results for RHE in 2010</text>
<g id="graph2" class="cluster"><title>cluster_vintages</title>
<a xlink:href="results2010.svg" xlink:title="Vintages\nCapacity: 33.17">
<polygon fill="lightgrey" stroke="lightgrey" points="132,-34 132,-138 257,-138 257,-34 132,-34"/>
<text text-anchor="middle" x="194.5" y="-121.4" font-family="Times Roman,serif" font-size="14.00">Vintages</text>
<text text-anchor="middle" x="194.5" y="-103.4" font-family="Times Roman,serif" font-size="14.00">Capacity: 33.17</text>
</a>
</g>
<!-- 2000 -->
<g id="node2" class="node"><title>2000</title>
<a xlink:href="results_RHE_p2010v2000_segments.svg" xlink:title="2000\nCap: 33.17">
<polygon fill="white" stroke="white" points="240,-86 148,-86 148,-42 240,-42 240,-86"/>
<text text-anchor="middle" x="194" y="-69.4" font-family="Times Roman,serif" font-size="14.00">2000</text>
<text text-anchor="middle" x="194" y="-51.4" font-family="Times Roman,serif" font-size="14.00">Cap: 33.17</text>
</a>
</g>
<!-- RH -->
<g id="node5" class="node"><title>RH</title>
<a xlink:href="../commodities/rc_RH_2010.svg" xlink:title="RH">
<ellipse fill="lightsteelblue" stroke="lightsteelblue" cx="353" cy="-64" rx="26.163" ry="26.163"/>
<text text-anchor="middle" x="353" y="-60.4" font-family="Times Roman,serif" font-size="14.00">RH</text>
</a>
</g>
<!-- 2000&#45;&gt;RH -->
<g id="edge8" class="edge"><title>2000&#45;&gt;RH</title>
<path fill="none" stroke="forestgreen" d="M240.417,-64C264.631,-64 293.828,-64 316.421,-64"/>
<polygon fill="forestgreen" stroke="forestgreen" points="326.612,-64 316.612,-68.5001 321.612,-64 316.612,-64.0001 316.612,-64.0001 316.612,-64.0001 321.612,-64 316.612,-59.5001 326.612,-64 326.612,-64"/>
<text text-anchor="middle" x="288" y="-69.4" font-family="Times Roman,serif" font-size="14.00">20.22</text>
</g>
<!-- ELC -->
<g id="node4" class="node"><title>ELC</title>
<a xlink:href="../commodities/rc_ELC_2010.svg" xlink:title="ELC">
<ellipse fill="lightsteelblue" stroke="lightsteelblue" cx="31" cy="-64" rx="31.1127" ry="31.1127"/>
<text text-anchor="middle" x="31" y="-60.4" font-family="Times Roman,serif" font-size="14.00">ELC</text>
</a>
</g>
<!-- ELC&#45;&gt;2000 -->
<g id="edge5" class="edge"><title>ELC&#45;&gt;2000</title>
<path fill="none" stroke="firebrick" d="M62.0427,-64C83.394,-64 112.363,-64 137.719,-64"/>
<polygon fill="firebrick" stroke="firebrick" points="147.964,-64 137.964,-68.5001 142.964,-64 137.964,-64.0001 137.964,-64.0001 137.964,-64.0001 142.964,-64 137.964,-59.5001 147.964,-64 147.964,-64"/>
<text text-anchor="middle" x="101" y="-69.4" font-family="Times Roman,serif" font-size="14.00">20.22</text>
</g>
</g>
</svg>
