<?xml version="1.0" encoding="UTF-8" standalone="no"?>
<!DOCTYPE svg PUBLIC "-//W3C//DTD SVG 1.1//EN"
 "http://www.w3.org/Graphics/SVG/1.1/DTD/svg11.dtd">
<!-- Generated by graphviz version 2.26.3 (20100126.1600)
 -->
<!-- Title: model Pages: 1 -->
<svg width="396pt" height="398pt"
 viewBox="0.00 0.00 396.00 398.00" xmlns="http://www.w3.org/2000/svg" xmlns:xlink="http://www.w3.org/1999/xlink">
<g id="graph1" class="graph" transform="scale(1 1) rotate(0) translate(4 394)">
<title>model</title>
<polygon fill="white" stroke="white" points="-4,5 -4,-394 393,-394 393,5 -4,5"/>
<text text-anchor="middle" x="194" y="-9.4" font-family="Times Roman,serif" font-size="14.00">Activity split of process RL1, 1990 in year 1990</text>
<g id="graph2" class="cluster"><title>cluster_slices</title>
<polygon fill="lightgrey" stroke="lightgrey" points="122,-34 122,-382 278,-382 278,-34 122,-34"/>
<text text-anchor="middle" x="200" y="-365.4" font-family="Times Roman,serif" font-size="14.00">1990 Capacity: 8.40</text>
</g>
<!-- inter, day -->
<g id="node2" class="node"><title>inter, day</title>
<polygon fill="white" stroke="white" points="241,-348 159,-348 159,-312 241,-312 241,-348"/>
<text text-anchor="middle" x="200" y="-326.4" font-family="Times Roman,serif" font-size="14.00">inter, day</text>
</g>
<!-- RL -->
<g id="node10" class="node"><title>RL</title>
<a xlink:href="../commodities/rc_RL_1990.svg" xlink:title="RL">
<ellipse fill="lightsteelblue" stroke="lightsteelblue" cx="363" cy="-194" rx="24.2437" ry="24.7487"/>
<text text-anchor="middle" x="363" y="-190.4" font-family="Times Roman,serif" font-size="14.00">RL</text>
</a>
</g>
<!-- inter, day&#45;&gt;RL -->
<g id="edge18" class="edge"><title>inter, day&#45;&gt;RL</title>
<path fill="none" stroke="forestgreen" d="M221.645,-311.94C251.218,-287.266 304.223,-243.041 336.248,-216.321"/>
<polygon fill="forestgreen" stroke="forestgreen" points="344.299,-209.603 339.504,-219.465 340.46,-212.806 336.621,-216.01 336.621,-216.01 336.621,-216.01 340.46,-212.806 333.738,-212.554 344.299,-209.603 344.299,-209.603"/>
<text text-anchor="middle" x="304" y="-299.4" font-family="Times Roman,serif" font-size="14.00">0.28</text>
</g>
<!-- inter, night -->
<g id="node3" class="node"><title>inter, night</title>
<polygon fill="white" stroke="white" points="247,-294 153,-294 153,-258 247,-258 247,-294"/>
<text text-anchor="middle" x="200" y="-272.4" font-family="Times Roman,serif" font-size="14.00">inter, night</text>
</g>
<!-- inter, night&#45;&gt;RL -->
<g id="edge20" class="edge"><title>inter, night&#45;&gt;RL</title>
<path fill="none" stroke="forestgreen" d="M236.175,-257.802C264.869,-243.367 304.552,-223.403 331.848,-209.671"/>
<polygon fill="forestgreen" stroke="forestgreen" points="340.948,-205.094 334.037,-213.608 336.482,-207.341 332.015,-209.588 332.015,-209.588 332.015,-209.588 336.482,-207.341 329.993,-205.568 340.948,-205.094 340.948,-205.094"/>
<text text-anchor="middle" x="304" y="-250.4" font-family="Times Roman,serif" font-size="14.00">0.09</text>
</g>
<!-- summer, day -->
<g id="node4" class="node"><title>summer, day</title>
<polygon fill="white" stroke="white" points="253,-240 147,-240 147,-204 253,-204 253,-240"/>
<text text-anchor="middle" x="200" y="-218.4" font-family="Times Roman,serif" font-size="14.00">summer, day</text>
</g>
<!-- summer, day&#45;&gt;RL -->
<g id="edge22" class="edge"><title>summer, day&#45;&gt;RL</title>
<path fill="none" stroke="forestgreen" d="M253.372,-212.832C278.107,-208.583 306.782,-203.657 328.6,-199.909"/>
<polygon fill="forestgreen" stroke="forestgreen" points="338.713,-198.172 329.619,-204.3 333.785,-199.019 328.857,-199.865 328.857,-199.865 328.857,-199.865 333.785,-199.019 328.095,-195.43 338.713,-198.172 338.713,-198.172"/>
<text text-anchor="middle" x="304" y="-212.4" font-family="Times Roman,serif" font-size="14.00">0.28</text>
</g>
<!-- summer, night -->
<g id="node5" class="node"><title>summer, night</title>
<polygon fill="white" stroke="white" points="258,-186 142,-186 142,-150 258,-150 258,-186"/>
<text text-anchor="middle" x="200" y="-164.4" font-family="Times Roman,serif" font-size="14.00">summer, night</text>
</g>
<!-- summer, night&#45;&gt;RL -->
<g id="edge24" class="edge"><title>summer, night&#45;&gt;RL</title>
<path fill="none" stroke="forestgreen" d="M258.847,-177.387C282.298,-181.127 308.468,-185.302 328.709,-188.53"/>
<polygon fill="forestgreen" stroke="forestgreen" points="338.707,-190.125 328.123,-192.994 333.77,-189.337 328.832,-188.55 328.832,-188.55 328.832,-188.55 333.77,-189.337 329.541,-184.106 338.707,-190.125 338.707,-190.125"/>
<text text-anchor="middle" x="304" y="-183.4" font-family="Times Roman,serif" font-size="14.00">0.09</text>
</g>
<!-- winter, day -->
<g id="node6" class="node"><title>winter, day</title>
<polygon fill="white" stroke="white" points="248,-132 152,-132 152,-96 248,-96 248,-132"/>
<text text-anchor="middle" x="200" y="-110.4" font-family="Times Roman,serif" font-size="14.00">winter, day</text>
</g>
<!-- winter, day&#45;&gt;RL -->
<g id="edge26" class="edge"><title>winter, day&#45;&gt;RL</title>
<path fill="none" stroke="forestgreen" d="M236.987,-132.153C265.555,-146.174 304.648,-165.361 331.682,-178.629"/>
<polygon fill="forestgreen" stroke="forestgreen" points="340.704,-183.057 329.744,-182.691 336.215,-180.854 331.727,-178.651 331.727,-178.651 331.727,-178.651 336.215,-180.854 333.71,-174.611 340.704,-183.057 340.704,-183.057"/>
<text text-anchor="middle" x="304" y="-159.4" font-family="Times Roman,serif" font-size="14.00">0.93</text>
</g>
<!-- winter, night -->
<g id="node7" class="node"><title>winter, night</title>
<polygon fill="white" stroke="white" points="253,-78 147,-78 147,-42 253,-42 253,-78"/>
<text text-anchor="middle" x="200" y="-56.4" font-family="Times Roman,serif" font-size="14.00">winter, night</text>
</g>
<!-- winter, night&#45;&gt;RL -->
<g id="edge28" class="edge"><title>winter, night&#45;&gt;RL</title>
<path fill="none" stroke="forestgreen" d="M221.983,-78.0718C251.498,-102.336 303.911,-145.424 335.853,-171.683"/>
<polygon fill="forestgreen" stroke="forestgreen" points="343.895,-178.294 333.313,-175.42 340.033,-175.119 336.17,-171.944 336.17,-171.944 336.17,-171.944 340.033,-175.119 339.028,-168.468 343.895,-178.294 343.895,-178.294"/>
<text text-anchor="middle" x="304" y="-128.4" font-family="Times Roman,serif" font-size="14.00">0.19</text>
</g>
<!-- ELC -->
<g id="node9" class="node"><title>ELC</title>
<a xlink:href="../commodities/rc_ELC_1990.svg" xlink:title="ELC">
<ellipse fill="lightsteelblue" stroke="lightsteelblue" cx="31" cy="-194" rx="31.1127" ry="31.1127"/>
<text text-anchor="middle" x="31" y="-190.4" font-family="Times Roman,serif" font-size="14.00">ELC</text>
</a>
</g>
<!-- ELC&#45;&gt;inter, day -->
<g id="edge5" class="edge"><title>ELC&#45;&gt;inter, day</title>
<path fill="none" stroke="firebrick" d="M55.2136,-213.485C85.3354,-237.726 136.783,-279.127 169.548,-305.495"/>
<polygon fill="firebrick" stroke="firebrick" points="177.452,-311.855 166.84,-309.091 173.556,-308.72 169.661,-305.585 169.661,-305.585 169.661,-305.585 173.556,-308.72 172.482,-302.079 177.452,-311.855 177.452,-311.855"/>
<text text-anchor="middle" x="96" y="-299.4" font-family="Times Roman,serif" font-size="14.00">0.28</text>
</g>
<!-- ELC&#45;&gt;inter, night -->
<g id="edge7" class="edge"><title>ELC&#45;&gt;inter, night</title>
<path fill="none" stroke="firebrick" d="M58.9069,-207.541C84.6505,-220.032 123.364,-238.816 153.731,-253.55"/>
<polygon fill="firebrick" stroke="firebrick" points="162.863,-257.981 151.902,-257.664 158.365,-255.798 153.866,-253.616 153.866,-253.616 153.866,-253.616 158.365,-255.798 155.831,-249.567 162.863,-257.981 162.863,-257.981"/>
<text text-anchor="middle" x="96" y="-250.4" font-family="Times Roman,serif" font-size="14.00">0.09</text>
</g>
<!-- ELC&#45;&gt;summer, day -->
<g id="edge9" class="edge"><title>ELC&#45;&gt;summer, day</title>
<path fill="none" stroke="firebrick" d="M61.6046,-199.071C82.5138,-202.535 110.979,-207.251 136.658,-211.506"/>
<polygon fill="firebrick" stroke="firebrick" points="146.713,-213.171 136.112,-215.976 141.78,-212.354 136.848,-211.537 136.848,-211.537 136.848,-211.537 141.78,-212.354 137.583,-207.097 146.713,-213.171 146.713,-213.171"/>
<text text-anchor="middle" x="96" y="-213.4" font-family="Times Roman,serif" font-size="14.00">0.28</text>
</g>
<!-- ELC&#45;&gt;summer, night -->
<g id="edge11" class="edge"><title>ELC&#45;&gt;summer, night</title>
<path fill="none" stroke="firebrick" d="M61.9972,-189.231C81.3412,-186.255 107.04,-182.302 131.014,-178.613"/>
<polygon fill="firebrick" stroke="firebrick" points="141.159,-177.052 131.959,-183.021 136.217,-177.813 131.275,-178.573 131.275,-178.573 131.275,-178.573 136.217,-177.813 130.591,-174.125 141.159,-177.052 141.159,-177.052"/>
<text text-anchor="middle" x="96" y="-183.4" font-family="Times Roman,serif" font-size="14.00">0.09</text>
</g>
<!-- ELC&#45;&gt;winter, day -->
<g id="edge13" class="edge"><title>ELC&#45;&gt;winter, day</title>
<path fill="none" stroke="firebrick" d="M59.2868,-180.61C84.7484,-168.557 122.672,-150.605 152.736,-136.374"/>
<polygon fill="firebrick" stroke="firebrick" points="161.791,-132.087 154.678,-140.433 157.271,-134.227 152.752,-136.366 152.752,-136.366 152.752,-136.366 157.271,-134.227 150.827,-132.299 161.791,-132.087 161.791,-132.087"/>
<text text-anchor="middle" x="96" y="-159.4" font-family="Times Roman,serif" font-size="14.00">0.93</text>
</g>
<!-- ELC&#45;&gt;winter, night -->
<g id="edge15" class="edge"><title>ELC&#45;&gt;winter, night</title>
<path fill="none" stroke="firebrick" d="M55.5741,-174.515C85.7028,-150.626 136.773,-110.133 169.413,-84.2521"/>
<polygon fill="firebrick" stroke="firebrick" points="177.291,-78.0061 172.251,-87.7452 173.373,-81.1126 169.455,-84.2191 169.455,-84.2191 169.455,-84.2191 173.373,-81.1126 166.659,-80.693 177.291,-78.0061 177.291,-78.0061"/>
<text text-anchor="middle" x="96" y="-128.4" font-family="Times Roman,serif" font-size="14.00">0.19</text>
</g>
</g>
</svg>
