<?xml version="1.0" encoding="UTF-8" standalone="no"?>
<!DOCTYPE svg PUBLIC "-//W3C//DTD SVG 1.1//EN"
 "http://www.w3.org/Graphics/SVG/1.1/DTD/svg11.dtd">
<!-- Generated by graphviz version 2.26.3 (20100126.1600)
 -->
<!-- Title: model Pages: 1 -->
<svg width="254pt" height="154pt"
 viewBox="0.00 0.00 254.00 154.00" xmlns="http://www.w3.org/2000/svg" xmlns:xlink="http://www.w3.org/1999/xlink">
<g id="graph1" class="graph" transform="scale(1 1) rotate(0) translate(4 150)">
<title>model</title>
<polygon fill="white" stroke="white" points="-4,5 -4,-150 251,-150 251,5 -4,5"/>
<text text-anchor="middle" x="123" y="-9.4" font-family="Times Roman,serif" font-size="14.00">Results for E51 in 1990</text>
<g id="graph2" class="cluster"><title>cluster_vintages</title>
<a xlink:href="results1990.svg" xlink:title="Vintages\nCapacity: 0.50">
<polygon fill="lightgrey" stroke="lightgrey" points="8,-34 8,-138 124,-138 124,-34 8,-34"/>
<text text-anchor="middle" x="66" y="-121.4" font-family="Times Roman,serif" font-size="14.00">Vintages</text>
<text text-anchor="middle" x="66" y="-103.4" font-family="Times Roman,serif" font-size="14.00">Capacity: 0.50</text>
</a>
</g>
<!-- 1980 -->
<g id="node2" class="node"><title>1980</title>
<a xlink:href="results_E51_p1990v1980_segments.svg" xlink:title="1980\nCap: 0.50">
<polygon fill="white" stroke="white" points="107,-86 25,-86 25,-42 107,-42 107,-86"/>
<text text-anchor="middle" x="66" y="-69.4" font-family="Times Roman,serif" font-size="14.00">1980</text>
<text text-anchor="middle" x="66" y="-51.4" font-family="Times Roman,serif" font-size="14.00">Cap: 0.50</text>
</a>
</g>
<!-- ELC -->
<g id="node4" class="node"><title>ELC</title>
<a xlink:href="../commodities/rc_ELC_1990.svg" xlink:title="ELC">
<ellipse fill="lightsteelblue" stroke="lightsteelblue" cx="215" cy="-64" rx="31.1127" ry="31.1127"/>
<text text-anchor="middle" x="215" y="-60.4" font-family="Times Roman,serif" font-size="14.00">ELC</text>
</a>
</g>
<!-- 1980&#45;&gt;ELC -->
<g id="edge8" class="edge"><title>1980&#45;&gt;ELC</title>
<path fill="none" stroke="forestgreen" d="M107.505,-64C128.131,-64 152.985,-64 173.597,-64"/>
<polygon fill="forestgreen" stroke="forestgreen" points="183.64,-64 173.64,-68.5001 178.64,-64 173.64,-64.0001 173.64,-64.0001 173.64,-64.0001 178.64,-64 173.64,-59.5001 183.64,-64 183.64,-64"/>
<text text-anchor="middle" x="150" y="-69.4" font-family="Times Roman,serif" font-size="14.00">0.59</text>
</g>
<!-- ELC&#45;&gt;1980 -->
<g id="edge5" class="edge"><title>ELC&#45;&gt;1980</title>
<path fill="none" stroke="firebrick" d="M183.64,-64C164.53,-64 139.643,-64 117.683,-64"/>
<polygon fill="firebrick" stroke="firebrick" points="107.505,-64 117.505,-59.5001 112.505,-64 117.505,-64.0001 117.505,-64.0001 117.505,-64.0001 112.505,-64 117.505,-68.5001 107.505,-64 107.505,-64"/>
<text text-anchor="middle" x="150" y="-50.4" font-family="Times Roman,serif" font-size="14.00">0.82</text>
</g>
</g>
</svg>
