<?xml version="1.0" encoding="UTF-8" standalone="no"?>
<!DOCTYPE svg PUBLIC "-//W3C//DTD SVG 1.1//EN"
 "http://www.w3.org/Graphics/SVG/1.1/DTD/svg11.dtd">
<!-- Generated by graphviz version 2.26.3 (20100126.1600)
 -->
<!-- Title: model Pages: 1 -->
<svg width="430pt" height="398pt"
 viewBox="0.00 0.00 430.00 398.00" xmlns="http://www.w3.org/2000/svg" xmlns:xlink="http://www.w3.org/1999/xlink">
<g id="graph1" class="graph" transform="scale(1 1) rotate(0) translate(4 394)">
<title>model</title>
<polygon fill="white" stroke="white" points="-4,5 -4,-394 427,-394 427,5 -4,5"/>
<text text-anchor="middle" x="211" y="-9.4" font-family="Times Roman,serif" font-size="14.00">Activity split of process E01, 2010 in year 2010</text>
<g id="graph2" class="cluster"><title>cluster_slices</title>
<polygon fill="lightgrey" stroke="lightgrey" points="138,-34 138,-382 294,-382 294,-34 138,-34"/>
<text text-anchor="middle" x="216" y="-365.4" font-family="Times Roman,serif" font-size="14.00">2010 Capacity: 1.91</text>
</g>
<!-- inter, day -->
<g id="node2" class="node"><title>inter, day</title>
<polygon fill="white" stroke="white" points="257,-348 175,-348 175,-312 257,-312 257,-348"/>
<text text-anchor="middle" x="216" y="-326.4" font-family="Times Roman,serif" font-size="14.00">inter, day</text>
</g>
<!-- ELC -->
<g id="node9" class="node"><title>ELC</title>
<a xlink:href="../commodities/rc_ELC_2010.svg" xlink:title="ELC">
<ellipse fill="lightsteelblue" stroke="lightsteelblue" cx="391" cy="-194" rx="31.1127" ry="31.1127"/>
<text text-anchor="middle" x="391" y="-190.4" font-family="Times Roman,serif" font-size="14.00">ELC</text>
</a>
</g>
<!-- inter, day&#45;&gt;ELC -->
<g id="edge18" class="edge"><title>inter, day&#45;&gt;ELC</title>
<path fill="none" stroke="forestgreen" d="M239.239,-311.94C269.795,-288.193 323.654,-246.337 358.31,-219.405"/>
<polygon fill="forestgreen" stroke="forestgreen" points="366.252,-213.232 361.118,-222.922 362.304,-216.301 358.356,-219.369 358.356,-219.369 358.356,-219.369 362.304,-216.301 355.595,-215.816 366.252,-213.232 366.252,-213.232"/>
<text text-anchor="middle" x="323" y="-300.4" font-family="Times Roman,serif" font-size="14.00">1.67</text>
</g>
<!-- inter, night -->
<g id="node3" class="node"><title>inter, night</title>
<polygon fill="white" stroke="white" points="263,-294 169,-294 169,-258 263,-258 263,-294"/>
<text text-anchor="middle" x="216" y="-272.4" font-family="Times Roman,serif" font-size="14.00">inter, night</text>
</g>
<!-- inter, night&#45;&gt;ELC -->
<g id="edge20" class="edge"><title>inter, night&#45;&gt;ELC</title>
<path fill="none" stroke="forestgreen" d="M254.838,-257.802C284.241,-244.024 324.392,-225.211 353.469,-211.586"/>
<polygon fill="forestgreen" stroke="forestgreen" points="362.874,-207.179 355.728,-215.497 358.347,-209.301 353.819,-211.422 353.819,-211.422 353.819,-211.422 358.347,-209.301 351.91,-207.347 362.874,-207.179 362.874,-207.179"/>
<text text-anchor="middle" x="323" y="-250.4" font-family="Times Roman,serif" font-size="14.00">0.84</text>
</g>
<!-- summer, day -->
<g id="node4" class="node"><title>summer, day</title>
<polygon fill="white" stroke="white" points="269,-240 163,-240 163,-204 269,-204 269,-240"/>
<text text-anchor="middle" x="216" y="-218.4" font-family="Times Roman,serif" font-size="14.00">summer, day</text>
</g>
<!-- summer, day&#45;&gt;ELC -->
<g id="edge22" class="edge"><title>summer, day&#45;&gt;ELC</title>
<path fill="none" stroke="forestgreen" d="M269.457,-213.447C295.49,-209.282 326.287,-204.354 350.367,-200.501"/>
<polygon fill="forestgreen" stroke="forestgreen" points="360.242,-198.921 351.078,-204.945 355.305,-199.711 350.367,-200.501 350.367,-200.501 350.367,-200.501 355.305,-199.711 349.656,-196.058 360.242,-198.921 360.242,-198.921"/>
<text text-anchor="middle" x="323" y="-213.4" font-family="Times Roman,serif" font-size="14.00">&#45;0.00</text>
</g>
<!-- summer, night -->
<g id="node5" class="node"><title>summer, night</title>
<polygon fill="white" stroke="white" points="274,-186 158,-186 158,-150 274,-150 274,-186"/>
<text text-anchor="middle" x="216" y="-164.4" font-family="Times Roman,serif" font-size="14.00">summer, night</text>
</g>
<!-- summer, night&#45;&gt;ELC -->
<g id="edge24" class="edge"><title>summer, night&#45;&gt;ELC</title>
<path fill="none" stroke="forestgreen" d="M274.759,-176.73C299.447,-180.398 327.568,-184.576 349.966,-187.904"/>
<polygon fill="forestgreen" stroke="forestgreen" points="360.141,-189.415 349.589,-192.397 355.196,-188.68 350.25,-187.946 350.25,-187.946 350.25,-187.946 355.196,-188.68 350.911,-183.494 360.141,-189.415 360.141,-189.415"/>
<text text-anchor="middle" x="323" y="-183.4" font-family="Times Roman,serif" font-size="14.00">&#45;0.00</text>
</g>
<!-- winter, day -->
<g id="node6" class="node"><title>winter, day</title>
<polygon fill="white" stroke="white" points="264,-132 168,-132 168,-96 264,-96 264,-132"/>
<text text-anchor="middle" x="216" y="-110.4" font-family="Times Roman,serif" font-size="14.00">winter, day</text>
</g>
<!-- winter, day&#45;&gt;ELC -->
<g id="edge26" class="edge"><title>winter, day&#45;&gt;ELC</title>
<path fill="none" stroke="forestgreen" d="M255.71,-132.153C284.975,-145.531 324.527,-163.613 353.305,-176.768"/>
<polygon fill="forestgreen" stroke="forestgreen" points="362.62,-181.026 351.655,-180.961 358.073,-178.948 353.525,-176.869 353.525,-176.869 353.525,-176.869 358.073,-178.948 355.396,-172.776 362.62,-181.026 362.62,-181.026"/>
<text text-anchor="middle" x="323" y="-159.4" font-family="Times Roman,serif" font-size="14.00">3.35</text>
</g>
<!-- winter, night -->
<g id="node7" class="node"><title>winter, night</title>
<polygon fill="white" stroke="white" points="269,-78 163,-78 163,-42 269,-42 269,-78"/>
<text text-anchor="middle" x="216" y="-56.4" font-family="Times Roman,serif" font-size="14.00">winter, night</text>
</g>
<!-- winter, night&#45;&gt;ELC -->
<g id="edge28" class="edge"><title>winter, night&#45;&gt;ELC</title>
<path fill="none" stroke="forestgreen" d="M239.601,-78.0718C270.134,-101.451 323.49,-142.307 358.019,-168.746"/>
<polygon fill="forestgreen" stroke="forestgreen" points="366.366,-175.137 355.69,-172.631 362.396,-172.097 358.426,-169.058 358.426,-169.058 358.426,-169.058 362.396,-172.097 361.162,-165.485 366.366,-175.137 366.366,-175.137"/>
<text text-anchor="middle" x="323" y="-126.4" font-family="Times Roman,serif" font-size="14.00">1.67</text>
</g>
<!-- HCO -->
<g id="node10" class="node"><title>HCO</title>
<a xlink:href="../commodities/rc_HCO_2010.svg" xlink:title="HCO">
<ellipse fill="lightsteelblue" stroke="lightsteelblue" cx="34" cy="-194" rx="33.9411" ry="33.9411"/>
<text text-anchor="middle" x="34" y="-190.4" font-family="Times Roman,serif" font-size="14.00">HCO</text>
</a>
</g>
<!-- HCO&#45;&gt;inter, day -->
<g id="edge5" class="edge"><title>HCO&#45;&gt;inter, day</title>
<path fill="none" stroke="firebrick" d="M61.2472,-214.361C93.883,-238.748 148.504,-279.563 183.361,-305.611"/>
<polygon fill="firebrick" stroke="firebrick" points="191.772,-311.896 181.068,-309.515 187.767,-308.903 183.762,-305.91 183.762,-305.91 183.762,-305.91 187.767,-308.903 186.455,-302.305 191.772,-311.896 191.772,-311.896"/>
<text text-anchor="middle" x="107" y="-300.4" font-family="Times Roman,serif" font-size="14.00">5.23</text>
</g>
<!-- HCO&#45;&gt;inter, night -->
<g id="edge7" class="edge"><title>HCO&#45;&gt;inter, night</title>
<path fill="none" stroke="firebrick" d="M65.2869,-208.096C93.1302,-220.641 134.327,-239.202 166.615,-253.75"/>
<polygon fill="firebrick" stroke="firebrick" points="175.895,-257.931 164.929,-257.926 171.336,-255.877 166.777,-253.823 166.777,-253.823 166.777,-253.823 171.336,-255.877 168.626,-249.72 175.895,-257.931 175.895,-257.931"/>
<text text-anchor="middle" x="107" y="-250.4" font-family="Times Roman,serif" font-size="14.00">2.61</text>
</g>
<!-- HCO&#45;&gt;summer, day -->
<g id="edge9" class="edge"><title>HCO&#45;&gt;summer, day</title>
<path fill="none" stroke="firebrick" d="M67.8063,-199.201C91.6231,-202.865 124.23,-207.882 152.795,-212.276"/>
<polygon fill="firebrick" stroke="firebrick" points="162.709,-213.801 152.141,-216.728 157.767,-213.041 152.825,-212.281 152.825,-212.281 152.825,-212.281 157.767,-213.041 153.51,-207.833 162.709,-213.801 162.709,-213.801"/>
<text text-anchor="middle" x="107" y="-213.4" font-family="Times Roman,serif" font-size="14.00">&#45;0.00</text>
</g>
<!-- HCO&#45;&gt;summer, night -->
<g id="edge11" class="edge"><title>HCO&#45;&gt;summer, night</title>
<path fill="none" stroke="firebrick" d="M67.8063,-189.171C90.0478,-185.993 119.955,-181.721 147.077,-177.846"/>
<polygon fill="firebrick" stroke="firebrick" points="157.314,-176.384 148.051,-182.253 152.364,-177.091 147.415,-177.798 147.415,-177.798 147.415,-177.798 152.364,-177.091 146.778,-173.343 157.314,-176.384 157.314,-176.384"/>
<text text-anchor="middle" x="107" y="-183.4" font-family="Times Roman,serif" font-size="14.00">&#45;0.00</text>
</g>
<!-- HCO&#45;&gt;winter, day -->
<g id="edge13" class="edge"><title>HCO&#45;&gt;winter, day</title>
<path fill="none" stroke="firebrick" d="M65.2869,-180.248C92.8527,-168.131 133.507,-150.261 165.647,-136.133"/>
<polygon fill="firebrick" stroke="firebrick" points="174.895,-132.068 167.551,-140.212 170.318,-134.08 165.74,-136.092 165.74,-136.092 165.74,-136.092 170.318,-134.08 163.93,-131.973 174.895,-132.068 174.895,-132.068"/>
<text text-anchor="middle" x="107" y="-159.4" font-family="Times Roman,serif" font-size="14.00">10.46</text>
</g>
<!-- HCO&#45;&gt;winter, night -->
<g id="edge15" class="edge"><title>HCO&#45;&gt;winter, night</title>
<path fill="none" stroke="firebrick" d="M61.6419,-173.648C94.1856,-149.688 148.191,-109.925 182.926,-84.351"/>
<polygon fill="firebrick" stroke="firebrick" points="191.317,-78.1731 185.932,-87.7259 187.291,-81.1376 183.264,-84.1021 183.264,-84.1021 183.264,-84.1021 187.291,-81.1376 180.596,-80.4784 191.317,-78.1731 191.317,-78.1731"/>
<text text-anchor="middle" x="107" y="-126.4" font-family="Times Roman,serif" font-size="14.00">5.23</text>
</g>
</g>
</svg>
