<?xml version="1.0" encoding="UTF-8" standalone="no"?>
<!DOCTYPE svg PUBLIC "-//W3C//DTD SVG 1.1//EN"
 "http://www.w3.org/Graphics/SVG/1.1/DTD/svg11.dtd">
<!-- Generated by graphviz version 2.26.3 (20100126.1600)
 -->
<!-- Title: model Pages: 1 -->
<svg width="384pt" height="190pt"
 viewBox="0.00 0.00 384.00 190.00" xmlns="http://www.w3.org/2000/svg" xmlns:xlink="http://www.w3.org/1999/xlink">
<g id="graph1" class="graph" transform="scale(1 1) rotate(0) translate(4 186)">
<title>model</title>
<polygon fill="white" stroke="white" points="-4,5 -4,-186 381,-186 381,5 -4,5"/>
<text text-anchor="middle" x="188" y="-9.4" font-family="Times Roman,serif" font-size="14.00">Results for E21 in 2010</text>
<g id="graph2" class="cluster"><title>cluster_vintages</title>
<a xlink:href="results2010.svg" xlink:title="Vintages\nCapacity: 0.00">
<polygon fill="lightgrey" stroke="lightgrey" points="132,-70 132,-174 248,-174 248,-70 132,-70"/>
<text text-anchor="middle" x="190" y="-157.4" font-family="Times Roman,serif" font-size="14.00">Vintages</text>
<text text-anchor="middle" x="190" y="-139.4" font-family="Times Roman,serif" font-size="14.00">Capacity: 0.00</text>
</a>
</g>
<!-- 2010 -->
<g id="node2" class="node"><title>2010</title>
<a xlink:href="results_E21_p2010v2010_segments.svg" xlink:title="2010\nCap: 0.00">
<polygon fill="white" stroke="white" points="231,-122 149,-122 149,-78 231,-78 231,-122"/>
<text text-anchor="middle" x="190" y="-105.4" font-family="Times Roman,serif" font-size="14.00">2010</text>
<text text-anchor="middle" x="190" y="-87.4" font-family="Times Roman,serif" font-size="14.00">Cap: 0.00</text>
</a>
</g>
<!-- ELC -->
<g id="node4" class="node"><title>ELC</title>
<a xlink:href="../commodities/rc_ELC_2010.svg" xlink:title="ELC">
<ellipse fill="lightsteelblue" stroke="lightsteelblue" cx="345" cy="-100" rx="31.1127" ry="31.1127"/>
<text text-anchor="middle" x="345" y="-96.4" font-family="Times Roman,serif" font-size="14.00">ELC</text>
</a>
</g>
<!-- 2010&#45;&gt;ELC -->
<g id="edge10" class="edge"><title>2010&#45;&gt;ELC</title>
<path fill="none" stroke="forestgreen" d="M231.537,-100C253.832,-100 281.229,-100 303.516,-100"/>
<polygon fill="forestgreen" stroke="forestgreen" points="313.68,-100 303.68,-104.5 308.68,-100 303.68,-100 303.68,-100 303.68,-100 308.68,-100 303.68,-95.5001 313.68,-100 313.68,-100"/>
<text text-anchor="middle" x="277" y="-105.4" font-family="Times Roman,serif" font-size="14.00">&#45;0.00</text>
</g>
<!-- FEQ -->
<g id="node5" class="node"><title>FEQ</title>
<a xlink:href="../commodities/rc_FEQ_2010.svg" xlink:title="FEQ">
<ellipse fill="lightsteelblue" stroke="lightsteelblue" cx="33" cy="-142" rx="31.8198" ry="31.8198"/>
<text text-anchor="middle" x="33" y="-138.4" font-family="Times Roman,serif" font-size="14.00">FEQ</text>
</a>
</g>
<!-- FEQ&#45;&gt;2010 -->
<g id="edge5" class="edge"><title>FEQ&#45;&gt;2010</title>
<path fill="none" stroke="firebrick" d="M64.0181,-133.702C85.2248,-128.029 113.837,-120.375 138.434,-113.795"/>
<polygon fill="firebrick" stroke="firebrick" points="148.342,-111.144 139.845,-118.076 143.512,-112.436 138.682,-113.728 138.682,-113.728 138.682,-113.728 143.512,-112.436 137.519,-109.381 148.342,-111.144 148.342,-111.144"/>
<text text-anchor="middle" x="103" y="-133.4" font-family="Times Roman,serif" font-size="14.00">&#45;0.00</text>
</g>
<!-- URN -->
<g id="node6" class="node"><title>URN</title>
<a xlink:href="../commodities/rc_URN_2010.svg" xlink:title="URN">
<ellipse fill="lightsteelblue" stroke="lightsteelblue" cx="33" cy="-59" rx="33.234" ry="33.234"/>
<text text-anchor="middle" x="33" y="-55.4" font-family="Times Roman,serif" font-size="14.00">URN</text>
</a>
</g>
<!-- URN&#45;&gt;2010 -->
<g id="edge7" class="edge"><title>URN&#45;&gt;2010</title>
<path fill="none" stroke="firebrick" d="M65.1501,-67.3959C86.2815,-72.9143 114.394,-80.2558 138.592,-86.575"/>
<polygon fill="firebrick" stroke="firebrick" points="148.342,-89.1212 137.53,-90.9484 143.505,-87.8578 138.667,-86.5944 138.667,-86.5944 138.667,-86.5944 143.505,-87.8578 139.804,-82.2404 148.342,-89.1212 148.342,-89.1212"/>
<text text-anchor="middle" x="103" y="-87.4" font-family="Times Roman,serif" font-size="14.00">0.00</text>
</g>
</g>
</svg>
