<?xml version="1.0" encoding="UTF-8" standalone="no"?>
<!DOCTYPE svg PUBLIC "-//W3C//DTD SVG 1.1//EN"
 "http://www.w3.org/Graphics/SVG/1.1/DTD/svg11.dtd">
<!-- Generated by graphviz version 2.26.3 (20100126.1600)
 -->
<!-- Title: model Pages: 1 -->
<svg width="385pt" height="154pt"
 viewBox="0.00 0.00 385.00 154.00" xmlns="http://www.w3.org/2000/svg" xmlns:xlink="http://www.w3.org/1999/xlink">
<g id="graph1" class="graph" transform="scale(1 1) rotate(0) translate(4 150)">
<title>model</title>
<polygon fill="white" stroke="white" points="-4,5 -4,-150 382,-150 382,5 -4,5"/>
<text text-anchor="middle" x="188.5" y="-9.4" font-family="Times Roman,serif" font-size="14.00">Results for RL1 in 2010</text>
<g id="graph2" class="cluster"><title>cluster_vintages</title>
<a xlink:href="results2010.svg" xlink:title="Vintages\nCapacity: 18.90">
<polygon fill="lightgrey" stroke="lightgrey" points="132,-34 132,-138 257,-138 257,-34 132,-34"/>
<text text-anchor="middle" x="194.5" y="-121.4" font-family="Times Roman,serif" font-size="14.00">Vintages</text>
<text text-anchor="middle" x="194.5" y="-103.4" font-family="Times Roman,serif" font-size="14.00">Capacity: 18.90</text>
</a>
</g>
<!-- 2010 -->
<g id="node2" class="node"><title>2010</title>
<a xlink:href="results_RL1_p2010v2010_segments.svg" xlink:title="2010\nCap: 18.90">
<polygon fill="white" stroke="white" points="240,-86 148,-86 148,-42 240,-42 240,-86"/>
<text text-anchor="middle" x="194" y="-69.4" font-family="Times Roman,serif" font-size="14.00">2010</text>
<text text-anchor="middle" x="194" y="-51.4" font-family="Times Roman,serif" font-size="14.00">Cap: 18.90</text>
</a>
</g>
<!-- RL -->
<g id="node5" class="node"><title>RL</title>
<a xlink:href="../commodities/rc_RL_2010.svg" xlink:title="RL">
<ellipse fill="lightsteelblue" stroke="lightsteelblue" cx="352" cy="-64" rx="24.2437" ry="24.7487"/>
<text text-anchor="middle" x="352" y="-60.4" font-family="Times Roman,serif" font-size="14.00">RL</text>
</a>
</g>
<!-- 2010&#45;&gt;RL -->
<g id="edge8" class="edge"><title>2010&#45;&gt;RL</title>
<path fill="none" stroke="forestgreen" d="M240.125,-64C264.658,-64 294.34,-64 316.964,-64"/>
<polygon fill="forestgreen" stroke="forestgreen" points="327.133,-64 317.133,-68.5001 322.133,-64 317.133,-64.0001 317.133,-64.0001 317.133,-64.0001 322.133,-64 317.133,-59.5001 327.133,-64 327.133,-64"/>
<text text-anchor="middle" x="288" y="-69.4" font-family="Times Roman,serif" font-size="14.00">12.60</text>
</g>
<!-- ELC -->
<g id="node4" class="node"><title>ELC</title>
<a xlink:href="../commodities/rc_ELC_2010.svg" xlink:title="ELC">
<ellipse fill="lightsteelblue" stroke="lightsteelblue" cx="31" cy="-64" rx="31.1127" ry="31.1127"/>
<text text-anchor="middle" x="31" y="-60.4" font-family="Times Roman,serif" font-size="14.00">ELC</text>
</a>
</g>
<!-- ELC&#45;&gt;2010 -->
<g id="edge5" class="edge"><title>ELC&#45;&gt;2010</title>
<path fill="none" stroke="firebrick" d="M62.0427,-64C83.394,-64 112.363,-64 137.719,-64"/>
<polygon fill="firebrick" stroke="firebrick" points="147.964,-64 137.964,-68.5001 142.964,-64 137.964,-64.0001 137.964,-64.0001 137.964,-64.0001 142.964,-64 137.964,-59.5001 147.964,-64 147.964,-64"/>
<text text-anchor="middle" x="101" y="-69.4" font-family="Times Roman,serif" font-size="14.00">12.60</text>
</g>
</g>
</svg>
