<?xml version="1.0" encoding="UTF-8" standalone="no"?>
<!DOCTYPE svg PUBLIC "-//W3C//DTD SVG 1.1//EN"
 "http://www.w3.org/Graphics/SVG/1.1/DTD/svg11.dtd">
<!-- Generated by graphviz version 2.26.3 (20100126.1600)
 -->
<!-- Title: model Pages: 1 -->
<svg width="464pt" height="398pt"
 viewBox="0.00 0.00 464.00 398.00" xmlns="http://www.w3.org/2000/svg" xmlns:xlink="http://www.w3.org/1999/xlink">
<g id="graph1" class="graph" transform="scale(1 1) rotate(0) translate(4 394)">
<title>model</title>
<polygon fill="white" stroke="white" points="-4,5 -4,-394 461,-394 461,5 -4,5"/>
<text text-anchor="middle" x="228" y="-9.4" font-family="Times Roman,serif" font-size="14.00">Activity split of process IMPDSL1, 1990 in year 1990</text>
<g id="graph2" class="cluster"><title>cluster_slices</title>
<polygon fill="lightgrey" stroke="lightgrey" points="148,-34 148,-382 322,-382 322,-34 148,-34"/>
<text text-anchor="middle" x="235" y="-365.4" font-family="Times Roman,serif" font-size="14.00">1990 Capacity: 106.09</text>
</g>
<!-- inter, day -->
<g id="node2" class="node"><title>inter, day</title>
<polygon fill="white" stroke="white" points="276,-348 194,-348 194,-312 276,-312 276,-348"/>
<text text-anchor="middle" x="235" y="-326.4" font-family="Times Roman,serif" font-size="14.00">inter, day</text>
</g>
<!-- DSL -->
<g id="node9" class="node"><title>DSL</title>
<a xlink:href="../commodities/rc_DSL_1990.svg" xlink:title="DSL">
<ellipse fill="lightsteelblue" stroke="lightsteelblue" cx="424" cy="-194" rx="31.8198" ry="31.8198"/>
<text text-anchor="middle" x="424" y="-190.4" font-family="Times Roman,serif" font-size="14.00">DSL</text>
</a>
</g>
<!-- inter, day&#45;&gt;DSL -->
<g id="edge18" class="edge"><title>inter, day&#45;&gt;DSL</title>
<path fill="none" stroke="forestgreen" d="M260.098,-311.94C293.285,-288.06 351.923,-245.865 389.325,-218.951"/>
<polygon fill="forestgreen" stroke="forestgreen" points="397.887,-212.79 392.398,-222.284 393.829,-215.711 389.77,-218.631 389.77,-218.631 389.77,-218.631 393.829,-215.711 387.142,-214.978 397.887,-212.79 397.887,-212.79"/>
<text text-anchor="middle" x="353" y="-300.4" font-family="Times Roman,serif" font-size="14.00">4.75</text>
</g>
<!-- inter, night -->
<g id="node3" class="node"><title>inter, night</title>
<polygon fill="white" stroke="white" points="282,-294 188,-294 188,-258 282,-258 282,-294"/>
<text text-anchor="middle" x="235" y="-272.4" font-family="Times Roman,serif" font-size="14.00">inter, night</text>
</g>
<!-- inter, night&#45;&gt;DSL -->
<g id="edge20" class="edge"><title>inter, night&#45;&gt;DSL</title>
<path fill="none" stroke="forestgreen" d="M276.945,-257.802C309.272,-243.776 353.629,-224.531 385.151,-210.855"/>
<polygon fill="forestgreen" stroke="forestgreen" points="394.495,-206.801 387.112,-214.91 389.908,-208.791 385.321,-210.781 385.321,-210.781 385.321,-210.781 389.908,-208.791 383.53,-206.653 394.495,-206.801 394.495,-206.801"/>
<text text-anchor="middle" x="353" y="-250.4" font-family="Times Roman,serif" font-size="14.00">2.38</text>
</g>
<!-- summer, day -->
<g id="node4" class="node"><title>summer, day</title>
<polygon fill="white" stroke="white" points="288,-240 182,-240 182,-204 288,-204 288,-240"/>
<text text-anchor="middle" x="235" y="-218.4" font-family="Times Roman,serif" font-size="14.00">summer, day</text>
</g>
<!-- summer, day&#45;&gt;DSL -->
<g id="edge22" class="edge"><title>summer, day&#45;&gt;DSL</title>
<path fill="none" stroke="forestgreen" d="M288.15,-214.126C317.872,-209.723 354.392,-204.312 382.079,-200.211"/>
<polygon fill="forestgreen" stroke="forestgreen" points="392.225,-198.707 382.992,-204.624 387.279,-199.44 382.333,-200.173 382.333,-200.173 382.333,-200.173 387.279,-199.44 381.673,-195.722 392.225,-198.707 392.225,-198.707"/>
<text text-anchor="middle" x="353" y="-213.4" font-family="Times Roman,serif" font-size="14.00">0.43</text>
</g>
<!-- summer, night -->
<g id="node5" class="node"><title>summer, night</title>
<polygon fill="white" stroke="white" points="293,-186 177,-186 177,-150 293,-150 293,-186"/>
<text text-anchor="middle" x="235" y="-164.4" font-family="Times Roman,serif" font-size="14.00">summer, night</text>
</g>
<!-- summer, night&#45;&gt;DSL -->
<g id="edge24" class="edge"><title>summer, night&#45;&gt;DSL</title>
<path fill="none" stroke="forestgreen" d="M293.506,-176.049C322.219,-179.998 356.143,-184.665 382.205,-188.25"/>
<polygon fill="forestgreen" stroke="forestgreen" points="392.137,-189.617 381.617,-192.712 387.184,-188.935 382.231,-188.254 382.231,-188.254 382.231,-188.254 387.184,-188.935 382.844,-183.796 392.137,-189.617 392.137,-189.617"/>
<text text-anchor="middle" x="353" y="-183.4" font-family="Times Roman,serif" font-size="14.00">0.22</text>
</g>
<!-- winter, day -->
<g id="node6" class="node"><title>winter, day</title>
<polygon fill="white" stroke="white" points="283,-132 187,-132 187,-96 283,-96 283,-132"/>
<text text-anchor="middle" x="235" y="-110.4" font-family="Times Roman,serif" font-size="14.00">winter, day</text>
</g>
<!-- winter, day&#45;&gt;DSL -->
<g id="edge26" class="edge"><title>winter, day&#45;&gt;DSL</title>
<path fill="none" stroke="forestgreen" d="M277.887,-132.153C310.162,-145.815 354.025,-164.381 385.248,-177.597"/>
<polygon fill="forestgreen" stroke="forestgreen" points="394.506,-181.516 383.543,-181.762 389.902,-179.567 385.297,-177.618 385.297,-177.618 385.297,-177.618 389.902,-179.567 387.051,-173.474 394.506,-181.516 394.506,-181.516"/>
<text text-anchor="middle" x="353" y="-159.4" font-family="Times Roman,serif" font-size="14.00">20.55</text>
</g>
<!-- winter, night -->
<g id="node7" class="node"><title>winter, night</title>
<polygon fill="white" stroke="white" points="288,-78 182,-78 182,-42 288,-42 288,-78"/>
<text text-anchor="middle" x="235" y="-56.4" font-family="Times Roman,serif" font-size="14.00">winter, night</text>
</g>
<!-- winter, night&#45;&gt;DSL -->
<g id="edge28" class="edge"><title>winter, night&#45;&gt;DSL</title>
<path fill="none" stroke="forestgreen" d="M260.489,-78.0718C293.698,-101.616 351.905,-142.885 389.167,-169.304"/>
<polygon fill="forestgreen" stroke="forestgreen" points="397.702,-175.355 386.941,-173.242 393.623,-172.463 389.544,-169.571 389.544,-169.571 389.544,-169.571 393.623,-172.463 392.147,-165.9 397.702,-175.355 397.702,-175.355"/>
<text text-anchor="middle" x="353" y="-126.4" font-family="Times Roman,serif" font-size="14.00">10.27</text>
</g>
<!-- ethos -->
<g id="node10" class="node"><title>ethos</title>
<a xlink:href="../commodities/rc_ethos_1990.svg" xlink:title="ethos">
<ellipse fill="lightsteelblue" stroke="lightsteelblue" cx="39" cy="-194" rx="38.8909" ry="38.8909"/>
<text text-anchor="middle" x="39" y="-190.4" font-family="Times Roman,serif" font-size="14.00">ethos</text>
</a>
</g>
<!-- ethos&#45;&gt;inter, day -->
<g id="edge5" class="edge"><title>ethos&#45;&gt;inter, day</title>
<path fill="none" stroke="firebrick" d="M71.3654,-216.458C106.999,-241.183 164.059,-280.776 200.516,-306.072"/>
<polygon fill="firebrick" stroke="firebrick" points="208.865,-311.866 198.084,-309.862 204.757,-309.015 200.649,-306.165 200.649,-306.165 200.649,-306.165 204.757,-309.015 203.215,-302.468 208.865,-311.866 208.865,-311.866"/>
<text text-anchor="middle" x="117" y="-300.4" font-family="Times Roman,serif" font-size="14.00">4.75</text>
</g>
<!-- ethos&#45;&gt;inter, night -->
<g id="edge7" class="edge"><title>ethos&#45;&gt;inter, night</title>
<path fill="none" stroke="firebrick" d="M75.4068,-209.231C105.562,-221.847 148.802,-239.938 182.67,-254.107"/>
<polygon fill="firebrick" stroke="firebrick" points="191.955,-257.991 180.993,-258.283 187.342,-256.061 182.73,-254.132 182.73,-254.132 182.73,-254.132 187.342,-256.061 184.466,-249.98 191.955,-257.991 191.955,-257.991"/>
<text text-anchor="middle" x="117" y="-250.4" font-family="Times Roman,serif" font-size="14.00">2.38</text>
</g>
<!-- ethos&#45;&gt;summer, day -->
<g id="edge9" class="edge"><title>ethos&#45;&gt;summer, day</title>
<path fill="none" stroke="firebrick" d="M77.7233,-199.532C104.485,-203.355 140.694,-208.528 171.624,-212.946"/>
<polygon fill="firebrick" stroke="firebrick" points="181.889,-214.413 171.353,-217.453 176.939,-213.706 171.989,-212.998 171.989,-212.998 171.989,-212.998 176.939,-213.706 172.626,-208.544 181.889,-214.413 181.889,-214.413"/>
<text text-anchor="middle" x="117" y="-213.4" font-family="Times Roman,serif" font-size="14.00">0.43</text>
</g>
<!-- ethos&#45;&gt;summer, night -->
<g id="edge11" class="edge"><title>ethos&#45;&gt;summer, night</title>
<path fill="none" stroke="firebrick" d="M77.7233,-188.863C102.872,-185.527 136.363,-181.084 165.976,-177.156"/>
<polygon fill="firebrick" stroke="firebrick" points="176.268,-175.791 166.947,-181.567 171.312,-176.448 166.355,-177.106 166.355,-177.106 166.355,-177.106 171.312,-176.448 165.763,-172.645 176.268,-175.791 176.268,-175.791"/>
<text text-anchor="middle" x="117" y="-183.4" font-family="Times Roman,serif" font-size="14.00">0.22</text>
</g>
<!-- ethos&#45;&gt;winter, day -->
<g id="edge13" class="edge"><title>ethos&#45;&gt;winter, day</title>
<path fill="none" stroke="firebrick" d="M75.4068,-179.14C105.131,-167.008 147.569,-149.686 181.211,-135.955"/>
<polygon fill="firebrick" stroke="firebrick" points="190.896,-132.001 183.338,-139.947 186.267,-133.891 181.638,-135.78 181.638,-135.78 181.638,-135.78 186.267,-133.891 179.937,-131.614 190.896,-132.001 190.896,-132.001"/>
<text text-anchor="middle" x="117" y="-159.4" font-family="Times Roman,serif" font-size="14.00">20.55</text>
</g>
<!-- ethos&#45;&gt;winter, night -->
<g id="edge15" class="edge"><title>ethos&#45;&gt;winter, night</title>
<path fill="none" stroke="firebrick" d="M71.3654,-171.873C106.898,-147.58 163.737,-108.721 200.206,-83.7875"/>
<polygon fill="firebrick" stroke="firebrick" points="208.563,-78.074 202.848,-87.4327 204.436,-80.8959 200.308,-83.7179 200.308,-83.7179 200.308,-83.7179 204.436,-80.8959 197.768,-80.0031 208.563,-78.074 208.563,-78.074"/>
<text text-anchor="middle" x="117" y="-126.4" font-family="Times Roman,serif" font-size="14.00">10.27</text>
</g>
</g>
</svg>
