<?xml version="1.0" encoding="UTF-8" standalone="no"?>
<!DOCTYPE svg PUBLIC "-//W3C//DTD SVG 1.1//EN"
 "http://www.w3.org/Graphics/SVG/1.1/DTD/svg11.dtd">
<!-- Generated by graphviz version 2.26.3 (20100126.1600)
 -->
<!-- Title: model Pages: 1 -->
<svg width="422pt" height="236pt"
 viewBox="0.00 0.00 422.00 236.00" xmlns="http://www.w3.org/2000/svg" xmlns:xlink="http://www.w3.org/1999/xlink">
<g id="graph1" class="graph" transform="scale(1 1) rotate(0) translate(4 232)">
<title>model</title>
<polygon fill="white" stroke="white" points="-4,5 -4,-232 419,-232 419,5 -4,5"/>
<text text-anchor="middle" x="207" y="-9.4" font-family="Times Roman,serif" font-size="14.00">Activity split of process E21, 2010 in year 2010</text>
<g id="graph2" class="cluster"><title>cluster_slices</title>
<polygon fill="lightgrey" stroke="lightgrey" points="130,-34 130,-220 286,-220 286,-34 130,-34"/>
<text text-anchor="middle" x="208" y="-203.4" font-family="Times Roman,serif" font-size="14.00">2010 Capacity: 0.00</text>
</g>
<!-- summer, day -->
<g id="node2" class="node"><title>summer, day</title>
<polygon fill="white" stroke="white" points="261,-186 155,-186 155,-150 261,-150 261,-186"/>
<text text-anchor="middle" x="208" y="-164.4" font-family="Times Roman,serif" font-size="14.00">summer, day</text>
</g>
<!-- ELC -->
<g id="node6" class="node"><title>ELC</title>
<a xlink:href="../commodities/rc_ELC_2010.svg" xlink:title="ELC">
<ellipse fill="lightsteelblue" stroke="lightsteelblue" cx="383" cy="-114" rx="31.1127" ry="31.1127"/>
<text text-anchor="middle" x="383" y="-110.4" font-family="Times Roman,serif" font-size="14.00">ELC</text>
</a>
</g>
<!-- summer, day&#45;&gt;ELC -->
<g id="edge12" class="edge"><title>summer, day&#45;&gt;ELC</title>
<path fill="none" stroke="forestgreen" d="M261.457,-151.505C287.96,-143.327 319.4,-133.625 343.663,-126.138"/>
<polygon fill="forestgreen" stroke="forestgreen" points="353.252,-123.179 345.023,-130.428 348.474,-124.654 343.696,-126.128 343.696,-126.128 343.696,-126.128 348.474,-124.654 342.369,-121.828 353.252,-123.179 353.252,-123.179"/>
<text text-anchor="middle" x="315" y="-150.4" font-family="Times Roman,serif" font-size="14.00">&#45;0.00</text>
</g>
<!-- summer, night -->
<g id="node3" class="node"><title>summer, night</title>
<polygon fill="white" stroke="white" points="266,-132 150,-132 150,-96 266,-96 266,-132"/>
<text text-anchor="middle" x="208" y="-110.4" font-family="Times Roman,serif" font-size="14.00">summer, night</text>
</g>
<!-- summer, night&#45;&gt;ELC -->
<g id="edge14" class="edge"><title>summer, night&#45;&gt;ELC</title>
<path fill="none" stroke="forestgreen" d="M266.759,-114C291.275,-114 319.177,-114 341.499,-114"/>
<polygon fill="forestgreen" stroke="forestgreen" points="351.649,-114 341.649,-118.5 346.649,-114 341.649,-114 341.649,-114 341.649,-114 346.649,-114 341.649,-109.5 351.649,-114 351.649,-114"/>
<text text-anchor="middle" x="315" y="-119.4" font-family="Times Roman,serif" font-size="14.00">&#45;0.00</text>
</g>
<!-- winter, day -->
<g id="node4" class="node"><title>winter, day</title>
<polygon fill="white" stroke="white" points="256,-78 160,-78 160,-42 256,-42 256,-78"/>
<text text-anchor="middle" x="208" y="-56.4" font-family="Times Roman,serif" font-size="14.00">winter, day</text>
</g>
<!-- winter, day&#45;&gt;ELC -->
<g id="edge16" class="edge"><title>winter, day&#45;&gt;ELC</title>
<path fill="none" stroke="forestgreen" d="M256.283,-74.8987C283.702,-83.3595 317.6,-93.8193 343.434,-101.791"/>
<polygon fill="forestgreen" stroke="forestgreen" points="353.262,-104.824 342.379,-106.175 348.484,-103.349 343.706,-101.875 343.706,-101.875 343.706,-101.875 348.484,-103.349 345.033,-97.5751 353.262,-104.824 353.262,-104.824"/>
<text text-anchor="middle" x="315" y="-97.4" font-family="Times Roman,serif" font-size="14.00">&#45;0.00</text>
</g>
<!-- FEQ -->
<g id="node7" class="node"><title>FEQ</title>
<a xlink:href="../commodities/rc_FEQ_2010.svg" xlink:title="FEQ">
<ellipse fill="lightsteelblue" stroke="lightsteelblue" cx="32" cy="-114" rx="31.8198" ry="31.8198"/>
<text text-anchor="middle" x="32" y="-110.4" font-family="Times Roman,serif" font-size="14.00">FEQ</text>
</a>
</g>
<!-- FEQ&#45;&gt;summer, day -->
<g id="edge5" class="edge"><title>FEQ&#45;&gt;summer, day</title>
<path fill="none" stroke="firebrick" d="M62.6569,-123.406C85.3865,-130.38 117.156,-140.128 145.198,-148.731"/>
<polygon fill="firebrick" stroke="firebrick" points="154.941,-151.72 144.06,-153.089 150.161,-150.254 145.38,-148.787 145.38,-148.787 145.38,-148.787 150.161,-150.254 146.7,-144.485 154.941,-151.72 154.941,-151.72"/>
<text text-anchor="middle" x="101" y="-150.4" font-family="Times Roman,serif" font-size="14.00">&#45;0.00</text>
</g>
<!-- FEQ&#45;&gt;summer, night -->
<g id="edge7" class="edge"><title>FEQ&#45;&gt;summer, night</title>
<path fill="none" stroke="firebrick" d="M64.2811,-114C85.2195,-114 113.307,-114 139.096,-114"/>
<polygon fill="firebrick" stroke="firebrick" points="149.223,-114 139.223,-118.5 144.223,-114 139.223,-114 139.223,-114 139.223,-114 144.223,-114 139.222,-109.5 149.223,-114 149.223,-114"/>
<text text-anchor="middle" x="101" y="-119.4" font-family="Times Roman,serif" font-size="14.00">&#45;0.00</text>
</g>
<!-- FEQ&#45;&gt;winter, day -->
<g id="edge9" class="edge"><title>FEQ&#45;&gt;winter, day</title>
<path fill="none" stroke="firebrick" d="M62.6569,-104.594C86.7245,-97.2095 120.928,-86.7152 150.109,-77.762"/>
<polygon fill="firebrick" stroke="firebrick" points="159.791,-74.7914 151.551,-82.0268 155.011,-76.2581 150.231,-77.7247 150.231,-77.7247 150.231,-77.7247 155.011,-76.2581 148.911,-73.4227 159.791,-74.7914 159.791,-74.7914"/>
<text text-anchor="middle" x="101" y="-97.4" font-family="Times Roman,serif" font-size="14.00">&#45;0.00</text>
</g>
</g>
</svg>
