<?xml version="1.0" encoding="UTF-8" standalone="no"?>
<!DOCTYPE svg PUBLIC "-//W3C//DTD SVG 1.1//EN"
 "http://www.w3.org/Graphics/SVG/1.1/DTD/svg11.dtd">
<!-- Generated by graphviz version 2.26.3 (20100126.1600)
 -->
<!-- Title: model Pages: 1 -->
<svg width="352pt" height="249pt"
 viewBox="0.00 0.00 352.00 249.00" xmlns="http://www.w3.org/2000/svg" xmlns:xlink="http://www.w3.org/1999/xlink">
<g id="graph1" class="graph" transform="scale(1 1) rotate(0) translate(4 245)">
<title>model</title>
<polygon fill="white" stroke="white" points="-4,5 -4,-245 349,-245 349,5 -4,5"/>
<text text-anchor="middle" x="172" y="-9.4" font-family="Times Roman,serif" font-size="14.00">Activity split of process E51, 1980 in year 2000</text>
<g id="graph2" class="cluster"><title>cluster_slices</title>
<polygon fill="lightgrey" stroke="lightgrey" points="37,-47 37,-233 193,-233 193,-47 37,-47"/>
<text text-anchor="middle" x="115" y="-216.4" font-family="Times Roman,serif" font-size="14.00">1980 Capacity: 0.50</text>
</g>
<!-- inter, night -->
<g id="node2" class="node"><title>inter, night</title>
<polygon fill="white" stroke="white" points="162,-199 68,-199 68,-163 162,-163 162,-199"/>
<text text-anchor="middle" x="115" y="-177.4" font-family="Times Roman,serif" font-size="14.00">inter, night</text>
</g>
<!-- ELC -->
<g id="node6" class="node"><title>ELC</title>
<a xlink:href="../commodities/rc_ELC_2000.svg" xlink:title="ELC">
<ellipse fill="lightsteelblue" stroke="lightsteelblue" cx="284" cy="-127" rx="31.1127" ry="31.1127"/>
<text text-anchor="middle" x="284" y="-123.4" font-family="Times Roman,serif" font-size="14.00">ELC</text>
</a>
</g>
<!-- inter, night&#45;&gt;ELC -->
<g id="edge12" class="edge"><title>inter, night&#45;&gt;ELC</title>
<path fill="none" stroke="forestgreen" d="M162.526,-165.814C188.439,-157.534 220.132,-147.408 244.647,-139.574"/>
<polygon fill="forestgreen" stroke="forestgreen" points="254.337,-136.478 246.181,-143.808 249.575,-138 244.812,-139.522 244.812,-139.522 244.812,-139.522 249.575,-138 243.442,-135.235 254.337,-136.478 254.337,-136.478"/>
<text text-anchor="middle" x="219" y="-185.4" font-family="Times Roman,serif" font-size="14.00">0.00</text>
</g>
<!-- summer, night -->
<g id="node3" class="node"><title>summer, night</title>
<polygon fill="white" stroke="white" points="173,-145 57,-145 57,-109 173,-109 173,-145"/>
<text text-anchor="middle" x="115" y="-123.4" font-family="Times Roman,serif" font-size="14.00">summer, night</text>
</g>
<!-- summer, night&#45;&gt;ELC -->
<g id="edge14" class="edge"><title>summer, night&#45;&gt;ELC</title>
<path fill="none" stroke="forestgreen" d="M173.634,-127C196.469,-127 222.094,-127 242.9,-127"/>
<polygon fill="forestgreen" stroke="forestgreen" points="252.997,-127 242.997,-131.5 247.997,-127 242.997,-127 242.997,-127 242.997,-127 247.997,-127 242.997,-122.5 252.997,-127 252.997,-127"/>
<text text-anchor="middle" x="219" y="-110.4" font-family="Times Roman,serif" font-size="14.00">0.00</text>
</g>
<!-- winter, night -->
<g id="node4" class="node"><title>winter, night</title>
<polygon fill="white" stroke="white" points="168,-91 62,-91 62,-55 168,-55 168,-91"/>
<text text-anchor="middle" x="115" y="-69.4" font-family="Times Roman,serif" font-size="14.00">winter, night</text>
</g>
<!-- winter, night&#45;&gt;ELC -->
<g id="edge16" class="edge"><title>winter, night&#45;&gt;ELC</title>
<path fill="none" stroke="forestgreen" d="M168.937,-90.2344C193.508,-98.0855 222.064,-107.21 244.581,-114.405"/>
<polygon fill="forestgreen" stroke="forestgreen" points="254.148,-117.461 243.253,-118.704 249.385,-115.94 244.622,-114.418 244.622,-114.418 244.622,-114.418 249.385,-115.94 245.992,-110.131 254.148,-117.461 254.148,-117.461"/>
<text text-anchor="middle" x="219" y="-88.4" font-family="Times Roman,serif" font-size="14.00">0.00</text>
</g>
<!-- ELC&#45;&gt;inter, night -->
<g id="edge5" class="edge"><title>ELC&#45;&gt;inter, night</title>
<path fill="none" stroke="firebrick" d="M254.337,-136.478C231.649,-143.727 199.678,-153.943 172.082,-162.761"/>
<polygon fill="firebrick" stroke="firebrick" points="162.526,-165.814 170.682,-158.484 167.288,-164.292 172.051,-162.771 172.051,-162.771 172.051,-162.771 167.288,-164.292 173.421,-167.057 162.526,-165.814 162.526,-165.814"/>
<text text-anchor="middle" x="219" y="-162.4" font-family="Times Roman,serif" font-size="14.00">0.15</text>
</g>
<!-- ELC&#45;&gt;summer, night -->
<g id="edge7" class="edge"><title>ELC&#45;&gt;summer, night</title>
<path fill="none" stroke="firebrick" d="M252.997,-127C233.603,-127 207.823,-127 183.799,-127"/>
<polygon fill="firebrick" stroke="firebrick" points="173.634,-127 183.634,-122.5 178.634,-127 183.634,-127 183.634,-127 183.634,-127 178.634,-127 183.634,-131.5 173.634,-127 173.634,-127"/>
<text text-anchor="middle" x="219" y="-132.4" font-family="Times Roman,serif" font-size="14.00">0.15</text>
</g>
<!-- ELC&#45;&gt;winter, night -->
<g id="edge9" class="edge"><title>ELC&#45;&gt;winter, night</title>
<path fill="none" stroke="firebrick" d="M254.148,-117.461C233.27,-110.79 204.598,-101.629 178.703,-93.3549"/>
<polygon fill="firebrick" stroke="firebrick" points="168.937,-90.2344 179.833,-88.9916 173.7,-91.7563 178.463,-93.2781 178.463,-93.2781 178.463,-93.2781 173.7,-91.7563 177.093,-97.5646 168.937,-90.2344 168.937,-90.2344"/>
<text text-anchor="middle" x="219" y="-31.4" font-family="Times Roman,serif" font-size="14.00">0.93</text>
</g>
</g>
</svg>
