<?xml version="1.0" encoding="UTF-8" standalone="no"?>
<!DOCTYPE svg PUBLIC "-//W3C//DTD SVG 1.1//EN"
 "http://www.w3.org/Graphics/SVG/1.1/DTD/svg11.dtd">
<!-- Generated by graphviz version 2.26.3 (20100126.1600)
 -->
<!-- Title: model Pages: 1 -->
<svg width="435pt" height="398pt"
 viewBox="0.00 0.00 435.00 398.00" xmlns="http://www.w3.org/2000/svg" xmlns:xlink="http://www.w3.org/1999/xlink">
<g id="graph1" class="graph" transform="scale(1 1) rotate(0) translate(4 394)">
<title>model</title>
<polygon fill="white" stroke="white" points="-4,5 -4,-394 432,-394 432,5 -4,5"/>
<text text-anchor="middle" x="213.5" y="-9.4" font-family="Times Roman,serif" font-size="14.00">Activity split of process IMPGSL1, 1990 in year 1990</text>
<g id="graph2" class="cluster"><title>cluster_slices</title>
<polygon fill="lightgrey" stroke="lightgrey" points="138,-34 138,-382 303,-382 303,-34 138,-34"/>
<text text-anchor="middle" x="220.5" y="-365.4" font-family="Times Roman,serif" font-size="14.00">1990 Capacity: 30.00</text>
</g>
<!-- inter, day -->
<g id="node2" class="node"><title>inter, day</title>
<polygon fill="white" stroke="white" points="261,-348 179,-348 179,-312 261,-312 261,-348"/>
<text text-anchor="middle" x="220" y="-326.4" font-family="Times Roman,serif" font-size="14.00">inter, day</text>
</g>
<!-- GSL -->
<g id="node9" class="node"><title>GSL</title>
<a xlink:href="../commodities/rc_GSL_1990.svg" xlink:title="GSL">
<ellipse fill="lightsteelblue" stroke="lightsteelblue" cx="395" cy="-194" rx="31.8198" ry="31.8198"/>
<text text-anchor="middle" x="395" y="-190.4" font-family="Times Roman,serif" font-size="14.00">GSL</text>
</a>
</g>
<!-- inter, day&#45;&gt;GSL -->
<g id="edge18" class="edge"><title>inter, day&#45;&gt;GSL</title>
<path fill="none" stroke="forestgreen" d="M243.239,-311.94C273.623,-288.327 327.048,-246.808 361.722,-219.862"/>
<polygon fill="forestgreen" stroke="forestgreen" points="369.678,-213.679 364.544,-223.368 365.73,-216.747 361.782,-219.815 361.782,-219.815 361.782,-219.815 365.73,-216.747 359.021,-216.262 369.678,-213.679 369.678,-213.679"/>
<text text-anchor="middle" x="329" y="-299.4" font-family="Times Roman,serif" font-size="14.00">3.32</text>
</g>
<!-- inter, night -->
<g id="node3" class="node"><title>inter, night</title>
<polygon fill="white" stroke="white" points="267,-294 173,-294 173,-258 267,-258 267,-294"/>
<text text-anchor="middle" x="220" y="-272.4" font-family="Times Roman,serif" font-size="14.00">inter, night</text>
</g>
<!-- inter, night&#45;&gt;GSL -->
<g id="edge20" class="edge"><title>inter, night&#45;&gt;GSL</title>
<path fill="none" stroke="forestgreen" d="M258.838,-257.802C287.879,-244.194 327.405,-225.673 356.391,-212.091"/>
<polygon fill="forestgreen" stroke="forestgreen" points="365.786,-207.689 358.64,-216.007 361.258,-209.81 356.731,-211.932 356.731,-211.932 356.731,-211.932 361.258,-209.81 354.821,-207.857 365.786,-207.689 365.786,-207.689"/>
<text text-anchor="middle" x="329" y="-250.4" font-family="Times Roman,serif" font-size="14.00">1.66</text>
</g>
<!-- summer, day -->
<g id="node4" class="node"><title>summer, day</title>
<polygon fill="white" stroke="white" points="273,-240 167,-240 167,-204 273,-204 273,-240"/>
<text text-anchor="middle" x="220" y="-218.4" font-family="Times Roman,serif" font-size="14.00">summer, day</text>
</g>
<!-- summer, day&#45;&gt;GSL -->
<g id="edge22" class="edge"><title>summer, day&#45;&gt;GSL</title>
<path fill="none" stroke="forestgreen" d="M273.457,-213.447C299.024,-209.356 329.185,-204.53 353.066,-200.709"/>
<polygon fill="forestgreen" stroke="forestgreen" points="363.22,-199.085 354.057,-205.108 358.283,-199.875 353.346,-200.665 353.346,-200.665 353.346,-200.665 358.283,-199.875 352.635,-196.221 363.22,-199.085 363.22,-199.085"/>
<text text-anchor="middle" x="329" y="-212.4" font-family="Times Roman,serif" font-size="14.00">3.32</text>
</g>
<!-- summer, night -->
<g id="node5" class="node"><title>summer, night</title>
<polygon fill="white" stroke="white" points="278,-186 162,-186 162,-150 278,-150 278,-186"/>
<text text-anchor="middle" x="220" y="-164.4" font-family="Times Roman,serif" font-size="14.00">summer, night</text>
</g>
<!-- summer, night&#45;&gt;GSL -->
<g id="edge24" class="edge"><title>summer, night&#45;&gt;GSL</title>
<path fill="none" stroke="forestgreen" d="M278.759,-176.73C303.104,-180.347 330.787,-184.46 353.03,-187.764"/>
<polygon fill="forestgreen" stroke="forestgreen" points="363.153,-189.269 352.601,-192.25 358.208,-188.534 353.262,-187.799 353.262,-187.799 353.262,-187.799 358.208,-188.534 353.923,-183.348 363.153,-189.269 363.153,-189.269"/>
<text text-anchor="middle" x="329" y="-183.4" font-family="Times Roman,serif" font-size="14.00">1.66</text>
</g>
<!-- winter, day -->
<g id="node6" class="node"><title>winter, day</title>
<polygon fill="white" stroke="white" points="268,-132 172,-132 172,-96 268,-96 268,-132"/>
<text text-anchor="middle" x="220" y="-110.4" font-family="Times Roman,serif" font-size="14.00">winter, day</text>
</g>
<!-- winter, day&#45;&gt;GSL -->
<g id="edge26" class="edge"><title>winter, day&#45;&gt;GSL</title>
<path fill="none" stroke="forestgreen" d="M259.71,-132.153C288.703,-145.407 327.794,-163.277 356.5,-176.4"/>
<polygon fill="forestgreen" stroke="forestgreen" points="365.807,-180.655 354.842,-180.59 361.26,-178.576 356.713,-176.497 356.713,-176.497 356.713,-176.497 361.26,-178.576 358.584,-172.405 365.807,-180.655 365.807,-180.655"/>
<text text-anchor="middle" x="329" y="-159.4" font-family="Times Roman,serif" font-size="14.00">6.64</text>
</g>
<!-- winter, night -->
<g id="node7" class="node"><title>winter, night</title>
<polygon fill="white" stroke="white" points="273,-78 167,-78 167,-42 273,-42 273,-78"/>
<text text-anchor="middle" x="220" y="-56.4" font-family="Times Roman,serif" font-size="14.00">winter, night</text>
</g>
<!-- winter, night&#45;&gt;GSL -->
<g id="edge28" class="edge"><title>winter, night&#45;&gt;GSL</title>
<path fill="none" stroke="forestgreen" d="M243.601,-78.0718C273.876,-101.253 326.59,-141.618 361.139,-168.072"/>
<polygon fill="forestgreen" stroke="forestgreen" points="369.507,-174.479 358.831,-171.973 365.537,-171.44 361.567,-168.4 361.567,-168.4 361.567,-168.4 365.537,-171.44 364.303,-164.827 369.507,-174.479 369.507,-174.479"/>
<text text-anchor="middle" x="329" y="-128.4" font-family="Times Roman,serif" font-size="14.00">3.32</text>
</g>
<!-- ethos -->
<g id="node10" class="node"><title>ethos</title>
<a xlink:href="../commodities/rc_ethos_1990.svg" xlink:title="ethos">
<ellipse fill="lightsteelblue" stroke="lightsteelblue" cx="39" cy="-194" rx="38.8909" ry="38.8909"/>
<text text-anchor="middle" x="39" y="-190.4" font-family="Times Roman,serif" font-size="14.00">ethos</text>
</a>
</g>
<!-- ethos&#45;&gt;inter, day -->
<g id="edge5" class="edge"><title>ethos&#45;&gt;inter, day</title>
<path fill="none" stroke="firebrick" d="M70.5278,-217.689C103.395,-242.385 154.641,-280.891 187.768,-305.781"/>
<polygon fill="firebrick" stroke="firebrick" points="195.777,-311.8 185.079,-309.39 191.78,-308.796 187.783,-305.792 187.783,-305.792 187.783,-305.792 191.78,-308.796 190.486,-302.195 195.777,-311.8 195.777,-311.8"/>
<text text-anchor="middle" x="112" y="-299.4" font-family="Times Roman,serif" font-size="14.00">3.32</text>
</g>
<!-- ethos&#45;&gt;inter, night -->
<g id="edge7" class="edge"><title>ethos&#45;&gt;inter, night</title>
<path fill="none" stroke="firebrick" d="M74.7598,-210.201C102.303,-222.679 140.682,-240.066 171.071,-253.833"/>
<polygon fill="firebrick" stroke="firebrick" points="180.225,-257.98 169.259,-257.952 175.67,-255.917 171.116,-253.853 171.116,-253.853 171.116,-253.853 175.67,-255.917 172.973,-249.754 180.225,-257.98 180.225,-257.98"/>
<text text-anchor="middle" x="112" y="-250.4" font-family="Times Roman,serif" font-size="14.00">1.66</text>
</g>
<!-- ethos&#45;&gt;summer, day -->
<g id="edge9" class="edge"><title>ethos&#45;&gt;summer, day</title>
<path fill="none" stroke="firebrick" d="M77.829,-200.007C100.856,-203.569 130.595,-208.169 156.916,-212.241"/>
<polygon fill="firebrick" stroke="firebrick" points="166.816,-213.773 156.246,-216.691 161.875,-213.008 156.934,-212.244 156.934,-212.244 156.934,-212.244 161.875,-213.008 157.622,-207.797 166.816,-213.773 166.816,-213.773"/>
<text text-anchor="middle" x="112" y="-213.4" font-family="Times Roman,serif" font-size="14.00">3.32</text>
</g>
<!-- ethos&#45;&gt;summer, night -->
<g id="edge11" class="edge"><title>ethos&#45;&gt;summer, night</title>
<path fill="none" stroke="firebrick" d="M77.829,-188.422C99.1923,-185.354 126.333,-181.455 151.162,-177.888"/>
<polygon fill="firebrick" stroke="firebrick" points="161.272,-176.436 152.013,-182.312 156.322,-177.147 151.373,-177.858 151.373,-177.858 151.373,-177.858 156.322,-177.147 150.733,-173.404 161.272,-176.436 161.272,-176.436"/>
<text text-anchor="middle" x="112" y="-183.4" font-family="Times Roman,serif" font-size="14.00">1.66</text>
</g>
<!-- ethos&#45;&gt;winter, day -->
<g id="edge13" class="edge"><title>ethos&#45;&gt;winter, day</title>
<path fill="none" stroke="firebrick" d="M74.7598,-178.195C101.905,-166.197 139.576,-149.547 169.75,-136.21"/>
<polygon fill="firebrick" stroke="firebrick" points="179.26,-132.007 171.933,-140.165 174.687,-134.028 170.114,-136.049 170.114,-136.049 170.114,-136.049 174.687,-134.028 168.295,-131.933 179.26,-132.007 179.26,-132.007"/>
<text text-anchor="middle" x="112" y="-159.4" font-family="Times Roman,serif" font-size="14.00">6.64</text>
</g>
<!-- ethos&#45;&gt;winter, night -->
<g id="edge15" class="edge"><title>ethos&#45;&gt;winter, night</title>
<path fill="none" stroke="firebrick" d="M70.5278,-170.659C103.162,-146.499 153.918,-108.922 187.063,-84.3843"/>
<polygon fill="firebrick" stroke="firebrick" points="195.501,-78.1372 190.142,-87.7041 191.483,-81.1122 187.464,-84.0873 187.464,-84.0873 187.464,-84.0873 191.483,-81.1122 184.787,-80.4706 195.501,-78.1372 195.501,-78.1372"/>
<text text-anchor="middle" x="112" y="-128.4" font-family="Times Roman,serif" font-size="14.00">3.32</text>
</g>
</g>
</svg>
