<?xml version="1.0" encoding="UTF-8" standalone="no"?>
<!DOCTYPE svg PUBLIC "-//W3C//DTD SVG 1.1//EN"
 "http://www.w3.org/Graphics/SVG/1.1/DTD/svg11.dtd">
<!-- Generated by graphviz version 2.26.3 (20100126.1600)
 -->
<!-- Title: model Pages: 1 -->
<svg width="414pt" height="236pt"
 viewBox="0.00 0.00 414.00 236.00" xmlns="http://www.w3.org/2000/svg" xmlns:xlink="http://www.w3.org/1999/xlink">
<g id="graph1" class="graph" transform="scale(1 1) rotate(0) translate(4 232)">
<title>model</title>
<polygon fill="white" stroke="white" points="-4,5 -4,-232 411,-232 411,5 -4,5"/>
<text text-anchor="middle" x="203" y="-9.4" font-family="Times Roman,serif" font-size="14.00">Activity split of process E01, 1970 in year 2000</text>
<g id="graph2" class="cluster"><title>cluster_slices</title>
<polygon fill="lightgrey" stroke="lightgrey" points="128,-34 128,-220 284,-220 284,-34 128,-34"/>
<text text-anchor="middle" x="206" y="-203.4" font-family="Times Roman,serif" font-size="14.00">1970 Capacity: 1.69</text>
</g>
<!-- summer, night -->
<g id="node2" class="node"><title>summer, night</title>
<polygon fill="white" stroke="white" points="264,-186 148,-186 148,-150 264,-150 264,-186"/>
<text text-anchor="middle" x="206" y="-164.4" font-family="Times Roman,serif" font-size="14.00">summer, night</text>
</g>
<!-- ELC -->
<g id="node6" class="node"><title>ELC</title>
<a xlink:href="../commodities/rc_ELC_2000.svg" xlink:title="ELC">
<ellipse fill="lightsteelblue" stroke="lightsteelblue" cx="375" cy="-114" rx="31.1127" ry="31.1127"/>
<text text-anchor="middle" x="375" y="-110.4" font-family="Times Roman,serif" font-size="14.00">ELC</text>
</a>
</g>
<!-- summer, night&#45;&gt;ELC -->
<g id="edge12" class="edge"><title>summer, night&#45;&gt;ELC</title>
<path fill="none" stroke="forestgreen" d="M262.745,-149.869C286.694,-142.216 313.988,-133.495 335.667,-126.568"/>
<polygon fill="forestgreen" stroke="forestgreen" points="345.199,-123.522 337.044,-130.852 340.437,-125.044 335.674,-126.566 335.674,-126.566 335.674,-126.566 340.437,-125.044 334.304,-122.279 345.199,-123.522 345.199,-123.522"/>
<text text-anchor="middle" x="310" y="-148.4" font-family="Times Roman,serif" font-size="14.00">0.00</text>
</g>
<!-- winter, day -->
<g id="node3" class="node"><title>winter, day</title>
<polygon fill="white" stroke="white" points="254,-132 158,-132 158,-96 254,-96 254,-132"/>
<text text-anchor="middle" x="206" y="-110.4" font-family="Times Roman,serif" font-size="14.00">winter, day</text>
</g>
<!-- winter, day&#45;&gt;ELC -->
<g id="edge14" class="edge"><title>winter, day&#45;&gt;ELC</title>
<path fill="none" stroke="forestgreen" d="M254.429,-114C279.493,-114 309.77,-114 333.714,-114"/>
<polygon fill="forestgreen" stroke="forestgreen" points="343.89,-114 333.89,-118.5 338.89,-114 333.89,-114 333.89,-114 333.89,-114 338.89,-114 333.89,-109.5 343.89,-114 343.89,-114"/>
<text text-anchor="middle" x="310" y="-119.4" font-family="Times Roman,serif" font-size="14.00">1.47</text>
</g>
<!-- winter, night -->
<g id="node4" class="node"><title>winter, night</title>
<polygon fill="white" stroke="white" points="259,-78 153,-78 153,-42 259,-42 259,-78"/>
<text text-anchor="middle" x="206" y="-56.4" font-family="Times Roman,serif" font-size="14.00">winter, night</text>
</g>
<!-- winter, night&#45;&gt;ELC -->
<g id="edge16" class="edge"><title>winter, night&#45;&gt;ELC</title>
<path fill="none" stroke="forestgreen" d="M259.937,-77.2344C284.508,-85.0855 313.064,-94.2098 335.581,-101.405"/>
<polygon fill="forestgreen" stroke="forestgreen" points="345.148,-104.461 334.253,-105.704 340.385,-102.94 335.622,-101.418 335.622,-101.418 335.622,-101.418 340.385,-102.94 336.992,-97.1312 345.148,-104.461 345.148,-104.461"/>
<text text-anchor="middle" x="310" y="-97.4" font-family="Times Roman,serif" font-size="14.00">0.74</text>
</g>
<!-- HCO -->
<g id="node7" class="node"><title>HCO</title>
<a xlink:href="../commodities/rc_HCO_2000.svg" xlink:title="HCO">
<ellipse fill="lightsteelblue" stroke="lightsteelblue" cx="34" cy="-114" rx="33.9411" ry="33.9411"/>
<text text-anchor="middle" x="34" y="-110.4" font-family="Times Roman,serif" font-size="14.00">HCO</text>
</a>
</g>
<!-- HCO&#45;&gt;summer, night -->
<g id="edge5" class="edge"><title>HCO&#45;&gt;summer, night</title>
<path fill="none" stroke="firebrick" d="M66.7567,-124.284C87.1499,-130.687 114.128,-139.157 138.904,-146.935"/>
<polygon fill="firebrick" stroke="firebrick" points="148.634,-149.99 137.745,-151.288 143.864,-148.492 139.093,-146.994 139.093,-146.994 139.093,-146.994 143.864,-148.492 140.441,-142.701 148.634,-149.99 148.634,-149.99"/>
<text text-anchor="middle" x="102" y="-148.4" font-family="Times Roman,serif" font-size="14.00">0.00</text>
</g>
<!-- HCO&#45;&gt;winter, day -->
<g id="edge7" class="edge"><title>HCO&#45;&gt;winter, day</title>
<path fill="none" stroke="firebrick" d="M68.3934,-114C91.0686,-114 121.339,-114 147.716,-114"/>
<polygon fill="firebrick" stroke="firebrick" points="157.987,-114 147.987,-118.5 152.987,-114 147.987,-114 147.987,-114 147.987,-114 152.987,-114 147.987,-109.5 157.987,-114 157.987,-114"/>
<text text-anchor="middle" x="102" y="-119.4" font-family="Times Roman,serif" font-size="14.00">4.60</text>
</g>
<!-- HCO&#45;&gt;winter, night -->
<g id="edge9" class="edge"><title>HCO&#45;&gt;winter, night</title>
<path fill="none" stroke="firebrick" d="M66.7567,-103.716C88.1908,-96.9866 116.9,-87.9734 142.68,-79.8795"/>
<polygon fill="firebrick" stroke="firebrick" points="152.396,-76.8292 144.203,-84.118 147.626,-78.3269 142.855,-79.8246 142.855,-79.8246 142.855,-79.8246 147.626,-78.3269 141.507,-75.5312 152.396,-76.8292 152.396,-76.8292"/>
<text text-anchor="middle" x="102" y="-97.4" font-family="Times Roman,serif" font-size="14.00">2.30</text>
</g>
</g>
</svg>
