<?xml version="1.0" encoding="UTF-8" standalone="no"?>
<!-- Generator: Adobe Illustrator 13.0.2, SVG Export Plug-In . SVG Version: 6.00 Build 14948)  -->

<svg
   xmlns:dc="http://purl.org/dc/elements/1.1/"
   xmlns:cc="http://creativecommons.org/ns#"
   xmlns:rdf="http://www.w3.org/1999/02/22-rdf-syntax-ns#"
   xmlns:svg="http://www.w3.org/2000/svg"
   xmlns="http://www.w3.org/2000/svg"
   xmlns:sodipodi="http://sodipodi.sourceforge.net/DTD/sodipodi-0.dtd"
   xmlns:inkscape="http://www.inkscape.org/namespaces/inkscape"
   version="1.1"
   x="0px"
   y="0px"
   width="200"
   height="200"
   viewBox="0 0 589 589"
   enable-background="new 0 0 1024 768"
   xml:space="preserve"
   id="svg14346"
   inkscape:version="0.47pre4 r22446"
   sodipodi:docname="TemoaLogo.svg"><metadata
   id="metadata14517"><rdf:RDF><cc:Work
       rdf:about=""><dc:format>image/svg+xml</dc:format><dc:type
         rdf:resource="http://purl.org/dc/dcmitype/StillImage" /><cc:license
         rdf:resource="http://creativecommons.org/licenses/by-nc/3.0/" /><dc:title></dc:title></cc:Work><cc:License
       rdf:about="http://creativecommons.org/licenses/by-nc/3.0/"><cc:permits
         rdf:resource="http://creativecommons.org/ns#Reproduction" /><cc:permits
         rdf:resource="http://creativecommons.org/ns#Distribution" /><cc:requires
         rdf:resource="http://creativecommons.org/ns#Notice" /><cc:requires
         rdf:resource="http://creativecommons.org/ns#Attribution" /><cc:prohibits
         rdf:resource="http://creativecommons.org/ns#CommercialUse" /><cc:permits
         rdf:resource="http://creativecommons.org/ns#DerivativeWorks" /></cc:License></rdf:RDF></metadata><defs
   id="defs14515"><inkscape:perspective
     sodipodi:type="inkscape:persp3d"
     inkscape:vp_x="0 : 384 : 1"
     inkscape:vp_y="0 : 1000 : 0"
     inkscape:vp_z="1024 : 384 : 1"
     inkscape:persp3d-origin="512 : 256 : 1"
     id="perspective14519" /></defs><sodipodi:namedview
   pagecolor="#ffffff"
   bordercolor="#666666"
   borderopacity="1"
   objecttolerance="10"
   gridtolerance="10"
   guidetolerance="10"
   inkscape:pageopacity="0"
   inkscape:pageshadow="2"
   inkscape:window-width="692"
   inkscape:window-height="489"
   id="namedview14513"
   showgrid="false"
   showborder="false"
   inkscape:showpageshadow="false"
   inkscape:zoom="0.30729167"
   inkscape:cx="358.70339"
   inkscape:cy="337"
   inkscape:window-x="0"
   inkscape:window-y="25"
   inkscape:window-maximized="0"
   inkscape:current-layer="svg14346" />
<g
   id="outer"
   transform="translate(-213.5,-132)">
	<circle
   clip-rule="evenodd"
   cx="508"
   cy="426.5"
   r="290"
   id="circle14349"
   sodipodi:cx="508"
   sodipodi:cy="426.5"
   sodipodi:rx="290"
   sodipodi:ry="290"
   style="fill:none;stroke:#000000;stroke-width:9"
   d="m 798,426.5 c 0,160.16258 -129.83742,290 -290,290 -160.16258,0 -290,-129.83742 -290,-290 0,-160.16258 129.83742,-290 290,-290 160.16258,0 290,129.83742 290,290 z" />
</g>
<g
   id="inner"
   transform="translate(-213.5,-132)">
	<circle
   clip-rule="evenodd"
   cx="508"
   cy="426.5"
   r="213"
   id="circle14352"
   sodipodi:cx="508"
   sodipodi:cy="426.5"
   sodipodi:rx="213"
   sodipodi:ry="213"
   style="fill:none;stroke:#000000;stroke-width:9"
   d="m 721,426.5 c 0,117.63665 -95.36335,213 -213,213 -117.63665,0 -213,-95.36335 -213,-213 0,-117.63665 95.36335,-213 213,-213 117.63665,0 213,95.36335 213,213 z" />
</g>
<g
   id="iris"
   transform="translate(-213.5,-132)">
	<radialGradient
   id="SVGID_1_"
   cx="507.25"
   cy="426.75"
   r="205"
   gradientUnits="userSpaceOnUse">
		<stop
   offset="0.8956"
   style="stop-color:#808080"
   id="stop14356" />
		<stop
   offset="0.9403"
   style="stop-color:#818181"
   id="stop14358" />
		<stop
   offset="0.9564"
   style="stop-color:#888888"
   id="stop14360" />
		<stop
   offset="0.9679"
   style="stop-color:#949494"
   id="stop14362" />
		<stop
   offset="0.9772"
   style="stop-color:#A5A5A5"
   id="stop14364" />
		<stop
   offset="0.9851"
   style="stop-color:#BBBBBB"
   id="stop14366" />
		<stop
   offset="0.9922"
   style="stop-color:#D6D6D6"
   id="stop14368" />
		<stop
   offset="0.9984"
   style="stop-color:#F5F5F5"
   id="stop14370" />
		<stop
   offset="1"
   style="stop-color:#FFFFFF"
   id="stop14372" />
	</radialGradient>
	<circle
   clip-rule="evenodd"
   cx="507.25"
   cy="426.75"
   r="205"
   id="circle14374"
   sodipodi:cx="507.25"
   sodipodi:cy="426.75"
   sodipodi:rx="205"
   sodipodi:ry="205"
   style="fill:url(#SVGID_1_);fill-rule:evenodd"
   d="m 712.25,426.75 c 0,113.21837 -91.78163,205 -205,205 -113.21837,0 -205,-91.78163 -205,-205 0,-113.21837 91.78163,-205 205,-205 113.21837,0 205,91.78163 205,205 z" />
</g>
<g
   id="flora"
   transform="translate(-213.5,-132)">
	<g
   id="g14377">
		<path
   clip-rule="evenodd"
   d="m 561.656,294.013 c 18.436,-10.177 88.172,-48.198 102,-4 8.709,27.836 -14.998,62.958 -26,83 27.688,8.449 69.893,17.154 78,44 4.988,16.516 -4.742,30.409 -14,38 -15.043,12.335 -39.176,19.93 -61,25 11.166,21.076 45,86.4 5,102 -3.047,1.188 -7.104,1.723 -11,2 -31.305,2.231 -51.131,-16.398 -73,-27 -8.785,27.539 -16.336,65.854 -41,76 -8.595,3.535 -18.138,3.233 -26,0 -24.602,-10.119 -32.554,-49.234 -41,-76 -22.499,15.91 -91.194,45.314 -102,2 -7.146,-28.644 16.212,-58.676 25,-78 -26.384,-9.646 -67.724,-16.595 -76,-44 -2.021,-6.692 -1.89,-13.745 0,-20 8.03,-26.59 49.528,-34.761 76,-44 -7.344,-18.254 -32.852,-52.359 -24,-82 3.013,-10.091 16.302,-21.945 32,-22 25.349,-0.088 48.938,15.774 68,25 10.908,-24.407 17.165,-63.785 42,-74 7.662,-3.152 17.06,-3.678 26,0 25.508,10.492 30.323,46.342 41,74 z m -36,26 c 5.002,-3.87 16.836,-9.763 18,-15 1.604,-7.222 -6.475,-25.434 -9,-32 -3.934,-10.228 -8.572,-20.416 -14,-27 -2.625,-3.183 -10.732,-10.108 -14,-9 -22.314,7.569 -27.119,43.375 -35,69 10.871,10.129 25.492,16.507 35,28 6.576,-4.04 11.719,-8.367 19,-14 z m 40,-4 c 3.816,13.85 5.447,29.887 7,46 15.148,1.517 29.566,3.767 44,6 12.807,-19.675 32.803,-46.531 25,-77 -32.037,-6.157 -55.154,13.356 -76,25 z m -188.999,-25 c -1.74,0 -2.672,0.027 -3.197,0.443 -0.607,0.48 -0.669,1.479 -0.803,3.557 -2.78,32.159 14.794,52.505 26,74 13.003,-3.997 29.243,-4.757 44,-7 1.027,-15.973 3.937,-30.063 6,-45 -19.221,-13.063 -41.645,-27.3 -72,-26 z m 145.999,56 c 8.729,5.604 12.6,16.067 30,13 -0.904,-11.763 -1.977,-23.358 -5,-33 -7.34,7.661 -17.482,12.519 -25,20 z m -59.999,13 c 16.745,2.412 23.312,-5.354 29,-14 -9.064,-5.269 -15.76,-12.907 -25,-18 -1.261,10.739 -3.627,20.373 -4,32 z m -4,48 c -2.041,8.274 -2.729,26.092 0,36 1.351,4.904 11.197,13.073 15,17 5.47,5.647 11.813,13.577 17,15 11.383,3.122 21.143,-2.243 35,0 11.361,-9.305 22.008,-19.325 31,-31 -2.23,-12.772 3.023,-26.038 0,-37 -1.561,-5.657 -10.48,-12.424 -14,-16 -4.838,-4.916 -10.973,-12.621 -16,-14 -11.777,-3.23 -24.069,2.324 -39,0 -0.61,0.057 -1.184,0.149 -1,1 -7.642,9.564 -24.794,16.003 -28,29 z m -48,-21 c 5.477,7.857 11.767,14.899 17,23 9.019,-4.647 14.508,-12.825 13,-28 -10.654,1.013 -22.523,0.811 -30,5 z m 176.999,24 c 4.549,-9.178 15.248,-17.337 17,-26 -10.654,-0.345 -18.711,-3.289 -30,-3 -2.154,16.154 5.94,22.059 13,29 z m -185.999,34 c 2.17,-3.013 14.035,-17.162 14,-19 -0.031,-1.656 -9.318,-12.361 -13,-17 -6.634,-8.356 -11.82,-15.751 -16,-19 -15.731,5.446 -69.129,17.917 -68,38 0.596,10.596 19.229,18.736 29,23 14.067,6.139 26.384,9.139 40,13 3.175,-7.261 8.756,-11.722 14,-19 z m 266.999,6 c 10.219,-4.46 29,-12.906 29,-24 0,-21.316 -54.137,-31.412 -70,-37 -8.883,12.118 -18.783,23.218 -27,36 10.137,12.195 18.18,26.486 29,38 12.906,-4.156 25.119,-6.943 39,-13 z m -259.999,17 c 10.439,1.56 20.266,3.733 32,4 2.296,-16.962 -5.192,-24.141 -13,-31 -5.524,9.81 -13.337,17.33 -19,27 z m 176.999,-26 c -6.648,7.019 -13.145,14.188 -11,30 11.574,-0.759 23.568,-1.099 32,-5 -7.859,-7.475 -11.552,-19.114 -21,-25 z m -187.999,43 c -11.48,20.02 -30.018,43.09 -24,74 11.104,7.701 27.22,1.604 41,-4 6.448,-2.622 32.031,-13.062 34,-20 1.372,-4.836 -2.063,-14.679 -3,-21 -1.025,-6.919 -2.693,-14.03 -3,-22 -15.174,-2.16 -31.36,-3.308 -45,-7 z m 220.999,1 c -0.057,-0.61 -0.15,-1.184 -1,-1 -13.35,3.983 -29.699,4.967 -45,7 -1.238,15.428 -3.926,29.408 -6,44 20.564,11.778 43.871,30.323 75,25 9.451,-27.451 -12.119,-54.926 -23,-75 z m -150.999,39 c 7.069,-7.598 17.309,-12.024 24,-20 -6.264,-7.069 -13.284,-13.383 -29,-11 1.171,10.829 1.691,22.308 5,31 z m 55.999,-19 c 9.092,5.575 16.367,12.966 25,19 1.27,-10.396 3.42,-19.913 4,-31 -15.486,-1.819 -24.732,2.601 -29,12 z m -16.999,12 c -11.136,9.864 -23.012,18.988 -36,27 3.177,14.284 6.879,26.817 13,41 4.451,10.315 12.854,30 24,30 10.402,0 19.826,-19.267 24,-29 6.193,-14.444 9.098,-27.152 13,-41 -14.038,-7.963 -25.198,-18.805 -38,-28 z"
   id="path14379"
   style="fill:#ffffff;fill-rule:evenodd" />
	</g>
</g>
<g
   id="pupil"
   transform="translate(-213.5,-132)">
	<radialGradient
   id="SVGID_2_"
   cx="507.25"
   cy="426.75"
   r="136.75"
   gradientUnits="userSpaceOnUse">
		<stop
   offset="0"
   style="stop-color:#FFFFFF"
   id="stop14383" />
		<stop
   offset="0.9011"
   style="stop-color:#000000"
   id="stop14385" />
	</radialGradient>
	<circle
   clip-rule="evenodd"
   cx="507.25"
   cy="426.75"
   r="136.75"
   id="circle14387"
   sodipodi:cx="507.25"
   sodipodi:cy="426.75"
   sodipodi:rx="136.75"
   sodipodi:ry="136.75"
   style="fill:url(#SVGID_2_);fill-rule:evenodd"
   d="M 644,426.75 C 644,502.27494 582.77494,563.5 507.25,563.5 431.72506,563.5 370.5,502.27494 370.5,426.75 370.5,351.22506 431.72506,290 507.25,290 582.77494,290 644,351.22506 644,426.75 z" />
</g>
<g
   id="title"
   transform="translate(-213.5,-132)">
	<g
   id="g14390">
		<path
   d="m 270.635,369.917 c 0.74,0.151 1.026,0.639 0.858,1.463 l -2.629,12.91 c -0.168,0.825 -0.622,1.162 -1.362,1.011 l -3.045,-0.62 c -0.359,-0.073 -0.621,-0.247 -0.786,-0.523 -0.164,-0.275 -0.209,-0.593 -0.136,-0.953 l 2.628,-12.91 c 0.168,-0.825 0.644,-1.157 1.426,-0.998 l 3.046,0.62 z"
   id="path14392" />
		<path
   d="m 257.259,321.688 c 0.673,0.232 0.872,0.747 0.598,1.542 l -4.216,12.208 40.419,13.957 c 0.367,0.126 0.633,0.333 0.797,0.617 0.165,0.286 0.187,0.601 0.067,0.948 l -1.184,3.427 c -0.113,0.327 -0.323,0.557 -0.632,0.689 -0.308,0.133 -0.646,0.136 -1.014,0.01 l -40.418,-13.957 -4.226,12.239 c -0.289,0.836 -0.77,1.138 -1.443,0.906 l -2.754,-0.951 c -0.285,-0.098 -0.501,-0.315 -0.648,-0.652 -0.146,-0.335 -0.164,-0.667 -0.051,-0.993 l 10.407,-30.138 c 0.112,-0.326 0.316,-0.57 0.612,-0.73 0.295,-0.161 0.606,-0.185 0.932,-0.072 l 2.754,0.95 z"
   id="path14394" />
		<path
   d="m 318.364,299.894 c 0.338,0.191 0.552,0.46 0.641,0.808 0.089,0.347 0.043,0.681 -0.137,1 l -1.653,2.933 c -0.181,0.32 -0.447,0.528 -0.799,0.627 -0.353,0.098 -0.689,0.058 -1.009,-0.123 l -19.174,-10.81 -11.144,19.767 19.174,10.81 c 0.338,0.191 0.553,0.46 0.641,0.808 0.089,0.347 0.043,0.681 -0.137,1 l -1.653,2.933 c -0.181,0.32 -0.447,0.528 -0.8,0.627 -0.353,0.098 -0.688,0.058 -1.008,-0.123 L 260.702,307.26 c -0.282,-0.159 -0.481,-0.42 -0.599,-0.784 -0.117,-0.363 -0.086,-0.704 0.094,-1.024 l 1.653,-2.933 c 0.18,-0.32 0.446,-0.529 0.799,-0.627 0.353,-0.099 0.689,-0.058 1.008,0.123 l 16.75,9.442 11.144,-19.767 -16.75,-9.442 c -0.282,-0.159 -0.481,-0.42 -0.599,-0.784 -0.117,-0.363 -0.086,-0.704 0.094,-1.024 l 1.653,-2.932 c 0.18,-0.32 0.447,-0.529 0.799,-0.627 0.353,-0.099 0.689,-0.058 1.008,0.123 l 40.608,22.89 z"
   id="path14396" />
		<path
   d="m 341.476,271.833 c 0.435,0.355 0.54,0.721 0.317,1.096 -1.158,1.757 -3.806,5.167 -7.944,10.229 -1.98,2.423 -3.956,4.174 -5.925,5.253 -1.97,1.08 -3.999,1.449 -6.088,1.106 -2.089,-0.342 -4.245,-1.421 -6.467,-3.238 L 295.62,270.135 c -3.324,-2.717 -5.01,-5.6 -5.055,-8.647 -0.045,-3.047 1.434,-6.409 4.439,-10.085 1.393,-1.704 2.927,-3.529 4.603,-5.477 1.675,-1.947 2.973,-3.381 3.893,-4.302 0.323,-0.293 0.702,-0.262 1.137,0.093 l 2.556,2.089 c 0.418,0.342 0.476,0.696 0.176,1.063 l -8.113,9.925 c -1.475,1.804 -2.41,3.298 -2.805,4.48 -0.395,1.182 -0.343,2.228 0.154,3.136 0.498,0.909 1.44,1.93 2.827,3.063 l 7.143,5.838 12.886,-15.764 c 0.259,-0.317 0.556,-0.493 0.891,-0.526 0.334,-0.033 0.66,0.08 0.977,0.339 l 1.93,1.578 c 0.301,0.246 0.466,0.547 0.494,0.905 0.028,0.358 -0.074,0.679 -0.306,0.962 l -12.886,15.764 8.622,7.047 c 1.387,1.134 2.575,1.854 3.564,2.161 0.989,0.307 2.024,0.149 3.104,-0.473 1.08,-0.622 2.357,-1.835 3.833,-3.64 l 8.113,-9.924 c 0.3,-0.367 0.66,-0.38 1.078,-0.039 l 2.601,2.132 z"
   id="path14398" />
		<path
   d="m 357.06,200.553 c 0.433,0.566 0.315,1.104 -0.354,1.616 l -10.259,7.847 25.979,33.964 c 0.236,0.309 0.344,0.627 0.323,0.955 -0.021,0.329 -0.177,0.604 -0.468,0.827 l -2.879,2.203 c -0.274,0.21 -0.577,0.285 -0.908,0.226 -0.331,-0.059 -0.614,-0.244 -0.85,-0.552 l -25.979,-33.963 -10.284,7.866 c -0.703,0.538 -1.271,0.523 -1.703,-0.042 l -1.77,-2.314 c -0.183,-0.24 -0.244,-0.54 -0.18,-0.901 0.064,-0.361 0.232,-0.646 0.507,-0.856 l 25.325,-19.371 c 0.274,-0.209 0.579,-0.3 0.914,-0.271 0.335,0.029 0.607,0.181 0.817,0.455 l 1.769,2.311 z"
   id="path14400" />
		<path
   d="m 412.539,220.186 c 0.268,0.493 0.228,0.871 -0.121,1.134 -1.736,1.189 -5.476,3.346 -11.221,6.469 -2.749,1.495 -5.239,2.37 -7.471,2.625 -2.232,0.255 -4.25,-0.17 -6.055,-1.277 -1.805,-1.106 -3.393,-2.92 -4.764,-5.441 l -12.184,-22.409 c -2.051,-3.772 -2.522,-7.079 -1.413,-9.917 1.11,-2.838 3.75,-5.392 7.92,-7.66 1.934,-1.051 4.044,-2.162 6.332,-3.332 2.287,-1.169 4.03,-2.007 5.229,-2.512 0.41,-0.149 0.749,0.023 1.017,0.516 l 1.577,2.9 c 0.258,0.474 0.178,0.825 -0.239,1.051 l -11.261,6.123 c -2.047,1.113 -3.478,2.143 -4.29,3.088 -0.812,0.946 -1.16,1.933 -1.042,2.962 0.118,1.029 0.604,2.331 1.459,3.904 l 4.407,8.104 17.888,-9.726 c 0.36,-0.196 0.701,-0.246 1.023,-0.151 0.322,0.096 0.581,0.323 0.776,0.683 l 1.191,2.19 c 0.186,0.341 0.224,0.683 0.115,1.024 -0.109,0.342 -0.325,0.6 -0.647,0.775 l -17.887,9.726 5.319,9.782 c 0.856,1.574 1.684,2.69 2.483,3.348 0.8,0.658 1.818,0.903 3.053,0.735 1.235,-0.168 2.876,-0.809 4.924,-1.922 l 11.261,-6.124 c 0.417,-0.227 0.755,-0.103 1.012,0.371 l 1.609,2.961 z"
   id="path14402" />
		<path
   d="m 457.127,203.968 c 0.12,0.37 0.094,0.712 -0.076,1.028 -0.17,0.316 -0.43,0.53 -0.779,0.643 l -3.08,0.996 c -0.35,0.113 -0.687,0.086 -1.013,-0.081 -0.326,-0.167 -0.545,-0.424 -0.659,-0.774 l -12.092,-37.39 c -0.046,-0.144 -0.09,-0.209 -0.131,-0.196 -0.041,0.014 -0.065,0.078 -0.073,0.194 L 436.6,187.2 c -0.199,1.629 -0.63,2.891 -1.293,3.786 -0.664,0.895 -1.611,1.542 -2.843,1.94 -1.212,0.392 -2.338,0.433 -3.379,0.123 -1.042,-0.31 -2.154,-1.066 -3.337,-2.271 l -13.163,-13.774 c -0.075,-0.089 -0.132,-0.127 -0.173,-0.114 -0.042,0.014 -0.038,0.092 0.008,0.235 l 12.092,37.391 c 0.119,0.37 0.094,0.712 -0.076,1.028 -0.17,0.316 -0.43,0.53 -0.778,0.643 l -3.08,0.996 c -0.349,0.113 -0.687,0.086 -1.013,-0.081 -0.326,-0.167 -0.545,-0.424 -0.658,-0.774 l -14.154,-43.766 c -0.166,-0.513 -0.127,-1.007 0.116,-1.483 0.243,-0.475 0.611,-0.793 1.104,-0.952 l 4.127,-1.335 c 1.006,-0.325 1.79,-0.182 2.351,0.431 l 17.412,18.286 c 0.352,0.385 0.681,0.528 0.989,0.428 0.288,-0.093 0.461,-0.398 0.52,-0.917 l 3.408,-25.019 c 0.052,-0.47 0.197,-0.829 0.435,-1.076 0.237,-0.247 0.654,-0.467 1.25,-0.66 l 4.096,-1.325 c 0.329,-0.106 0.665,-0.118 1.009,-0.037 0.344,0.082 0.638,0.236 0.881,0.463 0.244,0.227 0.419,0.505 0.525,0.834 l 14.151,43.768 z"
   id="path14404" />
		<path
   d="m 498.194,179.682 c 0.4,3.582 0.317,6.734 -0.247,9.457 -0.565,2.723 -1.546,5.015 -2.945,6.875 -1.399,1.861 -3.144,3.31 -5.231,4.346 -2.088,1.037 -4.44,1.701 -7.057,1.993 -2.595,0.29 -5.025,0.159 -7.291,-0.391 -2.266,-0.55 -4.296,-1.578 -6.093,-3.082 -1.796,-1.504 -3.277,-3.537 -4.443,-6.1 -1.166,-2.562 -1.944,-5.602 -2.337,-9.12 l -0.948,-8.493 c -0.395,-3.539 -0.301,-6.681 0.283,-9.428 0.583,-2.747 1.585,-5.057 3.004,-6.931 1.419,-1.874 3.158,-3.321 5.215,-4.344 2.057,-1.022 4.405,-1.68 7.043,-1.975 2.638,-0.295 5.079,-0.165 7.323,0.387 2.244,0.553 4.253,1.583 6.028,3.089 1.775,1.507 3.243,3.52 4.404,6.039 1.161,2.52 1.942,5.581 2.344,9.184 l 0.948,8.494 z m -6.048,0.675 -0.948,-8.493 c -0.299,-2.681 -0.833,-4.988 -1.603,-6.922 -0.77,-1.933 -1.714,-3.435 -2.832,-4.504 -1.118,-1.069 -2.428,-1.813 -3.93,-2.232 -1.502,-0.418 -3.196,-0.522 -5.083,-0.312 -7.849,0.876 -11.206,6.408 -10.068,16.595 l 0.948,8.493 c 0.397,3.561 1.195,6.43 2.394,8.608 1.198,2.179 2.724,3.686 4.576,4.521 1.852,0.835 4.021,1.114 6.51,0.836 7.828,-0.872 11.173,-6.402 10.036,-16.59 z"
   id="path14406" />
		<path
   d="m 542.125,201.174 c -0.047,0.71 -0.447,1.041 -1.199,0.992 l -3.908,-0.257 c -0.604,-0.04 -0.959,-0.398 -1.066,-1.075 l -3.297,-15.496 -17.119,-1.124 -5.229,14.936 c -0.083,0.276 -0.26,0.502 -0.531,0.679 -0.271,0.177 -0.515,0.258 -0.729,0.244 l -3.908,-0.257 c -0.302,-0.02 -0.559,-0.139 -0.771,-0.359 -0.212,-0.219 -0.309,-0.479 -0.289,-0.781 0.014,-0.215 0.045,-0.365 0.094,-0.448 l 15.07,-42.252 c 0.66,-1.838 1.641,-3.088 2.938,-3.749 1.297,-0.661 2.68,-0.943 4.143,-0.847 0.947,0.062 1.844,0.267 2.686,0.614 0.842,0.347 1.594,0.916 2.256,1.705 0.662,0.789 1.135,1.821 1.42,3.094 l 9.408,43.924 c 0.035,0.09 0.047,0.242 0.031,0.457 z m -10.387,-21.152 -4.58,-22.132 c -0.162,-0.811 -0.557,-1.237 -1.18,-1.278 -0.668,-0.044 -1.137,0.326 -1.404,1.108 l -7.436,21.344 14.6,0.958 z"
   id="path14408" />
		<path
   d="m 604.091,183.767 c -3.056,9.422 -10.475,12.223 -22.258,8.403 -1.437,-0.466 -3.508,-1.251 -6.212,-2.355 l -5.741,17.705 c -0.119,0.37 -0.321,0.64 -0.603,0.809 -0.281,0.17 -0.597,0.198 -0.946,0.084 l -3.387,-1.098 c -0.328,-0.106 -0.562,-0.312 -0.701,-0.619 -0.139,-0.306 -0.148,-0.644 -0.028,-1.013 l 14.247,-43.939 c 0.306,-0.944 0.981,-1.315 2.027,-1.112 3.001,0.61 6.544,1.577 10.629,2.902 3.552,1.151 6.499,2.606 8.845,4.365 2.345,1.759 3.925,3.899 4.741,6.42 0.815,2.522 0.701,5.395 -0.344,8.617 l -0.269,0.831 z m -5.759,-1.867 0.27,-0.832 c 1.019,-3.141 0.8,-5.701 -0.656,-7.682 -1.456,-1.981 -4.258,-3.644 -8.404,-4.988 -2.197,-0.712 -4.327,-1.312 -6.393,-1.8 l -5.99,18.475 c 0.226,0.073 0.596,0.21 1.109,0.411 0.514,0.2 1.069,0.409 1.668,0.626 0.599,0.217 1.228,0.449 1.885,0.696 0.656,0.247 1.181,0.434 1.57,0.561 2.854,0.925 5.261,1.354 7.223,1.287 1.961,-0.067 3.56,-0.66 4.796,-1.779 1.236,-1.119 2.21,-2.778 2.922,-4.975 z"
   id="path14410" />
		<path
   d="m 629.693,234.158 c -0.272,0.515 -0.657,0.641 -1.152,0.379 l -3.749,-1.982 c -0.42,-0.222 -0.697,-0.424 -0.833,-0.605 -0.136,-0.181 -0.237,-0.51 -0.304,-0.984 l -1.242,-22.994 -0.543,-0.288 -0.974,-0.515 c -1.183,-0.625 -3.308,-1.823 -6.376,-3.592 l -9.109,17.227 c -0.182,0.343 -0.427,0.574 -0.732,0.692 -0.308,0.119 -0.623,0.092 -0.947,-0.079 l -3.147,-1.665 c -0.306,-0.162 -0.5,-0.405 -0.584,-0.73 -0.085,-0.325 -0.036,-0.66 0.146,-1.003 l 21.7,-41.034 c 0.403,-0.763 1.098,-0.945 2.083,-0.546 0.746,0.297 1.833,0.768 3.262,1.414 1.429,0.646 2.813,1.305 4.154,1.977 1.341,0.672 2.393,1.21 3.156,1.614 3.243,1.715 5.871,3.624 7.884,5.726 2.013,2.102 3.222,4.468 3.625,7.098 0.403,2.63 -0.188,5.443 -1.771,8.438 l -0.228,0.429 c -1.654,3.129 -3.846,5.253 -6.574,6.374 -2.729,1.12 -5.683,1.316 -8.86,0.587 l 1.217,23.457 c 0.022,0.231 -0.011,0.433 -0.102,0.605 z m 9.054,-33.807 0.227,-0.429 c 0.999,-1.889 1.393,-3.627 1.184,-5.215 -0.21,-1.588 -0.995,-3.059 -2.354,-4.412 -1.359,-1.354 -3.309,-2.701 -5.845,-4.043 -3.377,-1.786 -5.563,-2.869 -6.558,-3.248 l -8.49,16.053 c 3.394,1.893 5.529,3.07 6.407,3.535 2.518,1.332 4.711,2.18 6.581,2.546 1.869,0.366 3.538,0.175 5.008,-0.574 1.47,-0.748 2.75,-2.153 3.84,-4.213 z"
   id="path14412" />
		<path
   d="m 673.717,243.327 c -2.22,2.84 -4.483,5.035 -6.791,6.586 -2.309,1.551 -4.613,2.502 -6.914,2.854 -2.302,0.352 -4.562,0.167 -6.778,-0.553 -2.218,-0.72 -4.363,-1.891 -6.438,-3.512 -2.058,-1.608 -3.703,-3.401 -4.938,-5.379 -1.234,-1.978 -1.967,-4.132 -2.198,-6.464 -0.232,-2.332 0.131,-4.82 1.091,-7.467 0.959,-2.646 2.528,-5.363 4.708,-8.152 l 5.263,-6.733 c 2.192,-2.805 4.458,-4.985 6.797,-6.54 2.338,-1.555 4.67,-2.506 6.995,-2.852 2.324,-0.346 4.579,-0.166 6.766,0.542 2.185,0.708 4.323,1.88 6.414,3.515 2.092,1.635 3.745,3.435 4.963,5.399 1.217,1.965 1.933,4.106 2.147,6.424 0.214,2.318 -0.144,4.783 -1.076,7.396 -0.932,2.613 -2.516,5.347 -4.748,8.203 l -5.263,6.733 z m -4.795,-3.748 5.263,-6.733 c 1.661,-2.125 2.894,-4.148 3.695,-6.068 0.803,-1.92 1.178,-3.653 1.127,-5.2 -0.052,-1.546 -0.467,-2.995 -1.247,-4.344 -0.78,-1.35 -1.919,-2.609 -3.415,-3.778 -6.223,-4.864 -12.49,-3.258 -18.803,4.818 l -5.263,6.733 c -2.206,2.823 -3.644,5.431 -4.311,7.827 -0.667,2.396 -0.631,4.54 0.108,6.432 0.739,1.892 2.095,3.609 4.067,5.151 6.208,4.851 12.466,3.238 18.779,-4.838 z"
   id="path14414" />
		<path
   d="m 673.081,268.497 c -2.29,2.257 -4.557,3.354 -6.8,3.292 -2.242,-0.062 -4.637,-1.384 -7.181,-3.966 -0.395,-0.4 -0.817,-0.93 -1.27,-1.59 -0.453,-0.66 -0.716,-1.09 -0.79,-1.289 -0.089,-0.276 -0.01,-0.536 0.237,-0.78 l 1.764,-1.738 c 0.542,-0.534 1.123,-0.485 1.744,0.145 l 1.795,1.821 c 1.196,1.214 2.242,1.782 3.135,1.706 0.893,-0.078 1.946,-0.714 3.16,-1.91 l 32.921,-32.403 c 0.23,-0.227 0.528,-0.339 0.895,-0.336 0.366,0.003 0.655,0.111 0.867,0.327 l 2.478,2.513 c 0.227,0.23 0.339,0.529 0.337,0.895 -0.003,0.366 -0.12,0.663 -0.351,0.89 l -32.941,32.423 z"
   id="path14416" />
		<path
   d="m 695.506,298.035 c -0.441,0.346 -0.821,0.37 -1.139,0.07 -1.461,-1.514 -4.21,-4.843 -8.245,-9.988 -1.932,-2.462 -3.208,-4.772 -3.831,-6.93 -0.623,-2.158 -0.54,-4.219 0.251,-6.183 0.791,-1.964 2.315,-3.832 4.574,-5.603 l 20.07,-15.742 c 3.378,-2.65 6.56,-3.665 9.543,-3.043 2.983,0.622 5.94,2.801 8.871,6.536 1.358,1.732 2.804,3.628 4.338,5.689 1.534,2.061 2.649,3.64 3.347,4.739 0.216,0.379 0.103,0.743 -0.339,1.089 l -2.598,2.038 c -0.425,0.333 -0.783,0.312 -1.076,-0.061 l -7.911,-10.086 c -1.438,-1.833 -2.691,-3.072 -3.759,-3.716 -1.068,-0.644 -2.099,-0.822 -3.094,-0.536 -0.995,0.287 -2.197,0.983 -3.606,2.089 l -7.26,5.693 12.566,16.021 c 0.253,0.323 0.358,0.65 0.319,0.984 -0.041,0.333 -0.223,0.627 -0.545,0.879 l -1.961,1.539 c -0.306,0.24 -0.637,0.334 -0.991,0.284 -0.355,-0.051 -0.646,-0.221 -0.872,-0.509 l -12.565,-16.021 -8.762,6.872 c -1.41,1.105 -2.372,2.107 -2.888,3.005 -0.517,0.898 -0.589,1.943 -0.218,3.132 0.371,1.19 1.276,2.702 2.714,4.536 l 7.911,10.086 c 0.293,0.374 0.228,0.727 -0.197,1.06 l -2.647,2.077 z"
   id="path14418" />
		<path
   d="m 715.698,293.849 0.085,-0.047 7.96,-4.468 c 6.455,-3.623 11.862,-4.746 16.223,-3.37 4.361,1.376 7.798,4.303 10.312,8.782 0.666,1.186 1.218,2.478 1.657,3.877 0.438,1.399 0.768,2.736 0.988,4.01 0.22,1.274 0.336,2.317 0.346,3.128 -0.004,0.522 -0.204,0.894 -0.599,1.116 l -2.823,1.584 c -0.245,0.137 -0.472,0.141 -0.681,0.011 -0.209,-0.13 -0.346,-0.363 -0.41,-0.698 -0.175,-1.238 -0.565,-2.937 -1.171,-5.096 -0.606,-2.16 -1.289,-3.917 -2.05,-5.271 -3.802,-6.775 -10.078,-7.707 -18.829,-2.795 l -7.96,4.468 c -3.199,1.795 -5.535,3.663 -7.008,5.603 -1.473,1.94 -2.21,3.9 -2.211,5.881 -0.002,1.98 0.578,4.006 1.739,6.076 1.32,2.352 3.702,5.074 7.145,8.166 0.292,0.256 0.439,0.496 0.44,0.718 0,0.223 -0.131,0.408 -0.394,0.555 l -2.852,1.6 c -0.377,0.211 -0.788,0.183 -1.235,-0.085 -0.688,-0.431 -1.519,-1.073 -2.491,-1.924 -0.974,-0.852 -1.942,-1.83 -2.908,-2.934 -0.966,-1.104 -1.781,-2.248 -2.447,-3.434 -2.514,-4.479 -3.222,-8.938 -2.125,-13.376 1.097,-4.438 4.864,-8.465 11.299,-12.077 z"
   id="path14420" />
		<path
   d="m 768.743,349.887 c -0.67,0.244 -1.148,-0.03 -1.437,-0.821 l -4.419,-12.136 -40.18,14.633 c -0.364,0.133 -0.701,0.14 -1.008,0.022 -0.307,-0.118 -0.523,-0.349 -0.648,-0.694 l -1.241,-3.406 c -0.118,-0.325 -0.1,-0.636 0.057,-0.934 0.155,-0.298 0.416,-0.513 0.781,-0.646 l 40.179,-14.633 -4.431,-12.166 c -0.303,-0.832 -0.12,-1.369 0.55,-1.613 l 2.737,-0.997 c 0.283,-0.104 0.588,-0.071 0.914,0.098 0.325,0.168 0.547,0.415 0.665,0.739 l 10.911,29.959 c 0.118,0.324 0.113,0.642 -0.015,0.953 -0.129,0.311 -0.354,0.525 -0.679,0.643 l -2.736,0.999 z"
   id="path14422" />
		<path
   d="m 747.787,381.33 c -0.738,0.163 -1.197,-0.167 -1.379,-0.988 l -2.843,-12.864 c -0.182,-0.822 0.096,-1.314 0.834,-1.477 l 3.034,-0.671 c 0.358,-0.079 0.668,-0.026 0.93,0.159 0.262,0.185 0.433,0.457 0.512,0.815 l 2.843,12.864 c 0.182,0.822 -0.117,1.319 -0.896,1.491 l -3.035,0.671 z"
   id="path14424" />
	</g>
</g>
<g
   id="description"
   transform="translate(-213.5,-132)">
	<g
   id="g14427">
		<path
   d="m 244.083,425.679 c -0.419,-0.018 -0.653,-0.286 -0.703,-0.807 -0.101,-0.957 -0.132,-1.89 -0.095,-2.799 0.086,-2.098 0.542,-3.578 1.37,-4.44 0.827,-0.863 2.366,-1.248 4.618,-1.155 l 15,0.616 0.633,-4.156 c 0.064,-0.543 0.334,-0.806 0.81,-0.786 l 1.175,0.049 c 0.503,0.021 0.744,0.304 0.722,0.849 l -0.171,4.175 4.217,0.173 c 0.475,0.02 0.751,0.283 0.829,0.791 l 0.243,2.259 -0.005,0.125 c -0.008,0.196 -0.081,0.351 -0.219,0.464 -0.138,0.113 -0.312,0.166 -0.521,0.157 l -4.701,-0.194 -0.19,4.636 c -0.01,0.238 -0.102,0.438 -0.277,0.599 -0.174,0.16 -0.381,0.236 -0.619,0.227 l -1.447,-0.06 c -0.238,-0.01 -0.437,-0.109 -0.597,-0.298 -0.161,-0.188 -0.236,-0.388 -0.228,-0.598 l 0.19,-4.636 -15,-0.616 c -1.147,-0.048 -1.892,0.083 -2.233,0.392 -0.342,0.308 -0.531,0.909 -0.568,1.805 l -0.099,2.412 c -0.024,0.602 -0.24,0.894 -0.646,0.877 l -1.488,-0.061 z"
   id="path14429" />
		<path
   d="m 254.067,446.525 c -3.219,0.093 -5.792,-0.655 -7.721,-2.245 -1.929,-1.59 -2.938,-3.931 -3.027,-7.023 -0.089,-3.078 0.784,-5.466 2.619,-7.164 1.835,-1.698 4.361,-2.594 7.579,-2.687 l 3.274,-0.094 c 3.232,-0.094 5.812,0.654 7.742,2.245 1.929,1.589 2.938,3.923 3.026,7.002 0.089,3.092 -0.784,5.486 -2.618,7.186 -1.834,1.697 -4.368,2.594 -7.6,2.687 l -3.274,0.093 z m -0.109,-3.777 3.274,-0.094 c 1.497,-0.044 2.775,-0.287 3.833,-0.73 1.058,-0.443 1.862,-1.104 2.411,-1.98 0.549,-0.876 0.805,-1.974 0.767,-3.289 -0.056,-1.944 -0.724,-3.375 -2.003,-4.29 -1.28,-0.915 -3.06,-1.34 -5.34,-1.274 l -3.274,0.094 c -4.785,0.139 -7.123,2.131 -7.012,5.979 0.056,1.944 0.72,3.379 1.993,4.302 1.273,0.92 3.057,1.348 5.351,1.282 z"
   id="path14431" />
		<path
   d="m 256.414,468.119 c -3.199,0.364 -5.827,-0.164 -7.883,-1.585 -2.056,-1.421 -3.26,-3.668 -3.61,-6.742 -0.348,-3.06 0.319,-5.513 2.004,-7.36 1.684,-1.847 4.126,-2.952 7.325,-3.317 l 3.254,-0.37 c 3.212,-0.366 5.847,0.161 7.904,1.582 2.057,1.421 3.259,3.661 3.608,6.722 0.35,3.073 -0.317,5.533 -2.001,7.381 -1.684,1.847 -4.133,2.954 -7.345,3.319 l -3.256,0.37 z m -0.428,-3.755 3.254,-0.371 c 1.488,-0.169 2.741,-0.52 3.758,-1.051 1.017,-0.532 1.762,-1.258 2.235,-2.178 0.473,-0.921 0.635,-2.034 0.486,-3.342 -0.22,-1.934 -1.007,-3.302 -2.359,-4.105 -1.353,-0.804 -3.163,-1.077 -5.429,-0.818 l -3.254,0.371 c -4.756,0.541 -6.917,2.725 -6.481,6.549 0.22,1.934 1.003,3.306 2.35,4.117 1.347,0.811 3.159,1.088 5.44,0.828 z"
   id="path14433" />
		<path
   d="m 248.658,477.196 c -0.249,0.043 -0.464,0.01 -0.646,-0.101 -0.183,-0.11 -0.295,-0.282 -0.336,-0.517 l -0.384,-2.192 c -0.039,-0.221 0.009,-0.417 0.142,-0.589 0.133,-0.173 0.324,-0.281 0.572,-0.324 L 278.2,468.18 c 0.207,-0.036 0.405,-0.004 0.593,0.099 0.188,0.102 0.304,0.277 0.348,0.525 l 0.384,2.192 c 0.041,0.233 -0.002,0.434 -0.13,0.598 -0.128,0.164 -0.308,0.268 -0.542,0.309 l -30.195,5.293 z"
   id="path14435" />
		<path
   d="m 253.017,488.145 c 0.704,3.041 2.12,4.315 4.247,3.823 0.654,-0.151 1.163,-0.499 1.526,-1.043 0.362,-0.544 0.717,-1.495 1.063,-2.854 l 1.188,-4.736 c 0.415,-1.562 1.028,-2.821 1.841,-3.777 0.813,-0.957 1.908,-1.595 3.285,-1.914 1.445,-0.334 2.675,-0.224 3.687,0.332 1.012,0.556 1.826,1.388 2.441,2.495 0.615,1.108 1.092,2.391 1.43,3.851 0.262,1.132 0.4,2.288 0.415,3.471 0.015,1.182 -0.066,2.073 -0.243,2.675 -0.072,0.246 -0.137,0.419 -0.192,0.519 -0.056,0.099 -0.193,0.174 -0.412,0.225 l -1.718,0.397 c -0.245,0.057 -0.446,0.013 -0.601,-0.131 -0.156,-0.144 -0.213,-0.378 -0.174,-0.703 0.12,-0.847 0.16,-1.808 0.12,-2.883 -0.041,-1.075 -0.156,-2.022 -0.345,-2.841 -0.303,-1.309 -0.709,-2.317 -1.218,-3.026 -0.509,-0.708 -1.274,-0.943 -2.297,-0.707 -0.709,0.164 -1.261,0.529 -1.654,1.094 -0.394,0.565 -0.738,1.421 -1.033,2.567 l -1.166,4.645 c -0.329,1.312 -0.722,2.372 -1.181,3.183 -0.459,0.811 -0.991,1.433 -1.594,1.867 -0.604,0.434 -1.322,0.747 -2.153,0.939 -1.432,0.332 -2.718,0.256 -3.856,-0.228 -1.139,-0.483 -2.088,-1.292 -2.845,-2.424 -0.758,-1.132 -1.321,-2.495 -1.69,-4.091 -0.281,-1.214 -0.417,-2.436 -0.407,-3.667 0.01,-1.23 0.104,-2.204 0.283,-2.921 0.113,-0.442 0.319,-0.698 0.62,-0.769 l 1.718,-0.397 c 0.245,-0.057 0.45,-0.011 0.614,0.139 0.164,0.148 0.217,0.38 0.161,0.695 -0.336,2.275 -0.289,4.34 0.14,6.195 z"
   id="path14437" />
		<path
   d="m 289.135,513.19 c -0.41,0.143 -0.7,-0.031 -0.87,-0.52 l -0.676,-1.943 c -0.34,-0.979 -0.761,-1.569 -1.262,-1.773 -0.5,-0.203 -1.3,-0.114 -2.397,0.267 l -2.935,1.021 1.483,4.264 c 0.073,0.211 0.067,0.417 -0.019,0.617 -0.086,0.2 -0.228,0.335 -0.426,0.404 l -1.586,0.552 c -0.463,0.161 -0.784,-0.016 -0.963,-0.531 l -1.483,-4.264 -18.521,6.443 c -0.211,0.073 -0.426,0.062 -0.645,-0.031 -0.218,-0.095 -0.364,-0.248 -0.438,-0.459 l -0.697,-2.003 c -0.078,-0.226 -0.062,-0.442 0.051,-0.651 0.112,-0.21 0.274,-0.352 0.486,-0.425 l 18.521,-6.443 -0.937,-4.099 c -0.14,-0.529 0.015,-0.872 0.465,-1.028 l 1.11,-0.387 c 0.198,-0.068 0.393,-0.052 0.585,0.053 0.191,0.104 0.324,0.261 0.398,0.473 l 1.373,3.946 2.935,-1.021 c 1.401,-0.487 2.594,-0.657 3.579,-0.511 0.985,0.146 1.797,0.575 2.437,1.286 0.64,0.711 1.176,1.688 1.609,2.931 0.262,0.753 0.44,1.543 0.536,2.37 0.034,0.565 -0.095,0.899 -0.386,1.001 l -1.327,0.461 z"
   id="path14439" />
		<path
   d="m 277.938,538.458 c -2.959,1.27 -5.627,1.519 -8.006,0.75 -2.379,-0.77 -4.178,-2.576 -5.397,-5.419 -1.214,-2.83 -1.28,-5.372 -0.198,-7.625 1.082,-2.254 3.102,-4.016 6.061,-5.284 l 3.01,-1.292 c 2.972,-1.274 5.646,-1.527 8.025,-0.758 2.379,0.769 4.175,2.569 5.389,5.399 1.219,2.843 1.288,5.391 0.207,7.645 -1.082,2.254 -3.109,4.018 -6.08,5.293 l -3.011,1.291 z m -1.489,-3.474 3.01,-1.291 c 1.376,-0.591 2.476,-1.286 3.297,-2.088 0.821,-0.802 1.326,-1.711 1.514,-2.729 0.188,-1.018 0.022,-2.131 -0.496,-3.34 -0.767,-1.788 -1.914,-2.873 -3.44,-3.254 -1.527,-0.381 -3.338,-0.121 -5.435,0.778 l -3.01,1.291 c -4.399,1.888 -5.84,4.6 -4.323,8.137 0.767,1.788 1.912,2.878 3.435,3.268 1.523,0.39 3.338,0.134 5.448,-0.772 z"
   id="path14441" />
		<path
   d="m 295.873,542.99 c 0.521,1.008 0.906,1.903 1.155,2.688 0.092,0.299 0.1,0.52 0.025,0.661 -0.075,0.141 -0.236,0.276 -0.483,0.404 l -1.371,0.709 c -0.259,0.135 -0.461,0.176 -0.605,0.125 -0.144,-0.052 -0.284,-0.224 -0.419,-0.517 -0.401,-0.896 -0.811,-1.747 -1.229,-2.556 -0.824,-1.591 -1.802,-3.008 -2.934,-4.25 l -17.041,8.822 c -0.199,0.104 -0.417,0.117 -0.653,0.043 -0.236,-0.075 -0.405,-0.212 -0.508,-0.411 l -0.965,-1.864 c -0.097,-0.187 -0.109,-0.393 -0.037,-0.619 0.072,-0.227 0.213,-0.395 0.425,-0.504 l 18.478,-9.566 c 0.472,-0.244 0.896,-0.172 1.271,0.217 1.163,1.242 2.132,2.392 2.908,3.448 0.775,1.058 1.436,2.114 1.983,3.17 z"
   id="path14443" />
		<path
   d="m 290.68,574.99 c 0.529,0.79 1.125,1.517 1.786,2.177 0.661,0.66 1.36,1.271 2.097,1.83 0.737,0.559 1.34,1.002 1.811,1.327 0.287,0.178 0.43,0.373 0.429,0.584 -0.002,0.212 -0.113,0.392 -0.334,0.54 l -1.465,0.98 c -0.244,0.164 -0.569,0.146 -0.973,-0.056 -2.479,-1.339 -4.51,-3.188 -6.091,-5.549 -0.997,-1.489 -1.638,-3.019 -1.922,-4.588 -0.285,-1.57 -0.04,-3.153 0.736,-4.751 0.775,-1.597 2.215,-3.101 4.32,-4.51 l 3.228,-2.161 c 2.582,-1.729 5.085,-2.398 7.511,-2.01 2.425,0.39 4.479,1.84 6.161,4.353 1.129,1.686 1.749,3.348 1.859,4.983 0.11,1.635 -0.27,3.176 -1.141,4.617 -0.871,1.442 -2.143,2.724 -3.818,3.846 l -1.937,1.297 c -0.523,0.35 -0.937,0.299 -1.24,-0.155 l -8.014,-11.968 -0.506,0.339 c -2.07,1.386 -3.289,2.787 -3.654,4.203 -0.366,1.416 0.019,2.974 1.157,4.672 z m 11.737,-1.34 0.332,-0.223 c 1.314,-0.88 2.275,-1.771 2.883,-2.676 0.607,-0.903 0.867,-1.823 0.78,-2.759 -0.087,-0.936 -0.485,-1.933 -1.194,-2.99 -2.142,-3.199 -5.079,-3.548 -8.813,-1.048 l -0.331,0.222 6.343,9.474 z"
   id="path14445" />
		<path
   d="m 318.821,592.474 -11.011,8.822 c -0.186,0.148 -0.401,0.204 -0.646,0.168 -0.245,-0.037 -0.433,-0.138 -0.564,-0.302 l -1.287,-1.605 c -0.149,-0.186 -0.21,-0.396 -0.184,-0.633 0.026,-0.236 0.131,-0.429 0.317,-0.577 l 11.011,-8.822 c 1.114,-0.894 1.892,-1.736 2.333,-2.528 0.441,-0.793 0.574,-1.59 0.398,-2.391 -0.176,-0.802 -0.631,-1.661 -1.366,-2.578 -1.103,-1.377 -2.46,-2.656 -4.072,-3.84 l -14.894,11.934 c -0.175,0.14 -0.385,0.196 -0.631,0.169 -0.246,-0.026 -0.439,-0.128 -0.579,-0.303 l -1.313,-1.639 c -0.131,-0.163 -0.184,-0.363 -0.158,-0.6 0.026,-0.236 0.131,-0.429 0.317,-0.577 l 16.172,-12.958 c 0.415,-0.333 0.844,-0.345 1.289,-0.037 2.878,2.16 5.079,4.19 6.602,6.091 1.006,1.256 1.702,2.443 2.086,3.562 0.385,1.117 0.477,2.155 0.276,3.114 -0.201,0.959 -0.639,1.884 -1.314,2.775 -0.675,0.891 -1.603,1.809 -2.782,2.755 z"
   id="path14447" />
		<path
   d="m 318.71,609.919 c 0.656,0.689 1.366,1.304 2.13,1.842 0.764,0.539 1.556,1.021 2.377,1.447 0.821,0.427 1.491,0.76 2.01,1 0.313,0.127 0.488,0.295 0.522,0.503 0.034,0.209 -0.045,0.405 -0.237,0.589 l -1.277,1.216 c -0.213,0.202 -0.536,0.239 -0.968,0.109 -2.671,-0.897 -4.986,-2.375 -6.945,-4.434 -1.235,-1.298 -2.126,-2.696 -2.673,-4.194 -0.547,-1.499 -0.575,-3.101 -0.082,-4.807 0.493,-1.705 1.656,-3.432 3.492,-5.179 l 2.813,-2.678 c 2.251,-2.143 4.604,-3.228 7.061,-3.256 2.456,-0.028 4.726,1.052 6.811,3.242 1.399,1.47 2.292,3.002 2.679,4.596 0.386,1.594 0.273,3.175 -0.34,4.744 -0.613,1.568 -1.649,3.048 -3.109,4.438 l -1.688,1.606 c -0.456,0.435 -0.873,0.454 -1.249,0.059 l -9.931,-10.433 -0.441,0.42 c -1.805,1.718 -2.767,3.305 -2.887,4.763 -0.121,1.458 0.523,2.926 1.932,4.407 z m 11.339,-3.315 0.289,-0.274 c 1.146,-1.091 1.941,-2.133 2.387,-3.127 0.445,-0.994 0.545,-1.944 0.3,-2.852 -0.245,-0.907 -0.807,-1.821 -1.685,-2.744 -2.654,-2.788 -5.608,-2.634 -8.863,0.464 l -0.289,0.275 7.861,8.258 z"
   id="path14449" />
		<path
   d="m 348.734,609.748 c 0.839,0.763 1.511,1.47 2.017,2.119 0.19,0.249 0.274,0.452 0.253,0.611 -0.021,0.159 -0.126,0.341 -0.313,0.547 l -1.039,1.142 c -0.197,0.216 -0.372,0.324 -0.524,0.326 -0.153,0.002 -0.344,-0.11 -0.573,-0.338 -0.687,-0.7 -1.367,-1.357 -2.04,-1.97 -1.325,-1.206 -2.734,-2.195 -4.227,-2.967 l -12.917,14.19 c -0.151,0.166 -0.35,0.254 -0.597,0.267 -0.248,0.011 -0.454,-0.059 -0.62,-0.209 l -1.553,-1.413 c -0.155,-0.142 -0.238,-0.331 -0.25,-0.568 -0.012,-0.237 0.063,-0.443 0.224,-0.619 l 14.006,-15.388 c 0.358,-0.394 0.78,-0.473 1.267,-0.237 1.522,0.761 2.83,1.502 3.924,2.223 1.095,0.722 2.082,1.482 2.962,2.284 z"
   id="path14451" />
		<path
   d="m 340.076,640.782 c 1.097,0.869 2.038,1.429 2.824,1.677 0.786,0.248 1.557,0.176 2.314,-0.215 0.756,-0.392 1.583,-1.152 2.479,-2.281 l 0.183,-0.23 c -0.526,-0.238 -1.217,-0.617 -2.074,-1.136 -0.857,-0.519 -1.543,-0.982 -2.059,-1.392 -5.012,-3.975 -5.331,-8.72 -0.956,-14.236 l 1.957,-2.468 c 1.487,-1.876 2.988,-3.205 4.501,-3.987 1.513,-0.782 3.067,-1.029 4.66,-0.739 1.593,0.289 3.228,1.099 4.906,2.43 1.766,1.4 3.568,3.25 5.408,5.548 0.241,0.281 0.368,0.511 0.378,0.688 0.01,0.179 -0.084,0.394 -0.284,0.646 l -13.659,17.225 c -1.913,2.413 -3.874,3.641 -5.881,3.684 -2.008,0.042 -4.212,-0.889 -6.615,-2.794 -1.173,-0.931 -2.153,-1.931 -2.939,-3.001 -0.786,-1.069 -1.314,-1.953 -1.583,-2.648 -0.162,-0.45 -0.116,-0.834 0.136,-1.152 l 0.887,-1.118 c 0.156,-0.197 0.345,-0.289 0.566,-0.274 0.221,0.014 0.407,0.162 0.559,0.443 0.793,1.343 1.44,2.356 1.943,3.041 0.502,0.682 1.285,1.445 2.349,2.289 z m 9.704,-3.452 10.54,-13.292 c -1.135,-1.294 -2.295,-2.41 -3.479,-3.35 -0.834,-0.661 -1.629,-1.117 -2.385,-1.368 -0.757,-0.251 -1.493,-0.286 -2.21,-0.103 -0.717,0.183 -1.445,0.571 -2.184,1.165 -0.739,0.595 -1.522,1.413 -2.35,2.456 l -1.959,2.471 c -1.132,1.428 -1.866,2.696 -2.202,3.808 -0.336,1.111 -0.318,2.118 0.055,3.022 0.373,0.903 1.075,1.764 2.106,2.581 0.538,0.427 1.202,0.896 1.993,1.407 0.792,0.512 1.483,0.913 2.075,1.203 z"
   id="path14453" />
		<path
   d="m 382.677,636.299 c -0.085,0.129 -0.155,0.209 -0.209,0.239 l -19.608,16.693 c -1.291,1.108 -2.429,1.873 -3.415,2.294 -0.986,0.421 -2,0.532 -3.045,0.334 -1.045,-0.198 -2.249,-0.751 -3.613,-1.657 -1.049,-0.696 -1.979,-1.474 -2.788,-2.33 -0.424,-0.45 -0.546,-0.809 -0.369,-1.077 l 0.872,-1.312 c 0.255,-0.385 0.611,-0.426 1.065,-0.124 l 0.105,0.07 c 1.481,1.186 2.495,1.96 3.043,2.324 1.061,0.704 1.983,1.019 2.765,0.941 0.782,-0.077 1.718,-0.619 2.807,-1.626 l 1.326,-1.237 -0.49,-0.325 c -0.641,-0.426 -1.065,-0.926 -1.272,-1.5 -0.207,-0.574 -0.123,-1.484 0.252,-2.731 l 6.117,-19.53 c 0.007,-0.062 0.054,-0.157 0.139,-0.285 0.263,-0.396 0.605,-0.455 1.025,-0.177 l 1.976,1.313 c 0.14,0.093 0.229,0.236 0.269,0.43 0.039,0.194 0.03,0.373 -0.028,0.536 l -6.096,18.359 c -0.221,0.609 -0.173,1.02 0.142,1.229 l 0.577,0.383 15.247,-13.465 c 0.135,-0.128 0.3,-0.199 0.495,-0.213 0.194,-0.015 0.373,0.033 0.536,0.142 l 2.011,1.336 c 0.372,0.248 0.427,0.57 0.164,0.966 z"
   id="path14455" />
		<path
   d="m 382.755,661.987 8.844,-18.741 c 0.245,-0.52 0.625,-0.719 1.142,-0.599 1.886,0.363 3.492,0.742 4.815,1.135 1.324,0.393 2.511,0.837 3.562,1.332 0.898,0.425 1.695,0.959 2.389,1.604 0.694,0.646 1.146,1.335 1.357,2.068 2.755,0 5.158,0.484 7.209,1.452 1.24,0.585 2.218,1.325 2.934,2.22 0.715,0.896 1.094,2.003 1.137,3.322 0.042,1.32 -0.345,2.848 -1.164,4.582 l -6.497,13.767 c -0.107,0.228 -0.271,0.379 -0.492,0.452 -0.221,0.074 -0.438,0.061 -0.654,-0.041 l -1.861,-0.878 c -0.19,-0.09 -0.332,-0.25 -0.424,-0.479 -0.093,-0.229 -0.089,-0.451 0.013,-0.667 l 6.497,-13.767 c 0.723,-1.531 0.919,-2.754 0.59,-3.668 -0.329,-0.913 -1.052,-1.634 -2.168,-2.161 -1.244,-0.587 -2.931,-0.957 -5.06,-1.11 -0.184,1.012 -0.542,2.081 -1.073,3.208 l -6.532,13.842 c -0.096,0.203 -0.247,0.353 -0.454,0.448 -0.207,0.095 -0.411,0.096 -0.612,10e-4 l -2.058,-0.972 c -0.189,-0.089 -0.311,-0.239 -0.365,-0.45 -0.054,-0.211 -0.031,-0.425 0.071,-0.64 l 6.532,-13.843 c 0.514,-1.088 0.805,-1.984 0.874,-2.687 0.068,-0.703 -0.059,-1.262 -0.381,-1.678 -0.323,-0.415 -0.838,-0.79 -1.547,-1.125 -1.506,-0.711 -3.193,-1.235 -5.061,-1.575 l -8.146,17.26 c -0.107,0.229 -0.259,0.385 -0.454,0.471 -0.195,0.086 -0.4,0.078 -0.616,-0.023 l -2.07,-0.977 c -0.177,-0.084 -0.293,-0.231 -0.348,-0.443 -0.054,-0.211 -0.03,-0.425 0.071,-0.64 z"
   id="path14457" />
		<path
   d="m 433.438,672.905 c -1.058,3.04 -2.673,5.18 -4.845,6.417 -2.172,1.238 -4.719,1.349 -7.641,0.332 -2.909,-1.012 -4.83,-2.677 -5.765,-4.996 -0.935,-2.318 -0.874,-4.997 0.185,-8.038 l 1.076,-3.094 c 1.062,-3.054 2.679,-5.199 4.852,-6.438 2.172,-1.237 4.712,-1.351 7.621,-0.339 2.921,1.017 4.85,2.685 5.785,5.003 0.935,2.318 0.871,5.005 -0.191,8.059 l -1.077,3.094 z m -3.57,-1.242 1.077,-3.094 c 0.492,-1.414 0.719,-2.695 0.681,-3.842 -0.038,-1.147 -0.37,-2.133 -0.994,-2.958 -0.625,-0.825 -1.559,-1.454 -2.801,-1.886 -1.838,-0.64 -3.412,-0.524 -4.723,0.347 -1.311,0.87 -2.341,2.383 -3.09,4.538 l -1.076,3.093 c -1.573,4.521 -0.542,7.415 3.094,8.68 1.837,0.639 3.414,0.528 4.729,-0.334 1.314,-0.861 2.349,-2.376 3.103,-4.544 z"
   id="path14459" />
		<path
   d="m 451.364,686.611 c -0.08,0.312 -0.195,0.521 -0.344,0.627 -0.15,0.106 -0.41,0.148 -0.78,0.127 -2.559,-0.161 -5.175,-0.582 -7.847,-1.262 -2.008,-0.512 -3.586,-1.358 -4.737,-2.539 -1.151,-1.182 -1.856,-2.637 -2.117,-4.364 -0.261,-1.727 -0.126,-3.628 0.402,-5.704 l 0.762,-2.99 c 0.425,-1.669 0.983,-3.083 1.676,-4.242 0.692,-1.16 1.521,-2.075 2.487,-2.747 0.965,-0.671 2.079,-1.088 3.341,-1.251 1.262,-0.162 2.652,-0.05 4.172,0.337 1.736,0.442 3.328,0.999 4.774,1.671 l 1.974,-7.752 c 0.055,-0.217 0.177,-0.384 0.367,-0.502 0.188,-0.118 0.398,-0.148 0.629,-0.089 l 2.116,0.539 c 0.23,0.059 0.395,0.18 0.492,0.363 0.097,0.183 0.117,0.391 0.059,0.621 l -7.426,29.157 z m -3.207,-2.723 4.213,-16.542 c -0.647,-0.295 -1.353,-0.558 -2.117,-0.788 -0.765,-0.23 -1.663,-0.478 -2.693,-0.74 -1.953,-0.497 -3.492,-0.269 -4.617,0.688 -1.125,0.957 -1.984,2.601 -2.578,4.934 l -0.762,2.991 c -0.608,2.387 -0.651,4.271 -0.129,5.654 0.522,1.382 1.766,2.323 3.733,2.824 1.193,0.304 2.843,0.63 4.95,0.979 z"
   id="path14461" />
		<path
   d="m 465.151,687.506 c 0.939,0.156 1.875,0.219 2.81,0.189 0.935,-0.03 1.857,-0.121 2.77,-0.275 0.912,-0.154 1.647,-0.291 2.207,-0.411 0.326,-0.088 0.566,-0.059 0.72,0.087 0.153,0.146 0.208,0.351 0.165,0.612 l -0.289,1.74 c -0.048,0.29 -0.284,0.514 -0.707,0.671 -2.673,0.891 -5.412,1.104 -8.215,0.639 -1.768,-0.293 -3.321,-0.872 -4.66,-1.74 -1.339,-0.867 -2.325,-2.13 -2.958,-3.789 -0.633,-1.658 -0.743,-3.737 -0.329,-6.236 l 0.635,-3.832 c 0.508,-3.066 1.734,-5.35 3.678,-6.851 1.944,-1.501 4.408,-2.004 7.39,-1.51 2.002,0.331 3.638,1.018 4.905,2.058 1.267,1.04 2.129,2.371 2.584,3.993 0.455,1.622 0.518,3.427 0.188,5.415 l -0.381,2.3 c -0.103,0.621 -0.424,0.887 -0.962,0.798 l -14.209,-2.354 -0.1,0.601 c -0.407,2.458 -0.22,4.306 0.561,5.541 0.782,1.235 2.181,2.02 4.197,2.354 z m 7.06,-9.471 0.065,-0.394 c 0.258,-1.561 0.266,-2.872 0.023,-3.934 -0.243,-1.062 -0.735,-1.881 -1.476,-2.458 -0.742,-0.577 -1.741,-0.97 -2.997,-1.178 -3.798,-0.629 -6.063,1.272 -6.798,5.705 l -0.065,0.394 11.248,1.865 z"
   id="path14463" />
		<path
   d="m 482.119,691.893 c -0.026,0.25 -0.117,0.448 -0.273,0.594 -0.156,0.146 -0.353,0.206 -0.589,0.182 l -2.213,-0.232 c -0.223,-0.022 -0.399,-0.122 -0.528,-0.298 -0.129,-0.175 -0.181,-0.388 -0.155,-0.639 l 3.19,-30.488 c 0.022,-0.208 0.107,-0.39 0.257,-0.543 0.15,-0.153 0.35,-0.217 0.601,-0.19 l 2.213,0.231 c 0.237,0.025 0.417,0.121 0.54,0.289 0.123,0.168 0.172,0.37 0.147,0.606 l -3.19,30.488 z"
   id="path14465" />
		<path
   d="m 516.338,683.972 c -0.053,3.219 -0.916,5.757 -2.591,7.612 -1.675,1.855 -4.06,2.758 -7.152,2.708 -3.079,-0.05 -5.425,-1.029 -7.04,-2.938 -1.614,-1.909 -2.395,-4.473 -2.342,-7.692 l 0.053,-3.274 c 0.053,-3.233 0.916,-5.777 2.591,-7.633 1.675,-1.855 4.052,-2.759 7.131,-2.709 3.093,0.05 5.446,1.03 7.061,2.938 1.613,1.909 2.395,4.48 2.342,7.713 l -0.053,3.275 z m -3.779,-0.062 0.053,-3.274 c 0.024,-1.498 -0.162,-2.785 -0.557,-3.862 -0.396,-1.078 -1.019,-1.91 -1.871,-2.498 -0.851,-0.588 -1.935,-0.893 -3.25,-0.914 -1.945,-0.031 -3.404,0.572 -4.376,1.809 -0.972,1.237 -1.477,2.997 -1.514,5.278 l -0.053,3.274 c -0.078,4.787 1.808,7.211 5.657,7.273 1.945,0.031 3.407,-0.567 4.386,-1.798 0.979,-1.229 1.487,-2.992 1.525,-5.288 z"
   id="path14467" />
		<path
   d="m 537.594,682.248 c 0.266,3.391 -0.318,6.048 -1.754,7.973 -1.436,1.924 -3.695,3.007 -6.779,3.249 -1.576,0.124 -3.256,0.102 -5.038,-0.067 l 0.608,7.745 c 0.018,0.223 -0.048,0.421 -0.195,0.594 -0.148,0.173 -0.334,0.269 -0.557,0.286 l -2.178,0.171 c -0.237,0.019 -0.432,-0.043 -0.583,-0.186 -0.151,-0.143 -0.236,-0.332 -0.255,-0.569 l -2.317,-29.493 c -0.023,-0.293 0.022,-0.514 0.137,-0.663 0.115,-0.149 0.344,-0.28 0.686,-0.391 0.697,-0.237 1.504,-0.47 2.42,-0.696 0.916,-0.226 1.821,-0.417 2.715,-0.571 0.893,-0.154 1.779,-0.266 2.658,-0.335 2.079,-0.163 3.851,0.129 5.313,0.878 1.463,0.748 2.599,1.891 3.407,3.428 0.808,1.537 1.298,3.388 1.468,5.551 l 0.244,3.096 z m -3.769,0.287 -0.244,-3.102 c -0.123,-1.564 -0.401,-2.878 -0.836,-3.94 -0.435,-1.062 -1.091,-1.861 -1.968,-2.396 -0.878,-0.535 -2,-0.75 -3.367,-0.643 -1.745,0.138 -3.401,0.408 -4.97,0.812 l 1.335,16.995 c 1.53,0.176 3.209,0.191 5.037,0.048 2.01,-0.158 3.396,-0.886 4.156,-2.183 0.762,-1.296 1.048,-3.159 0.857,-5.591 z"
   id="path14469" />
		<path
   d="m 554.103,689.436 c 0.062,0.416 -0.159,0.695 -0.66,0.841 -0.922,0.278 -1.832,0.483 -2.732,0.617 -2.076,0.308 -3.616,0.136 -4.618,-0.516 -1.002,-0.652 -1.668,-2.091 -1.998,-4.32 l -2.199,-14.851 -4.2,0.155 c -0.547,0.038 -0.854,-0.178 -0.924,-0.648 l -0.173,-1.163 c -0.073,-0.499 0.16,-0.788 0.7,-0.868 l 4.133,-0.612 -0.618,-4.174 c -0.069,-0.471 0.138,-0.792 0.621,-0.963 l 2.174,-0.661 0.124,-0.019 c 0.194,-0.028 0.359,0.015 0.497,0.128 0.137,0.114 0.221,0.275 0.252,0.483 l 0.688,4.652 4.59,-0.68 c 0.235,-0.035 0.449,0.019 0.64,0.16 0.191,0.141 0.304,0.33 0.339,0.565 l 0.212,1.433 c 0.035,0.235 -0.025,0.449 -0.181,0.643 -0.156,0.192 -0.337,0.305 -0.545,0.335 l -4.59,0.68 2.198,14.851 c 0.168,1.136 0.436,1.843 0.803,2.12 0.366,0.278 0.992,0.352 1.879,0.221 l 2.389,-0.354 c 0.595,-0.088 0.923,0.068 0.982,0.47 l 0.217,1.475 z"
   id="path14471" />
		<path
   d="m 556.016,660.829 c 0.049,0.247 0.007,0.466 -0.127,0.656 -0.134,0.19 -0.317,0.309 -0.551,0.355 l -2.142,0.423 c -0.234,0.047 -0.449,0.003 -0.646,-0.129 -0.197,-0.132 -0.319,-0.314 -0.365,-0.549 l -0.664,-3.357 c -0.046,-0.232 -0.007,-0.447 0.119,-0.644 0.125,-0.196 0.312,-0.318 0.559,-0.367 l 2.142,-0.424 c 0.261,-0.052 0.482,-0.017 0.663,0.104 0.181,0.121 0.297,0.312 0.349,0.573 l 0.663,3.359 z m 5.24,26.937 c 0.049,0.247 0.006,0.467 -0.128,0.657 -0.133,0.19 -0.316,0.309 -0.55,0.354 l -2.019,0.399 c -0.206,0.04 -0.415,-0.004 -0.626,-0.134 -0.211,-0.129 -0.34,-0.311 -0.386,-0.544 l -4.251,-21.504 c -0.047,-0.233 -0.004,-0.448 0.129,-0.646 0.132,-0.197 0.314,-0.318 0.548,-0.365 l 2.019,-0.398 c 0.261,-0.052 0.482,-0.017 0.663,0.104 0.181,0.121 0.297,0.312 0.349,0.573 l 4.252,21.504 z"
   id="path14473" />
		<path
   d="m 566.342,687.06 -5.65,-19.938 c -0.156,-0.552 0,-0.952 0.468,-1.202 1.661,-0.965 3.119,-1.734 4.375,-2.309 1.256,-0.575 2.442,-1.02 3.561,-1.337 0.956,-0.271 1.908,-0.391 2.854,-0.361 0.947,0.03 1.741,0.253 2.383,0.667 2.076,-1.811 4.205,-3.024 6.387,-3.643 1.32,-0.374 2.544,-0.459 3.671,-0.255 1.127,0.204 2.141,0.79 3.04,1.757 0.899,0.968 1.611,2.374 2.134,4.219 l 4.15,14.646 c 0.068,0.242 0.044,0.464 -0.073,0.664 -0.118,0.201 -0.292,0.334 -0.521,0.398 l -1.979,0.562 c -0.202,0.057 -0.414,0.029 -0.635,-0.083 -0.221,-0.111 -0.363,-0.282 -0.428,-0.511 l -4.15,-14.646 c -0.462,-1.63 -1.117,-2.681 -1.966,-3.153 -0.849,-0.472 -1.866,-0.54 -3.055,-0.203 -1.323,0.375 -2.838,1.204 -4.544,2.487 0.526,0.885 0.96,1.926 1.3,3.124 l 4.173,14.726 c 0.061,0.216 0.045,0.428 -0.048,0.636 -0.094,0.209 -0.247,0.343 -0.461,0.403 l -2.189,0.621 c -0.201,0.057 -0.392,0.023 -0.571,-0.101 -0.18,-0.123 -0.302,-0.3 -0.367,-0.528 l -4.173,-14.727 c -0.328,-1.158 -0.697,-2.024 -1.107,-2.6 -0.41,-0.574 -0.873,-0.912 -1.39,-1.014 -0.516,-0.102 -1.151,-0.045 -1.905,0.169 -1.603,0.454 -3.219,1.167 -4.85,2.138 l 5.204,18.362 c 0.068,0.243 0.057,0.461 -0.033,0.653 -0.091,0.193 -0.251,0.322 -0.48,0.387 l -2.201,0.624 c -0.189,0.054 -0.373,0.019 -0.554,-0.104 -0.183,-0.124 -0.305,-0.3 -0.37,-0.528 z"
   id="path14475" />
		<path
   d="m 592.396,650.19 c 0.088,0.236 0.082,0.459 -0.02,0.669 -0.102,0.209 -0.264,0.355 -0.486,0.438 l -2.046,0.764 c -0.223,0.083 -0.442,0.075 -0.658,-0.023 -0.216,-0.098 -0.365,-0.259 -0.449,-0.482 l -1.196,-3.206 c -0.083,-0.223 -0.079,-0.441 0.014,-0.655 0.092,-0.213 0.256,-0.364 0.492,-0.452 l 2.046,-0.764 c 0.249,-0.093 0.473,-0.094 0.671,-0.004 0.197,0.091 0.344,0.261 0.437,0.51 l 1.195,3.205 z m 9.514,25.741 c 0.089,0.235 0.082,0.459 -0.02,0.668 -0.101,0.21 -0.263,0.355 -0.485,0.439 l -1.928,0.719 c -0.197,0.073 -0.41,0.063 -0.64,-0.03 -0.229,-0.094 -0.385,-0.252 -0.468,-0.476 l -7.664,-20.536 c -0.083,-0.223 -0.075,-0.442 0.023,-0.658 0.099,-0.217 0.26,-0.366 0.482,-0.449 l 1.928,-0.72 c 0.249,-0.093 0.473,-0.094 0.671,-0.004 0.198,0.091 0.344,0.261 0.437,0.51 l 7.664,20.537 z"
   id="path14477" />
		<path
   d="m 621.201,667.818 c 0.101,0.229 0.105,0.451 0.016,0.664 -0.089,0.215 -0.243,0.369 -0.461,0.464 l -11.886,5.206 c -0.782,0.342 -1.47,0.396 -2.062,0.158 -0.592,-0.238 -1.024,-0.663 -1.294,-1.279 l -0.328,-0.75 c -0.236,-0.538 -0.366,-1.02 -0.392,-1.444 -0.025,-0.424 0.032,-0.927 0.175,-1.509 l 4.621,-17.083 c 0.054,-0.192 0.059,-0.339 0.014,-0.441 -0.079,-0.18 -0.253,-0.211 -0.521,-0.093 l -9.578,4.194 c -0.192,0.085 -0.406,0.086 -0.64,0.005 -0.234,-0.08 -0.398,-0.229 -0.494,-0.448 l -0.581,-1.326 c -0.096,-0.219 -0.101,-0.438 -0.014,-0.659 0.086,-0.222 0.238,-0.38 0.456,-0.476 l 11.598,-5.078 c 1.462,-0.641 2.474,-0.318 3.036,0.965 l 0.413,0.943 c 0.32,0.731 0.336,1.589 0.049,2.571 l -4.665,17.508 c -0.085,0.19 -0.093,0.362 -0.025,0.516 0.09,0.206 0.243,0.261 0.461,0.165 l 10.386,-4.548 c 0.218,-0.096 0.438,-0.101 0.658,-0.016 0.221,0.086 0.379,0.237 0.474,0.453 l 0.584,1.338 z"
   id="path14479" />
		<path
   d="m 639.14,657.52 c 0.251,0.469 0.208,0.849 -0.128,1.14 -0.836,0.812 -1.717,1.562 -2.644,2.247 -0.927,0.687 -2.026,1.37 -3.297,2.05 -2.95,1.578 -5.336,2.215 -7.157,1.911 -1.821,-0.303 -3.315,-1.548 -4.484,-3.732 l -0.179,-0.333 c -0.759,-1.419 -1.08,-2.739 -0.964,-3.961 0.117,-1.221 0.728,-2.409 1.832,-3.563 1.105,-1.154 2.762,-2.322 4.972,-3.505 l 2.814,-1.505 -0.812,-1.519 c -0.845,-1.579 -1.733,-2.513 -2.665,-2.801 -0.932,-0.287 -2.145,-0.031 -3.638,0.768 -1.147,0.614 -2.091,1.218 -2.829,1.811 -0.738,0.594 -1.559,1.338 -2.461,2.233 -0.213,0.225 -0.429,0.333 -0.648,0.323 -0.219,-0.01 -0.385,-0.119 -0.497,-0.329 l -0.792,-1.481 c -0.165,-0.309 -0.109,-0.633 0.17,-0.972 0.441,-0.57 1.159,-1.299 2.152,-2.188 0.992,-0.888 2.106,-1.662 3.341,-2.323 4.925,-2.634 8.658,-1.575 11.199,3.177 l 6.715,12.552 z m -3.996,0.542 -3.941,-7.369 -2.814,1.506 c -1.197,0.641 -2.119,1.217 -2.766,1.729 -0.647,0.512 -1.104,1.03 -1.37,1.555 -0.268,0.524 -0.37,1.06 -0.309,1.605 0.062,0.546 0.281,1.171 0.657,1.874 l 0.179,0.334 c 0.476,0.889 0.995,1.527 1.561,1.915 0.564,0.389 1.274,0.513 2.128,0.374 0.854,-0.14 1.923,-0.553 3.207,-1.239 0.506,-0.271 0.985,-0.547 1.438,-0.829 0.453,-0.281 0.854,-0.548 1.204,-0.799 0.348,-0.25 0.624,-0.469 0.826,-0.656 z"
   id="path14481" />
		<path
   d="m 653.799,649.56 c 0.223,0.355 0.133,0.701 -0.269,1.035 -0.733,0.623 -1.485,1.176 -2.257,1.658 -1.78,1.113 -3.26,1.572 -4.438,1.376 -1.179,-0.195 -2.365,-1.248 -3.561,-3.159 l -7.959,-12.729 -3.787,1.823 c -0.485,0.254 -0.854,0.18 -1.106,-0.225 l -0.623,-0.997 c -0.268,-0.427 -0.17,-0.785 0.293,-1.074 l 3.543,-2.216 -2.237,-3.578 c -0.253,-0.403 -0.191,-0.78 0.185,-1.131 l 1.727,-1.476 0.106,-0.066 c 0.166,-0.104 0.335,-0.131 0.507,-0.082 0.171,0.051 0.312,0.164 0.424,0.342 l 2.493,3.987 3.935,-2.46 c 0.201,-0.126 0.418,-0.162 0.649,-0.108 0.231,0.053 0.411,0.181 0.537,0.382 l 0.768,1.229 c 0.126,0.202 0.156,0.423 0.092,0.661 -0.065,0.239 -0.188,0.414 -0.365,0.525 l -3.935,2.46 7.96,12.729 c 0.608,0.974 1.136,1.515 1.583,1.622 0.448,0.108 1.051,-0.075 1.811,-0.55 l 2.048,-1.28 c 0.51,-0.319 0.873,-0.307 1.088,0.038 l 0.788,1.264 z"
   id="path14483" />
		<path
   d="m 644.137,622.555 c 0.144,0.207 0.192,0.425 0.146,0.652 -0.046,0.229 -0.167,0.41 -0.362,0.546 l -1.793,1.245 c -0.196,0.136 -0.41,0.183 -0.645,0.141 -0.233,-0.042 -0.418,-0.161 -0.554,-0.356 l -1.952,-2.812 c -0.136,-0.195 -0.186,-0.407 -0.148,-0.638 0.036,-0.229 0.157,-0.416 0.364,-0.561 l 1.794,-1.245 c 0.219,-0.151 0.435,-0.208 0.649,-0.169 0.214,0.038 0.397,0.167 0.549,0.386 l 1.952,2.811 z m 15.582,22.589 c 0.144,0.207 0.192,0.425 0.146,0.653 -0.046,0.228 -0.167,0.409 -0.362,0.545 l -1.689,1.174 c -0.173,0.12 -0.382,0.162 -0.627,0.128 -0.245,-0.034 -0.436,-0.148 -0.571,-0.344 l -12.502,-18.006 c -0.136,-0.195 -0.183,-0.41 -0.141,-0.644 0.043,-0.234 0.161,-0.419 0.356,-0.555 l 1.69,-1.173 c 0.219,-0.152 0.435,-0.208 0.649,-0.17 0.214,0.039 0.397,0.167 0.549,0.386 l 12.502,18.006 z"
   id="path14485" />
		<path
   d="m 672.707,623.516 c 1.992,2.529 2.924,5.043 2.796,7.539 -0.127,2.497 -1.406,4.702 -3.837,6.615 -2.419,1.905 -4.857,2.627 -7.314,2.165 -2.457,-0.461 -4.681,-1.957 -6.673,-4.486 l -2.025,-2.574 c -2.001,-2.54 -2.938,-5.059 -2.81,-7.556 0.128,-2.496 1.401,-4.697 3.82,-6.602 2.431,-1.914 4.874,-2.64 7.331,-2.179 2.457,0.462 4.686,1.963 6.686,4.504 l 2.026,2.574 z m -2.969,2.338 -2.026,-2.573 c -0.927,-1.177 -1.884,-2.058 -2.87,-2.645 -0.987,-0.585 -1.996,-0.837 -3.027,-0.756 -1.031,0.082 -2.064,0.529 -3.098,1.344 -1.529,1.203 -2.279,2.592 -2.252,4.165 0.026,1.573 0.746,3.256 2.157,5.048 l 2.026,2.574 c 2.962,3.761 5.954,4.451 8.979,2.069 1.528,-1.203 2.284,-2.591 2.268,-4.163 -0.018,-1.572 -0.737,-3.26 -2.157,-5.063 z"
   id="path14487" />
		<path
   d="m 685.073,605.546 9.641,10.302 c 0.162,0.174 0.234,0.385 0.217,0.631 -0.019,0.247 -0.104,0.442 -0.258,0.586 l -1.502,1.406 c -0.174,0.162 -0.38,0.239 -0.617,0.231 -0.237,-0.008 -0.437,-0.098 -0.6,-0.272 l -9.641,-10.302 c -0.976,-1.042 -1.876,-1.753 -2.7,-2.132 -0.824,-0.379 -1.628,-0.45 -2.414,-0.214 -0.785,0.236 -1.606,0.756 -2.465,1.56 -1.288,1.205 -2.46,2.657 -3.517,4.354 l 13.04,13.936 c 0.153,0.164 0.226,0.369 0.218,0.616 -0.009,0.248 -0.095,0.447 -0.258,0.601 l -1.533,1.435 c -0.153,0.144 -0.349,0.211 -0.586,0.203 -0.237,-0.008 -0.438,-0.099 -0.6,-0.272 l -14.16,-15.131 c -0.363,-0.389 -0.408,-0.815 -0.136,-1.282 1.933,-3.035 3.788,-5.385 5.566,-7.05 1.176,-1.1 2.306,-1.884 3.391,-2.353 1.086,-0.47 2.113,-0.641 3.085,-0.515 0.971,0.127 1.928,0.492 2.867,1.098 0.943,0.605 1.929,1.46 2.962,2.564 z"
   id="path14489" />
		<path
   d="m 715.22,591.462 c 0.409,0.341 0.512,0.71 0.309,1.105 -0.471,1.065 -1.007,2.091 -1.608,3.073 -0.603,0.984 -1.365,2.029 -2.289,3.136 -2.145,2.568 -4.117,4.053 -5.92,4.454 -1.802,0.4 -3.654,-0.193 -5.557,-1.78 l -0.29,-0.242 c -1.235,-1.032 -2.028,-2.136 -2.377,-3.312 -0.35,-1.176 -0.229,-2.506 0.363,-3.99 0.592,-1.484 1.69,-3.188 3.296,-5.112 l 2.045,-2.45 -1.321,-1.103 c -1.376,-1.148 -2.55,-1.681 -3.521,-1.599 -0.972,0.083 -2,0.774 -3.085,2.074 -0.835,0.999 -1.482,1.912 -1.945,2.739 -0.462,0.827 -0.943,1.824 -1.444,2.992 -0.113,0.288 -0.273,0.469 -0.48,0.542 -0.207,0.074 -0.401,0.034 -0.584,-0.118 l -1.29,-1.076 c -0.269,-0.225 -0.337,-0.546 -0.206,-0.966 0.196,-0.693 0.588,-1.638 1.176,-2.834 0.588,-1.195 1.33,-2.331 2.228,-3.405 3.579,-4.287 7.437,-4.704 11.574,-1.251 l 10.926,9.123 z m -3.502,2 -6.415,-5.355 -2.045,2.45 c -0.87,1.043 -1.509,1.923 -1.916,2.64 -0.407,0.718 -0.637,1.369 -0.688,1.955 -0.051,0.586 0.054,1.121 0.315,1.604 0.263,0.483 0.7,0.98 1.312,1.491 l 0.29,0.242 c 0.773,0.646 1.495,1.043 2.164,1.191 0.67,0.148 1.374,-0.002 2.113,-0.451 0.74,-0.449 1.576,-1.232 2.509,-2.351 0.368,-0.44 0.709,-0.876 1.023,-1.307 0.313,-0.431 0.586,-0.828 0.816,-1.191 0.23,-0.363 0.406,-0.669 0.522,-0.918 z"
   id="path14491" />
		<path
   d="m 717.548,565.34 11.546,8.11 c 0.194,0.137 0.309,0.328 0.341,0.573 0.033,0.245 -0.011,0.454 -0.132,0.626 l -1.183,1.684 c -0.137,0.194 -0.322,0.312 -0.556,0.354 -0.234,0.041 -0.448,-0.007 -0.644,-0.144 l -11.545,-8.11 c -1.169,-0.82 -2.195,-1.332 -3.079,-1.534 -0.885,-0.202 -1.687,-0.107 -2.407,0.285 -0.72,0.392 -1.418,1.069 -2.094,2.031 -1.014,1.443 -1.864,3.104 -2.551,4.982 l 15.618,10.97 c 0.183,0.129 0.296,0.315 0.339,0.56 0.042,0.243 -10e-4,0.457 -0.13,0.64 l -1.207,1.719 c -0.12,0.172 -0.298,0.278 -0.531,0.319 -0.234,0.04 -0.448,-0.008 -0.644,-0.145 l -16.958,-11.911 c -0.435,-0.306 -0.566,-0.715 -0.395,-1.228 1.271,-3.366 2.605,-6.047 4.005,-8.04 0.925,-1.316 1.871,-2.316 2.837,-2.997 0.966,-0.682 1.938,-1.06 2.914,-1.135 0.976,-0.075 1.987,0.087 3.031,0.487 1.047,0.401 2.188,1.035 3.425,1.904 z"
   id="path14493" />
		<path
   d="m 739.933,554.072 c 0.278,0.162 0.448,0.33 0.509,0.503 0.062,0.174 0.03,0.436 -0.092,0.785 -0.856,2.416 -1.979,4.816 -3.365,7.199 -1.042,1.791 -2.289,3.077 -3.741,3.86 -1.451,0.782 -3.043,1.062 -4.776,0.839 -1.732,-0.223 -3.524,-0.873 -5.375,-1.95 l -2.668,-1.553 c -1.487,-0.866 -2.694,-1.791 -3.619,-2.775 -0.926,-0.983 -1.579,-2.032 -1.96,-3.145 -0.381,-1.113 -0.477,-2.298 -0.286,-3.556 0.189,-1.258 0.679,-2.564 1.467,-3.92 0.901,-1.548 1.874,-2.926 2.916,-4.133 l -6.913,-4.024 c -0.193,-0.112 -0.321,-0.275 -0.383,-0.49 -0.062,-0.214 -0.033,-0.424 0.087,-0.63 l 1.099,-1.887 c 0.119,-0.205 0.281,-0.33 0.484,-0.374 0.204,-0.043 0.408,-0.005 0.614,0.114 l 26.002,15.137 z m -3.498,2.337 -14.753,-8.587 c -0.461,0.542 -0.907,1.148 -1.339,1.82 -0.432,0.672 -0.915,1.468 -1.45,2.387 -1.014,1.742 -1.216,3.285 -0.604,4.628 0.611,1.344 1.957,2.621 4.037,3.832 l 2.668,1.553 c 2.129,1.239 3.93,1.798 5.402,1.675 1.472,-0.122 2.719,-1.061 3.74,-2.815 0.619,-1.065 1.385,-2.562 2.299,-4.493 z"
   id="path14495" />
		<path
   d="m 753.082,525.094 c 0.489,0.209 0.693,0.532 0.613,0.97 -0.145,1.156 -0.363,2.292 -0.657,3.406 -0.294,1.115 -0.725,2.336 -1.291,3.661 -1.315,3.076 -2.778,5.065 -4.389,5.968 -1.611,0.901 -3.556,0.866 -5.834,-0.108 l -0.348,-0.148 c -1.479,-0.633 -2.557,-1.462 -3.229,-2.487 -0.672,-1.026 -0.938,-2.335 -0.799,-3.927 0.141,-1.592 0.702,-3.54 1.688,-5.844 l 1.255,-2.935 -1.584,-0.677 c -1.646,-0.704 -2.924,-0.877 -3.831,-0.519 -0.906,0.358 -1.692,1.316 -2.358,2.873 -0.512,1.197 -0.87,2.258 -1.075,3.183 -0.205,0.925 -0.379,2.019 -0.523,3.281 -0.025,0.309 -0.127,0.528 -0.304,0.658 -0.178,0.13 -0.375,0.147 -0.595,0.054 l -1.544,-0.66 c -0.321,-0.138 -0.48,-0.426 -0.476,-0.865 -0.012,-0.721 0.093,-1.737 0.312,-3.052 0.22,-1.314 0.604,-2.615 1.154,-3.902 2.195,-5.136 5.771,-6.644 10.727,-4.525 l 13.088,5.595 z m -2.778,2.922 -7.685,-3.285 -1.254,2.935 c -0.534,1.249 -0.893,2.275 -1.077,3.079 -0.184,0.805 -0.216,1.494 -0.097,2.07 0.119,0.576 0.373,1.059 0.764,1.445 0.39,0.388 0.951,0.738 1.686,1.052 l 0.347,0.148 c 0.927,0.396 1.732,0.569 2.416,0.52 0.684,-0.051 1.315,-0.397 1.895,-1.04 0.58,-0.643 1.154,-1.634 1.727,-2.973 0.226,-0.527 0.428,-1.042 0.604,-1.545 0.176,-0.503 0.323,-0.962 0.439,-1.377 0.116,-0.414 0.195,-0.757 0.235,-1.029 z"
   id="path14497" />
		<path
   d="m 747.772,499.439 13.394,4.438 c 0.226,0.075 0.39,0.226 0.492,0.45 0.103,0.226 0.12,0.438 0.054,0.638 l -0.646,1.953 c -0.075,0.227 -0.219,0.393 -0.431,0.499 -0.213,0.106 -0.432,0.122 -0.657,0.048 l -13.394,-4.438 c -1.355,-0.449 -2.485,-0.643 -3.391,-0.582 -0.905,0.062 -1.646,0.384 -2.223,0.967 -0.576,0.583 -1.05,1.433 -1.419,2.549 -0.555,1.675 -0.891,3.51 -1.006,5.506 l 18.116,6.003 c 0.213,0.07 0.375,0.216 0.486,0.438 0.11,0.221 0.131,0.438 0.061,0.65 l -0.66,1.993 c -0.066,0.199 -0.205,0.353 -0.418,0.459 -0.212,0.106 -0.431,0.122 -0.657,0.048 l -19.671,-6.518 c -0.505,-0.168 -0.749,-0.521 -0.732,-1.062 0.246,-3.59 0.751,-6.541 1.518,-8.854 0.506,-1.527 1.123,-2.757 1.853,-3.688 0.729,-0.932 1.549,-1.573 2.463,-1.927 0.913,-0.354 1.928,-0.489 3.043,-0.407 1.115,0.084 2.391,0.362 3.825,0.837 z"
   id="path14499" />
		<path
   d="m 765.547,483.015 c 0.518,0.124 0.773,0.408 0.767,0.854 0.052,1.164 0.026,2.32 -0.077,3.469 -0.103,1.148 -0.322,2.424 -0.659,3.825 -0.781,3.253 -1.89,5.459 -3.327,6.618 -1.437,1.159 -3.36,1.449 -5.77,0.871 l -0.367,-0.088 c -1.565,-0.376 -2.766,-1.013 -3.601,-1.912 -0.835,-0.898 -1.317,-2.144 -1.445,-3.737 -0.129,-1.592 0.1,-3.606 0.685,-6.043 l 0.745,-3.104 -1.675,-0.402 c -1.741,-0.418 -3.029,-0.374 -3.863,0.131 -0.834,0.505 -1.449,1.581 -1.844,3.228 -0.305,1.266 -0.479,2.372 -0.527,3.318 -0.047,0.945 -0.036,2.053 0.034,3.322 0.026,0.309 -0.037,0.542 -0.19,0.699 -0.152,0.157 -0.345,0.209 -0.576,0.153 l -1.633,-0.393 c -0.341,-0.081 -0.545,-0.339 -0.613,-0.773 -0.133,-0.708 -0.2,-1.729 -0.204,-3.061 -0.005,-1.333 0.157,-2.68 0.483,-4.041 1.305,-5.431 4.576,-7.517 9.816,-6.259 l 13.841,3.325 z m -2.25,3.345 -8.126,-1.95 -0.745,3.103 c -0.316,1.32 -0.498,2.393 -0.545,3.216 -0.047,0.824 0.037,1.51 0.251,2.058 0.214,0.549 0.546,0.98 0.995,1.297 0.449,0.317 1.062,0.568 1.838,0.755 l 0.367,0.088 c 0.979,0.235 1.803,0.271 2.468,0.107 0.666,-0.164 1.23,-0.612 1.694,-1.343 0.463,-0.73 0.864,-1.804 1.204,-3.22 0.135,-0.558 0.246,-1.1 0.337,-1.625 0.09,-0.525 0.157,-1.002 0.203,-1.431 0.045,-0.428 0.065,-0.779 0.059,-1.055 z"
   id="path14501" />
		<path
   d="m 767.818,474.515 c 0.248,0.045 0.438,0.15 0.572,0.316 0.134,0.166 0.18,0.366 0.138,0.601 l -0.394,2.19 c -0.039,0.221 -0.151,0.389 -0.336,0.505 -0.184,0.116 -0.4,0.152 -0.648,0.107 l -30.172,-5.413 c -0.207,-0.037 -0.381,-0.136 -0.523,-0.297 -0.142,-0.16 -0.19,-0.365 -0.146,-0.612 l 0.393,-2.191 c 0.042,-0.233 0.151,-0.406 0.328,-0.517 0.176,-0.11 0.381,-0.146 0.615,-0.104 l 30.173,5.415 z"
   id="path14503" />
		<path
   d="m 749.036,448.491 c 0.153,0.018 0.256,0.044 0.308,0.078 l 23.75,9.956 c 1.571,0.651 2.768,1.321 3.589,2.011 0.82,0.688 1.378,1.545 1.673,2.565 0.295,1.022 0.347,2.346 0.153,3.973 -0.147,1.251 -0.421,2.431 -0.82,3.539 -0.21,0.581 -0.475,0.853 -0.794,0.815 l -1.563,-0.186 c -0.459,-0.054 -0.656,-0.353 -0.592,-0.895 l 0.015,-0.125 c 0.389,-1.856 0.622,-3.111 0.699,-3.766 0.149,-1.265 0.013,-2.229 -0.408,-2.892 -0.423,-0.663 -1.329,-1.253 -2.719,-1.77 l -1.702,-0.625 -0.069,0.584 c -0.091,0.765 -0.345,1.369 -0.765,1.812 -0.419,0.444 -1.269,0.78 -2.551,1.009 l -20.187,3.362 c -0.059,0.021 -0.165,0.023 -0.318,0.005 -0.472,-0.056 -0.679,-0.334 -0.62,-0.834 l 0.279,-2.356 c 0.02,-0.167 0.107,-0.312 0.263,-0.434 0.155,-0.123 0.319,-0.195 0.49,-0.217 l 19.134,-2.854 c 0.644,-0.078 0.987,-0.306 1.032,-0.681 l 0.081,-0.688 -18.899,-7.521 c -0.176,-0.063 -0.313,-0.178 -0.414,-0.345 -0.1,-0.167 -0.139,-0.348 -0.115,-0.543 l 0.283,-2.397 c 0.052,-0.441 0.314,-0.635 0.787,-0.58 z"
   id="path14505" />
		<path
   d="m 769.348,440.711 c 0.124,-3.118 -0.904,-4.722 -3.086,-4.809 -0.672,-0.027 -1.254,0.174 -1.748,0.603 -0.493,0.429 -1.086,1.253 -1.779,2.472 l -2.396,4.254 c -0.812,1.396 -1.737,2.449 -2.774,3.157 -1.036,0.708 -2.261,1.033 -3.674,0.978 -1.482,-0.06 -2.639,-0.491 -3.468,-1.295 -0.83,-0.803 -1.395,-1.82 -1.696,-3.051 -0.301,-1.231 -0.422,-2.595 -0.362,-4.091 0.047,-1.161 0.219,-2.313 0.517,-3.457 0.298,-1.145 0.611,-1.982 0.94,-2.516 0.135,-0.219 0.243,-0.369 0.323,-0.449 0.08,-0.081 0.232,-0.117 0.456,-0.108 l 1.762,0.07 c 0.252,0.01 0.435,0.105 0.546,0.284 0.112,0.18 0.105,0.422 -0.019,0.725 -0.339,0.785 -0.632,1.701 -0.877,2.749 -0.244,1.048 -0.384,1.991 -0.417,2.831 -0.054,1.343 0.071,2.423 0.375,3.24 0.304,0.817 0.979,1.247 2.028,1.289 0.728,0.029 1.355,-0.177 1.885,-0.618 0.53,-0.441 1.087,-1.176 1.674,-2.203 l 2.353,-4.171 c 0.663,-1.179 1.323,-2.098 1.979,-2.758 0.657,-0.66 1.334,-1.12 2.03,-1.38 0.697,-0.259 1.472,-0.372 2.325,-0.338 1.469,0.059 2.688,0.472 3.659,1.238 0.971,0.768 1.673,1.798 2.104,3.089 0.432,1.292 0.614,2.757 0.55,4.393 -0.05,1.245 -0.242,2.46 -0.576,3.645 -0.335,1.184 -0.683,2.099 -1.045,2.742 -0.226,0.397 -0.492,0.59 -0.801,0.577 l -1.762,-0.07 c -0.252,-0.01 -0.438,-0.108 -0.556,-0.295 -0.119,-0.187 -0.109,-0.425 0.028,-0.714 0.925,-2.107 1.425,-4.111 1.502,-6.013 z"
   id="path14507" />
		<path
   d="m 744.146,424.483 c 0.252,-0.004 0.46,0.077 0.623,0.242 0.164,0.165 0.248,0.367 0.252,0.604 l 0.035,2.184 c 0.004,0.238 -0.077,0.442 -0.242,0.613 -0.165,0.17 -0.366,0.258 -0.604,0.262 l -3.422,0.056 c -0.238,0.003 -0.442,-0.073 -0.613,-0.232 -0.17,-0.157 -0.258,-0.363 -0.262,-0.615 l -0.035,-2.183 c -0.005,-0.266 0.069,-0.478 0.221,-0.634 0.152,-0.156 0.36,-0.237 0.626,-0.241 l 3.421,-0.056 z m 27.44,-0.36 c 0.252,-0.005 0.46,0.076 0.624,0.241 0.163,0.166 0.247,0.367 0.251,0.605 l 0.033,2.057 c 0.004,0.21 -0.077,0.408 -0.242,0.593 -0.165,0.185 -0.366,0.278 -0.604,0.282 l -21.917,0.355 c -0.238,0.004 -0.442,-0.077 -0.613,-0.242 -0.17,-0.165 -0.258,-0.366 -0.262,-0.604 l -0.033,-2.058 c -0.004,-0.266 0.069,-0.477 0.221,-0.634 0.151,-0.156 0.36,-0.236 0.626,-0.24 l 21.916,-0.355 z"
   id="path14509" />
		<path
   d="m 769.042,412.542 c -0.207,-3.114 -1.399,-4.6 -3.578,-4.456 -0.67,0.045 -1.229,0.307 -1.674,0.785 -0.444,0.479 -0.947,1.36 -1.508,2.646 L 760.349,416 c -0.659,1.475 -1.468,2.619 -2.424,3.434 -0.956,0.813 -2.139,1.267 -3.55,1.36 -1.48,0.099 -2.676,-0.208 -3.586,-0.92 -0.909,-0.711 -1.579,-1.662 -2.009,-2.854 -0.43,-1.192 -0.694,-2.535 -0.793,-4.029 -0.077,-1.159 -0.028,-2.323 0.147,-3.492 0.175,-1.169 0.398,-2.036 0.669,-2.602 0.111,-0.231 0.202,-0.392 0.273,-0.48 0.071,-0.088 0.219,-0.141 0.442,-0.156 l 1.76,-0.116 c 0.251,-0.017 0.442,0.059 0.572,0.225 0.13,0.167 0.15,0.408 0.059,0.723 -0.255,0.816 -0.448,1.759 -0.581,2.826 -0.133,1.068 -0.171,2.021 -0.115,2.859 0.089,1.341 0.327,2.401 0.716,3.183 0.388,0.781 1.106,1.137 2.153,1.066 0.727,-0.048 1.329,-0.319 1.809,-0.813 0.479,-0.495 0.956,-1.284 1.432,-2.368 l 1.897,-4.396 c 0.535,-1.242 1.094,-2.226 1.677,-2.952 0.583,-0.726 1.208,-1.255 1.873,-1.587 0.665,-0.331 1.424,-0.525 2.276,-0.582 1.466,-0.097 2.723,0.185 3.77,0.845 1.047,0.66 1.854,1.609 2.419,2.849 0.566,1.239 0.903,2.676 1.012,4.31 0.082,1.243 0.02,2.472 -0.188,3.685 -0.208,1.213 -0.456,2.159 -0.748,2.838 -0.183,0.419 -0.428,0.639 -0.735,0.658 l -1.76,0.117 c -0.251,0.017 -0.445,-0.062 -0.583,-0.235 -0.138,-0.173 -0.154,-0.41 -0.048,-0.712 0.697,-2.197 0.983,-4.243 0.857,-6.142 z"
   id="path14511" />
	</g>
</g>
</svg>