<?xml version="1.0" encoding="UTF-8" standalone="no"?>
<!DOCTYPE svg PUBLIC "-//W3C//DTD SVG 1.1//EN"
 "http://www.w3.org/Graphics/SVG/1.1/DTD/svg11.dtd">
<!-- Generated by graphviz version 2.26.3 (20100126.1600)
 -->
<!-- Title: Temoa_energy_carrier Pages: 1 -->
<svg width="298pt" height="124pt"
 viewBox="0.00 0.00 298.00 124.00" xmlns="http://www.w3.org/2000/svg" xmlns:xlink="http://www.w3.org/1999/xlink">
<g id="graph1" class="graph" transform="scale(1 1) rotate(0) translate(4 120)">
<title>Temoa_energy_carrier</title>
<polygon fill="white" stroke="white" points="-4,5 -4,-120 295,-120 295,5 -4,5"/>
<text text-anchor="middle" x="145" y="-9.4" font-family="Times Roman,serif" font-size="14.00">GSL</text>
<!-- IMPGSL1 -->
<g id="node2" class="node"><title>IMPGSL1</title>
<a xlink:href="../processes/process_IMPGSL1.svg" xlink:title="IMPGSL1">
<polygon fill="darkseagreen" stroke="darkseagreen" points="80,-116 3.55271e-14,-116 0,-80 80,-80 80,-116"/>
<text text-anchor="middle" x="40" y="-94.4" font-family="Times Roman,serif" font-size="14.00">IMPGSL1</text>
</a>
</g>
<!-- GSL -->
<g id="node6" class="node"><title>GSL</title>
<a xlink:href="../simple_model.svg" xlink:title="GSL">
<ellipse fill="lightsteelblue" stroke="lightsteelblue" cx="158" cy="-73" rx="31.8198" ry="31.8198"/>
<text text-anchor="middle" x="158" y="-69.4" font-family="Times Roman,serif" font-size="14.00">GSL</text>
</a>
</g>
<!-- IMPGSL1&#45;&gt;GSL -->
<g id="edge5" class="edge"><title>IMPGSL1&#45;&gt;GSL</title>
<path fill="none" stroke="forestgreen" d="M80.2789,-89.4663C91.9492,-86.9938 104.71,-84.2903 116.456,-81.8017"/>
<polygon fill="forestgreen" stroke="forestgreen" points="126.464,-79.6813 117.614,-86.1563 121.573,-80.7177 116.681,-81.754 116.681,-81.754 116.681,-81.754 121.573,-80.7177 115.749,-77.3518 126.464,-79.6813 126.464,-79.6813"/>
<text text-anchor="middle" x="103" y="-87.8" font-family="Times Roman,serif" font-size="8.00"> &#160;&#160;</text>
</g>
<!-- SRE -->
<g id="node3" class="node"><title>SRE</title>
<a xlink:href="../processes/process_SRE.svg" xlink:title="SRE">
<polygon fill="darkseagreen" stroke="darkseagreen" points="67,-62 13,-62 13,-26 67,-26 67,-62"/>
<text text-anchor="middle" x="40" y="-40.4" font-family="Times Roman,serif" font-size="14.00">SRE</text>
</a>
</g>
<!-- SRE&#45;&gt;GSL -->
<g id="edge7" class="edge"><title>SRE&#45;&gt;GSL</title>
<path fill="none" stroke="forestgreen" d="M67.0716,-50.6532C81.8346,-54.2814 100.414,-58.8476 116.925,-62.9052"/>
<polygon fill="forestgreen" stroke="forestgreen" points="126.885,-65.353 116.1,-67.3363 122.029,-64.1597 117.174,-62.9664 117.174,-62.9664 117.174,-62.9664 122.029,-64.1597 118.248,-58.5964 126.885,-65.353 126.885,-65.353"/>
<text text-anchor="middle" x="103" y="-62.8" font-family="Times Roman,serif" font-size="8.00"> &#160;&#160;</text>
</g>
<!-- TXG -->
<g id="node4" class="node"><title>TXG</title>
<a xlink:href="../processes/process_TXG.svg" xlink:title="TXG">
<polygon fill="darkseagreen" stroke="darkseagreen" points="290,-91 236,-91 236,-55 290,-55 290,-91"/>
<text text-anchor="middle" x="263" y="-69.4" font-family="Times Roman,serif" font-size="14.00">TXG</text>
</a>
</g>
<!-- GSL&#45;&gt;TXG -->
<g id="edge10" class="edge"><title>GSL&#45;&gt;TXG</title>
<path fill="none" stroke="firebrick" d="M190.074,-73C201.248,-73 213.885,-73 225.463,-73"/>
<polygon fill="firebrick" stroke="firebrick" points="235.725,-73 225.725,-77.5001 230.725,-73 225.725,-73.0001 225.725,-73.0001 225.725,-73.0001 230.725,-73 225.725,-68.5001 235.725,-73 235.725,-73"/>
<text text-anchor="middle" x="213" y="-75.8" font-family="Times Roman,serif" font-size="8.00"> &#160;&#160;</text>
</g>
</g>
</svg>
