<?xml version="1.0" encoding="UTF-8" standalone="no"?>
<!DOCTYPE svg PUBLIC "-//W3C//DTD SVG 1.1//EN"
 "http://www.w3.org/Graphics/SVG/1.1/DTD/svg11.dtd">
<!-- Generated by graphviz version 2.26.3 (20100126.1600)
 -->
<!-- Title: Temoa_energy_carrier Pages: 1 -->
<svg width="294pt" height="100pt"
 viewBox="0.00 0.00 294.00 100.00" xmlns="http://www.w3.org/2000/svg" xmlns:xlink="http://www.w3.org/1999/xlink">
<g id="graph1" class="graph" transform="scale(1 1) rotate(0) translate(4 96)">
<title>Temoa_energy_carrier</title>
<polygon fill="white" stroke="white" points="-4,5 -4,-96 291,-96 291,5 -4,5"/>
<text text-anchor="middle" x="143" y="-9.4" font-family="Times Roman,serif" font-size="14.00">HYD</text>
<!-- E31 -->
<g id="node2" class="node"><title>E31</title>
<a xlink:href="../processes/process_E31.svg" xlink:title="E31">
<polygon fill="darkseagreen" stroke="darkseagreen" points="286,-77 232,-77 232,-41 286,-41 286,-77"/>
<text text-anchor="middle" x="259" y="-55.4" font-family="Times Roman,serif" font-size="14.00">E31</text>
</a>
</g>
<!-- IMPHYD -->
<g id="node3" class="node"><title>IMPHYD</title>
<a xlink:href="../processes/process_IMPHYD.svg" xlink:title="IMPHYD">
<polygon fill="darkseagreen" stroke="darkseagreen" points="73,-77 1,-77 1,-41 73,-41 73,-77"/>
<text text-anchor="middle" x="37" y="-55.4" font-family="Times Roman,serif" font-size="14.00">IMPHYD</text>
</a>
</g>
<!-- HYD -->
<g id="node5" class="node"><title>HYD</title>
<a xlink:href="../simple_model.svg" xlink:title="HYD">
<ellipse fill="lightsteelblue" stroke="lightsteelblue" cx="153" cy="-59" rx="33.234" ry="33.234"/>
<text text-anchor="middle" x="153" y="-55.4" font-family="Times Roman,serif" font-size="14.00">HYD</text>
</a>
</g>
<!-- IMPHYD&#45;&gt;HYD -->
<g id="edge5" class="edge"><title>IMPHYD&#45;&gt;HYD</title>
<path fill="none" stroke="forestgreen" d="M73.7031,-59C85.1,-59 97.771,-59 109.58,-59"/>
<polygon fill="forestgreen" stroke="forestgreen" points="119.681,-59 109.681,-63.5001 114.681,-59 109.681,-59.0001 109.681,-59.0001 109.681,-59.0001 114.681,-59 109.681,-54.5001 119.681,-59 119.681,-59"/>
<text text-anchor="middle" x="97" y="-61.8" font-family="Times Roman,serif" font-size="8.00"> &#160;&#160;</text>
</g>
<!-- HYD&#45;&gt;E31 -->
<g id="edge8" class="edge"><title>HYD&#45;&gt;E31</title>
<path fill="none" stroke="firebrick" d="M186.248,-59C197.498,-59 210.133,-59 221.677,-59"/>
<polygon fill="firebrick" stroke="firebrick" points="231.901,-59 221.901,-63.5001 226.901,-59 221.901,-59.0001 221.901,-59.0001 221.901,-59.0001 226.901,-59 221.901,-54.5001 231.901,-59 231.901,-59"/>
<text text-anchor="middle" x="209" y="-61.8" font-family="Times Roman,serif" font-size="8.00"> &#160;&#160;</text>
</g>
</g>
</svg>
