<?xml version="1.0" encoding="UTF-8" standalone="no"?>
<!DOCTYPE svg PUBLIC "-//W3C//DTD SVG 1.1//EN"
 "http://www.w3.org/Graphics/SVG/1.1/DTD/svg11.dtd">
<!-- Generated by graphviz version 2.26.3 (20100126.1600)
 -->
<!-- Title: Temoa_energy_carrier Pages: 1 -->
<svg width="288pt" height="92pt"
 viewBox="0.00 0.00 288.00 92.00" xmlns="http://www.w3.org/2000/svg" xmlns:xlink="http://www.w3.org/1999/xlink">
<g id="graph1" class="graph" transform="scale(1 1) rotate(0) translate(4 88)">
<title>Temoa_energy_carrier</title>
<polygon fill="white" stroke="white" points="-4,5 -4,-88 285,-88 285,5 -4,5"/>
<text text-anchor="middle" x="140" y="-9.4" font-family="Times Roman,serif" font-size="14.00">OIL</text>
<!-- IMPOIL1 -->
<g id="node2" class="node"><title>IMPOIL1</title>
<a xlink:href="../processes/process_IMPOIL1.svg" xlink:title="IMPOIL1">
<polygon fill="darkseagreen" stroke="darkseagreen" points="75,-73 1,-73 1,-37 75,-37 75,-73"/>
<text text-anchor="middle" x="38" y="-51.4" font-family="Times Roman,serif" font-size="14.00">IMPOIL1</text>
</a>
</g>
<!-- OIL -->
<g id="node5" class="node"><title>OIL</title>
<a xlink:href="../simple_model.svg" xlink:title="OIL">
<ellipse fill="lightsteelblue" stroke="lightsteelblue" cx="151" cy="-55" rx="28.9914" ry="28.9914"/>
<text text-anchor="middle" x="151" y="-51.4" font-family="Times Roman,serif" font-size="14.00">OIL</text>
</a>
</g>
<!-- IMPOIL1&#45;&gt;OIL -->
<g id="edge5" class="edge"><title>IMPOIL1&#45;&gt;OIL</title>
<path fill="none" stroke="forestgreen" d="M75.6274,-55C87.1297,-55 99.811,-55 111.438,-55"/>
<polygon fill="forestgreen" stroke="forestgreen" points="121.755,-55 111.755,-59.5001 116.755,-55 111.755,-55.0001 111.755,-55.0001 111.755,-55.0001 116.755,-55 111.755,-50.5001 121.755,-55 121.755,-55"/>
<text text-anchor="middle" x="99" y="-57.8" font-family="Times Roman,serif" font-size="8.00"> &#160;&#160;</text>
</g>
<!-- SRE -->
<g id="node3" class="node"><title>SRE</title>
<a xlink:href="../processes/process_SRE.svg" xlink:title="SRE">
<polygon fill="darkseagreen" stroke="darkseagreen" points="280,-73 226,-73 226,-37 280,-37 280,-73"/>
<text text-anchor="middle" x="253" y="-51.4" font-family="Times Roman,serif" font-size="14.00">SRE</text>
</a>
</g>
<!-- OIL&#45;&gt;SRE -->
<g id="edge8" class="edge"><title>OIL&#45;&gt;SRE</title>
<path fill="none" stroke="firebrick" d="M180.229,-55C191.227,-55 203.887,-55 215.532,-55"/>
<polygon fill="firebrick" stroke="firebrick" points="225.865,-55 215.865,-59.5001 220.865,-55 215.865,-55.0001 215.865,-55.0001 215.865,-55.0001 220.865,-55 215.865,-50.5001 225.865,-55 225.865,-55"/>
<text text-anchor="middle" x="203" y="-57.8" font-family="Times Roman,serif" font-size="8.00"> &#160;&#160;</text>
</g>
</g>
</svg>
