<?xml version="1.0" encoding="UTF-8" standalone="no"?>
<!DOCTYPE svg PUBLIC "-//W3C//DTD SVG 1.1//EN"
 "http://www.w3.org/Graphics/SVG/1.1/DTD/svg11.dtd">
<!-- Generated by graphviz version 2.26.3 (20100126.1600)
 -->
<!-- Title: Temoa_energy_carrier Pages: 1 -->
<svg width="306pt" height="102pt"
 viewBox="0.00 0.00 306.00 102.00" xmlns="http://www.w3.org/2000/svg" xmlns:xlink="http://www.w3.org/1999/xlink">
<g id="graph1" class="graph" transform="scale(1 1) rotate(0) translate(4 98)">
<title>Temoa_energy_carrier</title>
<polygon fill="white" stroke="white" points="-4,5 -4,-98 303,-98 303,5 -4,5"/>
<text text-anchor="middle" x="149" y="-9.4" font-family="Times Roman,serif" font-size="14.00">HCO</text>
<!-- E01 -->
<g id="node2" class="node"><title>E01</title>
<a xlink:href="../processes/process_E01.svg" xlink:title="E01">
<polygon fill="darkseagreen" stroke="darkseagreen" points="298,-78 244,-78 244,-42 298,-42 298,-78"/>
<text text-anchor="middle" x="271" y="-56.4" font-family="Times Roman,serif" font-size="14.00">E01</text>
</a>
</g>
<!-- IMPHCO1 -->
<g id="node3" class="node"><title>IMPHCO1</title>
<a xlink:href="../processes/process_IMPHCO1.svg" xlink:title="IMPHCO1">
<polygon fill="darkseagreen" stroke="darkseagreen" points="83,-78 1,-78 1,-42 83,-42 83,-78"/>
<text text-anchor="middle" x="42" y="-56.4" font-family="Times Roman,serif" font-size="14.00">IMPHCO1</text>
</a>
</g>
<!-- HCO -->
<g id="node5" class="node"><title>HCO</title>
<a xlink:href="../simple_model.svg" xlink:title="HCO">
<ellipse fill="lightsteelblue" stroke="lightsteelblue" cx="164" cy="-60" rx="33.9411" ry="33.9411"/>
<text text-anchor="middle" x="164" y="-56.4" font-family="Times Roman,serif" font-size="14.00">HCO</text>
</a>
</g>
<!-- IMPHCO1&#45;&gt;HCO -->
<g id="edge5" class="edge"><title>IMPHCO1&#45;&gt;HCO</title>
<path fill="none" stroke="forestgreen" d="M83.6443,-60C95.2831,-60 107.971,-60 119.754,-60"/>
<polygon fill="forestgreen" stroke="forestgreen" points="129.827,-60 119.827,-64.5001 124.827,-60 119.827,-60.0001 119.827,-60.0001 119.827,-60.0001 124.827,-60 119.827,-55.5001 129.827,-60 129.827,-60"/>
<text text-anchor="middle" x="107" y="-62.8" font-family="Times Roman,serif" font-size="8.00"> &#160;&#160;</text>
</g>
<!-- HCO&#45;&gt;E01 -->
<g id="edge8" class="edge"><title>HCO&#45;&gt;E01</title>
<path fill="none" stroke="firebrick" d="M198.15,-60C209.482,-60 222.152,-60 233.708,-60"/>
<polygon fill="firebrick" stroke="firebrick" points="243.938,-60 233.938,-64.5001 238.938,-60 233.938,-60.0001 233.938,-60.0001 233.938,-60.0001 238.938,-60 233.938,-55.5001 243.938,-60 243.938,-60"/>
<text text-anchor="middle" x="221" y="-62.8" font-family="Times Roman,serif" font-size="8.00"> &#160;&#160;</text>
</g>
</g>
</svg>
