<?xml version="1.0" encoding="UTF-8" standalone="no"?>
<!DOCTYPE svg PUBLIC "-//W3C//DTD SVG 1.1//EN"
 "http://www.w3.org/Graphics/SVG/1.1/DTD/svg11.dtd">
<!-- Generated by graphviz version 2.26.3 (20100126.1600)
 -->
<!-- Title: Temoa_energy_carrier Pages: 1 -->
<svg width="158pt" height="82pt"
 viewBox="0.00 0.00 158.00 82.00" xmlns="http://www.w3.org/2000/svg" xmlns:xlink="http://www.w3.org/1999/xlink">
<g id="graph1" class="graph" transform="scale(1 1) rotate(0) translate(4 78)">
<title>Temoa_energy_carrier</title>
<polygon fill="white" stroke="white" points="-4,5 -4,-78 155,-78 155,5 -4,5"/>
<text text-anchor="middle" x="75" y="-9.4" font-family="Times Roman,serif" font-size="14.00">RL</text>
<!-- RL1 -->
<g id="node2" class="node"><title>RL1</title>
<a xlink:href="../processes/process_RL1.svg" xlink:title="RL1">
<polygon fill="darkseagreen" stroke="darkseagreen" points="54,-68 2.13163e-14,-68 0,-32 54,-32 54,-68"/>
<text text-anchor="middle" x="27" y="-46.4" font-family="Times Roman,serif" font-size="14.00">RL1</text>
</a>
</g>
<!-- RL -->
<g id="node4" class="node"><title>RL</title>
<a xlink:href="../simple_model.svg" xlink:title="RL">
<ellipse fill="lightsteelblue" stroke="lightsteelblue" cx="125" cy="-50" rx="24.2437" ry="24.7487"/>
<text text-anchor="middle" x="125" y="-46.4" font-family="Times Roman,serif" font-size="14.00">RL</text>
</a>
</g>
<!-- RL1&#45;&gt;RL -->
<g id="edge5" class="edge"><title>RL1&#45;&gt;RL</title>
<path fill="none" stroke="forestgreen" d="M54.0384,-50C65.2561,-50 78.41,-50 90.325,-50"/>
<polygon fill="forestgreen" stroke="forestgreen" points="100.397,-50 90.397,-54.5001 95.397,-50 90.397,-50.0001 90.397,-50.0001 90.397,-50.0001 95.397,-50 90.3969,-45.5001 100.397,-50 100.397,-50"/>
<text text-anchor="middle" x="77" y="-52.8" font-family="Times Roman,serif" font-size="8.00"> &#160;&#160;</text>
</g>
</g>
</svg>
