<?xml version="1.0" encoding="UTF-8" standalone="no"?>
<!DOCTYPE svg PUBLIC "-//W3C//DTD SVG 1.1//EN"
 "http://www.w3.org/Graphics/SVG/1.1/DTD/svg11.dtd">
<!-- Generated by graphviz version 2.26.3 (20100126.1600)
 -->
<!-- Title: result_commodity_DSL Pages: 1 -->
<svg width="298pt" height="186pt"
 viewBox="0.00 0.00 298.00 186.00" xmlns="http://www.w3.org/2000/svg" xmlns:xlink="http://www.w3.org/1999/xlink">
<g id="graph1" class="graph" transform="scale(1 1) rotate(0) translate(4 182)">
<title>result_commodity_DSL</title>
<polygon fill="white" stroke="white" points="-4,5 -4,-182 295,-182 295,5 -4,5"/>
<text text-anchor="middle" x="145" y="-9.4" font-family="Times Roman,serif" font-size="14.00">DSL &#45; 2010</text>
<!-- DSL -->
<g id="node1" class="node"><title>DSL</title>
<a xlink:href="../results/results2010.svg" xlink:title="DSL">
<ellipse fill="lightsteelblue" stroke="lightsteelblue" cx="158" cy="-73" rx="31.8198" ry="31.8198"/>
<text text-anchor="middle" x="158" y="-69.4" font-family="Times Roman,serif" font-size="14.00">DSL</text>
</a>
</g>
<!-- RHO -->
<g id="node4" class="node"><title>RHO</title>
<a xlink:href="../results/results_RHO_2010.svg" xlink:title="RHO">
<polygon fill="darkseagreen" stroke="darkseagreen" points="290,-178 236,-178 236,-142 290,-142 290,-178"/>
<text text-anchor="middle" x="263" y="-156.4" font-family="Times Roman,serif" font-size="14.00">RHO</text>
</a>
</g>
<!-- DSL&#45;&gt;RHO -->
<g id="edge4" class="edge"><title>DSL&#45;&gt;RHO</title>
<path fill="none" stroke="forestgreen" d="M182.884,-93.6178C197.963,-106.112 217.292,-122.128 233.186,-135.297"/>
<polygon fill="forestgreen" stroke="forestgreen" points="241.144,-141.891 230.573,-138.976 237.294,-138.701 233.444,-135.511 233.444,-135.511 233.444,-135.511 237.294,-138.701 236.315,-132.046 241.144,-141.891 241.144,-141.891"/>
<text text-anchor="middle" x="213" y="-123.8" font-family="Times Roman,serif" font-size="8.00"> &#160;&#160;</text>
</g>
<!-- TXD -->
<g id="node5" class="node"><title>TXD</title>
<a xlink:href="../results/results_TXD_2010.svg" xlink:title="TXD">
<polygon fill="darkseagreen" stroke="darkseagreen" points="290,-124 236,-124 236,-88 290,-88 290,-124"/>
<text text-anchor="middle" x="263" y="-102.4" font-family="Times Roman,serif" font-size="14.00">TXD</text>
</a>
</g>
<!-- DSL&#45;&gt;TXD -->
<g id="edge6" class="edge"><title>DSL&#45;&gt;TXD</title>
<path fill="none" stroke="forestgreen" d="M188.653,-82.6337C200.286,-86.2899 213.661,-90.4936 225.832,-94.3186"/>
<polygon fill="forestgreen" stroke="forestgreen" points="235.707,-97.4222 224.818,-98.7168 230.937,-95.923 226.167,-94.4238 226.167,-94.4238 226.167,-94.4238 230.937,-95.923 227.516,-90.1309 235.707,-97.4222 235.707,-97.4222"/>
<text text-anchor="middle" x="213" y="-93.8" font-family="Times Roman,serif" font-size="8.00"> &#160;&#160;</text>
</g>
<!-- E70 -->
<g id="node6" class="node"><title>E70</title>
<polygon fill="powderblue" stroke="powderblue" points="290,-70 236,-70 236,-34 290,-34 290,-70"/>
<text text-anchor="middle" x="263" y="-48.4" font-family="Times Roman,serif" font-size="14.00">E70</text>
</g>
<!-- DSL&#45;&gt;E70 -->
<g id="edge11" class="edge"><title>DSL&#45;&gt;E70</title>
<path fill="none" stroke="powderblue" d="M189.503,-66.6993C200.903,-64.4193 213.885,-61.8231 225.733,-59.4534"/>
<polygon fill="powderblue" stroke="powderblue" points="235.785,-57.443 226.862,-63.8169 230.882,-58.4236 225.979,-59.4043 225.979,-59.4043 225.979,-59.4043 230.882,-58.4236 225.097,-54.9916 235.785,-57.443 235.785,-57.443"/>
<text text-anchor="middle" x="213" y="-64.8" font-family="Times Roman,serif" font-size="8.00"> &#160;&#160;</text>
</g>
<!-- IMPDSL1 -->
<g id="node3" class="node"><title>IMPDSL1</title>
<a xlink:href="../results/results_IMPDSL1_2010.svg" xlink:title="IMPDSL1">
<polygon fill="darkseagreen" stroke="darkseagreen" points="80,-116 3.55271e-14,-116 0,-80 80,-80 80,-116"/>
<text text-anchor="middle" x="40" y="-94.4" font-family="Times Roman,serif" font-size="14.00">IMPDSL1</text>
</a>
</g>
<!-- IMPDSL1&#45;&gt;DSL -->
<g id="edge8" class="edge"><title>IMPDSL1&#45;&gt;DSL</title>
<path fill="none" stroke="forestgreen" d="M80.2789,-89.4663C91.9492,-86.9938 104.71,-84.2903 116.456,-81.8017"/>
<polygon fill="forestgreen" stroke="forestgreen" points="126.464,-79.6813 117.614,-86.1563 121.573,-80.7177 116.681,-81.754 116.681,-81.754 116.681,-81.754 121.573,-80.7177 115.749,-77.3518 126.464,-79.6813 126.464,-79.6813"/>
<text text-anchor="middle" x="103" y="-87.8" font-family="Times Roman,serif" font-size="8.00"> &#160;&#160;</text>
</g>
<!-- SRE -->
<g id="node7" class="node"><title>SRE</title>
<polygon fill="powderblue" stroke="powderblue" points="67,-62 13,-62 13,-26 67,-26 67,-62"/>
<text text-anchor="middle" x="40" y="-40.4" font-family="Times Roman,serif" font-size="14.00">SRE</text>
</g>
<!-- SRE&#45;&gt;DSL -->
<g id="edge13" class="edge"><title>SRE&#45;&gt;DSL</title>
<path fill="none" stroke="powderblue" d="M67.0716,-50.6532C81.8346,-54.2814 100.414,-58.8476 116.925,-62.9052"/>
<polygon fill="powderblue" stroke="powderblue" points="126.885,-65.353 116.1,-67.3363 122.029,-64.1597 117.174,-62.9664 117.174,-62.9664 117.174,-62.9664 122.029,-64.1597 118.248,-58.5964 126.885,-65.353 126.885,-65.353"/>
<text text-anchor="middle" x="103" y="-62.8" font-family="Times Roman,serif" font-size="8.00"> &#160;&#160;</text>
</g>
</g>
</svg>
