<?xml version="1.0" encoding="UTF-8" standalone="no"?>
<!DOCTYPE svg PUBLIC "-//W3C//DTD SVG 1.1//EN"
 "http://www.w3.org/Graphics/SVG/1.1/DTD/svg11.dtd">
<!-- Generated by graphviz version 2.26.3 (20100126.1600)
 -->
<!-- Title: result_commodity_ELC Pages: 1 -->
<svg width="270pt" height="244pt"
 viewBox="0.00 0.00 270.00 244.00" xmlns="http://www.w3.org/2000/svg" xmlns:xlink="http://www.w3.org/1999/xlink">
<g id="graph1" class="graph" transform="scale(1 1) rotate(0) translate(4 240)">
<title>result_commodity_ELC</title>
<polygon fill="white" stroke="white" points="-4,5 -4,-240 267,-240 267,5 -4,5"/>
<text text-anchor="middle" x="131" y="-9.4" font-family="Times Roman,serif" font-size="14.00">ELC &#45; 2010</text>
<!-- ELC -->
<g id="node1" class="node"><title>ELC</title>
<a xlink:href="../results/results2010.svg" xlink:title="ELC">
<ellipse fill="lightsteelblue" stroke="lightsteelblue" cx="131" cy="-73" rx="31.1127" ry="31.1127"/>
<text text-anchor="middle" x="131" y="-69.4" font-family="Times Roman,serif" font-size="14.00">ELC</text>
</a>
</g>
<!-- E51 -->
<g id="node6" class="node"><title>E51</title>
<a xlink:href="../results/results_E51_2010.svg" xlink:title="E51">
<polygon fill="darkseagreen" stroke="darkseagreen" points="262,-236 208,-236 208,-200 262,-200 262,-236"/>
<text text-anchor="middle" x="235" y="-214.4" font-family="Times Roman,serif" font-size="14.00">E51</text>
</a>
</g>
<!-- ELC&#45;&gt;E51 -->
<g id="edge12" class="edge"><title>ELC&#45;&gt;E51</title>
<path fill="none" stroke="forestgreen" d="M139.911,-103.101C147.772,-125.987 160.964,-157.299 180,-180 185.521,-186.584 192.448,-192.537 199.507,-197.675"/>
<polygon fill="forestgreen" stroke="forestgreen" points="207.777,-203.32 196.98,-201.399 203.647,-200.501 199.517,-197.682 199.517,-197.682 199.517,-197.682 203.647,-200.501 202.054,-193.965 207.777,-203.32 207.777,-203.32"/>
<text text-anchor="middle" x="185" y="-191.8" font-family="Times Roman,serif" font-size="8.00"> &#160;&#160;</text>
</g>
<!-- RHE -->
<g id="node7" class="node"><title>RHE</title>
<a xlink:href="../results/results_RHE_2010.svg" xlink:title="RHE">
<polygon fill="darkseagreen" stroke="darkseagreen" points="262,-182 208,-182 208,-146 262,-146 262,-182"/>
<text text-anchor="middle" x="235" y="-160.4" font-family="Times Roman,serif" font-size="14.00">RHE</text>
</a>
</g>
<!-- ELC&#45;&gt;RHE -->
<g id="edge14" class="edge"><title>ELC&#45;&gt;RHE</title>
<path fill="none" stroke="forestgreen" d="M154.34,-93.4222C169.78,-106.932 190.122,-124.732 206.515,-139.075"/>
<polygon fill="forestgreen" stroke="forestgreen" points="214.206,-145.805 203.717,-142.607 210.443,-142.513 206.68,-139.22 206.68,-139.22 206.68,-139.22 210.443,-142.513 209.643,-135.834 214.206,-145.805 214.206,-145.805"/>
<text text-anchor="middle" x="185" y="-125.8" font-family="Times Roman,serif" font-size="8.00"> &#160;&#160;</text>
</g>
<!-- RL1 -->
<g id="node8" class="node"><title>RL1</title>
<a xlink:href="../results/results_RL1_2010.svg" xlink:title="RL1">
<polygon fill="darkseagreen" stroke="darkseagreen" points="262,-128 208,-128 208,-92 262,-92 262,-128"/>
<text text-anchor="middle" x="235" y="-106.4" font-family="Times Roman,serif" font-size="14.00">RL1</text>
</a>
</g>
<!-- ELC&#45;&gt;RL1 -->
<g id="edge16" class="edge"><title>ELC&#45;&gt;RL1</title>
<path fill="none" stroke="forestgreen" d="M160.247,-83.405C172.003,-87.5877 185.693,-92.4581 198.121,-96.8795"/>
<polygon fill="forestgreen" stroke="forestgreen" points="207.756,-100.307 196.826,-101.195 203.045,-98.6314 198.334,-96.9554 198.334,-96.9554 198.334,-96.9554 203.045,-98.6314 199.843,-92.7158 207.756,-100.307 207.756,-100.307"/>
<text text-anchor="middle" x="185" y="-95.8" font-family="Times Roman,serif" font-size="8.00"> &#160;&#160;</text>
</g>
<!-- TXE -->
<g id="node10" class="node"><title>TXE</title>
<polygon fill="powderblue" stroke="powderblue" points="262,-74 208,-74 208,-38 262,-38 262,-74"/>
<text text-anchor="middle" x="235" y="-52.4" font-family="Times Roman,serif" font-size="14.00">TXE</text>
</g>
<!-- ELC&#45;&gt;TXE -->
<g id="edge21" class="edge"><title>ELC&#45;&gt;TXE</title>
<path fill="none" stroke="powderblue" d="M161.641,-67.9914C172.948,-66.1431 185.887,-64.0281 197.717,-62.0943"/>
<polygon fill="powderblue" stroke="powderblue" points="207.76,-60.4527 198.617,-66.507 202.826,-61.2593 197.891,-62.066 197.891,-62.066 197.891,-62.066 202.826,-61.2593 197.165,-57.6249 207.76,-60.4527 207.76,-60.4527"/>
<text text-anchor="middle" x="185" y="-66.8" font-family="Times Roman,serif" font-size="8.00"> &#160;&#160;</text>
</g>
<!-- E01 -->
<g id="node3" class="node"><title>E01</title>
<a xlink:href="../results/results_E01_2010.svg" xlink:title="E01">
<polygon fill="darkseagreen" stroke="darkseagreen" points="54,-224 2.13163e-14,-224 0,-188 54,-188 54,-224"/>
<text text-anchor="middle" x="27" y="-202.4" font-family="Times Roman,serif" font-size="14.00">E01</text>
</a>
</g>
<!-- E01&#45;&gt;ELC -->
<g id="edge4" class="edge"><title>E01&#45;&gt;ELC</title>
<path fill="none" stroke="forestgreen" d="M45.9892,-187.777C48.7516,-184.909 51.5031,-181.924 54,-179 73.4741,-156.197 93.3115,-128.768 107.973,-107.526"/>
<polygon fill="forestgreen" stroke="forestgreen" points="113.724,-99.1259 111.788,-109.919 110.9,-103.252 108.075,-107.377 108.075,-107.377 108.075,-107.377 110.9,-103.252 104.362,-104.835 113.724,-99.1259 113.724,-99.1259"/>
<text text-anchor="middle" x="77" y="-158.8" font-family="Times Roman,serif" font-size="8.00"> &#160;&#160;</text>
</g>
<!-- E21 -->
<g id="node4" class="node"><title>E21</title>
<a xlink:href="../results/results_E21_2010.svg" xlink:title="E21">
<polygon fill="darkseagreen" stroke="darkseagreen" points="54,-170 2.13163e-14,-170 0,-134 54,-134 54,-170"/>
<text text-anchor="middle" x="27" y="-148.4" font-family="Times Roman,serif" font-size="14.00">E21</text>
</a>
</g>
<!-- E21&#45;&gt;ELC -->
<g id="edge6" class="edge"><title>E21&#45;&gt;ELC</title>
<path fill="none" stroke="forestgreen" d="M50.8597,-133.876C64.8251,-123.267 82.6655,-109.716 97.967,-98.0924"/>
<polygon fill="forestgreen" stroke="forestgreen" points="106.166,-91.8644 100.925,-101.497 102.184,-94.8889 98.2027,-97.9134 98.2027,-97.9134 98.2027,-97.9134 102.184,-94.8889 95.4807,-94.3299 106.166,-91.8644 106.166,-91.8644"/>
<text text-anchor="middle" x="77" y="-119.8" font-family="Times Roman,serif" font-size="8.00"> &#160;&#160;</text>
</g>
<!-- E31 -->
<g id="node5" class="node"><title>E31</title>
<a xlink:href="../results/results_E31_2010.svg" xlink:title="E31">
<polygon fill="darkseagreen" stroke="darkseagreen" points="54,-116 2.13163e-14,-116 0,-80 54,-80 54,-116"/>
<text text-anchor="middle" x="27" y="-94.4" font-family="Times Roman,serif" font-size="14.00">E31</text>
</a>
</g>
<!-- E31&#45;&gt;ELC -->
<g id="edge8" class="edge"><title>E31&#45;&gt;ELC</title>
<path fill="none" stroke="forestgreen" d="M54.0533,-91.4968C65.2439,-88.8067 78.4547,-85.6311 90.7425,-82.6773"/>
<polygon fill="forestgreen" stroke="forestgreen" points="100.782,-80.2638 92.1112,-86.9765 95.921,-81.4325 91.0594,-82.6012 91.0594,-82.6012 91.0594,-82.6012 95.921,-81.4325 90.0076,-78.2258 100.782,-80.2638 100.782,-80.2638"/>
<text text-anchor="middle" x="77" y="-88.8" font-family="Times Roman,serif" font-size="8.00"> &#160;&#160;</text>
</g>
<!-- E51&#45;&gt;ELC -->
<g id="edge10" class="edge"><title>E51&#45;&gt;ELC</title>
<path fill="none" stroke="forestgreen" d="M215.878,-199.887C213.134,-197.004 210.423,-193.985 208,-191 186.95,-165.063 166.447,-133.222 151.898,-109.155"/>
<polygon fill="forestgreen" stroke="forestgreen" points="146.625,-100.34 155.62,-106.611 149.192,-104.631 151.759,-108.922 151.759,-108.922 151.759,-108.922 149.192,-104.631 147.897,-111.232 146.625,-100.34 146.625,-100.34"/>
<text text-anchor="middle" x="185" y="-168.8" font-family="Times Roman,serif" font-size="8.00"> &#160;&#160;</text>
</g>
<!-- E70 -->
<g id="node9" class="node"><title>E70</title>
<polygon fill="powderblue" stroke="powderblue" points="54,-62 2.13163e-14,-62 0,-26 54,-26 54,-62"/>
<text text-anchor="middle" x="27" y="-40.4" font-family="Times Roman,serif" font-size="14.00">E70</text>
</g>
<!-- E70&#45;&gt;ELC -->
<g id="edge19" class="edge"><title>E70&#45;&gt;ELC</title>
<path fill="none" stroke="powderblue" d="M54.0533,-51.5437C65.3558,-54.6954 78.7191,-58.4217 91.1108,-61.8771"/>
<polygon fill="powderblue" stroke="powderblue" points="100.782,-64.574 89.9412,-66.2225 95.9662,-63.2309 91.1499,-61.8879 91.1499,-61.8879 91.1499,-61.8879 95.9662,-63.2309 92.3587,-57.5533 100.782,-64.574 100.782,-64.574"/>
<text text-anchor="middle" x="77" y="-60.8" font-family="Times Roman,serif" font-size="8.00"> &#160;&#160;</text>
</g>
</g>
</svg>
