<?xml version="1.0" encoding="UTF-8" standalone="no"?>
<!DOCTYPE svg PUBLIC "-//W3C//DTD SVG 1.1//EN"
 "http://www.w3.org/Graphics/SVG/1.1/DTD/svg11.dtd">
<!-- Generated by graphviz version 2.26.3 (20100126.1600)
 -->
<!-- Title: result_commodity_ethos Pages: 1 -->
<svg width="216pt" height="394pt"
 viewBox="0.00 0.00 216.00 394.00" xmlns="http://www.w3.org/2000/svg" xmlns:xlink="http://www.w3.org/1999/xlink">
<g id="graph1" class="graph" transform="scale(1 1) rotate(0) translate(4 390)">
<title>result_commodity_ethos</title>
<polygon fill="white" stroke="white" points="-4,5 -4,-390 213,-390 213,5 -4,5"/>
<text text-anchor="middle" x="104" y="-9.4" font-family="Times Roman,serif" font-size="14.00">ethos &#45; 1990</text>
<!-- ethos -->
<g id="node1" class="node"><title>ethos</title>
<a xlink:href="../results/results1990.svg" xlink:title="ethos">
<ellipse fill="lightsteelblue" stroke="lightsteelblue" cx="39" cy="-73" rx="38.8909" ry="38.8909"/>
<text text-anchor="middle" x="39" y="-69.4" font-family="Times Roman,serif" font-size="14.00">ethos</text>
</a>
</g>
<!-- IMPDSL1 -->
<g id="node3" class="node"><title>IMPDSL1</title>
<a xlink:href="../results/results_IMPDSL1_1990.svg" xlink:title="IMPDSL1">
<polygon fill="darkseagreen" stroke="darkseagreen" points="206,-386 126,-386 126,-350 206,-350 206,-386"/>
<text text-anchor="middle" x="166" y="-364.4" font-family="Times Roman,serif" font-size="14.00">IMPDSL1</text>
</a>
</g>
<!-- ethos&#45;&gt;IMPDSL1 -->
<g id="edge4" class="edge"><title>ethos&#45;&gt;IMPDSL1</title>
<path fill="none" stroke="forestgreen" d="M42.0055,-112.114C48.2463,-168.709 67.1899,-273.976 124,-341 124.504,-341.595 125.025,-342.182 125.561,-342.76"/>
<polygon fill="forestgreen" stroke="forestgreen" points="133.204,-349.778 122.795,-346.329 129.521,-346.396 125.838,-343.014 125.838,-343.014 125.838,-343.014 129.521,-346.396 128.882,-339.7 133.204,-349.778 133.204,-349.778"/>
<text text-anchor="middle" x="101" y="-312.8" font-family="Times Roman,serif" font-size="8.00"> &#160;&#160;</text>
</g>
<!-- IMPFEQ -->
<g id="node4" class="node"><title>IMPFEQ</title>
<a xlink:href="../results/results_IMPFEQ_1990.svg" xlink:title="IMPFEQ">
<polygon fill="darkseagreen" stroke="darkseagreen" points="201,-332 131,-332 131,-296 201,-296 201,-332"/>
<text text-anchor="middle" x="166" y="-310.4" font-family="Times Roman,serif" font-size="14.00">IMPFEQ</text>
</a>
</g>
<!-- ethos&#45;&gt;IMPFEQ -->
<g id="edge6" class="edge"><title>ethos&#45;&gt;IMPFEQ</title>
<path fill="none" stroke="forestgreen" d="M46.2635,-111.353C56.6591,-157.513 79.6313,-235.259 124,-287 124.508,-287.592 125.032,-288.176 125.57,-288.752"/>
<polygon fill="forestgreen" stroke="forestgreen" points="133.24,-295.747 122.819,-292.333 129.546,-292.378 125.852,-289.008 125.852,-289.008 125.852,-289.008 129.546,-292.378 128.884,-285.683 133.24,-295.747 133.24,-295.747"/>
<text text-anchor="middle" x="101" y="-264.8" font-family="Times Roman,serif" font-size="8.00"> &#160;&#160;</text>
</g>
<!-- IMPGSL1 -->
<g id="node5" class="node"><title>IMPGSL1</title>
<a xlink:href="../results/results_IMPGSL1_1990.svg" xlink:title="IMPGSL1">
<polygon fill="darkseagreen" stroke="darkseagreen" points="206,-278 126,-278 126,-242 206,-242 206,-278"/>
<text text-anchor="middle" x="166" y="-256.4" font-family="Times Roman,serif" font-size="14.00">IMPGSL1</text>
</a>
</g>
<!-- ethos&#45;&gt;IMPGSL1 -->
<g id="edge8" class="edge"><title>ethos&#45;&gt;IMPGSL1</title>
<path fill="none" stroke="forestgreen" d="M52.3006,-109.975C66.1663,-144.717 90.5596,-196.662 124,-233 124.734,-233.797 125.496,-234.581 126.282,-235.351"/>
<polygon fill="forestgreen" stroke="forestgreen" points="133.882,-241.883 123.365,-238.777 130.09,-238.624 126.298,-235.365 126.298,-235.365 126.298,-235.365 130.09,-238.624 129.231,-231.952 133.882,-241.883 133.882,-241.883"/>
<text text-anchor="middle" x="101" y="-212.8" font-family="Times Roman,serif" font-size="8.00"> &#160;&#160;</text>
</g>
<!-- IMPHCO1 -->
<g id="node6" class="node"><title>IMPHCO1</title>
<a xlink:href="../results/results_IMPHCO1_1990.svg" xlink:title="IMPHCO1">
<polygon fill="darkseagreen" stroke="darkseagreen" points="207,-224 125,-224 125,-188 207,-188 207,-224"/>
<text text-anchor="middle" x="166" y="-202.4" font-family="Times Roman,serif" font-size="14.00">IMPHCO1</text>
</a>
</g>
<!-- ethos&#45;&gt;IMPHCO1 -->
<g id="edge10" class="edge"><title>ethos&#45;&gt;IMPHCO1</title>
<path fill="none" stroke="forestgreen" d="M60.7673,-105.435C76.6699,-127.693 99.6353,-157.058 124,-179 124.978,-179.881 125.988,-180.752 127.023,-181.613"/>
<polygon fill="forestgreen" stroke="forestgreen" points="135.315,-187.948 124.637,-185.453 131.342,-184.913 127.369,-181.877 127.369,-181.877 127.369,-181.877 131.342,-184.913 130.101,-178.301 135.315,-187.948 135.315,-187.948"/>
<text text-anchor="middle" x="101" y="-162.8" font-family="Times Roman,serif" font-size="8.00"> &#160;&#160;</text>
</g>
<!-- IMPHYD -->
<g id="node7" class="node"><title>IMPHYD</title>
<a xlink:href="../results/results_IMPHYD_1990.svg" xlink:title="IMPHYD">
<polygon fill="darkseagreen" stroke="darkseagreen" points="202,-170 130,-170 130,-134 202,-134 202,-170"/>
<text text-anchor="middle" x="166" y="-148.4" font-family="Times Roman,serif" font-size="14.00">IMPHYD</text>
</a>
</g>
<!-- ethos&#45;&gt;IMPHYD -->
<g id="edge12" class="edge"><title>ethos&#45;&gt;IMPHYD</title>
<path fill="none" stroke="forestgreen" d="M72.3678,-93.7563C89.3903,-104.345 110.174,-117.273 127.832,-128.257"/>
<polygon fill="forestgreen" stroke="forestgreen" points="136.744,-133.801 125.876,-132.34 132.498,-131.16 128.253,-128.519 128.253,-128.519 128.253,-128.519 132.498,-131.16 130.63,-124.698 136.744,-133.801 136.744,-133.801"/>
<text text-anchor="middle" x="101" y="-114.8" font-family="Times Roman,serif" font-size="8.00"> &#160;&#160;</text>
</g>
<!-- IMPOIL1 -->
<g id="node8" class="node"><title>IMPOIL1</title>
<polygon fill="powderblue" stroke="powderblue" points="203,-116 129,-116 129,-80 203,-80 203,-116"/>
<text text-anchor="middle" x="166" y="-94.4" font-family="Times Roman,serif" font-size="14.00">IMPOIL1</text>
</g>
<!-- ethos&#45;&gt;IMPOIL1 -->
<g id="edge15" class="edge"><title>ethos&#45;&gt;IMPOIL1</title>
<path fill="none" stroke="powderblue" d="M77.4488,-80.5687C90.2478,-83.0882 104.664,-85.926 118.089,-88.5687"/>
<polygon fill="powderblue" stroke="powderblue" points="128.119,-90.5431 117.438,-93.0268 123.213,-89.5773 118.307,-88.6116 118.307,-88.6116 118.307,-88.6116 123.213,-89.5773 119.176,-84.1963 128.119,-90.5431 128.119,-90.5431"/>
<text text-anchor="middle" x="101" y="-87.8" font-family="Times Roman,serif" font-size="8.00"> &#160;&#160;</text>
</g>
<!-- IMPURN1 -->
<g id="node9" class="node"><title>IMPURN1</title>
<polygon fill="powderblue" stroke="powderblue" points="207,-62 125,-62 125,-26 207,-26 207,-62"/>
<text text-anchor="middle" x="166" y="-40.4" font-family="Times Roman,serif" font-size="14.00">IMPURN1</text>
</g>
<!-- ethos&#45;&gt;IMPURN1 -->
<g id="edge17" class="edge"><title>ethos&#45;&gt;IMPURN1</title>
<path fill="none" stroke="powderblue" d="M77.1042,-64.299C88.9805,-61.5871 102.276,-58.5512 114.892,-55.6703"/>
<polygon fill="powderblue" stroke="powderblue" points="124.824,-53.4023 116.077,-60.0156 119.95,-54.5154 115.075,-55.6286 115.075,-55.6286 115.075,-55.6286 119.95,-54.5154 114.073,-51.2415 124.824,-53.4023 124.824,-53.4023"/>
<text text-anchor="middle" x="101" y="-61.8" font-family="Times Roman,serif" font-size="8.00"> &#160;&#160;</text>
</g>
</g>
</svg>
