<?xml version="1.0" encoding="UTF-8" standalone="no"?>
<!DOCTYPE svg PUBLIC "-//W3C//DTD SVG 1.1//EN"
 "http://www.w3.org/Graphics/SVG/1.1/DTD/svg11.dtd">
<!-- Generated by graphviz version 2.26.3 (20100126.1600)
 -->
<!-- Title: result_commodity_FEQ Pages: 1 -->
<svg width="290pt" height="98pt"
 viewBox="0.00 0.00 290.00 98.00" xmlns="http://www.w3.org/2000/svg" xmlns:xlink="http://www.w3.org/1999/xlink">
<g id="graph1" class="graph" transform="scale(1 1) rotate(0) translate(4 94)">
<title>result_commodity_FEQ</title>
<polygon fill="white" stroke="white" points="-4,5 -4,-94 287,-94 287,5 -4,5"/>
<text text-anchor="middle" x="141" y="-9.4" font-family="Times Roman,serif" font-size="14.00">FEQ &#45; 2000</text>
<!-- FEQ -->
<g id="node1" class="node"><title>FEQ</title>
<a xlink:href="../results/results2000.svg" xlink:title="FEQ">
<ellipse fill="lightsteelblue" stroke="lightsteelblue" cx="150" cy="-58" rx="31.8198" ry="31.8198"/>
<text text-anchor="middle" x="150" y="-54.4" font-family="Times Roman,serif" font-size="14.00">FEQ</text>
</a>
</g>
<!-- E21 -->
<g id="node3" class="node"><title>E21</title>
<a xlink:href="../results/results_E21_2000.svg" xlink:title="E21">
<polygon fill="darkseagreen" stroke="darkseagreen" points="282,-76 228,-76 228,-40 282,-40 282,-76"/>
<text text-anchor="middle" x="255" y="-54.4" font-family="Times Roman,serif" font-size="14.00">E21</text>
</a>
</g>
<!-- FEQ&#45;&gt;E21 -->
<g id="edge4" class="edge"><title>FEQ&#45;&gt;E21</title>
<path fill="none" stroke="forestgreen" d="M182.074,-58C193.248,-58 205.885,-58 217.463,-58"/>
<polygon fill="forestgreen" stroke="forestgreen" points="227.725,-58 217.725,-62.5001 222.725,-58 217.725,-58.0001 217.725,-58.0001 217.725,-58.0001 222.725,-58 217.725,-53.5001 227.725,-58 227.725,-58"/>
<text text-anchor="middle" x="205" y="-60.8" font-family="Times Roman,serif" font-size="8.00"> &#160;&#160;</text>
</g>
<!-- IMPFEQ -->
<g id="node4" class="node"><title>IMPFEQ</title>
<a xlink:href="../results/results_IMPFEQ_2000.svg" xlink:title="IMPFEQ">
<polygon fill="darkseagreen" stroke="darkseagreen" points="71,-76 1,-76 1,-40 71,-40 71,-76"/>
<text text-anchor="middle" x="36" y="-54.4" font-family="Times Roman,serif" font-size="14.00">IMPFEQ</text>
</a>
</g>
<!-- IMPFEQ&#45;&gt;FEQ -->
<g id="edge6" class="edge"><title>IMPFEQ&#45;&gt;FEQ</title>
<path fill="none" stroke="forestgreen" d="M71.7575,-58C83.1714,-58 95.9113,-58 107.742,-58"/>
<polygon fill="forestgreen" stroke="forestgreen" points="117.847,-58 107.848,-62.5001 112.847,-58 107.847,-58.0001 107.847,-58.0001 107.847,-58.0001 112.847,-58 107.847,-53.5001 117.847,-58 117.847,-58"/>
<text text-anchor="middle" x="95" y="-60.8" font-family="Times Roman,serif" font-size="8.00"> &#160;&#160;</text>
</g>
</g>
</svg>
