<?xml version="1.0" encoding="UTF-8" standalone="no"?>
<!DOCTYPE svg PUBLIC "-//W3C//DTD SVG 1.1//EN"
 "http://www.w3.org/Graphics/SVG/1.1/DTD/svg11.dtd">
<!-- Generated by graphviz version 2.26.3 (20100126.1600)
 -->
<!-- Title: result_commodity_RH Pages: 1 -->
<svg width="160pt" height="124pt"
 viewBox="0.00 0.00 160.00 124.00" xmlns="http://www.w3.org/2000/svg" xmlns:xlink="http://www.w3.org/1999/xlink">
<g id="graph1" class="graph" transform="scale(1 1) rotate(0) translate(4 120)">
<title>result_commodity_RH</title>
<polygon fill="white" stroke="white" points="-4,5 -4,-120 157,-120 157,5 -4,5"/>
<text text-anchor="middle" x="76" y="-9.4" font-family="Times Roman,serif" font-size="14.00">RH &#45; 2010</text>
<!-- RH -->
<g id="node1" class="node"><title>RH</title>
<a xlink:href="../results/results2010.svg" xlink:title="RH">
<ellipse fill="lightsteelblue" stroke="lightsteelblue" cx="126" cy="-73" rx="26.163" ry="26.163"/>
<text text-anchor="middle" x="126" y="-69.4" font-family="Times Roman,serif" font-size="14.00">RH</text>
</a>
</g>
<!-- RHE -->
<g id="node3" class="node"><title>RHE</title>
<a xlink:href="../results/results_RHE_2010.svg" xlink:title="RHE">
<polygon fill="darkseagreen" stroke="darkseagreen" points="54,-116 2.13163e-14,-116 0,-80 54,-80 54,-116"/>
<text text-anchor="middle" x="27" y="-94.4" font-family="Times Roman,serif" font-size="14.00">RHE</text>
</a>
</g>
<!-- RHE&#45;&gt;RH -->
<g id="edge4" class="edge"><title>RHE&#45;&gt;RH</title>
<path fill="none" stroke="forestgreen" d="M54.0522,-91.1686C65.4128,-88.2998 78.7747,-84.9256 90.8802,-81.8686"/>
<polygon fill="forestgreen" stroke="forestgreen" points="100.682,-79.3935 92.0879,-86.205 95.8339,-80.6177 90.9861,-81.842 90.9861,-81.842 90.9861,-81.842 95.8339,-80.6177 89.8843,-77.4789 100.682,-79.3935 100.682,-79.3935"/>
<text text-anchor="middle" x="77" y="-88.8" font-family="Times Roman,serif" font-size="8.00"> &#160;&#160;</text>
</g>
<!-- RHO -->
<g id="node4" class="node"><title>RHO</title>
<a xlink:href="../results/results_RHO_2010.svg" xlink:title="RHO">
<polygon fill="darkseagreen" stroke="darkseagreen" points="54,-62 2.13163e-14,-62 0,-26 54,-26 54,-62"/>
<text text-anchor="middle" x="27" y="-40.4" font-family="Times Roman,serif" font-size="14.00">RHO</text>
</a>
</g>
<!-- RHO&#45;&gt;RH -->
<g id="edge6" class="edge"><title>RHO&#45;&gt;RH</title>
<path fill="none" stroke="forestgreen" d="M54.0522,-51.9244C65.5022,-55.2784 78.9853,-59.228 91.1659,-62.7961"/>
<polygon fill="forestgreen" stroke="forestgreen" points="101.018,-65.6821 90.1563,-67.1894 96.2197,-64.2765 91.4214,-62.8708 91.4214,-62.8708 91.4214,-62.8708 96.2197,-64.2765 92.6864,-58.5523 101.018,-65.6821 101.018,-65.6821"/>
<text text-anchor="middle" x="77" y="-61.8" font-family="Times Roman,serif" font-size="8.00"> &#160;&#160;</text>
</g>
</g>
</svg>
