<?xml version="1.0" encoding="UTF-8" standalone="no"?>
<!DOCTYPE svg PUBLIC "-//W3C//DTD SVG 1.1//EN"
 "http://www.w3.org/Graphics/SVG/1.1/DTD/svg11.dtd">
<!-- Generated by graphviz version 2.26.3 (20100126.1600)
 -->
<!-- Title: result_commodity_TX Pages: 1 -->
<svg width="160pt" height="178pt"
 viewBox="0.00 0.00 160.00 178.00" xmlns="http://www.w3.org/2000/svg" xmlns:xlink="http://www.w3.org/1999/xlink">
<g id="graph1" class="graph" transform="scale(1 1) rotate(0) translate(4 174)">
<title>result_commodity_TX</title>
<polygon fill="white" stroke="white" points="-4,5 -4,-174 157,-174 157,5 -4,5"/>
<text text-anchor="middle" x="76" y="-9.4" font-family="Times Roman,serif" font-size="14.00">TX &#45; 2000</text>
<!-- TX -->
<g id="node1" class="node"><title>TX</title>
<a xlink:href="../results/results2000.svg" xlink:title="TX">
<ellipse fill="lightsteelblue" stroke="lightsteelblue" cx="126" cy="-73" rx="24.9567" ry="25.4558"/>
<text text-anchor="middle" x="126" y="-69.4" font-family="Times Roman,serif" font-size="14.00">TX</text>
</a>
</g>
<!-- TXD -->
<g id="node3" class="node"><title>TXD</title>
<a xlink:href="../results/results_TXD_2000.svg" xlink:title="TXD">
<polygon fill="darkseagreen" stroke="darkseagreen" points="54,-170 2.13163e-14,-170 0,-134 54,-134 54,-170"/>
<text text-anchor="middle" x="27" y="-148.4" font-family="Times Roman,serif" font-size="14.00">TXD</text>
</a>
</g>
<!-- TXD&#45;&gt;TX -->
<g id="edge4" class="edge"><title>TXD&#45;&gt;TX</title>
<path fill="none" stroke="forestgreen" d="M49.9614,-133.677C64.3236,-122.217 82.9177,-107.379 98.1235,-95.2449"/>
<polygon fill="forestgreen" stroke="forestgreen" points="106.174,-88.8207 101.165,-98.5754 102.266,-91.9393 98.3577,-95.058 98.3577,-95.058 98.3577,-95.058 102.266,-91.9393 95.5509,-91.5406 106.174,-88.8207 106.174,-88.8207"/>
<text text-anchor="middle" x="77" y="-116.8" font-family="Times Roman,serif" font-size="8.00"> &#160;&#160;</text>
</g>
<!-- TXG -->
<g id="node4" class="node"><title>TXG</title>
<a xlink:href="../results/results_TXG_2000.svg" xlink:title="TXG">
<polygon fill="darkseagreen" stroke="darkseagreen" points="54,-116 2.13163e-14,-116 0,-80 54,-80 54,-116"/>
<text text-anchor="middle" x="27" y="-94.4" font-family="Times Roman,serif" font-size="14.00">TXG</text>
</a>
</g>
<!-- TXG&#45;&gt;TX -->
<g id="edge6" class="edge"><title>TXG&#45;&gt;TX</title>
<path fill="none" stroke="forestgreen" d="M54.0522,-91.1686C65.5022,-88.2772 78.9853,-84.8724 91.1659,-81.7965"/>
<polygon fill="forestgreen" stroke="forestgreen" points="101.018,-79.3086 92.4243,-86.1201 96.1703,-80.5328 91.3225,-81.757 91.3225,-81.757 91.3225,-81.757 96.1703,-80.5328 90.2207,-77.394 101.018,-79.3086 101.018,-79.3086"/>
<text text-anchor="middle" x="77" y="-88.8" font-family="Times Roman,serif" font-size="8.00"> &#160;&#160;</text>
</g>
<!-- TXE -->
<g id="node5" class="node"><title>TXE</title>
<polygon fill="powderblue" stroke="powderblue" points="54,-62 2.13163e-14,-62 0,-26 54,-26 54,-62"/>
<text text-anchor="middle" x="27" y="-40.4" font-family="Times Roman,serif" font-size="14.00">TXE</text>
</g>
<!-- TXE&#45;&gt;TX -->
<g id="edge9" class="edge"><title>TXE&#45;&gt;TX</title>
<path fill="none" stroke="powderblue" d="M54.0522,-51.9244C65.5917,-55.3046 79.1961,-59.2898 91.4512,-62.8796"/>
<polygon fill="powderblue" stroke="powderblue" points="101.353,-65.7802 90.4913,-67.2875 96.5548,-64.3746 91.7564,-62.969 91.7564,-62.969 91.7564,-62.969 96.5548,-64.3746 93.0215,-58.6504 101.353,-65.7802 101.353,-65.7802"/>
<text text-anchor="middle" x="77" y="-61.8" font-family="Times Roman,serif" font-size="8.00"> &#160;&#160;</text>
</g>
</g>
</svg>
