<?xml version="1.0" encoding="UTF-8" standalone="no"?>
<!DOCTYPE svg PUBLIC "-//W3C//DTD SVG 1.1//EN"
 "http://www.w3.org/Graphics/SVG/1.1/DTD/svg11.dtd">
<!-- Generated by graphviz version 2.26.3 (20100126.1600)
 -->
<!-- Title: result_commodity_URN Pages: 1 -->
<svg width="302pt" height="100pt"
 viewBox="0.00 0.00 302.00 100.00" xmlns="http://www.w3.org/2000/svg" xmlns:xlink="http://www.w3.org/1999/xlink">
<g id="graph1" class="graph" transform="scale(1 1) rotate(0) translate(4 96)">
<title>result_commodity_URN</title>
<polygon fill="white" stroke="white" points="-4,5 -4,-96 299,-96 299,5 -4,5"/>
<text text-anchor="middle" x="147" y="-9.4" font-family="Times Roman,serif" font-size="14.00">URN &#45; 1990</text>
<!-- URN -->
<g id="node1" class="node"><title>URN</title>
<a xlink:href="../results/results1990.svg" xlink:title="URN">
<ellipse fill="lightsteelblue" stroke="lightsteelblue" cx="161" cy="-59" rx="33.234" ry="33.234"/>
<text text-anchor="middle" x="161" y="-55.4" font-family="Times Roman,serif" font-size="14.00">URN</text>
</a>
</g>
<!-- E21 -->
<g id="node3" class="node"><title>E21</title>
<a xlink:href="../results/results_E21_1990.svg" xlink:title="E21">
<polygon fill="darkseagreen" stroke="darkseagreen" points="294,-77 240,-77 240,-41 294,-41 294,-77"/>
<text text-anchor="middle" x="267" y="-55.4" font-family="Times Roman,serif" font-size="14.00">E21</text>
</a>
</g>
<!-- URN&#45;&gt;E21 -->
<g id="edge4" class="edge"><title>URN&#45;&gt;E21</title>
<path fill="none" stroke="forestgreen" d="M194.248,-59C205.498,-59 218.133,-59 229.677,-59"/>
<polygon fill="forestgreen" stroke="forestgreen" points="239.901,-59 229.901,-63.5001 234.901,-59 229.901,-59.0001 229.901,-59.0001 229.901,-59.0001 234.901,-59 229.901,-54.5001 239.901,-59 239.901,-59"/>
<text text-anchor="middle" x="217" y="-61.8" font-family="Times Roman,serif" font-size="8.00"> &#160;&#160;</text>
</g>
<!-- IMPURN1 -->
<g id="node4" class="node"><title>IMPURN1</title>
<polygon fill="powderblue" stroke="powderblue" points="82,-77 4.26326e-14,-77 0,-41 82,-41 82,-77"/>
<text text-anchor="middle" x="41" y="-55.4" font-family="Times Roman,serif" font-size="14.00">IMPURN1</text>
</g>
<!-- IMPURN1&#45;&gt;URN -->
<g id="edge7" class="edge"><title>IMPURN1&#45;&gt;URN</title>
<path fill="none" stroke="powderblue" d="M82.2972,-59C93.7166,-59 106.14,-59 117.672,-59"/>
<polygon fill="powderblue" stroke="powderblue" points="127.956,-59 117.956,-63.5001 122.956,-59 117.956,-59.0001 117.956,-59.0001 117.956,-59.0001 122.956,-59 117.956,-54.5001 127.956,-59 127.956,-59"/>
<text text-anchor="middle" x="105" y="-61.8" font-family="Times Roman,serif" font-size="8.00"> &#160;&#160;</text>
</g>
</g>
</svg>
