<?xml version="1.0" encoding="UTF-8" standalone="no"?>
<!-- Created with Inkscape (http://www.inkscape.org/) -->
<svg xmlns:rdf="http://www.w3.org/1999/02/22-rdf-syntax-ns#" xmlns="http://www.w3.org/2000/svg" height="48px" width="48px" version="1.1" xmlns:cc="http://creativecommons.org/ns#" xmlns:xlink="http://www.w3.org/1999/xlink" xmlns:dc="http://purl.org/dc/elements/1.1/">
	<defs>
		<linearGradient id="lg1" y2="48.548" gradientUnits="userSpaceOnUse" x2="45.9187" gradientTransform="translate(-18.01785,-13.57119)" y1="36.423" x1="34.8928">
			<stop stop-color="#729fcf" offset="0"/>
			<stop stop-color="#5187d6" offset="1"/>
		</linearGradient>
		<linearGradient id="lg2" y2="34.9768" gradientUnits="userSpaceOnUse" x2="27.9008" y1="22.8518" x1="16.875">
			<stop stop-color="#FFF" offset="0"/>
			<stop stop-color="#FFF" stop-opacity="0.34020618" offset="1"/>
		</linearGradient>
		<radialGradient id="rg1" gradientUnits="userSpaceOnUse" cy="35.1274" cx="23.0707" gradientTransform="matrix(0.914812,1.265023e-2,-8.21502e-3,0.213562,2.253914,27.18889)" r="10.3193">
			<stop stop-color="#000" offset="0"/>
			<stop stop-color="#000" stop-opacity="0" offset="1"/>
		</radialGradient>
	</defs>
	<metadata>
		<rdf:RDF>
			<cc:Work rdf:about="">
				<dc:format>image/svg+xml</dc:format>
				<dc:type rdf:resource="http://purl.org/dc/dcmitype/StillImage"/>
				<dc:title/>
				<dc:date>2006-01-04</dc:date>
				<dc:creator>
					<cc:Agent>
						<dc:title>Andreas Nilsson</dc:title>
					</cc:Agent>
				</dc:creator>
				<dc:source>http://tango-project.org</dc:source>
				<dc:subject>
					<rdf:Bag>
						<rdf:li>add</rdf:li>
						<rdf:li>plus</rdf:li>
					</rdf:Bag>
				</dc:subject>
				<cc:license rdf:resource="http://creativecommons.org/licenses/publicdomain/"/>
			</cc:Work>
			<cc:License rdf:about="http://creativecommons.org/licenses/publicdomain/">
				<cc:permits rdf:resource="http://creativecommons.org/ns#Reproduction"/>
				<cc:permits rdf:resource="http://creativecommons.org/ns#Distribution"/>
				<cc:permits rdf:resource="http://creativecommons.org/ns#DerivativeWorks"/>
			</cc:License>
		</rdf:RDF>
	</metadata>
	<path opacity="0.10824742" d="M33.2782,34.9406a10.3193,2.32019,0,1,1,-20.6387,0,10.3193,2.32019,0,1,1,20.6387,0z" transform="matrix(1.550487,0,0,1.978714,-12.4813,-32.49103)" fill="url(#rg1)"/>
	<path stroke-linejoin="miter" style="text-align:start;" d="M27.5144,37.5427v-9.027l9.9784-0.0402v-6.9953h-9.9695l-0.0089-9.9602-7.0163,0.0112,0.0044,9.9312-9.9896,0.0736-0.0357,6.9686,10.0343-0.0291,0.0067,9.0404,6.9962,0.0268z" stroke="#3465a4" stroke-linecap="butt" stroke-width="1.0000004px" fill="#75a1d0"/>
	<path opacity="0.40860215" stroke-linejoin="miter" style="text-align:start;" d="M26.4987,36.5339v-9.0342h10.0026l-0.0067-5.0244h-9.987v-9.995l-4.9948,0.0179,0.0089,9.9771-10.0262,0.0179-0.0267,4.9731,10.0643,0.0089-0.0133,9.0275,4.9789,0.0312z" stroke="url(#lg2)" stroke-linecap="butt" stroke-width="1.0000006px" fill="url(#lg1)"/>
	<path opacity="0.31182796" d="M11,25c0,1.9375,25.9844-0.9688,25.9844-0.0312v-3l-9.9844,0.0312v-9.9652h-6v9.9652h-10v3z" fill-rule="evenodd" fill="#FFF"/>
</svg>
