<?xml version="1.0" encoding="UTF-8" standalone="no"?>
<!-- Created with Inkscape (http://www.inkscape.org/) -->
<svg xmlns:rdf="http://www.w3.org/1999/02/22-rdf-syntax-ns#" xmlns="http://www.w3.org/2000/svg" height="27" width="28.0312" version="1.1" xmlns:cc="http://creativecommons.org/ns#" xmlns:dc="http://purl.org/dc/elements/1.1/">
	<defs>
		<linearGradient id="lg1" x1="34.8928" gradientUnits="userSpaceOnUse" y1="36.423" gradientTransform="translate(-27.9866,-24.602404)" x2="45.9187" y2="48.548">
			<stop stop-color="#729fcf" offset="0"/>
			<stop stop-color="#5187d6" offset="1"/>
		</linearGradient>
		<linearGradient id="lg2" y2="34.9768" gradientUnits="userSpaceOnUse" y1="22.8518" gradientTransform="translate(-9.96875,-11.031204)" x2="27.9008" x1="16.875">
			<stop stop-color="#FFF" offset="0"/>
			<stop stop-color="#FFF" stop-opacity="0.34020618" offset="1"/>
		</linearGradient>
	</defs>
	<metadata>
		<rdf:RDF>
			<cc:Work rdf:about="">
				<dc:format>image/svg+xml</dc:format>
				<dc:type rdf:resource="http://purl.org/dc/dcmitype/StillImage"/>
				<dc:title/>
				<dc:date>2006-01-04</dc:date>
				<dc:creator>
					<cc:Agent>
						<dc:title>Andreas Nilsson</dc:title>
					</cc:Agent>
				</dc:creator>
				<dc:source>http://tango-project.org</dc:source>
				<dc:subject>
					<rdf:Bag>
						<rdf:li>add</rdf:li>
						<rdf:li>plus</rdf:li>
					</rdf:Bag>
				</dc:subject>
				<cc:license rdf:resource="http://creativecommons.org/licenses/publicdomain/"/>
			</cc:Work>
			<cc:License rdf:about="http://creativecommons.org/licenses/publicdomain/">
				<cc:permits rdf:resource="http://creativecommons.org/ns#Reproduction"/>
				<cc:permits rdf:resource="http://creativecommons.org/ns#Distribution"/>
				<cc:permits rdf:resource="http://creativecommons.org/ns#DerivativeWorks"/>
			</cc:License>
		</rdf:RDF>
	</metadata>
	<path stroke-linejoin="miter" style="text-align:start;" d="m17.5456,26.5115v-9.027l9.9784-0.04v-6.9953h-9.9695l-0.0089-9.9602-7.0163,0.011,0.0044,9.9312-9.9896,0.074-0.0357,6.9686,10.0343-0.029,0.0067,9.0404,6.9962,0.027z" stroke="#3465a4" stroke-linecap="butt" stroke-width="1.00000036px" fill="#75a1d0"/>
	<path opacity="0.40860219" stroke-linejoin="miter" style="text-align:start;" d="m16.53,25.5027v-9.0342h10.0026l-0.0067-5.0244h-9.987v-9.995l-4.9948,0.018,0.0089,9.9771-10.0262,0.018-0.0267,4.9731,10.0643,0.01-0.0133,9.0275,4.9789,0.031z" stroke="url(#lg2)" stroke-linecap="butt" stroke-width="1.0000006px" fill="url(#lg1)"/>
	<path opacity="0.31182796" d="m1.03125,13.9688c0,1.9375,25.9844-0.9688,25.9844-0.031v-3l-9.9844,0.031v-9.9652h-6v9.9652h-10v3z" fill-rule="evenodd" fill="#FFF"/>
</svg>
