<?xml version="1.0" encoding="UTF-8" standalone="no"?>
<!DOCTYPE svg PUBLIC "-//W3C//DTD SVG 1.1//EN"
 "http://www.w3.org/Graphics/SVG/1.1/DTD/svg11.dtd">
<!-- Generated by graphviz version 2.26.3 (20100126.1600)
 -->
<!-- Title: model Pages: 1 -->
<svg width="892pt" height="485pt"
 viewBox="0.00 0.00 892.00 485.00" xmlns="http://www.w3.org/2000/svg" xmlns:xlink="http://www.w3.org/1999/xlink">
<g id="graph1" class="graph" transform="scale(1 1) rotate(0) translate(4 481)">
<title>model</title>
<polygon fill="white" stroke="white" points="-4,5 -4,-481 889,-481 889,5 -4,5"/>
<!-- E01 -->
<g id="node2" class="node"><title>E01</title>
<a xlink:href="processes/process_E01.svg" xlink:title="E01">
<polygon fill="darkseagreen" stroke="darkseagreen" points="513,-232 459,-232 459,-196 513,-196 513,-232"/>
<text text-anchor="middle" x="486" y="-210.4" font-family="Times Roman,serif" font-size="14.00">E01</text>
</a>
</g>
<!-- ELC -->
<g id="node23" class="node"><title>ELC</title>
<a xlink:href="commodities/commodity_ELC.svg" xlink:title="ELC">
<ellipse fill="lightsteelblue" stroke="lightsteelblue" cx="675" cy="-275" rx="31.1127" ry="31.1127"/>
<text text-anchor="middle" x="675" y="-271.4" font-family="Times Roman,serif" font-size="14.00">ELC</text>
</a>
</g>
<!-- E01&#45;&gt;ELC -->
<g id="edge46" class="edge"><title>E01&#45;&gt;ELC</title>
<path fill="none" stroke="forestgreen" d="M513.079,-222.74C545.174,-233.098 598.918,-250.444 635.615,-262.289"/>
<polygon fill="forestgreen" stroke="forestgreen" points="645.482,-265.473 634.583,-266.684 640.723,-263.937 635.965,-262.401 635.965,-262.401 635.965,-262.401 640.723,-263.937 637.347,-258.119 645.482,-265.473 645.482,-265.473"/>
</g>
<!-- E21 -->
<g id="node3" class="node"><title>E21</title>
<a xlink:href="processes/process_E21.svg" xlink:title="E21">
<polygon fill="darkseagreen" stroke="darkseagreen" points="405,-295 351,-295 351,-259 405,-259 405,-295"/>
<text text-anchor="middle" x="378" y="-273.4" font-family="Times Roman,serif" font-size="14.00">E21</text>
</a>
</g>
<!-- E21&#45;&gt;ELC -->
<g id="edge48" class="edge"><title>E21&#45;&gt;ELC</title>
<path fill="none" stroke="forestgreen" d="M405.144,-276.817C457.261,-276.466 571.638,-275.696 633.429,-275.28"/>
<polygon fill="forestgreen" stroke="forestgreen" points="643.603,-275.211 633.633,-279.779 638.603,-275.245 633.603,-275.279 633.603,-275.279 633.603,-275.279 638.603,-275.245 633.573,-270.779 643.603,-275.211 643.603,-275.211"/>
</g>
<!-- E31 -->
<g id="node4" class="node"><title>E31</title>
<a xlink:href="processes/process_E31.svg" xlink:title="E31">
<polygon fill="darkseagreen" stroke="darkseagreen" points="608,-401 554,-401 554,-365 608,-365 608,-401"/>
<text text-anchor="middle" x="581" y="-379.4" font-family="Times Roman,serif" font-size="14.00">E31</text>
</a>
</g>
<!-- E31&#45;&gt;ELC -->
<g id="edge50" class="edge"><title>E31&#45;&gt;ELC</title>
<path fill="none" stroke="forestgreen" d="M596.946,-364.679C610.787,-348.776 631.133,-325.401 647.582,-306.502"/>
<polygon fill="forestgreen" stroke="forestgreen" points="654.362,-298.711 651.191,-309.209 651.08,-302.483 647.797,-306.255 647.797,-306.255 647.797,-306.255 651.08,-302.483 644.403,-303.3 654.362,-298.711 654.362,-298.711"/>
</g>
<!-- E51 -->
<g id="node5" class="node"><title>E51</title>
<a xlink:href="processes/process_E51.svg" xlink:title="E51">
<polygon fill="darkseagreen" stroke="darkseagreen" points="796,-347 742,-347 742,-311 796,-311 796,-347"/>
<text text-anchor="middle" x="769" y="-325.4" font-family="Times Roman,serif" font-size="14.00">E51</text>
</a>
</g>
<!-- E51&#45;&gt;ELC -->
<g id="edge52" class="edge"><title>E51&#45;&gt;ELC</title>
<path fill="none" stroke="forestgreen" d="M741.89,-319.607C731.257,-314.144 718.958,-307.175 707.828,-300.328"/>
<polygon fill="forestgreen" stroke="forestgreen" points="699.207,-294.895 710.067,-296.42 703.437,-297.561 707.667,-300.227 707.667,-300.227 707.667,-300.227 703.437,-297.561 705.268,-304.034 699.207,-294.895 699.207,-294.895"/>
</g>
<!-- E70 -->
<g id="node6" class="node"><title>E70</title>
<a xlink:href="processes/process_E70.svg" xlink:title="E70">
<polygon fill="darkseagreen" stroke="darkseagreen" points="608,-198 554,-198 554,-162 608,-162 608,-198"/>
<text text-anchor="middle" x="581" y="-176.4" font-family="Times Roman,serif" font-size="14.00">E70</text>
</a>
</g>
<!-- E70&#45;&gt;ELC -->
<g id="edge54" class="edge"><title>E70&#45;&gt;ELC</title>
<path fill="none" stroke="forestgreen" d="M599.124,-198.317C612.328,-211.662 630.497,-230.024 645.745,-245.434"/>
<polygon fill="forestgreen" stroke="forestgreen" points="652.961,-252.727 642.729,-248.783 649.444,-249.173 645.928,-245.618 645.928,-245.618 645.928,-245.618 649.444,-249.173 649.126,-242.453 652.961,-252.727 652.961,-252.727"/>
</g>
<!-- IMPDSL1 -->
<g id="node7" class="node"><title>IMPDSL1</title>
<a xlink:href="processes/process_IMPDSL1.svg" xlink:title="IMPDSL1">
<polygon fill="darkseagreen" stroke="darkseagreen" points="418,-149 338,-149 338,-113 418,-113 418,-149"/>
<text text-anchor="middle" x="378" y="-127.4" font-family="Times Roman,serif" font-size="14.00">IMPDSL1</text>
</a>
</g>
<!-- DSL -->
<g id="node22" class="node"><title>DSL</title>
<a xlink:href="commodities/commodity_DSL.svg" xlink:title="DSL">
<ellipse fill="lightsteelblue" stroke="lightsteelblue" cx="486" cy="-131" rx="31.8198" ry="31.8198"/>
<text text-anchor="middle" x="486" y="-127.4" font-family="Times Roman,serif" font-size="14.00">DSL</text>
</a>
</g>
<!-- IMPDSL1&#45;&gt;DSL -->
<g id="edge56" class="edge"><title>IMPDSL1&#45;&gt;DSL</title>
<path fill="none" stroke="forestgreen" d="M418.215,-131C426.572,-131 435.401,-131 443.826,-131"/>
<polygon fill="forestgreen" stroke="forestgreen" points="453.843,-131 443.843,-135.5 448.843,-131 443.843,-131 443.843,-131 443.843,-131 448.843,-131 443.843,-126.5 453.843,-131 453.843,-131"/>
</g>
<!-- IMPFEQ -->
<g id="node8" class="node"><title>IMPFEQ</title>
<a xlink:href="processes/process_IMPFEQ.svg" xlink:title="IMPFEQ">
<polygon fill="darkseagreen" stroke="darkseagreen" points="191,-280 121,-280 121,-244 191,-244 191,-280"/>
<text text-anchor="middle" x="156" y="-258.4" font-family="Times Roman,serif" font-size="14.00">IMPFEQ</text>
</a>
</g>
<!-- FEQ -->
<g id="node24" class="node"><title>FEQ</title>
<a xlink:href="commodities/commodity_FEQ.svg" xlink:title="FEQ">
<ellipse fill="lightsteelblue" stroke="lightsteelblue" cx="268" cy="-277" rx="31.8198" ry="31.8198"/>
<text text-anchor="middle" x="268" y="-273.4" font-family="Times Roman,serif" font-size="14.00">FEQ</text>
</a>
</g>
<!-- IMPFEQ&#45;&gt;FEQ -->
<g id="edge58" class="edge"><title>IMPFEQ&#45;&gt;FEQ</title>
<path fill="none" stroke="forestgreen" d="M191.745,-266.787C202.627,-268.245 214.687,-269.86 225.944,-271.368"/>
<polygon fill="forestgreen" stroke="forestgreen" points="236,-272.714 225.491,-275.847 231.044,-272.051 226.089,-271.387 226.089,-271.387 226.089,-271.387 231.044,-272.051 226.686,-266.927 236,-272.714 236,-272.714"/>
</g>
<!-- IMPGSL1 -->
<g id="node9" class="node"><title>IMPGSL1</title>
<a xlink:href="processes/process_IMPGSL1.svg" xlink:title="IMPGSL1">
<polygon fill="darkseagreen" stroke="darkseagreen" points="418,-36 338,-36 338,-1.77636e-14 418,-3.55271e-15 418,-36"/>
<text text-anchor="middle" x="378" y="-14.4" font-family="Times Roman,serif" font-size="14.00">IMPGSL1</text>
</a>
</g>
<!-- GSL -->
<g id="node25" class="node"><title>GSL</title>
<a xlink:href="commodities/commodity_GSL.svg" xlink:title="GSL">
<ellipse fill="lightsteelblue" stroke="lightsteelblue" cx="486" cy="-33" rx="31.8198" ry="31.8198"/>
<text text-anchor="middle" x="486" y="-29.4" font-family="Times Roman,serif" font-size="14.00">GSL</text>
</a>
</g>
<!-- IMPGSL1&#45;&gt;GSL -->
<g id="edge60" class="edge"><title>IMPGSL1&#45;&gt;GSL</title>
<path fill="none" stroke="forestgreen" d="M418.215,-23.5854C426.657,-24.758 435.581,-25.9974 444.084,-27.1783"/>
<polygon fill="forestgreen" stroke="forestgreen" points="454.185,-28.5813 443.661,-31.6627 449.233,-27.8934 444.28,-27.2055 444.28,-27.2055 444.28,-27.2055 449.233,-27.8934 444.899,-22.7483 454.185,-28.5813 454.185,-28.5813"/>
</g>
<!-- IMPHCO1 -->
<g id="node10" class="node"><title>IMPHCO1</title>
<a xlink:href="processes/process_IMPHCO1.svg" xlink:title="IMPHCO1">
<polygon fill="darkseagreen" stroke="darkseagreen" points="197,-211 115,-211 115,-175 197,-175 197,-211"/>
<text text-anchor="middle" x="156" y="-189.4" font-family="Times Roman,serif" font-size="14.00">IMPHCO1</text>
</a>
</g>
<!-- HCO -->
<g id="node26" class="node"><title>HCO</title>
<a xlink:href="commodities/commodity_HCO.svg" xlink:title="HCO">
<ellipse fill="lightsteelblue" stroke="lightsteelblue" cx="268" cy="-193" rx="33.9411" ry="33.9411"/>
<text text-anchor="middle" x="268" y="-189.4" font-family="Times Roman,serif" font-size="14.00">HCO</text>
</a>
</g>
<!-- IMPHCO1&#45;&gt;HCO -->
<g id="edge62" class="edge"><title>IMPHCO1&#45;&gt;HCO</title>
<path fill="none" stroke="forestgreen" d="M197.705,-193C206.194,-193 215.153,-193 223.728,-193"/>
<polygon fill="forestgreen" stroke="forestgreen" points="233.94,-193 223.94,-197.5 228.94,-193 223.94,-193 223.94,-193 223.94,-193 228.94,-193 223.94,-188.5 233.94,-193 233.94,-193"/>
</g>
<!-- IMPHYD -->
<g id="node11" class="node"><title>IMPHYD</title>
<a xlink:href="processes/process_IMPHYD.svg" xlink:title="IMPHYD">
<polygon fill="darkseagreen" stroke="darkseagreen" points="192,-436 120,-436 120,-400 192,-400 192,-436"/>
<text text-anchor="middle" x="156" y="-414.4" font-family="Times Roman,serif" font-size="14.00">IMPHYD</text>
</a>
</g>
<!-- HYD -->
<g id="node27" class="node"><title>HYD</title>
<a xlink:href="commodities/commodity_HYD.svg" xlink:title="HYD">
<ellipse fill="lightsteelblue" stroke="lightsteelblue" cx="268" cy="-444" rx="33.234" ry="33.234"/>
<text text-anchor="middle" x="268" y="-440.4" font-family="Times Roman,serif" font-size="14.00">HYD</text>
</a>
</g>
<!-- IMPHYD&#45;&gt;HYD -->
<g id="edge64" class="edge"><title>IMPHYD&#45;&gt;HYD</title>
<path fill="none" stroke="forestgreen" d="M192.673,-426.513C203.321,-428.985 215.032,-431.704 225.981,-434.246"/>
<polygon fill="forestgreen" stroke="forestgreen" points="235.769,-436.518 225.011,-438.64 230.899,-435.387 226.028,-434.256 226.028,-434.256 226.028,-434.256 230.899,-435.387 227.046,-429.873 235.769,-436.518 235.769,-436.518"/>
</g>
<!-- IMPOIL1 -->
<g id="node12" class="node"><title>IMPOIL1</title>
<a xlink:href="processes/process_IMPOIL1.svg" xlink:title="IMPOIL1">
<polygon fill="darkseagreen" stroke="darkseagreen" points="193,-98 119,-98 119,-62 193,-62 193,-98"/>
<text text-anchor="middle" x="156" y="-76.4" font-family="Times Roman,serif" font-size="14.00">IMPOIL1</text>
</a>
</g>
<!-- OIL -->
<g id="node28" class="node"><title>OIL</title>
<a xlink:href="commodities/commodity_OIL.svg" xlink:title="OIL">
<ellipse fill="lightsteelblue" stroke="lightsteelblue" cx="268" cy="-74" rx="28.9914" ry="28.9914"/>
<text text-anchor="middle" x="268" y="-70.4" font-family="Times Roman,serif" font-size="14.00">OIL</text>
</a>
</g>
<!-- IMPOIL1&#45;&gt;OIL -->
<g id="edge66" class="edge"><title>IMPOIL1&#45;&gt;OIL</title>
<path fill="none" stroke="forestgreen" d="M193.606,-77.9854C204.894,-77.3807 217.303,-76.7159 228.698,-76.1055"/>
<polygon fill="forestgreen" stroke="forestgreen" points="238.816,-75.5635 229.071,-80.5921 233.823,-75.831 228.83,-76.0985 228.83,-76.0985 228.83,-76.0985 233.823,-75.831 228.589,-71.6049 238.816,-75.5635 238.816,-75.5635"/>
</g>
<!-- IMPURN1 -->
<g id="node13" class="node"><title>IMPURN1</title>
<a xlink:href="processes/process_IMPURN1.svg" xlink:title="IMPURN1">
<polygon fill="darkseagreen" stroke="darkseagreen" points="197,-356 115,-356 115,-320 197,-320 197,-356"/>
<text text-anchor="middle" x="156" y="-334.4" font-family="Times Roman,serif" font-size="14.00">IMPURN1</text>
</a>
</g>
<!-- URN -->
<g id="node32" class="node"><title>URN</title>
<a xlink:href="commodities/commodity_URN.svg" xlink:title="URN">
<ellipse fill="lightsteelblue" stroke="lightsteelblue" cx="268" cy="-360" rx="33.234" ry="33.234"/>
<text text-anchor="middle" x="268" y="-356.4" font-family="Times Roman,serif" font-size="14.00">URN</text>
</a>
</g>
<!-- IMPURN1&#45;&gt;URN -->
<g id="edge68" class="edge"><title>IMPURN1&#45;&gt;URN</title>
<path fill="none" stroke="forestgreen" d="M197.069,-346.067C206.33,-347.886 216.179,-349.821 225.498,-351.651"/>
<polygon fill="forestgreen" stroke="forestgreen" points="235.349,-353.586 224.669,-356.074 230.442,-352.623 225.536,-351.659 225.536,-351.659 225.536,-351.659 230.442,-352.623 226.404,-347.243 235.349,-353.586 235.349,-353.586"/>
</g>
<!-- RHE -->
<g id="node14" class="node"><title>RHE</title>
<a xlink:href="processes/process_RHE.svg" xlink:title="RHE">
<polygon fill="darkseagreen" stroke="darkseagreen" points="796,-239 742,-239 742,-203 796,-203 796,-239"/>
<text text-anchor="middle" x="769" y="-217.4" font-family="Times Roman,serif" font-size="14.00">RHE</text>
</a>
</g>
<!-- RH -->
<g id="node29" class="node"><title>RH</title>
<a xlink:href="commodities/commodity_RH.svg" xlink:title="RH">
<ellipse fill="lightsteelblue" stroke="lightsteelblue" cx="858" cy="-175" rx="26.163" ry="26.163"/>
<text text-anchor="middle" x="858" y="-171.4" font-family="Times Roman,serif" font-size="14.00">RH</text>
</a>
</g>
<!-- RHE&#45;&gt;RH -->
<g id="edge70" class="edge"><title>RHE&#45;&gt;RH</title>
<path fill="none" stroke="forestgreen" d="M796.187,-206.949C805.561,-202.103 816.151,-196.63 825.882,-191.6"/>
<polygon fill="forestgreen" stroke="forestgreen" points="834.881,-186.949 828.064,-195.538 830.439,-189.245 825.998,-191.541 825.998,-191.541 825.998,-191.541 830.439,-189.245 823.931,-187.543 834.881,-186.949 834.881,-186.949"/>
</g>
<!-- RHO -->
<g id="node15" class="node"><title>RHO</title>
<a xlink:href="processes/process_RHO.svg" xlink:title="RHO">
<polygon fill="darkseagreen" stroke="darkseagreen" points="702,-151 648,-151 648,-115 702,-115 702,-151"/>
<text text-anchor="middle" x="675" y="-129.4" font-family="Times Roman,serif" font-size="14.00">RHO</text>
</a>
</g>
<!-- RHO&#45;&gt;RH -->
<g id="edge72" class="edge"><title>RHO&#45;&gt;RH</title>
<path fill="none" stroke="forestgreen" d="M702.029,-131.114C726.951,-130.177 764.708,-130.803 796,-140 807.077,-143.256 818.325,-148.795 828.144,-154.518"/>
<polygon fill="forestgreen" stroke="forestgreen" points="836.714,-159.766 825.836,-158.381 832.45,-157.155 828.186,-154.544 828.186,-154.544 828.186,-154.544 832.45,-157.155 830.536,-150.706 836.714,-159.766 836.714,-159.766"/>
</g>
<!-- RL1 -->
<g id="node16" class="node"><title>RL1</title>
<a xlink:href="processes/process_RL1.svg" xlink:title="RL1">
<polygon fill="darkseagreen" stroke="darkseagreen" points="796,-293 742,-293 742,-257 796,-257 796,-293"/>
<text text-anchor="middle" x="769" y="-271.4" font-family="Times Roman,serif" font-size="14.00">RL1</text>
</a>
</g>
<!-- RL -->
<g id="node30" class="node"><title>RL</title>
<a xlink:href="commodities/commodity_RL.svg" xlink:title="RL">
<ellipse fill="lightsteelblue" stroke="lightsteelblue" cx="858" cy="-275" rx="24.2437" ry="24.7487"/>
<text text-anchor="middle" x="858" y="-271.4" font-family="Times Roman,serif" font-size="14.00">RL</text>
</a>
</g>
<!-- RL1&#45;&gt;RL -->
<g id="edge74" class="edge"><title>RL1&#45;&gt;RL</title>
<path fill="none" stroke="forestgreen" d="M796.187,-275C804.711,-275 814.239,-275 823.213,-275"/>
<polygon fill="forestgreen" stroke="forestgreen" points="833.401,-275 823.401,-279.5 828.401,-275 823.401,-275 823.401,-275 823.401,-275 828.401,-275 823.4,-270.5 833.401,-275 833.401,-275"/>
</g>
<!-- SRE -->
<g id="node17" class="node"><title>SRE</title>
<a xlink:href="processes/process_SRE.svg" xlink:title="SRE">
<polygon fill="darkseagreen" stroke="darkseagreen" points="405,-92 351,-92 351,-56 405,-56 405,-92"/>
<text text-anchor="middle" x="378" y="-70.4" font-family="Times Roman,serif" font-size="14.00">SRE</text>
</a>
</g>
<!-- SRE&#45;&gt;DSL -->
<g id="edge76" class="edge"><title>SRE&#45;&gt;DSL</title>
<path fill="none" stroke="forestgreen" d="M405.253,-88.3835C418.376,-95.3093 434.317,-103.723 448.558,-111.239"/>
<polygon fill="forestgreen" stroke="forestgreen" points="457.624,-116.024 446.68,-115.336 453.202,-113.69 448.78,-111.356 448.78,-111.356 448.78,-111.356 453.202,-113.69 450.881,-107.377 457.624,-116.024 457.624,-116.024"/>
</g>
<!-- SRE&#45;&gt;GSL -->
<g id="edge78" class="edge"><title>SRE&#45;&gt;GSL</title>
<path fill="none" stroke="forestgreen" d="M405.253,-63.654C417.623,-58.958 432.498,-53.3111 446.092,-48.1504"/>
<polygon fill="forestgreen" stroke="forestgreen" points="455.709,-44.4992 447.958,-52.2554 451.035,-46.2738 446.36,-48.0484 446.36,-48.0484 446.36,-48.0484 451.035,-46.2738 444.763,-43.8413 455.709,-44.4992 455.709,-44.4992"/>
</g>
<!-- TXD -->
<g id="node18" class="node"><title>TXD</title>
<a xlink:href="processes/process_TXD.svg" xlink:title="TXD">
<polygon fill="darkseagreen" stroke="darkseagreen" points="702,-97 648,-97 648,-61 702,-61 702,-97"/>
<text text-anchor="middle" x="675" y="-75.4" font-family="Times Roman,serif" font-size="14.00">TXD</text>
</a>
</g>
<!-- TX -->
<g id="node31" class="node"><title>TX</title>
<a xlink:href="commodities/commodity_TX.svg" xlink:title="TX">
<ellipse fill="lightsteelblue" stroke="lightsteelblue" cx="858" cy="-79" rx="24.9567" ry="25.4558"/>
<text text-anchor="middle" x="858" y="-75.4" font-family="Times Roman,serif" font-size="14.00">TX</text>
</a>
</g>
<!-- TXD&#45;&gt;TX -->
<g id="edge80" class="edge"><title>TXD&#45;&gt;TX</title>
<path fill="none" stroke="forestgreen" d="M702.002,-79C733.808,-79 786.769,-79 822.032,-79"/>
<polygon fill="forestgreen" stroke="forestgreen" points="832.365,-79 822.365,-83.5001 827.365,-79 822.365,-79.0001 822.365,-79.0001 822.365,-79.0001 827.365,-79 822.365,-74.5001 832.365,-79 832.365,-79"/>
</g>
<!-- TXE -->
<g id="node19" class="node"><title>TXE</title>
<a xlink:href="processes/process_TXE.svg" xlink:title="TXE">
<polygon fill="darkseagreen" stroke="darkseagreen" points="796,-185 742,-185 742,-149 796,-149 796,-185"/>
<text text-anchor="middle" x="769" y="-163.4" font-family="Times Roman,serif" font-size="14.00">TXE</text>
</a>
</g>
<!-- TXE&#45;&gt;TX -->
<g id="edge82" class="edge"><title>TXE&#45;&gt;TX</title>
<path fill="none" stroke="forestgreen" d="M787.441,-148.766C800.535,-135.819 818.277,-118.277 832.693,-104.022"/>
<polygon fill="forestgreen" stroke="forestgreen" points="839.887,-96.9092 835.94,-107.14 836.332,-100.425 832.776,-103.94 832.776,-103.94 832.776,-103.94 836.332,-100.425 829.612,-100.74 839.887,-96.9092 839.887,-96.9092"/>
</g>
<!-- TXG -->
<g id="node20" class="node"><title>TXG</title>
<a xlink:href="processes/process_TXG.svg" xlink:title="TXG">
<polygon fill="darkseagreen" stroke="darkseagreen" points="608,-51 554,-51 554,-15 608,-15 608,-51"/>
<text text-anchor="middle" x="581" y="-29.4" font-family="Times Roman,serif" font-size="14.00">TXG</text>
</a>
</g>
<!-- TXG&#45;&gt;TX -->
<g id="edge84" class="edge"><title>TXG&#45;&gt;TX</title>
<path fill="none" stroke="forestgreen" d="M608.342,-36.9554C633.687,-40.6696 672.429,-46.4679 706,-52 745.979,-58.5881 791.747,-66.8109 822.525,-72.4402"/>
<polygon fill="forestgreen" stroke="forestgreen" points="832.752,-74.3163 822.104,-76.9381 827.834,-73.4141 822.916,-72.5119 822.916,-72.5119 822.916,-72.5119 827.834,-73.4141 823.728,-68.0858 832.752,-74.3163 832.752,-74.3163"/>
</g>
<!-- DSL&#45;&gt;E70 -->
<g id="edge5" class="edge"><title>DSL&#45;&gt;E70</title>
<path fill="none" stroke="firebrick" d="M514.503,-145.702C524.044,-150.623 534.808,-156.175 544.853,-161.356"/>
<polygon fill="firebrick" stroke="firebrick" points="553.821,-165.981 542.87,-165.396 549.377,-163.689 544.933,-161.397 544.933,-161.397 544.933,-161.397 549.377,-163.689 546.996,-157.398 553.821,-165.981 553.821,-165.981"/>
</g>
<!-- DSL&#45;&gt;RHO -->
<g id="edge7" class="edge"><title>DSL&#45;&gt;RHO</title>
<path fill="none" stroke="firebrick" d="M518.061,-131.339C551.18,-131.69 602.819,-132.236 637.735,-132.606"/>
<polygon fill="firebrick" stroke="firebrick" points="647.995,-132.714 637.948,-137.108 642.995,-132.661 637.995,-132.608 637.995,-132.608 637.995,-132.608 642.995,-132.661 638.043,-128.109 647.995,-132.714 647.995,-132.714"/>
</g>
<!-- DSL&#45;&gt;TXD -->
<g id="edge9" class="edge"><title>DSL&#45;&gt;TXD</title>
<path fill="none" stroke="firebrick" d="M517.21,-122.413C550.323,-113.303 602.623,-98.9132 637.84,-89.2238"/>
<polygon fill="firebrick" stroke="firebrick" points="647.735,-86.5014 639.287,-93.493 642.915,-87.8278 638.094,-89.1542 638.094,-89.1542 638.094,-89.1542 642.915,-87.8278 636.9,-84.8154 647.735,-86.5014 647.735,-86.5014"/>
</g>
<!-- ELC&#45;&gt;E51 -->
<g id="edge11" class="edge"><title>ELC&#45;&gt;E51</title>
<path fill="none" stroke="firebrick" d="M704.227,-285.489C715.284,-291.256 727.879,-298.478 739.006,-305.428"/>
<polygon fill="firebrick" stroke="firebrick" points="747.556,-310.911 736.709,-309.301 743.347,-308.212 739.138,-305.513 739.138,-305.513 739.138,-305.513 743.347,-308.212 741.567,-301.725 747.556,-310.911 747.556,-310.911"/>
</g>
<!-- ELC&#45;&gt;RHE -->
<g id="edge13" class="edge"><title>ELC&#45;&gt;RHE</title>
<path fill="none" stroke="firebrick" d="M701.937,-259.526C711.587,-253.982 722.628,-247.639 732.927,-241.723"/>
<polygon fill="firebrick" stroke="firebrick" points="741.733,-236.664 735.304,-245.547 737.398,-239.154 733.062,-241.645 733.062,-241.645 733.062,-241.645 737.398,-239.154 730.821,-237.743 741.733,-236.664 741.733,-236.664"/>
</g>
<!-- ELC&#45;&gt;RL1 -->
<g id="edge15" class="edge"><title>ELC&#45;&gt;RL1</title>
<path fill="none" stroke="firebrick" d="M706.04,-275C714.252,-275 723.201,-275 731.707,-275"/>
<polygon fill="firebrick" stroke="firebrick" points="741.784,-275 731.784,-279.5 736.784,-275 731.784,-275 731.784,-275 731.784,-275 736.784,-275 731.784,-270.5 741.784,-275 741.784,-275"/>
</g>
<!-- ELC&#45;&gt;TXE -->
<g id="edge17" class="edge"><title>ELC&#45;&gt;TXE</title>
<path fill="none" stroke="firebrick" d="M694.353,-250.393C707.431,-234.071 725.297,-212.358 742,-194 742.502,-193.448 743.012,-192.893 743.528,-192.336"/>
<polygon fill="firebrick" stroke="firebrick" points="750.461,-185.072 746.812,-195.413 747.009,-188.689 743.557,-192.306 743.557,-192.306 743.557,-192.306 747.009,-188.689 740.302,-189.198 750.461,-185.072 750.461,-185.072"/>
</g>
<!-- FEQ&#45;&gt;E21 -->
<g id="edge19" class="edge"><title>FEQ&#45;&gt;E21</title>
<path fill="none" stroke="firebrick" d="M300.112,-277C312.822,-277 327.516,-277 340.694,-277"/>
<polygon fill="firebrick" stroke="firebrick" points="350.87,-277 340.87,-281.5 345.87,-277 340.87,-277 340.87,-277 340.87,-277 345.87,-277 340.87,-272.5 350.87,-277 350.87,-277"/>
</g>
<!-- GSL&#45;&gt;TXG -->
<g id="edge21" class="edge"><title>GSL&#45;&gt;TXG</title>
<path fill="none" stroke="firebrick" d="M518.163,-33C526.429,-33 535.389,-33 543.883,-33"/>
<polygon fill="firebrick" stroke="firebrick" points="553.936,-33 543.936,-37.5001 548.936,-33 543.936,-33.0001 543.936,-33.0001 543.936,-33.0001 548.936,-33 543.936,-28.5001 553.936,-33 553.936,-33"/>
</g>
<!-- HCO&#45;&gt;E01 -->
<g id="edge23" class="edge"><title>HCO&#45;&gt;E01</title>
<path fill="none" stroke="firebrick" d="M302.062,-196.281C341.831,-200.112 407.394,-206.428 448.559,-210.393"/>
<polygon fill="firebrick" stroke="firebrick" points="458.721,-211.372 448.336,-214.893 453.744,-210.893 448.767,-210.413 448.767,-210.413 448.767,-210.413 453.744,-210.893 449.199,-205.934 458.721,-211.372 458.721,-211.372"/>
</g>
<!-- HYD&#45;&gt;E31 -->
<g id="edge25" class="edge"><title>HYD&#45;&gt;E31</title>
<path fill="none" stroke="firebrick" d="M300.611,-437.645C359.224,-426.222 482.015,-402.291 543.805,-390.249"/>
<polygon fill="firebrick" stroke="firebrick" points="553.892,-388.283 544.938,-394.613 548.984,-389.239 544.077,-390.196 544.077,-390.196 544.077,-390.196 548.984,-389.239 543.216,-385.779 553.892,-388.283 553.892,-388.283"/>
</g>
<!-- OIL&#45;&gt;SRE -->
<g id="edge27" class="edge"><title>OIL&#45;&gt;SRE</title>
<path fill="none" stroke="firebrick" d="M297.189,-74C310.608,-74 326.678,-74 340.94,-74"/>
<polygon fill="firebrick" stroke="firebrick" points="350.942,-74 340.942,-78.5001 345.942,-74 340.942,-74.0001 340.942,-74.0001 340.942,-74.0001 345.942,-74 340.942,-69.5001 350.942,-74 350.942,-74"/>
</g>
<!-- URN&#45;&gt;E21 -->
<g id="edge29" class="edge"><title>URN&#45;&gt;E21</title>
<path fill="none" stroke="firebrick" d="M294.348,-340.119C309.827,-328.439 329.508,-313.589 345.891,-301.228"/>
<polygon fill="firebrick" stroke="firebrick" points="354.118,-295.02 348.846,-304.636 350.127,-298.032 346.135,-301.043 346.135,-301.043 346.135,-301.043 350.127,-298.032 343.425,-297.451 354.118,-295.02 354.118,-295.02"/>
</g>
<!-- ethos -->
<g id="node33" class="node"><title>ethos</title>
<a xlink:href="commodities/commodity_ethos.svg" xlink:title="ethos">
<ellipse fill="lightsteelblue" stroke="lightsteelblue" cx="39" cy="-193" rx="38.8909" ry="38.8909"/>
<text text-anchor="middle" x="39" y="-189.4" font-family="Times Roman,serif" font-size="14.00">ethos</text>
</a>
</g>
<!-- ethos&#45;&gt;IMPDSL1 -->
<g id="edge31" class="edge"><title>ethos&#45;&gt;IMPDSL1</title>
<path fill="none" stroke="firebrick" d="M75.1435,-178.229C87.3187,-173.729 101.092,-169.146 114,-166 187.065,-148.193 273.86,-138.885 327.441,-134.464"/>
<polygon fill="firebrick" stroke="firebrick" points="337.7,-133.644 328.091,-138.927 332.716,-134.043 327.732,-134.441 327.732,-134.441 327.732,-134.441 332.716,-134.043 327.374,-129.955 337.7,-133.644 337.7,-133.644"/>
</g>
<!-- ethos&#45;&gt;IMPFEQ -->
<g id="edge33" class="edge"><title>ethos&#45;&gt;IMPFEQ</title>
<path fill="none" stroke="firebrick" d="M72.8412,-212.958C86.5901,-221.066 102.563,-230.486 116.814,-238.89"/>
<polygon fill="firebrick" stroke="firebrick" points="125.429,-243.971 114.53,-242.767 121.122,-241.431 116.815,-238.891 116.815,-238.891 116.815,-238.891 121.122,-241.431 119.101,-235.015 125.429,-243.971 125.429,-243.971"/>
</g>
<!-- ethos&#45;&gt;IMPGSL1 -->
<g id="edge35" class="edge"><title>ethos&#45;&gt;IMPGSL1</title>
<path fill="none" stroke="firebrick" d="M48.8587,-154.982C59.3825,-122.451 79.4176,-77.163 114,-53 177.33,-8.75067 270.465,-7.35522 327.513,-11.7223"/>
<polygon fill="firebrick" stroke="firebrick" points="337.73,-12.5957 327.383,-16.2275 332.748,-12.1698 327.766,-11.7438 327.766,-11.7438 327.766,-11.7438 332.748,-12.1698 328.149,-7.26016 337.73,-12.5957 337.73,-12.5957"/>
</g>
<!-- ethos&#45;&gt;IMPHCO1 -->
<g id="edge37" class="edge"><title>ethos&#45;&gt;IMPHCO1</title>
<path fill="none" stroke="firebrick" d="M78.2848,-193C86.5872,-193 95.4705,-193 104.156,-193"/>
<polygon fill="firebrick" stroke="firebrick" points="114.213,-193 104.213,-197.5 109.213,-193 104.213,-193 104.213,-193 104.213,-193 109.213,-193 104.213,-188.5 114.213,-193 114.213,-193"/>
</g>
<!-- ethos&#45;&gt;IMPHYD -->
<g id="edge39" class="edge"><title>ethos&#45;&gt;IMPHYD</title>
<path fill="none" stroke="firebrick" d="M51.911,-229.918C65.1481,-265.695 87.508,-320.87 114,-365 119.529,-374.21 126.471,-383.607 133.11,-391.881"/>
<polygon fill="firebrick" stroke="firebrick" points="139.584,-399.732 129.75,-394.88 136.403,-395.874 133.222,-392.017 133.222,-392.017 133.222,-392.017 136.403,-395.874 136.694,-389.154 139.584,-399.732 139.584,-399.732"/>
</g>
<!-- ethos&#45;&gt;IMPOIL1 -->
<g id="edge41" class="edge"><title>ethos&#45;&gt;IMPOIL1</title>
<path fill="none" stroke="firebrick" d="M65.972,-164.738C80.0502,-150.227 97.6971,-132.406 114,-117 118.15,-113.079 122.606,-109.009 127.011,-105.065"/>
<polygon fill="firebrick" stroke="firebrick" points="134.806,-98.1607 130.304,-108.16 131.063,-101.476 127.32,-104.791 127.32,-104.791 127.32,-104.791 131.063,-101.476 124.336,-101.423 134.806,-98.1607 134.806,-98.1607"/>
</g>
<!-- ethos&#45;&gt;IMPURN1 -->
<g id="edge43" class="edge"><title>ethos&#45;&gt;IMPURN1</title>
<path fill="none" stroke="firebrick" d="M62.9651,-224.412C77.5168,-243.3 96.5852,-267.723 114,-289 120.15,-296.513 126.948,-304.555 133.252,-311.906"/>
<polygon fill="firebrick" stroke="firebrick" points="139.844,-319.554 129.907,-314.917 136.58,-315.766 133.315,-311.979 133.315,-311.979 133.315,-311.979 136.58,-315.766 136.724,-309.041 139.844,-319.554 139.844,-319.554"/>
</g>
</g>
</svg>
